<?xml version="1.0" encoding="UTF-8"?><svg id="Layer_1" xmlns="http://www.w3.org/2000/svg" viewBox="0 0 818.98 818.98"><defs><style>.cls-1{stroke:#566777;}.cls-1,.cls-2,.cls-3,.cls-4,.cls-5,.cls-6,.cls-7,.cls-8,.cls-9,.cls-10{fill:none;}.cls-1,.cls-2,.cls-3,.cls-5,.cls-6,.cls-7,.cls-11,.cls-8,.cls-9,.cls-10{stroke-linecap:round;}.cls-1,.cls-2,.cls-4,.cls-5,.cls-6,.cls-12,.cls-7,.cls-11,.cls-8,.cls-9,.cls-10{stroke-width:4px;}.cls-1,.cls-2,.cls-5,.cls-6,.cls-7,.cls-11,.cls-8,.cls-9,.cls-10{stroke-linejoin:round;}.cls-13,.cls-14,.cls-15,.cls-16,.cls-17,.cls-18,.cls-19{stroke-width:0px;}.cls-13,.cls-12,.cls-11{fill:#f9f7f7;}.cls-2{stroke:#79a28c;}.cls-15{fill:#ccbeb4;}.cls-3{stroke-width:2px;}.cls-3,.cls-4,.cls-12{stroke-miterlimit:10;}.cls-3,.cls-12,.cls-11{stroke:#000;}.cls-16{fill:#110a0a;}.cls-17,.cls-19{fill:#110202;}.cls-18{fill:#fff;}.cls-4{stroke:#90a86d;}.cls-5{stroke:#bc6f39;}.cls-6{stroke:#ffcb79;}.cls-20,.cls-19{opacity:.1;}.cls-7{stroke:#383838;}.cls-21{opacity:.53;}.cls-8{stroke:#653c2c;}.cls-9{stroke:#e0e0e0;}.cls-10{stroke:#537ebf;}</style></defs><rect class="cls-14" x="663.18" y="728.6" width="47.81" height="56.15" rx="20.39" ry="20.39"/><rect class="cls-14" x="208.27" y="744.77" width="47.81" height="56.15" rx="20.39" ry="20.39"/><path class="cls-12" d="m770.3,395.82c-1.58-1.86-3.48-3.34-5.63-4.48,1.34-5.1,1.78-11.11,1.78-17.54,0-14.79-2.29-27.33-12.65-31.77,4.45-10.65,4.27-21.06-1.6-27.95-.88-1.04-1.87-1.96-2.95-2.77,2.65-9,1.79-17.49-3.23-23.38-1.28-1.5-2.77-2.77-4.44-3.8,2.19-1.46,4.34-3.08,6.43-4.86,18.79-16,25.74-38.68,15.54-50.66-3.26-3.83-7.88-6.09-13.26-6.89-1.51-8-5.45-14.34-11.65-17.46-9.16-4.61-21.01-1.05-31.21,8.08-3.28-1.07-6.78-1.66-10.43-1.66-13.75,0-25.56,8.29-30.73,20.14-3.77,2.12-7.09,4.95-9.78,8.32-6.62-5.55-16.98-6.44-27.99-3.09-2.69-.7-5.52-1.07-8.43-1.07-2.74,0-5.39.34-7.94.95-6.15-7.25-15.31-11.86-25.56-11.86-13.47,0-25.08,7.96-30.4,19.42-7.36-12.07-18.05-19.08-28.36-17.09-7.39,1.42-13.23,7.21-16.82,15.51-6.24-4.44-13.05-6.25-19.44-4.5-5.58,1.53-10.04,5.57-13.14,11.23-3.05-.27-6.2-.14-9.36.47-5,.96-9.53,3-13.39,5.82-6.9-5.88-14.73-8.49-22-6.49-5.79,1.59-10.38,5.88-13.5,11.89-3.52-.48-7.17-.41-10.85.3-1.7.33-3.35.78-4.94,1.35-6.13-6.75-14.97-10.99-24.81-10.99-1.36,0-2.7.09-4.02.25-4.43-6.6-10.39-10.8-17.18-11.3-11.39-.84-21.98,8.93-27.64,23.76-6.14-7.74-15.61-12.7-26.25-12.7-9.97,0-18.91,4.36-25.05,11.27-4.71-5.39-10.51-8.58-16.78-8.58-5.26,0-10.18,2.24-14.41,6.13-4.1-3.91-9.19-6.79-14.86-8.22.36-2.98.1-5.93-.88-8.74-3.58-10.26-15.7-16.04-30.53-15.96,1.25-2.78,1.87-5.7,1.75-8.71-.21-5.36-2.74-10.27-6.94-14.39,3.86-4.44,5.98-9.54,5.77-14.9-.11-2.65-.79-5.19-1.95-7.59,5.42-5.95,8.72-13.86,8.72-22.55,0-9.33-3.82-17.77-9.98-23.85,2.21-3.56,3.36-7.42,3.2-11.44-.26-6.41-3.81-12.19-9.6-16.72,1.76-4.08,2.75-8.57,2.75-13.29,0-4.08-.73-7.98-2.06-11.59,2.81-3.93,4.31-8.28,4.13-12.82-.63-15.73-21.12-27.68-45.78-26.69-3.91.16-7.69.63-11.28,1.38-5.18-1.11-10.8-1.61-16.67-1.38-24.65.98-44.13,14.53-43.5,30.26.02.57.08,1.14.15,1.7-9.42,5.93-15.69,16.41-15.69,28.37,0,6.5,1.86,12.56,5.06,17.69-3.94,4.47-6.1,9.63-5.89,15.04.2,5.02,2.43,9.65,6.16,13.6-3.37,5.23-5.33,11.44-5.33,18.12,0,9.8,4.21,18.62,10.92,24.74-.46,1.77-.67,3.59-.6,5.43.19,4.68,2.15,9.03,5.44,12.8-6.78,6.13-11.05,15-11.05,24.86,0,7.12,2.23,13.72,6.02,19.14-8.51,5.55-13.68,13.16-13.35,21.37.38,9.61,8.2,17.81,19.84,22.51-4.34,5.65-6.92,12.71-6.92,20.38,0,15.13,10.03,27.91,23.81,32.07-10.75,9.01-16.05,20.52-12.62,30.37,1.88,5.38,6.11,9.53,11.85,12.24-2.03,4.32-3.17,9.13-3.17,14.22,0,15.33,10.29,28.24,24.34,32.22-9.83,11.21-13.42,24.22-7.96,33.67,3.38,5.85,9.67,9.37,17.45,10.53,1,7.29,4.35,13.82,9.25,18.83-1,3.18-1.54,6.55-1.54,10.06,0,14.46,9.16,26.78,21.99,31.47-.64,13.92,4.21,25.53,13.72,29.68,2.61,1.14,5.4,1.63,8.27,1.55-4.53,6.83-6.15,14.16-3.85,20.75,1.87,5.37,6.09,9.51,11.81,12.22-5.6,5.99-9.04,14.03-9.04,22.88,0,7.83,2.7,15.03,7.2,20.74-8.57,8.49-12.5,18.65-9.42,27.47,2.97,8.51,11.8,13.92,23.18,15.49-5.02,4.15-8.15,9.35-8.58,15.16-.48,6.43,2.44,12.62,7.74,17.8-7.04,6.62-10.65,14.61-9.16,22.38,2.98,15.45,25.04,24.2,49.26,19.52,24.23-4.67,41.45-20.99,38.47-36.44-.37-1.9-1.02-3.69-1.93-5.38,2.74-3.35,4.42-7.17,4.72-11.29.44-5.96-2.03-11.7-6.61-16.64,13.32-4.01,22.66-12.42,23.43-22.77.42-5.71-1.83-11.21-6.04-16,1.64-3.95,2.55-8.29,2.55-12.84,0-7.35-2.38-14.15-6.39-19.68,8.64-4.55,14.31-11.36,14.9-19.32.25-3.35-.43-6.64-1.88-9.75,7.92-5.79,13.19-14.98,13.69-25.41,1.07.13,2.14.24,3.23.32,17.56,1.3,33.22-4.06,41.17-12.94,5.99,5.62,14.04,9.06,22.9,9.06s17.44-3.67,23.49-9.62c5.18,5.21,11.33,8.05,17.72,7.55,7.66-.6,14.24-5.9,18.74-14.03,3.55,1.95,7.35,2.89,11.24,2.59,4.28-.33,8.22-2.15,11.66-5.09,5.28,3.47,11.58,5.49,18.37,5.49,8.52,0,16.29-3.18,22.2-8.42,8.26,10.79,19.14,16.45,28.95,13.7,6.05-1.7,10.77-6.34,13.84-12.8,5.85,9.76,16.54,16.3,28.75,16.3,9.32,0,17.74-3.81,23.82-9.95,3.88,3.93,8.73,6.89,14.15,8.53-2.27,5.26-2.76,10.63-1.03,15.58,1.27,3.64,3.62,6.72,6.79,9.17-.45,2.19-.69,4.46-.69,6.79,0,6.95,2.12,13.41,5.74,18.76-1.32,1.57-2.38,3.31-3.13,5.23-4.48,11.43,3.03,25.62,17.46,35.58-6.26,6.09-10.15,14.59-10.15,24.01,0,13.07,7.49,24.39,18.42,29.91-6.02,4.35-9.82,10.04-10.3,16.48-1.16,15.7,17.85,29.9,42.45,31.72s45.49-9.43,46.65-25.13c.46-6.28-2.31-12.32-7.36-17.42,6.84-6.13,11.15-15.04,11.15-24.95,0-7.1-2.22-13.68-5.99-19.1,11.64-4.33,19.6-12.2,20.3-21.72.5-6.77-2.75-13.25-8.58-18.59,5.77-5.98,7.22-16.3,7.22-28.04,0-8.43-.75-16.12-3.3-22.01,2.25-2.04,3.99-4.46,5.08-7.26,2.57-6.56,1.19-14.02-3.17-21.07,1.47-4.15,1.39-8.64,0-13.16,8.37-6.09,13.81-15.96,13.81-27.1,0-4.64-.94-9.06-2.65-13.08,10.63-13.23,14.22-28.39,8.62-38.44,3.24-2.65,5.59-5.94,6.74-9.79,1.69-5.66.55-11.73-2.78-17.47,9.6-13.78,11.7-28.95,3.98-38.01Z"/><path class="cls-15" d="m104.06,97.34h61.61c6.32,0,11.46,5.13,11.46,11.46v57.65c0,21.94-17.82,39.76-39.76,39.76h-5c-21.94,0-39.76-17.82-39.76-39.76v-57.65c0-6.32,5.13-11.46,11.46-11.46Z"/><ellipse class="cls-14" cx="128.68" cy="156.94" rx="4.75" ry="10.45" transform="translate(-70.46 117.79) rotate(-39.53)"/><ellipse class="cls-14" cx="141.06" cy="156.94" rx="10.45" ry="4.75" transform="translate(-69.77 165.85) rotate(-50.47)"/><path class="cls-3" d="m134.34,162.78c0,7.36-4.09,19.7-21.48,11.29"/><path class="cls-3" d="m135.17,162.78c0,7.36,7.68,21.99,21.48,9.17"/><path class="cls-13" d="m85.34,93.7c13.73,7.98,32.04,23.44,66.87,26.46,0,0-10.52-4.7-21.27-17.44,0,0,11.57,7.4,21.27,7.94,0,0-13.35-5.65-17.96-20.27l-48.91,3.31Z"/><path class="cls-14" d="m168.02,122.74l-4.21.48c-2.41,0-3.42-1.01-3.42-3.42l.48-4.21c0-2.41,1.97-4.38,4.38-4.38h2.78c2.41,0,4.38,1.97,4.38,4.38v2.78c0,2.41-1.97,4.38-4.38,4.38Z"/><circle class="cls-18" cx="168.91" cy="115.11" r="1.78"/><path class="cls-14" d="m104.18,122.74l4.21.48c2.41,0,3.42-1.01,3.42-3.42l-.48-4.21c0-2.41-1.97-4.38-4.38-4.38h-2.78c-2.41,0-4.38,1.97-4.38,4.38v2.78c0,2.41,1.97,4.38,4.38,4.38Z"/><circle class="cls-18" cx="102.76" cy="115.11" r="1.78"/><g class="cls-21"><path class="cls-2" d="m177.13,356.17c.04,2.41.35,4.84.97,7.28,4.31,16.95,21.54,27.2,38.49,22.89,1.16-.29,2.28-.65,3.37-1.07.22-.08.47-.03.64.15,7.64,7.96,19.22,11.69,30.67,8.78,13.51-3.43,22.76-15.08,23.78-28.24.03-.34.27-.62.6-.7,0,0,0,0,.01,0,.49-.11.97.19,1.11.68,4.67,16.42,21.6,26.24,38.25,22.01,5.01-1.27,9.44-3.68,13.08-6.88.54-.47,1.35-.46,1.87.04,7.63,7.26,18.7,10.57,29.65,7.78,13.64-3.47,22.94-15.3,23.8-28.63"/><path class="cls-5" d="m193.32,532.23c-1.9,16.97,10.04,32.47,27.05,34.87,5.12.72,10.13.17,14.71-1.41.68-.23,1.43.09,1.72.74,4.3,9.61,13.29,16.87,24.49,18.45,13.94,1.97,27.03-5.46,32.88-17.46"/><path class="cls-10" d="m320.05,308.85c-1.33,2-2.91,3.89-4.74,5.6-12.77,11.95-32.81,11.28-44.76-1.5-.81-.87-1.56-1.78-2.26-2.71"/><path class="cls-7" d="m719.53,631.59c-1.14,2.51-2.57,4.93-4.32,7.21-12.22,15.86-34.99,18.81-50.85,6.59-1.08-.83-2.1-1.72-3.06-2.65"/><path class="cls-9" d="m200.75,448.86c-2.35,1.43-4.9,2.63-7.63,3.52-19.04,6.21-39.5-4.19-45.71-23.22-.42-1.3-.76-2.6-1.03-3.91"/><path class="cls-9" d="m441.12,312.81c-2.04,1.85-4.31,3.51-6.82,4.91-17.5,9.72-39.58,3.42-49.3-14.09-.66-1.19-1.24-2.41-1.76-3.64"/><path class="cls-9" d="m492.87,495.61c-1.39,2.38-3.06,4.64-5.04,6.73-13.78,14.52-36.73,15.12-51.26,1.34-.99-.94-1.91-1.93-2.77-2.95"/><path class="cls-9" d="m723.79,291.68c-2.55,1.04-5.26,1.82-8.09,2.26-19.78,3.11-38.34-10.4-41.45-30.18-.21-1.35-.34-2.69-.4-4.02"/><path class="cls-9" d="m702.5,427.9c-1.14,2.51-2.57,4.93-4.32,7.21-12.22,15.86-34.99,18.81-50.85,6.59-1.08-.83-2.1-1.72-3.06-2.65"/><path class="cls-7" d="m256.08,685.9c-2.05,1.85-4.33,3.49-6.84,4.88-17.55,9.65-39.59,3.24-49.24-14.31-.66-1.2-1.23-2.42-1.74-3.65"/><path class="cls-10" d="m637.22,305.43c-1.97,1.38-4.13,2.55-6.47,3.48-16.26,6.44-34.66-1.53-41.1-17.79-.44-1.11-.8-2.23-1.11-3.35"/><path class="cls-6" d="m477.18,398.53c.49,2.5.75,5.09.75,7.73,0,22.29-18.07,40.37-40.36,40.37-7.18,0-13.92-1.88-19.77-5.17-6.96,12.14-20.04,20.33-35.04,20.33,0,22.29-18.07,40.36-40.36,40.36-18.02,0-33.29-11.82-38.47-28.12-.63.03-1.26.05-1.89.05-1.69,0-3.35-.12-4.99-.32-6.87,12.47-20.13,20.92-35.37,20.92-17.89,0-33.06-11.65-38.35-27.77"/><path class="cls-8" d="m731.56,504.05c-11.22,8.36-26.48,10.66-40.24,4.68-8.88,20.45-32.66,29.82-53.11,20.93-16.53-7.18-25.82-24.1-24.07-41.13-.59-.22-1.17-.46-1.76-.71-1.55-.67-3.03-1.44-4.45-2.28-11.27,8.7-26.8,11.16-40.78,5.09-16.41-7.13-25.68-23.86-24.1-40.75"/><path class="cls-4" d="m478.08,316.29c-.19,2.05-.2,4.14,0,6.26,1.74,17.89,17.65,30.98,35.53,29.24,5.76-.56,11.02-2.6,15.46-5.69,6.53,9.2,17.66,14.75,29.7,13.58,1.74,17.89,17.65,30.98,35.53,29.24,14.46-1.41,25.78-12.08,28.67-25.56.51-.03,1.01-.06,1.52-.11,1.36-.13,2.68-.35,3.98-.64,6.48,9.47,17.78,15.21,30.01,14.02,14.36-1.4,25.61-11.92,28.6-25.27"/><path class="cls-1" d="m206.21,254.58c1.52,17.01-10.77,32.23-27.84,34.24-5.14.61-10.13-.06-14.67-1.74-.67-.25-1.43.06-1.73.7-4.52,9.51-13.67,16.56-24.9,17.88-13.98,1.65-26.9-6.08-32.48-18.21"/></g><path class="cls-11" d="m105.56,58.55c-5.14-9.24-34.85-38.75-60.48-40.49-.95-.06-1.47,1.1-.8,1.77,7.66,7.73,36.63,37.62,39.86,50.51"/><path class="cls-15" d="m80.46,57.73c-3.59-4.94-13.55-18.37-22.5-27.68-.89-.93.33-2.33,1.37-1.57,5.6,4.12,14.09,11.76,25.36,25.76.61.76.51,1.86-.23,2.49-.39.33-.82.73-1.24,1.17-.78.81-2.09.73-2.75-.18Z"/><path class="cls-11" d="m162.15,49.66c7.72-10.84,29.74-29.02,56.36-31.47,1.15-.11,1.86,1.25,1.1,2.12-6.33,7.36-25.67,30.33-32,43.66"/><path class="cls-15" d="m188.21,55.4c2.99-4.14,12.11-16.52,20.82-26,1.08-1.18-.5-2.88-1.75-1.88-5.58,4.48-13.35,11.94-23.24,24.28-.44.55-.36,1.36.18,1.8.58.48,1.33,1.14,1.98,1.88.55.62,1.52.59,2.01-.08Z"/><g class="cls-20"><path class="cls-17" d="m727.23,733.01c.46-6.28-2.31-12.32-7.36-17.42,6.84-6.13,11.15-15.04,11.15-24.95,0-7.1-2.22-13.68-5.99-19.1,11.64-4.33,19.6-12.2,20.3-21.72.5-6.77-2.75-13.25-8.58-18.59,5.77-5.98,7.22-16.3,7.22-28.04,0-8.43-.75-16.12-3.3-22.01,2.25-2.04,3.99-4.46,5.08-7.26,2.57-6.56,1.19-14.02-3.17-21.07,1.47-4.15,1.39-8.64,0-13.16,8.37-6.09,13.81-15.96,13.81-27.1,0-4.64-.94-9.06-2.65-13.08,10.63-13.23,14.22-28.39,8.63-38.44,3.24-2.65,5.59-5.94,6.74-9.79,1.69-5.66.55-11.73-2.78-17.47,9.6-13.78,11.7-28.95,3.98-38.01-1.22-1.44-2.65-2.65-4.22-3.65-6.15,2.96-10.88,9.09-11.42,15.94-.39,5.06,1.21,10.15.61,15.19-.6,5.04-4.93,10.38-9.85,9.15-1.05,10.7-.64,21.54,1.2,32.14-8.21.33-11.25,11.17-10.15,19.32,1.1,8.15,3.74,17.37-1.26,23.9-2.18,2.85-5.67,4.88-6.6,8.34-1.07,3.97,1.71,7.83,2.81,11.79,2.39,8.53-3.01,17.02-6.48,25.17-3.47,8.15-3.8,19.91,4.28,23.52-6.09,2.67-7.05,10.77-7.11,17.43-.05,5.29-.1,10.59-.14,15.88-.1,11.29-.16,22.84,3.56,33.49-5.99.88-9.75,7.17-10.76,13.14-1.01,5.97-.16,12.16-1.33,18.11-1.6,8.15-6.81,15.07-9.95,22.76-3.14,7.69-3.65,17.75,2.69,23.12-7.7,9.61-5.79,24.88,2.76,33.38,10.54-4.46,17.63-11.96,18.29-20.92Z"/></g><g class="cls-20"><path class="cls-16" d="m631.54,622.45c-3.64-3.12-4.87-8.73-2.89-13.09,1.98-4.36,7.02-7.11,11.76-6.42-4.53-1.85-6.02-7.91-4.46-12.54s5.31-8.14,8.91-11.45c-5.1-5.41-7.35-13.37-5.83-20.65,1.52-7.28,6.77-13.68,13.61-16.59-5.68-1.12-9.37-7.06-9.84-12.83-.46-5.77,1.56-11.41,3.55-16.85-6.59,6.81-19.09,6.42-25.25-.77,2.44,5.35.41,12.34-4.52,15.54-4.93,3.2-12.14,2.21-16.03-2.2-3.45,5.87-6.99,11.85-12.07,16.39-5.08,4.54-12.04,7.51-18.72,6.16-2.43,6.23-9.3,10.21-15.9,9.85,6.02,5.77,14.17,9.32,23.17,9.32s17.74-3.81,23.82-9.95c3.88,3.93,8.73,6.89,14.15,8.53-2.27,5.26-2.76,10.63-1.03,15.58,1.27,3.64,3.62,6.72,6.79,9.17-.45,2.19-.69,4.46-.69,6.79,0,6.95,2.12,13.41,5.74,18.76-1.32,1.57-2.38,3.31-3.13,5.23-1.29,3.28-1.58,6.79-1.01,10.36,2.26-3.85,5.64-7,9.86-8.34Z"/></g><path class="cls-19" d="m400.92,547.31s-6.38-19.13-22.32-6.38c0,0-13.82-13.82-25.51-2.13,0,0-11.39-22.72-28.02-6.58,0,0-18.22-27.73-39.74-5.79,0,0-15.14,1.74-13.02,10.24,0,0-17.01,18.07,4.25,20.19,0,0-10.04,11.08,1.89,12.98,0,0-5.08,10.7,8.21,13.21-11.51,3.43-12.69,12.54-9.74,24.24,1.61,6.4-3.67,13.43-4.45,19.99-1.39,11.59-4,18.47-2.13,29.99,1.48,9.1,8.95,12.63,7.04,21.65-.53,2.51-10.68,6.73-11.93,8.97-8.15,14.64,2.81,24.05,3.88,37.72.69,8.86-7.96,17.09-6.46,28.1.36,2.62-6.48,8.19-5.67,10.36,14.65-7.3,23.59-19.28,21.38-30.79-.36-1.9-1.02-3.69-1.92-5.38,2.72-3.35,4.39-7.17,4.69-11.29.44-5.96-2.02-11.7-6.57-16.64,13.25-4.01,22.53-12.42,23.29-22.77.42-5.71-1.82-11.21-6.01-16,1.63-3.95,2.54-8.29,2.54-12.84,0-7.35-2.36-14.15-6.36-19.68,8.59-4.55,14.23-11.36,14.81-19.32.25-3.35-.43-6.64-1.87-9.75,7.87-5.79,17.79-24.57,16.83-25.09,17.56,1.3,33.22-4.06,41.17-12.94,5.99,5.62,14.04,9.06,22.9,9.06s17.44-3.67,23.49-9.62c5.18,5.21,11.33,8.05,17.72,7.55.5-.04.99-.1,1.47-.18l2.72-3.03c-9.57-17.01-17.01-21.26-26.57-18.07Z"/></svg>