<?xml version="1.0" encoding="us-ascii" standalone="no"?><svg xmlns="http://www.w3.org/2000/svg" xmlns:xlink="http://www.w3.org/1999/xlink" contentStyleType="text/css" height="402px" preserveAspectRatio="none" style="width:762px;height:402px;background:#FFFFFF;" version="1.1" viewBox="0 0 762 402" width="762px" zoomAndPan="magnify"><defs/><g><!--cluster tools--><g id="cluster_tools"><polygon fill="none" points="9.5,9.2889,9.5,9.4991,19.5541,8.8746,29.6081,9.4822,39.6622,9.6886,49.7162,8.5756,59.7703,9.2112,69.8243,8.8625,79.8784,8.9055,89.9324,9.2208,99.9865,8.5976,110.0405,9.8426,120.0946,8.6587,130.1486,9.0912,140.2027,9.7209,150.2568,9.2032,160.3108,9.3572,170.3649,9.257,180.4189,9.4675,190.473,9.5281,200.527,9.8746,210.5811,9.96,220.6351,9.9682,230.6892,9.5436,240.7432,9.7525,250.7973,9.9912,260.8514,8.5678,270.9054,9.9675,280.9595,8.9924,291.0135,9.8228,301.0676,8.7939,311.1216,9.2205,321.1757,10.0306,331.2297,9.2402,341.2838,9.3943,351.3378,9.6276,361.3919,9.7052,371.4459,9.285,381.5,9.5762,391.5541,8.7165,401.6081,9.5733,411.6622,9.8371,421.7162,9.7335,431.7703,9.902,441.8243,8.8059,451.8784,8.6368,461.9324,8.6675,471.9865,9.2301,482.0405,9.0924,492.0946,9.9704,502.1486,9.1143,512.2027,8.9459,522.2568,9.5172,532.3108,8.6221,542.3649,8.7698,552.4189,9.9379,562.473,9.7246,572.527,10.0234,582.5811,8.9672,592.6351,9.6081,602.6892,9.8794,612.7432,8.8165,622.7973,9.1931,632.8514,9.4149,642.9054,9.9407,652.9595,9.2848,663.0135,9.7515,673.0676,8.7352,683.1216,8.6117,693.1757,9.7926,703.2297,8.572,713.2838,9.7979,723.3378,9.4956,733.3919,9.021,743.4459,8.9352,753.5,9.2889,753.5585,9.4302,753.8154,9.3432,754.2826,9.7641,754.4902,9.5581,754.993,10.0649,755.2678,10.0212,755.4169,10.083,755.4897,10.406,755.5752,10.7343,755.9309,11.1745,756.0425,11.5137,756,11.7889,756.1693,11.7889,756.2682,21.9193,755.8697,32.0497,756.7165,42.1801,756.1549,52.3105,756.1726,62.4409,755.3916,72.5713,755.5948,82.7017,756.5307,92.8321,756.4298,102.9625,755.9571,113.0929,755.6778,123.2233,755.7811,133.3537,755.3138,143.4841,756.4147,153.6145,756.7396,163.7449,756.5264,173.8753,756.6949,184.0057,755.8633,194.1361,756.0872,204.2665,755.6124,214.3969,756.284,224.5273,756.2468,234.6577,756.5524,244.7881,755.7703,254.9185,756,265.0489,755.9586,265.0318,755.9901,265.4591,755.8818,265.8284,755.4028,266.0442,755.3545,266.4384,755.2678,266.8167,755.2868,266.8627,754.8363,266.775,754.6057,267.2184,754.24,267.3355,753.8407,267.3715,753.5,267.5489,753.5,267.6912,743.4459,268.2776,733.3919,267.2361,723.3378,267.8639,713.2838,267.8346,703.2297,267.6647,693.1757,267.6899,683.1216,267.6624,673.0676,266.9248,663.0135,267.1481,652.9595,267.0874,642.9054,267.6128,632.8514,267.6371,622.7973,267.7107,612.7432,267.258,602.6892,267.4814,592.6351,267.4287,582.5811,268.1258,572.527,267.9755,562.473,267.0634,552.4189,267.476,542.3649,266.9717,532.3108,267.8373,522.2568,268.1574,512.2027,268.0935,502.1486,267.1134,492.0946,268.0129,482.0405,266.8061,471.9865,267.7491,461.9324,267.2496,451.8784,267.6457,441.8243,267.7893,431.7703,268.0211,421.7162,266.829,411.6622,268.0244,401.6081,267.7271,391.5541,267.9043,381.5,268.2968,371.4459,267.5544,361.3919,267.7242,351.3378,267.7624,341.2838,267.7462,331.2297,267.5481,321.1757,268.2597,311.1216,266.9392,301.0676,268.1142,291.0135,266.9249,280.9595,267.0086,270.9054,267.589,260.8514,267.5772,250.7973,267.0561,240.7432,267.9627,230.6892,267.6578,220.6351,268.2756,210.5811,268.2161,200.527,267.1007,190.473,267.151,180.4189,267.4198,170.3649,267.9045,160.3108,267.9519,150.2568,267.8501,140.2027,267.207,130.1486,268.1853,120.0946,268.1827,110.0405,267.5017,99.9865,267.3099,89.9324,267.1476,79.8784,267.3344,69.8243,267.6864,59.7703,267.4806,49.7162,267.1312,39.6622,268.0363,29.6081,267.09,19.5541,268.0513,9.5,267.5489,9.5545,267.6805,9.1939,267.517,8.8812,267.4693,8.408,267.0339,8.0474,266.8706,7.7322,266.8167,7.892,266.8829,7.402,266.387,7.3673,266.0798,7.3285,265.7708,7.1676,265.4113,7,265.0489,6.6415,265.0489,6.957,254.9185,7.7446,244.7881,7.6485,234.6577,6.4037,224.5273,7.0785,214.3969,6.4861,204.2665,6.9737,194.1361,7.293,184.0057,7.4199,173.8753,6.3353,163.7449,7.4005,153.6145,7.0084,143.4841,6.4447,133.3537,6.5289,123.2233,7.3266,113.0929,7.2499,102.9625,6.9836,92.8321,6.3279,82.7017,7.6581,72.5713,6.6882,62.4409,6.4719,52.3105,6.9327,42.1801,7.5897,32.0497,7.6154,21.9193,7,11.7889,7.0108,11.7934,7.0999,11.4161,7.3452,11.1035,7.4967,10.752,7.4294,10.31,7.7322,10.0212,7.785,10.1487,8.1571,10.0468,8.4118,9.6618,8.7381,9.4497,9.2325,9.6432,9.5,9.2889" style="stroke:#181818;stroke-width:4.0;"/><text fill="#000000" font-family="Chalkduster" font-size="24" font-weight="bold" lengthAdjust="spacing" textLength="323" x="220" y="35.1298">RO-Crate Schema Tools</text></g><!--entity sos--><g id="elem_sos"><polygon fill="none" points="25.5,58.2889,25.5,58.4991,35.3929,57.8746,45.2857,58.4822,55.1786,58.6886,65.0714,57.5756,74.9643,58.2112,84.8571,57.8625,94.75,57.9055,104.6429,58.2208,114.5357,57.5976,124.4286,58.8426,134.3214,57.6587,144.2143,58.0912,154.1071,58.7209,164,58.2032,173.8929,58.3572,183.7857,58.257,193.6786,58.4675,203.5714,58.5281,213.4643,58.8746,223.3571,58.96,233.25,58.9682,243.1429,58.5436,253.0357,58.7525,262.9286,58.9912,272.8214,57.5678,282.7143,58.9675,292.6071,57.9924,302.5,58.2889,302.5681,58.4533,302.7904,58.2829,303.1984,58.5607,303.6553,58.9567,303.908,58.8597,304.2678,59.0212,304.3002,59.0346,304.5185,59.4179,304.6888,59.7814,304.7059,60.0813,304.942,60.472,305,60.7889,304.4276,60.7889,305.2844,69.9149,305.5482,79.0409,305.4445,88.1668,305.613,97.2928,305,106.4188,304.8512,106.3572,304.6527,106.6891,304.5157,107.0466,304.5425,107.4719,304.3537,107.8079,304.2678,108.1866,304.3547,108.3964,303.8919,108.2792,303.5169,108.3738,303.2362,108.6962,302.7685,108.567,302.5,108.9188,302.5,108.3997,292.6071,109.5677,282.7143,109.3545,272.8214,109.6533,262.9286,108.597,253.0357,109.238,243.1429,109.5092,233.25,108.4464,223.3571,108.8229,213.4643,109.0448,203.5714,109.5705,193.6786,108.9146,183.7857,109.3814,173.8929,108.365,164,108.2415,154.1071,109.4224,144.2143,108.2018,134.3214,109.4277,124.4286,109.1254,114.5357,108.6509,104.6429,108.565,94.75,109.3775,84.8571,108.6195,74.9643,109.5106,65.0714,108.366,55.1786,109.5362,45.2857,109.4031,35.3929,109.1638,25.5,108.9188,25.506,108.9333,25.2391,108.9961,24.8712,108.8148,24.4609,108.5316,24.12,108.4156,23.7322,108.1866,23.6921,108.1699,23.8064,107.9244,23.487,107.4992,23.346,107.1479,22.9591,106.6947,23,106.4188,22.5948,106.4188,23.5307,97.2928,23.4298,88.1668,22.9571,79.0409,22.6778,69.9149,23,60.7889,22.9326,60.761,22.9351,60.3479,23.4206,60.1347,23.6671,59.8226,23.7479,59.4419,23.7322,59.0212,23.8209,59.2352,24.0683,58.8326,24.4505,58.7552,24.7435,58.4625,25.1827,58.5229,25.5,58.2889" style="stroke:#181818;stroke-width:4.0;"/><text fill="#000000" font-family="Chalkduster" font-size="24" lengthAdjust="spacing" textLength="262" x="33" y="92.1298">Schema.org Schema</text></g><!--entity roc--><g id="elem_roc"><polygon fill="none" points="343,58.2889,343,58.4991,353.1026,57.8746,363.2051,58.4822,373.3077,58.6886,383.4103,57.5756,393.5128,58.2112,403.6154,57.8625,413.7179,57.9055,423.8205,58.2208,433.9231,57.5976,444.0256,58.8426,454.1282,57.6587,464.2308,58.0912,474.3333,58.7209,484.4359,58.2032,494.5385,58.3572,504.641,58.257,514.7436,58.4675,524.8462,58.5281,534.9487,58.8746,545.0513,58.96,555.1538,58.9682,565.2564,58.5436,575.359,58.7525,585.4615,58.9912,595.5641,57.5678,605.6667,58.9675,615.7692,57.9924,625.8718,58.8228,635.9744,57.7939,646.0769,58.2205,656.1795,59.0306,666.2821,58.2402,676.3846,58.3943,686.4872,58.6276,696.5897,58.7052,706.6923,58.285,716.7949,58.5762,726.8974,57.7165,737,58.2889,737.0363,58.3765,737.4235,58.6042,737.7638,58.7187,738.1389,58.9171,738.3526,58.726,738.7678,59.0212,738.5669,58.938,738.7228,59.2955,739.0425,59.7208,739.1466,60.0568,739.5634,60.5223,739.5,60.7889,739.3253,60.7889,739.1569,69.9149,739.7283,79.0409,738.8332,88.1668,738.9809,97.2928,739.5,106.4188,739.6999,106.5016,739.4877,106.8279,739.4333,107.2196,738.9616,107.4384,739.0125,107.8737,738.7678,108.1866,738.8431,108.3684,738.354,108.1875,738.0484,108.4499,737.7232,108.6647,737.4367,108.9731,737,108.9188,737,108.9146,726.8974,109.3814,716.7949,108.365,706.6923,108.2415,696.5897,109.4224,686.4872,108.2018,676.3846,109.4277,666.2821,109.1254,656.1795,108.6509,646.0769,108.565,635.9744,109.3775,625.8718,108.6195,615.7692,109.5106,605.6667,108.366,595.5641,109.5362,585.4615,109.4031,575.359,109.1638,565.2564,108.966,555.1538,109.6454,545.0513,109.5324,534.9487,109.088,524.8462,109.187,514.7436,108.7885,504.641,109.6352,494.5385,109.0737,484.4359,109.0914,474.3333,108.3104,464.2308,108.5136,454.1282,109.4495,444.0256,109.3485,433.9231,108.8759,423.8205,108.5966,413.7179,108.6999,403.6154,108.2326,393.5128,109.3335,383.4103,109.6583,373.3077,109.4452,363.2051,109.6137,353.1026,108.7821,343,108.9188,343.0111,108.9456,342.597,108.653,342.3291,108.7134,341.9708,108.5554,341.6562,108.5031,341.2322,108.1866,341.1615,108.1573,341.0444,107.8159,341.0759,107.536,340.9676,107.1983,340.4886,106.707,340.5,106.4188,340.3061,106.4188,340.6493,97.2928,339.8892,88.1668,340.8534,79.0409,340.758,69.9149,340.5,60.7889,340.469,60.7761,340.6903,60.4535,341.0173,60.1748,340.843,59.6884,341.1828,59.4149,341.2322,59.0212,341.2687,59.1092,341.6006,58.9104,341.9573,58.7717,342.3074,58.6168,342.5668,58.2432,343,58.2889" style="stroke:#181818;stroke-width:4.0;"/><text fill="#000000" font-family="Chalkduster" font-size="24" lengthAdjust="spacing" textLength="379" x="350.5" y="92.1298">RO-Crate Schema additions</text></g><!--entity rocsoss--><g id="elem_rocsoss"><polygon fill="none" points="145.5,200.9189,145.5,201.1291,155.6071,200.5046,165.7143,201.1122,175.8214,201.3186,185.9286,200.2056,196.0357,200.8412,206.1429,200.4925,216.25,200.5355,226.3571,200.8508,236.4643,200.2276,246.5714,201.4726,256.6786,200.2887,266.7857,200.7212,276.8929,201.3509,287,200.8332,297.1071,200.9872,307.2143,200.887,317.3214,201.0975,327.4286,201.1581,337.5357,201.5046,347.6429,201.59,357.75,201.5982,367.8571,201.1736,377.9643,201.3825,388.0714,201.6212,398.1786,200.1978,408.2857,201.5975,418.3929,200.6224,428.5,200.9189,428.5681,201.0833,428.7904,200.9129,429.1984,201.1907,429.6553,201.5867,429.908,201.4897,430.2678,201.6512,430.3002,201.6646,430.5185,202.0479,430.6888,202.4114,430.7059,202.7113,430.942,203.102,431,203.4189,430.4276,203.4189,431.2844,212.5449,431.5482,221.6709,431.4445,230.7968,431.613,239.9228,431,249.0488,430.8512,248.9872,430.6527,249.3191,430.5157,249.6766,430.5425,250.1019,430.3537,250.4379,430.2678,250.8166,430.3547,251.0264,429.8919,250.9092,429.5169,251.0038,429.2362,251.3262,428.7685,251.197,428.5,251.5488,428.5,251.0297,418.3929,252.1977,408.2857,251.9845,398.1786,252.2833,388.0714,251.227,377.9643,251.868,367.8571,252.1392,357.75,251.0764,347.6429,251.4529,337.5357,251.6748,327.4286,252.2005,317.3214,251.5446,307.2143,252.0114,297.1071,250.995,287,250.8715,276.8929,252.0524,266.7857,250.8318,256.6786,252.0577,246.5714,251.7554,236.4643,251.2809,226.3571,251.195,216.25,252.0075,206.1429,251.2495,196.0357,252.1406,185.9286,250.996,175.8214,252.1662,165.7143,252.0331,155.6071,251.7938,145.5,251.5488,145.506,251.5633,145.2391,251.6261,144.8712,251.4448,144.4609,251.1616,144.12,251.0456,143.7322,250.8166,143.6921,250.7999,143.8064,250.5544,143.487,250.1292,143.346,249.7779,142.9591,249.3247,143,249.0488,142.5948,249.0488,143.5307,239.9228,143.4298,230.7968,142.9571,221.6709,142.6778,212.5449,143,203.4189,142.9326,203.391,142.9351,202.9779,143.4206,202.7647,143.6671,202.4526,143.7479,202.0719,143.7322,201.6512,143.8209,201.8652,144.0683,201.4626,144.4505,201.3852,144.7435,201.0925,145.1827,201.1529,145.5,200.9189" style="stroke:#181818;stroke-width:4.0;"/><text fill="#000000" font-family="Chalkduster" font-size="24" lengthAdjust="spacing" textLength="268" x="153" y="234.7598">Tool: rocsoss script</text></g><!--entity rop--><g id="elem_rop"><polygon fill="none" points="106.5,345.5489,106.5,345.7591,116.5278,345.1346,126.5556,345.7422,136.5833,345.9486,146.6111,344.8356,156.6389,345.4712,166.6667,345.1225,176.6944,345.1655,186.7222,345.4808,196.75,344.8576,206.7778,346.1026,216.8056,344.9187,226.8333,345.3512,236.8611,345.9809,246.8889,345.4632,256.9167,345.6172,266.9444,345.517,276.9722,345.7275,287,345.7881,297.0278,346.1346,307.0556,346.22,317.0833,346.2282,327.1111,345.8036,337.1389,346.0125,347.1667,346.2512,357.1944,344.8278,367.2222,346.2275,377.25,345.2524,387.2778,346.0828,397.3056,345.0539,407.3333,345.4805,417.3611,346.2906,427.3889,345.5002,437.4167,345.6543,447.4444,345.8876,457.4722,345.9652,467.5,345.5489,467.4995,345.5477,467.8902,345.7838,468.1341,345.6656,468.5969,346.0759,468.9841,346.3036,469.2678,346.2812,469.4047,346.3379,469.603,346.7129,469.4119,346.9267,469.5063,347.2586,469.6622,347.6161,470,348.0489,469.9411,348.0489,469.8035,357.1749,470.6814,366.3009,469.8253,375.4268,469.6569,384.5528,470,393.6788,470.0703,393.7079,469.6482,393.9473,469.5472,394.3197,469.7605,394.8222,469.5484,395.1486,469.2678,395.4466,469.3615,395.6727,468.8732,395.4939,468.6014,395.8377,468.2824,396.0677,467.7933,395.8869,467.5,396.1788,467.5,396.0829,457.4722,396.3048,447.4444,396.8305,437.4167,396.1746,427.3889,396.6414,417.3611,395.625,407.3333,395.5015,397.3056,396.6824,387.2778,395.4618,377.25,396.6877,367.2222,396.3854,357.1944,395.9109,347.1667,395.825,337.1389,396.6375,327.1111,395.8795,317.0833,396.7706,307.0556,395.626,297.0278,396.7962,287,396.6631,276.9722,396.4238,266.9444,396.226,256.9167,396.9054,246.8889,396.7924,236.8611,396.348,226.8333,396.447,216.8056,396.0485,206.7778,396.8952,196.75,396.3337,186.7222,396.3514,176.6944,395.5704,166.6667,395.7736,156.6389,396.7095,146.6111,396.6085,136.5833,396.1359,126.5556,395.8566,116.5278,395.9599,106.5,396.1788,106.4125,395.9675,106.1994,396.1601,105.8872,396.1136,105.5065,395.9016,105.1744,395.807,104.7322,395.4466,104.6901,395.4291,104.6126,395.1041,104.32,394.69,104.3804,394.4221,104.2224,394.0638,104,393.6788,104.5524,393.6788,103.7703,384.5528,103.8656,375.4268,104.4435,366.3009,104.5673,357.1749,104,348.0489,103.8422,347.9836,104.0867,347.6707,104.3389,347.3609,104.2512,346.9104,104.6946,346.6798,104.7322,346.2812,104.7651,346.3606,105.0729,346.1037,105.4575,346.0321,105.8858,346.0662,106.1065,345.599,106.5,345.5489" style="stroke:#181818;stroke-width:4.0;"/><text fill="#000000" font-family="Chalkduster" font-size="24" lengthAdjust="spacing" textLength="346" x="114" y="379.3898">RO-Crate Base Mode File</text></g><!--link sos to rocsoss--><g id="link_sos_rocsoss"><path d="M185.42,109.0989 L185.6309,109.2835 L191.3409,115.9797 L198.2874,123.7575 L204.8312,131.1831 L210.0508,137.4505 L217.0255,145.253 L223.0121,152.1912 L229.392,159.4734 L236.0452,166.9947 L241.7564,173.6921 L249.3426,182.0294 L254.4911,188.2346 L261.4603,196.0323 " fill="none" style="stroke:#8B0000;stroke-width:4.0;"/><polygon fill="#8B0000" points="265.41,200.5489,265.4769,200.5697,264.6954,198.6265,264.3062,196.8048,263.7892,194.9435,262.8521,192.9521,262.4966,191.1409,262.4708,191.1391,262.2792,192.2602,262.2179,193.39,262.2471,194.5259,261.9643,195.6408,262.1186,196.7851,262.1309,196.9692,260.9757,196.4998,259.8565,196.5681,258.7417,196.7019,257.6013,196.4541,256.4744,196.4071,256.484,196.4277,258.257,197.2258,260.0737,198.1178,261.8693,198.9645,263.705,199.8977,265.41,200.5489" style="stroke:#8B0000;stroke-width:4.0;"/><text fill="#000000" font-family="Chalkduster" font-size="24" lengthAdjust="spacing" textLength="69" x="237" y="163.7598">input</text></g><!--link roc to rocsoss--><g id="link_roc_rocsoss"><path d="M495.64,109.2589 L495.7762,109.5039 L486.5335,113.6892 L478.089,119.3103 L469.3846,124.4639 L459.8255,128.0798 L451.3992,133.7336 L442.3351,138.2402 L433.5249,143.2034 L424.8911,148.4839 L415.6492,152.6707 L407.6177,159.0346 L398.0126,162.568 L389.4547,167.9851 L381.0246,173.632 L371.8511,177.9417 L363.1127,183.0342 L354.2097,187.8305 L345.508,192.9888 L336.5542,197.6938 " fill="none" style="stroke:#8B0000;stroke-width:4.0;"/><polygon fill="#8B0000" points="331.31,200.6089,331.3162,200.6787,333.2597,200.2961,335.2396,200.3225,337.2077,200.2157,339.1367,199.6709,341.1198,199.7324,341.1127,199.7075,339.9928,199.2852,338.9089,198.9884,337.8498,198.7789,336.7049,198.2686,335.6802,198.1797,335.8577,198.2303,335.7887,197.0341,336.2379,195.9858,336.7503,194.9555,336.8949,193.8202,337.233,192.7401,337.2511,192.7538,336.0399,194.3075,334.9113,195.9234,333.7429,197.5094,332.6506,199.1526,331.31,200.6089" style="stroke:#8B0000;stroke-width:4.0;"/><text fill="#000000" font-family="Chalkduster" font-size="24" lengthAdjust="spacing" textLength="69" x="437" y="163.7598">input</text></g><!--link rocsoss to rop--><g id="link_rocsoss_rop"><path d="M287,251.7489 L287.2802,251.7489 L286.4476,261.4645 L287.2577,271.1801 L287.5329,280.8956 L286.0488,290.6112 L286.8964,300.3267 L286.4313,310.0423 L286.4887,319.7578 L286.9091,329.4734 L287,339.1889 " fill="none" style="stroke:#8B0000;stroke-width:4.0;"/><polygon fill="#8B0000" points="287,345.1889,287.064,345.2174,287.6738,343.3329,288.6589,341.6151,289.5217,339.8431,289.9827,337.8924,291,336.1889,290.9817,336.1706,290.0995,336.8884,289.3096,337.6986,288.5839,338.5729,287.637,339.226,287,340.1889,287.1305,340.3194,286.0514,339.2404,285.3534,338.5423,284.7018,337.8908,283.7798,336.9687,283,336.1889,283.0208,336.1982,283.7903,337.9846,284.6544,339.8131,285.4728,341.6213,286.3784,343.4682,287,345.1889" style="stroke:#8B0000;stroke-width:4.0;"/><text fill="#000000" font-family="Chalkduster" font-size="24" lengthAdjust="spacing" textLength="131" x="288" y="308.3898">Generate</text></g><!--SRC=[VOwn2i8m48RtFCNPFNNluA2WamZgBaTor42QbEIA5l7TJMoh3kfs_FVztztCE6KxJQS6NG_bN2EZJ3FMr91Z6RctLFALXGYa65rj2OhzJgu2Ci51dQb1E7flOm4OWVC4jqzuO4eVwX5_Wj77VqRKsh3nRh06hpxXVAxAOP8aamgcvOdBaRX__tQ9aM3hDS7QM1eRhH2f0rBxYvEBbxK2uzgEGQJWrrA8ANW3RLfko54- -000]--></g></svg>