<?xml version="1.0" standalone="no"?>
<!DOCTYPE svg PUBLIC "-//W3C//DTD SVG 20010904//EN"
 "http://www.w3.org/TR/2001/REC-SVG-20010904/DTD/svg10.dtd">
<svg version="1.0" xmlns="http://www.w3.org/2000/svg"
 width="1082.000000pt" height="1082.000000pt" viewBox="0 0 1082.000000 1082.000000"
 preserveAspectRatio="xMidYMid meet">
<metadata>
Created by potrace 1.14, written by Peter Selinger 2001-2017
</metadata>
<g transform="translate(0.000000,1082.000000) scale(0.100000,-0.100000)"
fill="#000000" stroke="none">
<path d="M2430 10622 c-35 -6 -75 -37 -100 -78 l-22 -35 0 -5099 0 -5099 23
-41 c13 -22 39 -51 59 -63 l35 -22 2981 0 2981 0 41 27 c81 54 76 -14 77 958
1 602 -2 875 -10 898 -18 55 -70 100 -123 108 -26 4 -949 7 -2052 6 -1190 0
-2017 4 -2035 9 -18 5 -39 23 -49 41 -18 30 -19 152 -18 4137 0 2357 -4 4121
-9 4141 -9 39 -59 93 -99 108 -24 9 -1625 13 -1680 4z"/>
</g>
</svg>
