<?xml version="1.0" encoding="us-ascii" standalone="no"?><svg xmlns="http://www.w3.org/2000/svg" xmlns:xlink="http://www.w3.org/1999/xlink" contentStyleType="text/css" height="464px" preserveAspectRatio="none" style="width:2009px;height:464px;background:#FFFFFF;" version="1.1" viewBox="0 0 2009 464" width="2009px" zoomAndPan="magnify"><defs/><g><text fill="#000000" font-family="Chalkduster" font-size="42" font-weight="bold" lengthAdjust="spacing" textLength="1519" x="238" y="51.7215">The three main components for RO-Crate editing with Crate-O</text><!--entity soss--><g id="elem_soss"><polygon fill="#E6E6FA" points="30,213.1512,30,213.3613,40,212.7368,50,213.3444,60,213.5508,70,212.4378,80,213.0734,90,212.7247,100,212.7677,110,213.083,120,212.4598,130,213.7048,140,212.5209,150,212.9534,160,213.5831,170,213.0654,180,213.2194,190,213.1192,200,213.3297,210,213.3903,220,213.7369,230,213.8222,240,213.8304,250,213.4058,260,213.6147,270,213.8534,280,212.43,290,213.8297,300,212.8547,310,213.685,320,212.6561,330,213.0827,340,213.8928,350,213.1024,360,213.2565,370,213.4898,380,213.5674,390,213.1473,400,213.4384,410,212.5787,420,213.4355,430,213.6994,440,213.5957,450,213.7642,460,212.6681,470,212.499,480,212.5298,490,213.0923,500,212.9546,510,213.8326,520,212.9765,530,212.8081,540,213.3794,550,212.4843,560,212.632,570,213.8001,580,213.5868,590,213.8857,600,212.8294,610,213.4704,620,213.7416,630,212.6788,640,213.1512,639.9878,213.1216,640.3696,213.3364,640.7902,213.6448,641.0601,213.5892,641.4732,213.8794,641.7678,213.8834,641.5972,213.8128,641.7056,214.1506,642.2158,214.6547,641.9863,214.8526,642.5103,215.3625,642.5,215.6512,642.7066,215.6512,642.2321,225.1836,642.1462,234.7161,642.9588,244.2485,642.2007,253.781,643.0919,263.3135,641.9473,272.8459,643.1174,282.3784,642.5,291.9108,642.6491,291.9726,642.429,292.2956,642.2216,292.624,642.2844,293.0642,642.1032,293.4033,641.7678,293.6786,641.7894,293.7307,641.4484,293.9076,641.044,293.9314,640.7985,294.3386,640.3733,294.3121,640,294.4108,640,294.5834,630,293.8025,620,294.0056,610,294.9416,600,294.8406,590,294.3679,580,294.0887,570,294.1919,560,293.7247,550,294.8256,540,295.1504,530,294.9372,520,295.1058,510,294.2741,500,294.498,490,294.0232,480,294.6949,470,294.6576,460,294.9632,450,294.1812,440,294.2764,430,294.8543,420,294.9782,410,293.8983,400,294.2169,390,294.5601,380,293.8,370,294.7642,360,294.6688,350,294.3101,340,294.5531,330,295.1395,320,294.098,310,294.7258,300,294.6965,290,294.5266,280,294.5517,270,294.5243,260,293.7867,250,294.01,240,293.9493,230,294.4747,220,294.499,210,294.5726,200,294.1199,190,294.3433,180,294.2906,170,294.9877,160,294.8374,150,293.9253,140,294.3379,130,293.8336,120,294.6992,110,295.0193,100,294.9554,90,293.9753,80,294.8748,70,293.668,60,294.611,50,294.1115,40,294.5075,30,294.4108,30.0307,294.4848,29.7067,294.4098,29.2011,293.8962,29,294.1179,28.6085,293.8799,28.2322,293.6786,28.3417,293.7239,28.3161,293.4204,27.941,292.9722,27.8469,292.6403,27.7122,292.2916,27.5,291.9108,27.6972,291.9108,27.4992,282.3784,28.2107,272.8459,26.8903,263.3135,28.0653,253.781,26.876,244.2485,26.9597,234.7161,27.54,225.1836,27.5,215.6512,27.5087,215.6548,27.4947,215.2347,27.9203,214.9968,27.9729,214.6044,28.3096,214.3296,28.2322,213.8834,28.3173,214.0888,28.5286,213.5989,28.8886,213.468,29.2764,213.4043,29.6918,213.4071,30,213.1512" style="stroke:#181818;stroke-width:4.0;"/><text fill="#000000" font-family="Chalkduster" font-size="24" font-style="italic" lengthAdjust="spacing" textLength="170" x="250" y="246.992">&#171;standards&#187;</text><text fill="#000000" font-family="Chalkduster" font-size="24" lengthAdjust="spacing" textLength="595" x="37.5" y="277.6219">Schema.org Style Schema (SOSS) for Domain</text></g><g id="elem_GMN3"><path d="M6,80.8912 L6.5605,80.8912 L4.8951,91.0711 L6.5154,101.2511 L7.0658,111.431 L4.0976,121.611 L5.7928,131.7909 L4.8627,141.9709 L6,152.1508 L6,152.1508 L6,151.1282 L15.8485,151.9691 L25.697,150.3072 L35.5455,153.6272 L45.3939,150.4701 L55.2424,151.6234 L65.0909,153.3027 L74.9394,151.9221 L84.7879,152.3328 L94.6364,152.0656 L104.4848,152.6269 L114.3333,152.7885 L124.1818,153.7127 L134.0303,153.9403 L143.8788,153.9622 L153.7273,152.8298 L163.5758,153.3871 L173.4242,154.0234 L183.2727,150.2277 L193.1212,153.9602 L202.9697,151.3602 L212.8182,153.5743 L222.6667,150.8308 L232.5152,151.9682 L242.3636,154.1284 L252.2121,152.0209 L262.0606,152.4316 L271.9091,153.0538 L281.7576,153.2608 L291.6061,152.1404 L301.4545,152.9167 L311.303,150.6244 L321.1515,152.9092 L331,152.1508 L332.4587,152.247 L332.8495,162.3372 L333.9645,172.4752 L331.7146,182.3912 L331.9313,192.4699 L332.6799,202.5837 L335,212.8012 L334.8433,212.7908 L335.1437,202.6583 L338.1465,192.704 L336.5352,182.4453 L336.7538,172.3074 L338.9407,162.2993 L339,152.1508 L339,150.3726 L348.8485,150.7665 L358.697,153.8814 L368.5455,153.3126 L378.3939,154.1095 L388.2424,151.2927 L398.0909,153.002 L407.9394,153.7253 L417.7879,150.8911 L427.6364,151.8952 L437.4848,152.4868 L447.3333,153.8889 L457.1818,152.1397 L467.0303,153.3843 L476.8788,150.6741 L486.7273,150.3448 L496.5758,153.4938 L506.4242,150.239 L516.2727,153.5081 L526.1212,152.7018 L535.9697,151.4364 L545.8182,151.2074 L555.6667,153.3742 L565.5152,151.3526 L575.3636,153.7291 L585.2121,150.6768 L595.0606,153.7973 L604.9091,153.4423 L614.7576,152.8041 L624.6061,152.2767 L634.4545,154.0885 L644.303,153.787 L654.1515,152.6022 L664,152.1508 L664,152.1508 L664.7152,152.1508 L663.6526,141.9409 L665.9105,131.7309 L664.413,121.521 L664.4602,111.311 L662.3777,101.1011 L664,90.8912 L663.7453,90.6365 L662.3336,89.2248 L660.2701,87.1613 L657.973,84.8642 L655.7975,82.6887 L654,80.8912 L654,80.3074 L644.0308,79.0614 L634.0615,81.9971 L624.0923,82.8633 L614.1231,82.2949 L604.1538,82.7443 L594.1846,80.5266 L584.2154,81.1237 L574.2462,79.8576 L564.2769,81.6486 L554.3077,81.5492 L544.3385,82.3642 L534.3692,80.2787 L524.4,80.5327 L514.4308,82.0737 L504.4615,82.4041 L494.4923,79.5244 L484.5231,80.3741 L474.5538,81.2892 L464.5846,79.2622 L454.6154,81.8335 L444.6462,81.5791 L434.6769,80.6225 L424.7077,81.2705 L414.7385,82.8343 L404.7692,80.0568 L394.8,81.7311 L384.8308,81.6529 L374.8615,81.1999 L364.8923,81.267 L354.9231,81.1938 L344.9538,79.2267 L334.9846,79.8223 L325.0154,79.6604 L315.0462,81.0614 L305.0769,81.1262 L295.1077,81.3225 L285.1385,80.1152 L275.1692,80.7111 L265.2,80.5706 L255.2308,82.4294 L245.2615,82.0287 L235.2923,79.5964 L225.3231,80.6967 L215.3538,79.3519 L205.3846,81.6602 L195.4154,82.5138 L185.4462,82.3433 L175.4769,79.7297 L165.5077,82.1284 L155.5385,78.9103 L145.5692,81.4249 L135.6,80.093 L125.6308,81.1491 L115.6615,81.5321 L105.6923,82.1501 L95.7231,78.9714 L85.7538,82.1591 L75.7846,81.3663 L65.8154,81.8387 L55.8462,82.8853 L45.8769,80.9058 L35.9077,81.3586 L25.9385,81.4603 L15.9692,81.4171 L6,80.8912 L6,80.8912 " fill="#FFFFE0" style="stroke:#181818;stroke-width:4.0;"/><path d="M654,80.8912 L654.1868,80.8912 L653.6317,82.8912 L654.1718,84.8912 L654.3553,86.8912 L653.3659,88.8912 L654,90.8912 L654,90.8221 L656,90.5121 L658,90.5503 L660,90.8306 L662,90.2766 L664,90.8912 L664.348,91.2391 L661.6038,88.495 L659.8757,86.7669 L658.2715,85.1627 L655.9461,82.8372 L654,80.8912 " fill="#FFFFE0" style="stroke:#181818;stroke-width:4.0;"/><text fill="#000000" font-family="Chalkduster" font-size="24" lengthAdjust="spacing" textLength="480" x="12" y="109.732">e.g. Language Data Commons terms</text><text fill="#000000" font-family="Chalkduster" font-size="24" lengthAdjust="spacing" textLength="637" x="12" y="140.3619">such as communicationMode, SpokenLanguage</text></g><!--entity md--><g id="elem_md"><polygon fill="#FFE4E1" points="810,213.1512,810,213.3613,819.9375,212.7368,829.875,213.3444,839.8125,213.5508,849.75,212.4378,859.6875,213.0734,869.625,212.7247,879.5625,212.7677,889.5,213.083,899.4375,212.4598,909.375,213.7048,919.3125,212.5209,929.25,212.9534,939.1875,213.5831,949.125,213.0654,959.0625,213.2194,969,213.1192,978.9375,213.3297,988.875,213.3903,998.8125,213.7369,1008.75,213.8222,1018.6875,213.8304,1028.625,213.4058,1038.5625,213.6147,1048.5,213.8534,1058.4375,212.43,1068.375,213.8297,1078.3125,212.8547,1088.25,213.685,1098.1875,212.6561,1108.125,213.0827,1118.0625,213.8928,1128,213.1512,1127.9938,213.1362,1128.367,213.33,1128.7503,213.5483,1129.1138,213.7187,1129.4137,213.7357,1129.7678,213.8834,1129.8562,213.92,1129.7379,214.1639,1130.1482,214.6268,1130.3759,215.014,1130.4905,215.3543,1130.5,215.6512,1131.113,215.6512,1130.0169,225.1836,1129.8478,234.7161,1129.8786,244.2485,1130.4411,253.781,1130.3035,263.3135,1131.1814,272.8459,1130.3253,282.3784,1130.5,291.9108,1130.3944,291.8671,1130.4239,292.2935,1130.0017,292.5329,1129.9008,292.9053,1130.1141,293.4078,1129.7678,293.6786,1129.8233,293.8128,1129.5079,294.0512,1129.0196,293.8724,1128.7478,294.2162,1128.4289,294.4462,1128,294.4108,1128,293.9384,1118.0625,294.315,1108.125,294.5368,1098.1875,295.0626,1088.25,294.4066,1078.3125,294.8734,1068.375,293.857,1058.4375,293.7336,1048.5,294.9144,1038.5625,293.6939,1028.625,294.9198,1018.6875,294.6175,1008.75,294.1429,998.8125,294.0571,988.875,294.8696,978.9375,294.1115,969,295.0027,959.0625,293.8581,949.125,295.0283,939.1875,294.8951,929.25,294.6558,919.3125,294.458,909.375,295.1374,899.4375,295.0244,889.5,294.5801,879.5625,294.679,869.625,294.2806,859.6875,295.1273,849.75,294.5657,839.8125,294.5834,829.875,293.8025,819.9375,294.0056,810,294.4108,810.0677,294.5743,809.7013,294.3967,809.2874,294.1047,808.8982,293.8723,808.5579,293.7576,808.2322,293.6786,808.0209,293.5911,808.2135,293.3779,808.1671,293.0658,807.955,292.6851,807.8605,292.353,807.5,291.9108,807.3633,291.9108,807.5872,282.3784,807.1124,272.8459,807.784,263.3135,807.7468,253.781,808.0524,244.2485,807.2703,234.7161,807.3656,225.1836,807.5,215.6512,807.6366,215.7077,807.8212,215.37,807.6351,214.8787,807.8796,214.5658,808.1318,214.256,808.2322,213.8834,808.1543,213.6953,808.6309,213.8458,808.9722,213.67,809.28,213.413,809.6646,213.3414,810,213.1512" style="stroke:#181818;stroke-width:4.0;"/><text fill="#000000" font-family="Chalkduster" font-size="24" font-style="italic" lengthAdjust="spacing" textLength="175" x="881.5" y="246.992">&#171;workspace&#187;</text><text fill="#000000" font-family="Chalkduster" font-size="24" lengthAdjust="spacing" textLength="303" x="817.5" y="277.6219">Domain-specific Mode</text></g><g id="elem_GMN7"><path d="M762,80.8912 L762.5605,80.8912 L760.8951,91.0711 L762.5154,101.2511 L763.0658,111.431 L760.0976,121.611 L761.7928,131.7909 L760.8627,141.9709 L762,152.1508 L762,152.1508 L762,151.1282 L772.15,151.9691 L782.3,150.3072 L792.45,153.6272 L802.6,150.4701 L812.75,151.6234 L822.9,153.3027 L833.05,151.9221 L843.2,152.3328 L853.35,152.0656 L863.5,152.6269 L873.65,152.7885 L883.8,153.7127 L893.95,153.9403 L904.1,153.9622 L914.25,152.8298 L924.4,153.3871 L934.55,154.0234 L944.7,150.2277 L954.85,153.9602 L965,152.1508 L964.211,152.0988 L967.0871,162.3529 L965.0161,172.2807 L966.8177,182.464 L969.64,192.7145 L968.2037,202.6842 L969,212.8012 L969.2802,212.8196 L970.5677,202.7522 L971.4409,192.6574 L970.9896,182.4753 L972.4309,172.418 L970.8102,162.1588 L973,152.1508 L973,152.9092 L983.15,153.6127 L993.3,153.3362 L1003.45,153.7856 L1013.6,150.8626 L1023.75,150.4117 L1033.9,150.4938 L1044.05,151.9938 L1054.2,151.6268 L1064.35,153.9679 L1074.5,151.685 L1084.65,151.236 L1094.8,152.7595 L1104.95,150.3726 L1115.1,150.7665 L1125.25,153.8814 L1135.4,153.3126 L1145.55,154.1095 L1155.7,151.2927 L1165.85,153.002 L1176,152.1508 L1176,152.1508 L1177.5745,152.1508 L1174.7403,141.9409 L1175.7444,131.7309 L1176.336,121.521 L1177.738,111.311 L1175.9888,101.1011 L1176,90.8912 L1176.2907,91.1819 L1173.6519,88.5431 L1171.5743,86.4655 L1170.3165,85.2077 L1167.5494,82.4405 L1166,80.8912 L1166,82.2484 L1155.9,81.4422 L1145.8,80.1767 L1135.7,79.9478 L1125.6,82.1145 L1115.5,80.0929 L1105.4,82.4695 L1095.3,79.4172 L1085.2,82.5376 L1075.1,82.1826 L1065,81.5444 L1054.9,81.0171 L1044.8,82.8288 L1034.7,82.5274 L1024.6,81.3425 L1014.5,81.6063 L1004.4,80.5438 L994.3,82.8017 L984.2,81.3041 L974.1,81.3514 L964,79.2689 L953.9,79.8106 L943.8,82.3065 L933.7,82.0372 L923.6,80.7767 L913.5,80.032 L903.4,80.3074 L893.3,79.0614 L883.2,81.9971 L873.1,82.8633 L863,82.2949 L852.9,82.7443 L842.8,80.5266 L832.7,81.1237 L822.6,79.8576 L812.5,81.6486 L802.4,81.5492 L792.3,82.3642 L782.2,80.2787 L772.1,80.5327 L762,80.8912 L762,80.8912 " fill="#FFFFE0" style="stroke:#181818;stroke-width:4.0;"/><path d="M1166,80.8912 L1166.1868,80.8912 L1165.6317,82.8912 L1166.1718,84.8912 L1166.3553,86.8912 L1165.3659,88.8912 L1166,90.8912 L1166,90.8221 L1168,90.5121 L1170,90.5503 L1172,90.8306 L1174,90.2766 L1176,90.8912 L1176.348,91.2391 L1173.6038,88.495 L1171.8757,86.7669 L1170.2715,85.1627 L1167.9461,82.8372 L1166,80.8912 " fill="#FFFFE0" style="stroke:#181818;stroke-width:4.0;"/><text fill="#000000" font-family="Chalkduster" font-size="24" lengthAdjust="spacing" textLength="393" x="768" y="109.732">e.g. Language Data Commons</text><text fill="#000000" font-family="Chalkduster" font-size="24" lengthAdjust="spacing" textLength="135" x="768" y="140.3619">mode file</text></g><g id="elem_GMN10"><path d="M644,355.4112 L644.5605,355.4112 L642.8951,365.6001 L644.5154,375.7891 L645.0658,385.978 L642.0976,396.167 L643.7928,406.3559 L642.8627,416.5449 L642.9773,426.7338 L643.8182,436.9228 L642.1563,447.1117 L644,457.3007 L644,457.3007 L644,458.777 L654,455.6199 L664,456.7733 L674,458.4525 L684,457.0719 L694,457.4826 L704,457.2155 L714,457.7767 L724,457.9384 L734,458.8625 L744,459.0901 L754,459.112 L764,457.9797 L774,458.5369 L784,459.1733 L794,455.3775 L804,459.11 L814,456.51 L824,458.7242 L834,455.9806 L844,457.118 L854,459.2783 L864,457.1707 L874,457.5815 L884,458.2037 L894,458.4106 L904,457.2902 L914,458.0666 L924,455.7742 L934,458.059 L944,458.7625 L954,458.4861 L964,458.9354 L974,456.0124 L984,455.5615 L994,455.6436 L1004,457.1436 L1014,456.7766 L1024,459.1178 L1034,456.8349 L1044,456.3859 L1054,457.9094 L1064,455.5224 L1074,455.9163 L1084,459.0312 L1094,458.4624 L1104,459.2593 L1114,456.4425 L1124,458.1519 L1134,458.8751 L1144,456.0409 L1154,457.045 L1164,457.6366 L1174,459.0387 L1184,457.2895 L1194,458.5342 L1204,455.8239 L1214,455.4946 L1224,458.6436 L1234,455.3888 L1244,458.6579 L1254,457.8517 L1264,456.5862 L1274,456.3573 L1284,458.524 L1294,457.3007 L1294,457.3007 L1293.2018,457.3007 L1295.5783,447.0907 L1292.526,436.8808 L1295.6465,426.6708 L1295.2915,416.4609 L1294.6532,406.2509 L1294.1259,396.041 L1295.9376,385.831 L1295.6362,375.6211 L1294,365.4112 L1294.1064,365.5175 L1292.1686,363.5797 L1289.9181,361.3293 L1288.4503,359.8615 L1286.0973,357.5085 L1284,355.4112 L1284,355.8714 L1273.9677,353.7889 L1263.9355,354.3306 L1253.9032,356.8265 L1243.871,356.5572 L1233.8387,355.2967 L1223.8065,354.552 L1213.7742,354.8274 L1203.7419,353.5814 L1193.7097,356.5171 L1183.6774,357.3833 L1173.6452,356.8149 L1163.6129,357.2643 L1153.5806,355.0466 L1143.5484,355.6437 L1133.5161,354.3776 L1123.4839,356.1686 L1113.4516,356.0692 L1103.4194,356.8842 L1093.3871,354.7987 L1083.3548,355.0527 L1073.3226,356.5937 L1063.2903,356.9241 L1053.2581,354.0444 L1043.2258,354.8941 L1033.1935,355.8092 L1023.1613,353.7822 L1013.129,356.3535 L1003.0968,356.0991 L993.0645,355.1425 L983.0323,355.7905 L973,355.4112 L974.9389,355.539 L971.5008,345.2446 L972.5048,335.2431 L971.7601,325.1263 L970.6414,314.9848 L970.0416,304.8775 L969,294.7412 L969.302,294.7611 L966.6725,304.7433 L966.6001,314.8942 L965.7719,324.9952 L966.5032,335.199 L965.9012,345.315 L965,355.4112 L965,355.8425 L954.9688,354.6352 L944.9375,355.2311 L934.9063,355.0906 L924.875,356.9494 L914.8438,356.5487 L904.8125,354.1164 L894.7813,355.2167 L884.75,353.8719 L874.7188,356.1802 L864.6875,357.0338 L854.6563,356.8633 L844.625,354.2497 L834.5938,356.6484 L824.5625,353.4303 L814.5313,355.9449 L804.5,354.613 L794.4688,355.6691 L784.4375,356.0521 L774.4063,356.6701 L764.375,353.4914 L754.3438,356.6791 L744.3125,355.8863 L734.2813,356.3587 L724.25,357.4053 L714.2188,355.4258 L704.1875,355.8786 L694.1563,355.9803 L684.125,355.9371 L674.0938,355.409 L664.0625,357.3064 L654.0313,353.7852 L644,355.4112 L644,355.4112 " fill="#FFFFE0" style="stroke:#181818;stroke-width:4.0;"/><path d="M1284,355.4112 L1284.1868,355.4112 L1283.6317,357.4112 L1284.1718,359.4112 L1284.3553,361.4112 L1283.3659,363.4112 L1284,365.4112 L1284,365.3421 L1286,365.0321 L1288,365.0703 L1290,365.3506 L1292,364.7966 L1294,365.4112 L1294.348,365.7591 L1291.6038,363.015 L1289.8757,361.2869 L1288.2715,359.6827 L1285.9461,357.3572 L1284,355.4112 " fill="#FFFFE0" style="stroke:#181818;stroke-width:4.0;"/><text fill="#000000" font-family="Chalkduster" font-size="24" lengthAdjust="spacing" textLength="571" x="650" y="384.252">- Specify behaviour of editor, e.g. Crate-O</text><text fill="#000000" font-family="Chalkduster" font-size="24" lengthAdjust="spacing" textLength="416" x="650" y="414.8819">- Validate RO-Crate structure</text><text fill="#000000" font-family="Chalkduster" font-size="24" lengthAdjust="spacing" textLength="629" x="650" y="445.5117">- Used for generating profile documentation</text></g><!--entity pf--><g id="elem_pf"><polygon fill="#E6E6FA" points="1529.5,213.1512,1529.5,213.3613,1539.5769,212.7368,1549.6538,213.3444,1559.7308,213.5508,1569.8077,212.4378,1579.8846,213.0734,1589.9615,212.7247,1600.0385,212.7677,1610.1154,213.083,1620.1923,212.4598,1630.2692,213.7048,1640.3462,212.5209,1650.4231,212.9534,1660.5,213.5831,1670.5769,213.0654,1680.6538,213.2194,1690.7308,213.1192,1700.8077,213.3297,1710.8846,213.3903,1720.9615,213.7369,1731.0385,213.8222,1741.1154,213.8304,1751.1923,213.4058,1761.2692,213.6147,1771.3462,213.8534,1781.4231,212.43,1791.5,213.8297,1801.5769,212.8547,1811.6538,213.685,1821.7308,212.6561,1831.8077,213.0827,1841.8846,213.8928,1851.9615,213.1024,1862.0385,213.2565,1872.1154,213.4898,1882.1923,213.5674,1892.2692,213.1473,1902.3462,213.4384,1912.4231,212.5787,1922.5,213.1512,1922.5363,213.2387,1922.9235,213.4664,1923.2638,213.581,1923.6389,213.7793,1923.8526,213.5882,1924.2678,213.8834,1924.0669,213.8002,1924.2228,214.1577,1924.5425,214.583,1924.6466,214.919,1925.0634,215.3845,1925,215.6512,1924.8253,215.6512,1924.6569,225.1836,1925.2283,234.7161,1924.3332,244.2485,1924.4809,253.781,1925.649,263.3135,1925.4357,272.8459,1925.7345,282.3784,1925,291.9108,1924.9009,291.8698,1924.9519,292.3051,1924.8889,292.6932,1924.4152,292.9112,1924.3847,293.3128,1924.2678,293.6786,1924.2838,293.7174,1923.9974,294.0258,1923.5601,293.9702,1923.2661,294.2604,1922.7829,294.0938,1922.5,294.4108,1922.5,293.7336,1912.4231,294.9144,1902.3462,293.6939,1892.2692,294.9198,1882.1923,294.6175,1872.1154,294.1429,1862.0385,294.0571,1851.9615,294.8696,1841.8846,294.1115,1831.8077,295.0027,1821.7308,293.8581,1811.6538,295.0283,1801.5769,294.8951,1791.5,294.6558,1781.4231,294.458,1771.3462,295.1374,1761.2692,295.0244,1751.1923,294.5801,1741.1154,294.679,1731.0385,294.2806,1720.9615,295.1273,1710.8846,294.5657,1700.8077,294.5834,1690.7308,293.8025,1680.6538,294.0056,1670.5769,294.9416,1660.5,294.8406,1650.4231,294.3679,1640.3462,294.0887,1630.2692,294.1919,1620.1923,293.7247,1610.1154,294.8256,1600.0385,295.1504,1589.9615,294.9372,1579.8846,295.1058,1569.8077,294.2741,1559.7308,294.498,1549.6538,294.0232,1539.5769,294.6949,1529.5,294.4108,1529.5315,294.4868,1529.2169,294.4345,1528.7636,294.0472,1528.4222,293.9301,1528.1424,293.9616,1527.7322,293.6786,1527.9069,293.751,1527.4279,293.2597,1527.3796,292.9468,1527.3389,292.637,1526.9583,292.1865,1527,291.9108,1527.3534,291.9108,1527.258,282.3784,1526.8992,272.8459,1527.1422,263.3135,1527.7287,253.781,1526.6871,244.2485,1527.315,234.7161,1527.2856,225.1836,1527,215.6512,1527.0357,215.6659,1527.1898,215.3156,1527.3278,214.9585,1527.2471,214.5109,1527.4624,214.1858,1527.7322,213.8834,1527.6734,213.7413,1528.0939,213.7566,1528.4506,213.6176,1528.8135,213.4939,1529.1093,213.208,1529.5,213.1512" style="stroke:#181818;stroke-width:4.0;"/><text fill="#000000" font-family="Chalkduster" font-size="24" font-style="italic" lengthAdjust="spacing" textLength="170" x="1641" y="246.992">&#171;standards&#187;</text><text fill="#000000" font-family="Chalkduster" font-size="24" lengthAdjust="spacing" textLength="378" x="1537" y="277.6219">RO-Crate Profile Document</text></g><g id="elem_GMN17"><path d="M1450,80.8912 L1450.5605,80.8912 L1448.8951,91.0711 L1450.5154,101.2511 L1451.0658,111.431 L1448.0976,121.611 L1449.7928,131.7909 L1448.8627,141.9709 L1450,152.1508 L1450,152.1508 L1450,151.1282 L1460.0741,151.9691 L1470.1481,150.3072 L1480.2222,153.6272 L1490.2963,150.4701 L1500.3704,151.6234 L1510.4444,153.3027 L1520.5185,151.9221 L1530.5926,152.3328 L1540.6667,152.0656 L1550.7407,152.6269 L1560.8148,152.7885 L1570.8889,153.7127 L1580.963,153.9403 L1591.037,153.9622 L1601.1111,152.8298 L1611.1852,153.3871 L1621.2593,154.0234 L1631.3333,150.2277 L1641.4074,153.9602 L1651.4815,151.3602 L1661.5556,153.5743 L1671.6296,150.8308 L1681.7037,151.9682 L1691.7778,154.1284 L1701.8519,152.0209 L1711.9259,152.4316 L1722,152.1508 L1722.9011,152.2103 L1723.7742,162.3323 L1723.3229,172.3669 L1724.7642,182.5264 L1723.1435,192.4839 L1726.0901,202.7427 L1726,212.8012 L1727.4587,212.8974 L1727.8495,202.7708 L1728.9645,192.692 L1726.7146,182.3912 L1726.9313,172.2532 L1727.6799,162.1502 L1730,152.1508 L1730,151.9938 L1740.0741,151.6268 L1750.1481,153.9679 L1760.2222,151.685 L1770.2963,151.236 L1780.3704,152.7595 L1790.4444,150.3726 L1800.5185,150.7665 L1810.5926,153.8814 L1820.6667,153.3126 L1830.7407,154.1095 L1840.8148,151.2927 L1850.8889,153.002 L1860.963,153.7253 L1871.037,150.8911 L1881.1111,151.8952 L1891.1852,152.4868 L1901.2593,153.8889 L1911.3333,152.1397 L1921.4074,153.3843 L1931.4815,150.6741 L1941.5556,150.3448 L1951.6296,153.4938 L1961.7037,150.239 L1971.7778,153.5081 L1981.8519,152.7018 L1991.9259,151.4364 L2002,152.1508 L2002,152.1508 L2001.0566,152.1508 L2003.2234,141.9409 L2001.2018,131.7309 L2003.5783,121.521 L2000.526,111.311 L2003.6465,101.1011 L2002,90.8912 L2002.3044,91.1956 L2000.154,89.0451 L1998.0297,86.9208 L1996.4567,85.3479 L1994.3857,83.2768 L1992,80.8912 L1992,81.3425 L1981.963,81.6063 L1971.9259,80.5438 L1961.8889,82.8017 L1951.8519,81.3041 L1941.8148,81.3514 L1931.7778,79.2689 L1921.7407,79.8106 L1911.7037,82.3065 L1901.6667,82.0372 L1891.6296,80.7767 L1881.5926,80.032 L1871.5556,80.3074 L1861.5185,79.0614 L1851.4815,81.9971 L1841.4444,82.8633 L1831.4074,82.2949 L1821.3704,82.7443 L1811.3333,80.5266 L1801.2963,81.1237 L1791.2593,79.8576 L1781.2222,81.6486 L1771.1852,81.5492 L1761.1481,82.3642 L1751.1111,80.2787 L1741.0741,80.5327 L1731.037,82.0737 L1721,82.4041 L1710.963,79.5244 L1700.9259,80.3741 L1690.8889,81.2892 L1680.8519,79.2622 L1670.8148,81.8335 L1660.7778,81.5791 L1650.7407,80.6225 L1640.7037,81.2705 L1630.6667,82.8343 L1620.6296,80.0568 L1610.5926,81.7311 L1600.5556,81.6529 L1590.5185,81.1999 L1580.4815,81.267 L1570.4444,81.1938 L1560.4074,79.2267 L1550.3704,79.8223 L1540.3333,79.6604 L1530.2963,81.0614 L1520.2593,81.1262 L1510.2222,81.3225 L1500.1852,80.1152 L1490.1481,80.7111 L1480.1111,80.5706 L1470.0741,82.4294 L1460.037,82.0287 L1450,80.8912 L1450,80.8912 " fill="#FFFFE0" style="stroke:#181818;stroke-width:4.0;"/><path d="M1992,80.8912 L1992.1868,80.8912 L1991.6317,82.8912 L1992.1718,84.8912 L1992.3553,86.8912 L1991.3659,88.8912 L1992,90.8912 L1992,90.8221 L1994,90.5121 L1996,90.5503 L1998,90.8306 L2000,90.2766 L2002,90.8912 L2002.348,91.2391 L1999.6038,88.495 L1997.8757,86.7669 L1996.2715,85.1627 L1993.9461,82.8372 L1992,80.8912 " fill="#FFFFE0" style="stroke:#181818;stroke-width:4.0;"/><text fill="#000000" font-family="Chalkduster" font-size="24" lengthAdjust="spacing" textLength="531" x="1456" y="109.732">e.g. Language Data Commons RO-Crate</text><text fill="#000000" font-family="Chalkduster" font-size="24" lengthAdjust="spacing" textLength="240" x="1456" y="140.3619">Profile Document</text></g><!--reverse link md to pf--><g id="link_md_pf"><path d="M1136.93,253.7812 L1136.93,254.0614 L1146.9215,253.2287 L1156.9131,254.0389 L1166.9046,254.3141 L1176.8962,252.83 L1186.8877,253.6775 L1196.8792,253.2125 L1206.8708,253.2698 L1216.8623,253.6903 L1226.8538,252.8593 L1236.8454,254.5194 L1246.8369,252.9408 L1256.8285,253.5175 L1266.82,254.3571 L1276.8115,253.6668 L1286.8031,253.8721 L1296.7946,253.7386 L1306.7862,254.0192 L1316.7777,254.1 L1326.7692,254.5621 L1336.7608,254.6759 L1346.7523,254.6868 L1356.7438,254.1207 L1366.7354,254.3993 L1376.7269,254.7175 L1386.7185,252.8196 L1396.71,254.6858 L1406.7015,253.3858 L1416.6931,254.4929 L1426.6846,253.1211 L1436.6762,253.6898 L1446.6677,254.77 L1456.6592,253.7162 L1466.6508,253.9216 L1476.6423,254.2327 L1486.6338,254.3361 L1496.6254,253.776 L1506.6169,254.1641 L1516.6085,253.0179 L1526.6,253.7812 " fill="none" style="stroke:#8B0000;stroke-width:4.0;"/><polygon fill="#8B0000" points="1130.93,253.7812,1130.9585,253.8452,1132.6739,254.455,1134.5562,255.44,1136.3841,256.3029,1138.0334,256.7639,1139.93,257.7812,1139.9117,257.7628,1139.0295,256.8806,1138.2396,256.0908,1137.5139,255.3651,1136.567,254.4182,1135.93,253.7812,1136.0605,253.9117,1136.5814,252.8326,1137.4834,252.1345,1138.4318,251.483,1139.1098,250.5609,1139.93,249.7812,1139.9392,249.8019,1138.1257,250.5714,1136.3542,251.4355,1134.5624,252.254,1132.8093,253.1596,1130.93,253.7812" style="stroke:#8B0000;stroke-width:4.0;"/><text fill="#000000" font-family="Chalkduster" font-size="24" lengthAdjust="spacing" textLength="187" x="1235.25" y="182.622">Include rules</text><text fill="#000000" font-family="Chalkduster" font-size="24" lengthAdjust="spacing" textLength="358" x="1149.75" y="213.2519">documentation generated</text><text fill="#000000" font-family="Chalkduster" font-size="24" lengthAdjust="spacing" textLength="67" x="1295.25" y="243.8817">from</text></g><!--reverse link soss to md--><g id="link_soss_md"><path d="M648.71,253.7812 L648.71,254.0614 L658.6281,253.2287 L668.5463,254.0389 L678.4644,254.3141 L688.3825,252.83 L698.3006,253.6775 L708.2188,253.2125 L718.1369,253.2698 L728.055,253.6903 L737.9731,252.8593 L747.8913,254.5194 L757.8094,252.9408 L767.7275,253.5175 L777.6456,254.3571 L787.5638,253.6668 L797.4819,253.8721 L807.4,253.7812 " fill="none" style="stroke:#8B0000;stroke-width:4.0;"/><polygon fill="#8B0000" points="642.71,253.7812,642.7385,253.8452,644.4539,254.455,646.3362,255.44,648.1641,256.3029,649.8134,256.7639,651.71,257.7812,651.6917,257.7628,650.8095,256.8806,650.0196,256.0908,649.2939,255.3651,648.347,254.4182,647.71,253.7812,647.8405,253.9117,648.3614,252.8326,649.2634,252.1345,650.2118,251.483,650.8898,250.5609,651.71,249.7812,651.7192,249.8019,649.9057,250.5714,648.1342,251.4355,646.3424,252.254,644.5893,253.1596,642.71,253.7812" style="stroke:#8B0000;stroke-width:4.0;"/><text fill="#000000" font-family="Chalkduster" font-size="24" lengthAdjust="spacing" textLength="126" x="662" y="243.622">Based on</text></g><!--SRC=[VP9DRzim38Rl-XLiJYjGPVSWo67D3WCsP9ZNdWmCgaJRGYtIaAXr-VULxBfOYdKNG-3N-_2bhppPCJly5GoTOVlH6J6wl4sF0KbqalE8M_aZIecN4NVmSq2G8I92C9x0SfYOIcc2ZYFyEEdRQ0G1dHTFFJnv6M0EwPDIAg8LG_s8i6diWC5iEVRGL1LO0l2XEJNDzJpjo5LZ0_jzAbtEH9SE1p094gTKfYdY8YKy0NTpR0UVU_XQ179P08vb6RZb49WI2CQGMahP3dL2uGwPl3NYcRwnmnje9dv4MhilM1SGdIQqllCMQaF5UkBuc2PZSS4Axe8ekFTvMWfb1dH-nANdWKKuh6swq5IjCppWO7vxph6cggiSRm3xrTEMDDoRqRjg-glxIMAsaYFMz5r2DzlP8s59rxDCaQiqEBQv7dgsuMBbrrdVNqgFBwN_ECVKWLBbeqViH1_A1h23BykV1J6FMDQzK5fHqBNKHGwg7W_sElf-4BtqVpALkrBzxUdK_UV6AtDBRw6V0G00]--></g></svg>