<?xml version="1.0" encoding="UTF-8"?>
<svg id="Layer_1" xmlns="http://www.w3.org/2000/svg" xmlns:xlink="http://www.w3.org/1999/xlink" version="1.1" viewBox="0 0 207 97.5">
  <!-- Generator: Adobe Illustrator 29.1.0, SVG Export Plug-In . SVG Version: 2.1.0 Build 142)  -->
  <defs>
    <style>
      .st0 {
        fill: none;
      }

      .st1 {
        fill: #010101;
      }

      .st2 {
        fill: #f36f40;
      }

      .st3 {
        clip-path: url(#clippath-1);
      }

      .st4 {
        clip-path: url(#clippath-3);
      }

      .st5 {
        clip-path: url(#clippath-4);
      }

      .st6 {
        clip-path: url(#clippath-2);
      }

      .st7 {
        fill: #fff;
      }

      .st8 {
        fill: #fbc3a6;
      }

      .st9 {
        clip-path: url(#clippath);
      }
    </style>
    <clipPath id="clippath">
      <rect class="st0" x="11.4" y="8.5" width="184.3" height="80.4"/>
    </clipPath>
    <clipPath id="clippath-1">
      <path class="st0" d="M32.1,9.8c-19.2,0-19.8,16.5-19.8,37.9s0,39.9,20.2,40c16.9,0,20.9-12.4,20.9-33.9s4-44-21.3-44h0"/>
    </clipPath>
    <clipPath id="clippath-2">
      <rect class="st0" x="11.4" y="8.5" width="184.3" height="80.4"/>
    </clipPath>
    <clipPath id="clippath-3">
      <rect class="st0" x="11.4" y="9.1" width="184.3" height="79.2"/>
    </clipPath>
    <clipPath id="clippath-4">
      <rect class="st0" x="11.4" y="8.5" width="184.3" height="80.4"/>
    </clipPath>
  </defs>
  <path class="st1" d="M80,36.5l-9.2,24.1h4.4l1.9-5.4h9.4l1.9,5.4h4.4l-9.2-24.1h-3.6ZM78.6,51.3l3.3-9,3.2,9h-6.5Z"/>
  <rect class="st1" x="96.3" y="36.5" width="4.6" height="24.1"/>
  <path class="st1" d="M113.8,36.5l-9.2,24.1h4.4l1.9-5.4h9.4l1.9,5.4h4.4l-9.2-24.1h-3.6ZM112.4,51.3l3.3-9,3.2,9h-6.5Z"/>
  <polygon class="st1" points="125.9 40.8 132.6 40.8 132.6 60.6 137.3 60.6 137.3 40.8 143.9 40.8 143.9 36.5 125.9 36.5 125.9 40.8"/>
  <g class="st9">
    <path class="st1" d="M161.2,49.1c-.6-.6-1.4-1-2.4-1.5-1-.4-2.1-.8-3.4-1.1-1.1-.3-2-.6-2.7-.9-.6-.3-1.1-.6-1.4-1-.3-.4-.4-.8-.4-1.3,0-.9.4-1.7,1.1-2.3.7-.6,1.7-.8,2.9-.8s2.1.2,3.2.6c1,.4,2,1,3,1.9l1.5-3.8c-.6-.6-1.2-1.1-2.1-1.5-.8-.4-1.7-.7-2.7-.9-1-.2-1.9-.3-3-.3-1.7,0-3.2.3-4.4,1-1.3.7-2.2,1.6-2.9,2.7-.7,1.1-1.1,2.4-1.1,3.8s.1,1.9.4,2.6c.3.8.7,1.4,1.3,2,.6.6,1.4,1.1,2.4,1.5,1,.4,2.1.8,3.5,1.1,1.1.3,2,.5,2.6.8.7.3,1.1.6,1.4.9.3.4.4.8.4,1.3,0,.9-.4,1.6-1.1,2.1-.7.5-1.8.7-3.1.7s-2.4-.2-3.6-.6c-1.1-.4-2.2-1-3.3-1.9l-1.5,3.8c.7.6,1.4,1.1,2.3,1.5.9.4,1.8.7,2.9.9,1,.2,2.1.3,3.1.3,1.8,0,3.4-.3,4.7-.9,1.3-.6,2.3-1.4,3-2.5.7-1.1,1-2.4,1-3.9s-.1-1.8-.4-2.5c-.3-.7-.8-1.4-1.4-1.9"/>
    <rect class="st1" x="168.5" y="36.5" width="4.6" height="24.1"/>
    <path class="st1" d="M195.2,51.1c-.3-.7-.8-1.4-1.4-1.9-.6-.6-1.4-1-2.4-1.5-1-.4-2.1-.8-3.4-1.1-1.1-.3-2-.6-2.7-.9-.6-.3-1.1-.6-1.4-1-.3-.4-.4-.8-.4-1.3,0-.9.4-1.7,1.1-2.3.7-.6,1.7-.8,2.9-.8s2.1.2,3.1.6c1,.4,2,1,3,1.9l1.5-3.8c-.6-.6-1.2-1.1-2.1-1.5-.8-.4-1.7-.7-2.7-.9-1-.2-1.9-.3-3-.3-1.7,0-3.2.3-4.4,1-1.3.7-2.2,1.6-2.9,2.7-.7,1.1-1.1,2.4-1.1,3.8s.1,1.9.4,2.6c.3.8.7,1.4,1.3,2,.6.6,1.4,1.1,2.4,1.5,1,.4,2.1.8,3.5,1.1,1.1.3,2,.5,2.6.8.7.3,1.1.6,1.4.9.3.4.4.8.4,1.3,0,.9-.4,1.6-1.1,2.1-.7.5-1.8.7-3.1.7s-2.4-.2-3.6-.6c-1.1-.4-2.2-1-3.3-1.9l-1.5,3.8c.7.6,1.4,1.1,2.3,1.5.9.4,1.8.7,2.9.9,1,.2,2.1.3,3.1.3,1.8,0,3.4-.3,4.7-.9,1.3-.6,2.3-1.4,3-2.5.7-1.1,1-2.4,1-3.9s-.1-1.8-.4-2.5"/>
    <path class="st1" d="M25.6,70.3c.3-.2.8,0,1,.2,0,.1,0,.3-.1.4-.3.3-.8.3-1,0-.1-.2,0-.5.1-.6"/>
    <path class="st1" d="M41.1,70.9c.2-.2.8-.2,1,0,0,.1.1.3,0,.5-.3.3-.8.4-1,.2-.2-.2-.2-.4,0-.6"/>
    <path class="st1" d="M28.2,70.9c0-.3.6-.6.9-.5.2,0,.2.2.2.4,0,.4-.5.7-.8.6-.3,0-.4-.3-.3-.6"/>
    <path class="st1" d="M48.2,71.6c-.3.1-.8,0-.9-.4,0-.2,0-.3.2-.4.4-.2.9,0,1,.2,0,.3,0,.5-.3.6"/>
    <path class="st1" d="M32.4,70.6c.2,0,.4,0,.5.2.1.1.2.3.1.5,0,.2-.2.3-.4.3-.1,0-.3,0-.4,0-.4,0-.6-.3-.5-.7,0-.4.3-.5.7-.4"/>
    <path class="st1" d="M44.8,71.7c-.2,0-.3-.1-.5-.3-.1-.2-.2-.3,0-.5,0-.2.2-.3.4-.2.1,0,.3,0,.4,0,.4,0,.5.4.4.7-.1.4-.3.5-.7.3"/>
    <path class="st1" d="M35.5,70.7c.5,0,.4.2.5.4,0,.3-.1.4-.4.5-.3,0-.6,0-.9-.2,0,0-.2-.2-.1-.3,0,0,.2-.3.5-.4,0,0,.3,0,.4,0"/>
    <path class="st1" d="M51,71.4c-.5,0-.4-.2-.4-.5,0-.3.1-.4.4-.5.3,0,.6,0,.9.3,0,0,.2.2.1.3,0,0-.2.3-.5.3,0,0-.3,0-.4,0"/>
    <path class="st1" d="M22.4,71.1c-.5,0-.4-.2-.4-.5,0-.3.1-.4.4-.5.3,0,.6,0,.9.3,0,0,.2.2.1.3,0,0-.2.3-.5.3,0,0-.3,0-.4,0"/>
    <path class="st1" d="M38.9,70.6c.2,0,.4,0,.4.3,0,.3,0,.5-.2.7-.2.2-.3.2-.5,0-.2-.1-.4,0-.5-.3,0-.2-.1-.3,0-.5.2-.2.5-.3.8-.3"/>
    <path class="st1" d="M18.5,71c-.2,0-.3-.3-.2-.5,0-.3.3-.4.6-.5.2,0,.4,0,.5.2,0,.2.3.3.3.6,0,.2-.1.3-.3.4-.3,0-.5,0-.8-.2"/>
    <path class="st2" d="M53.4,53.8c0,21.5-4,33.9-20.9,33.9-20.1,0-20.2-18.5-20.2-40s.6-37.9,19.8-37.9c25.3,0,21.3,22.6,21.3,44"/>
  </g>
  <g class="st3">
    <path class="st7" d="M13.4,21.9c.8,0,1.5-.2,2.4-.2.3,0,.7,0,1,0,.4,0,.7-.2,1.1-.2.6-.1,1.4,0,2,0,.4,0,.8-.2,1.2-.2.4,0,.8,0,1.2,0,.4,0,.8-.2,1.2-.2.3,0,.7,0,1,0,.5,0,1-.2,1.5-.2.3,0,.6,0,1,0,1.5-.3,3.1-.4,4.6-.4h8.7c.6,0,1.4,0,2,0,.3,0,.6.2.9.2.4,0,.8,0,1.1,0,.7,0,1.4,0,2,0,.7.1,1.3.1,2,.2.5,0,1.1.2,1.6.2.3,0,.7.2,1,.2.3,0,.6-.3.9-.2.3,0,.8.2,1.1.3.2,0,.7.2.9.3.4.2.3.6.3,1,0,.4.3.7,0,.9-1.6,1-38.8,1.9-41.6.9-.3-.1.2-2.3.5-2.4.4-.2.8.2,1.1-.2"/>
    <path class="st1" d="M12.7,28.6c0-1.5,1.1-.5,1.8-.3,3.1,1,5.4,3.1,7.9,5,3.3,2.4,5.9,5.6,8.8,8.4,1.3,1.2,2.4,1.5,4,.6,1.7-1.1,3.1-2.4,4.3-4,2-2.7,4.6-4.7,7.1-6.8,1.9-1.6,5.1-5.3,5.9-4.8.6.5.3,1-.5,1.6-4.5,3.2-8.5,6.9-11.8,11.4-.8,1.1-1.7,2.1-2.6,3-1.3,1.4-2.2,2.8-2.1,4.9,0,2.7.8,5.1,2.6,7.1,2.1,2.3,4.4,4.5,6.7,6.8,2.2,2.2,5,3.5,7.6,5.1,1.3.8,2.3,3.5-.4,3.5,0,0-2,0-5,0-3.1,0-1.7,0-4.9,0-1.5,0-16-.9-20.4-.8-.4,0-1.1.3-1.3-.2-.3-.7.5-.9.9-1.1,3.8-2.5,7.5-5.1,11.2-7.9,2.8-2.2,4.6-1.9,7.6.8,3.5,3.1,5.7,4.7,9.9,6.7.3.1,1.6,1.2,2,.6.3-.5-1.2-1.2-1.6-1.4-3.4-1.7-4.9-2.8-7.8-5.2-1.1-.9-2.2-2-3.5-2.7-3.4-1.8-4.7-1.8-7.7.6-3.3,2.6-6.9,4.9-10.4,7.3-1.6,1.2-3.1,2.6-5,3.4-.3.1-.7.4-.6.8,0,.4.6.4.9.5,2.6.6,5.3.4,7.9.5,2.3.1,4.5.2,6.8.4,2.4.2,4.8-.3,7.3-.2,4.4.1,8.7,0,13.1-.3.6,0,1.1-.1,1,.9-.4,3.3-1.7,6.2-3.7,8.8-.2.2-2.4,2.5-4.1,3.4-4.7,2.4-9.6,2.8-14.8,2.4-2.1-.2-8.4-2.3-8.8-2.4-.3-.1-1.5-.8-1.8-1.2-.2-.3-2.4-1.1-4.4-8.1-.8-2.3-.7-2.3-.8-3-.4-1.5,0-2.5,1.1-3.3,2.3-1.6,4.3-3.4,6.6-4.8,4-2.5,7.5-5.5,10.4-9.2,2-2.6,1-8.7-1.8-12-3.3-4-6.9-7.8-11.2-10.8-1.4-1-2.8-2.1-4.4-2.8-.6-.3-1.9-.6-1.9-1.2"/>
    <path class="st1" d="M51.1,21.3c-.1.5-3.4-.3-7.3-.6-5.1-.3-11.3,0-12.1,0-6.7.1,2.8,0-13.4.4-.5,0-4.3.9-4.3.9,0-.5,0-4.5,3.5-7.6.6-.6,3.2-2.4,3.5-2.5,1.9-1,4-1.3,6.1-1.6,4.5-.7,7.7-.8,12.2.1,4,.9,7,2.8,8.8,5.3,1.9,2.5,3.5,3.5,2.9,5.5"/>
    <path class="st1" d="M30.7,55c-4.1,3.8-8.5,7.3-12.7,11-.8.7-1.8,1.3-2.7,2-.4.3-.9.9-1.3.5-.4-.4-.5-1.3,0-1.8,1.6-1.8,3.1-3.7,4.9-5.3,3.2-2.8,6.2-5.9,7.8-10.1.4-1,0-2-.4-2.9-1-2.4-2.3-4.8-4.2-6.5-2.9-2.7-5.2-6.1-8.9-8-.5-.3-.8-2.7-.4-3.1.4-.4.7,0,1,.1,5.9,3.8,11.3,8.3,15.5,13.9,1.5,2,4.7,7.2,1.4,10.2"/>
    <path class="st1" d="M53.2,64.5c-.1.9-.7.8-1.4.4-3.3-2.4-6.3-5.2-9.2-8-1.8-1.8-3.6-3.7-4.9-5.9-1.3-2.1-.9-4.2.3-5.9,2-3,4.3-5.9,6.6-8.7,2-2.3,4.3-4.3,6.6-6.4.4-.3.9-1.2,1.3-.6.5.6.7,1.8,0,2.5-3.7,4.1-6.7,8.6-9.2,13.6-.9,1.8-.4,3.6.2,5.3,1.7,4.6,4.7,8.3,8.6,11.3.1,0,1.2.8.9,2.6"/>
    <path class="st1" d="M46.7,27.2c.4,0,1.1,0,1.4.6.3.7-.2,1.1-.6,1.5-2.7,2.5-5.7,4.8-8.1,7.6-1.3,1.5-2.4,3.1-4.1,4.2-1,.7-1.8.7-2.7-.1-3.3-2.7-6.1-6.1-9.5-8.6-1.4-1-2.7-2-4.2-2.9-.4-.3-.8-.6-.7-1.1.1-.7,26.3-.5,28.6-1"/>
    <path class="st1" d="M48.5,38.6c0-1.2,1.6-2.8,2.7-2.6.6,0,1.1.6,1.2,1.3.1,1.6-1,3.1-2.2,3.1-1.1,0-1.6-.7-1.6-1.7"/>
    <path class="st1" d="M19.4,43.6c.2,1.3-.5,1.6-1.6,1.2-1.1-.4-2.1-.8-2.2-2.2,0-.7.1-1.3.6-1.7.6-.5,1.3-.2,1.7.2.7.6,1.7,1.2,1.4,2.4"/>
    <path class="st1" d="M53.5,46.3c0,.5.3,1.3-.5,1.4-.8.2-1.6-.1-1.8-.9-.2-.7-.5-1.7,0-2.4.4-.6.9-1.5,1.7-1.2.7.3.6,1,.6,1.3"/>
    <path class="st7" d="M40.6,27.1c-.2.2-.8.1-1-.2,0-.1,0-.3,0-.5.3-.3.8-.3,1,0,.2.2.1.5-.1.6"/>
    <path class="st7" d="M25.1,27.3c-.2.2-.8.3-1,0-.1-.1-.1-.3,0-.5.3-.3.8-.4,1-.2.2.2.2.4,0,.6"/>
    <path class="st7" d="M37.9,26.7c0,.3-.6.6-.9.5-.2,0-.3-.2-.2-.4,0-.4.4-.8.8-.7.3,0,.4.3.3.5"/>
    <path class="st7" d="M18,26.9c.3-.1.8,0,.9.4,0,.2,0,.3-.2.4-.4.2-.9.1-1-.2-.1-.3,0-.5.2-.6"/>
    <path class="st7" d="M33.8,27.2c-.2,0-.4,0-.5-.2-.2-.1-.2-.3-.1-.5,0-.2.1-.3.4-.3.1,0,.3,0,.4,0,.4,0,.6.3.5.6,0,.4-.2.5-.7.4"/>
    <path class="st7" d="M21.4,26.7c.2,0,.4.1.5.3.1.1.2.3.1.5,0,.2-.2.3-.4.3-.1,0-.3,0-.4,0-.4,0-.6-.3-.5-.7,0-.4.3-.5.7-.4"/>
    <path class="st7" d="M30.6,27.2c-.4,0-.4-.2-.5-.4,0-.3,0-.4.3-.5.3,0,.6,0,.9.2,0,0,.2.2.1.3,0,0-.2.4-.4.4,0,0-.3,0-.4,0"/>
    <path class="st7" d="M15.2,27.2c.5,0,.4.2.5.4,0,.3-.1.4-.4.5-.3,0-.6,0-.9-.2,0,0-.2-.2-.1-.3,0,0,.2-.3.5-.4,0,0,.3,0,.4,0"/>
    <path class="st7" d="M43.7,26.2c.5,0,.4.2.5.4,0,.3-.1.4-.4.5-.3,0-.6,0-.9-.2,0,0-.2-.2-.1-.3,0,0,.2-.3.5-.4,0,0,.3,0,.4,0"/>
    <path class="st7" d="M47.3,26c.5,0,.4.2.5.4,0,.3-.1.4-.4.5-.3,0-.6,0-.9-.2,0,0-.2-.2-.1-.3,0,0,.2-.3.5-.4,0,0,.3,0,.4,0"/>
    <path class="st7" d="M27.3,27.5c-.2,0-.4,0-.4-.3,0-.3,0-.5.2-.7.1-.2.3-.2.5,0,.2.1.4,0,.5.3.1.2.1.3,0,.5-.2.2-.4.3-.7.3"/>
    <path class="st7" d="M51,25.7c.2,0,.3.3.2.5,0,.3-.3.4-.6.5-.2,0-.4,0-.5-.2,0-.2-.3-.3-.3-.6,0-.2,0-.4.3-.4.3,0,.5,0,.8.2"/>
    <path class="st2" d="M26.8,68c-.2,0-.7,0-.8-.3-.2-.4.2-.6.4-.8,1.8-1.3,3.7-2.4,5.4-3.8.9-.7,1.6-1.6,2.7-2.1.6-.3,1.1-.3,1.7.1,2,1.5,3.7,3.4,5.9,4.8.8.6,1.7,1.1,2.6,1.6.3.2.5.3.4.6,0,.3-16.7-.4-18.2-.2"/>
    <path class="st2" d="M42.8,29.4c.3,0,.8,0,1,.4.2.4-.1.7-.5,1-2,1.6-4.1,3-6,4.8-1,.9-1.8,2-3,2.7-.7.4-1.3.4-2,0-2.4-1.8-4.4-3.9-6.9-5.5-1-.6-2-1.3-3-1.9-.3-.2-.6-.4-.5-.7,0-.4,19.1-.3,20.8-.6"/>
    <path class="st7" d="M43,81.5c-.3.2-1.1,0-1.3-.3,0-.2,0-.4.2-.6.5-.3,1.1-.3,1.3,0,.2.3.1.6-.2.8"/>
    <path class="st7" d="M29.8,83.4c-.3.3-1.1.3-1.3,0-.1-.2-.1-.4,0-.6.4-.4,1-.5,1.3-.2.2.3.2.6,0,.8"/>
    <path class="st7" d="M37.7,82.9c-.3.3-1.1.2-1.3-.1-.1-.2-.1-.4,0-.6.4-.4,1.1-.5,1.3-.1.2.3.2.6,0,.8"/>
    <path class="st7" d="M19.7,79.8c-.3.2-1,.2-1.2,0-.1-.2,0-.4,0-.5.4-.4.9-.4,1.2-.1.2.3.2.5,0,.7"/>
    <path class="st7" d="M44.2,79.8c.3-.2,1.1-.1,1.3.3,0,.2,0,.4-.1.6-.4.4-1.1.3-1.3,0-.2-.3-.1-.6.2-.8"/>
    <path class="st7" d="M34.5,83.2c-.2,0-.5-.1-.7-.3-.2-.2-.2-.4-.2-.6,0-.2.2-.4.5-.4.2,0,.4,0,.6,0,.5,0,.8.4.7.9,0,.5-.4.6-.9.5"/>
    <path class="st7" d="M31.7,82.2c.2,0,.5.2.6.4.2.2.2.4,0,.7,0,.2-.2.3-.5.3-.2,0-.4,0-.6,0-.5-.1-.7-.5-.6-.9.1-.5.4-.6,1-.4"/>
    <path class="st7" d="M46.9,80.6c-.6,0-.6-.2-.6-.6,0-.4.1-.6.5-.6.4,0,.8,0,1.1.3.1.1.2.2.2.4,0,.1-.3.5-.6.5,0,0-.4,0-.6,0"/>
    <path class="st7" d="M27.2,82c.6,0,.5.3.6.6,0,.4-.2.5-.5.6-.4,0-.8,0-1.1-.4-.1-.1-.2-.2-.1-.4,0,0,.3-.4.6-.4,0,0,.4,0,.6,0"/>
    <path class="st7" d="M22.3,80.2c.6.1.5.4.4.7,0,.4-.3.5-.7.5-.4,0-.8-.2-1-.6,0-.1-.2-.3,0-.4,0,0,.4-.4.7-.3,0,0,.4.1.6.2"/>
    <path class="st7" d="M39.5,82.5c-.3,0-.5-.1-.6-.4,0-.4,0-.7.3-1,.2-.2.4-.2.7,0,.2.2.5.1.7.4.1.3.1.5-.1.7-.3.2-.6.4-1,.3"/>
    <path class="st7" d="M24.8,81.1c.3.1.3.4.2.7-.1.4-.4.5-.8.6-.3,0-.5,0-.6-.3,0-.3-.4-.4-.3-.7,0-.3.1-.5.4-.5.4,0,.7,0,1,.3"/>
    <path class="st7" d="M39.3,79.4c-.3.2-1.1,0-1.3-.3,0-.2,0-.4.2-.6.5-.3,1.1-.3,1.3,0,.2.3.1.6-.2.8"/>
    <path class="st7" d="M23.1,79.3c-.3.3-1.1.3-1.3,0-.1-.2-.1-.4,0-.6.4-.4,1-.5,1.3-.2.2.3.2.6,0,.8"/>
    <path class="st7" d="M37.1,79.8c-.4.1-1.1-.2-1.2-.6,0-.2,0-.4.3-.5.5-.2,1.2,0,1.3.4.1.4,0,.6-.4.7"/>
    <path class="st7" d="M48.2,77.8c0-.4.5-1,.9-.9.2,0,.4.2.4.4,0,.6-.3,1.1-.8,1.1-.4,0-.6-.2-.6-.6"/>
    <path class="st7" d="M20.2,77.7c.4-.1,1.1.2,1.2.6,0,.2,0,.4-.3.5-.5.2-1.2,0-1.3-.4-.1-.4,0-.6.4-.7"/>
    <path class="st7" d="M33.9,79.8c-.2,0-.5-.1-.7-.3-.2-.2-.2-.4-.2-.6,0-.2.2-.4.5-.4.2,0,.4,0,.6,0,.5,0,.8.4.7.9,0,.5-.4.6-.9.5"/>
    <path class="st7" d="M26.8,78.5c.2,0,.5.2.6.4.2.2.2.4,0,.7,0,.2-.2.3-.5.3-.2,0-.4,0-.6,0-.5-.1-.7-.5-.6-.9.1-.5.4-.6,1-.4"/>
    <path class="st7" d="M29,79.8c-.6,0-.6-.2-.6-.6,0-.4.1-.6.5-.6.4,0,.8,0,1.1.3.1.1.2.2.2.4,0,.1-.3.5-.6.5,0,0-.4,0-.6,0"/>
    <path class="st7" d="M46.3,78.8c-.6,0-.6-.2-.6-.6,0-.4.1-.6.5-.6.4,0,.8,0,1.1.3.1.1.2.2.2.4,0,.1-.3.5-.6.5,0,0-.4,0-.6,0"/>
    <path class="st7" d="M17.7,77.7c-.2-.6.1-.6.4-.7.3-.1.6,0,.7.4.2.4.2.8,0,1.2,0,.1-.2.3-.4.2-.1,0-.5-.2-.6-.5,0,0,0-.4-.1-.6"/>
    <path class="st7" d="M41.6,78.3c.5,0,.5.3.5.6,0,.4-.2.6-.5.6-.4,0-.7,0-1-.3-.1-.1-.2-.2-.1-.4,0-.1.3-.5.6-.5,0,0,.4,0,.5,0"/>
    <path class="st7" d="M24.8,78.6c.5,0,.5.3.5.6,0,.4-.1.6-.5.6-.4,0-.7,0-1-.3-.1-.1-.2-.2-.1-.4,0-.1.2-.5.5-.5,0,0,.4,0,.5,0"/>
    <path class="st7" d="M31.2,79.9c-.3,0-.5-.1-.6-.4,0-.4,0-.7.3-1,.2-.2.4-.2.7,0,.2.2.5.1.7.4.1.3.1.5-.1.7-.3.2-.6.4-1,.3"/>
    <path class="st7" d="M43.9,79.2c-.3,0-.5-.1-.6-.4,0-.4,0-.7.3-1,.2-.2.4-.2.7,0,.2.2.5.1.7.4.1.3.1.5-.1.7-.3.2-.6.4-1,.3"/>
    <path class="st7" d="M45,82.5c-.3.2-1.1,0-1.3-.3,0-.2,0-.4.2-.6.5-.3,1.1-.3,1.3,0,.2.3.1.6-.2.8"/>
    <path class="st7" d="M27.8,85.1c-.3.3-1.1.3-1.3,0-.1-.2-.1-.4,0-.6.4-.4,1-.5,1.3-.2.2.3.2.6,0,.8"/>
    <path class="st7" d="M33.7,84.6c.4-.2,1.1,0,1.3.4,0,.2,0,.4-.2.6-.5.3-1.1.2-1.3-.2-.2-.3,0-.6.3-.8"/>
    <path class="st7" d="M29.6,85.5c-.4.2-1.1,0-1.3-.4,0-.2,0-.4.2-.6.5-.3,1.1-.2,1.3.2.2.3,0,.6-.3.8"/>
    <path class="st7" d="M20.5,81.7c.4-.2,1.1,0,1.3.4,0,.2,0,.4-.2.6-.5.3-1.1.2-1.3-.2-.2-.3,0-.6.3-.8"/>
    <path class="st7" d="M22.8,82.4c.4,0,.9.7.7,1.1,0,.2-.3.3-.5.3-.6,0-1-.5-.9-1,0-.4.3-.5.7-.4"/>
    <path class="st7" d="M39.5,84.8c-.2,0-.5-.1-.7-.3-.2-.2-.2-.4-.2-.6,0-.2.2-.4.5-.4.2,0,.4,0,.6,0,.5,0,.8.4.7.9,0,.5-.4.6-.9.5"/>
    <path class="st7" d="M25.1,83.5c.2,0,.5.2.6.4.2.2.2.4,0,.7,0,.2-.2.3-.5.3-.2,0-.4,0-.6,0-.5-.1-.7-.5-.6-.9.1-.5.4-.6,1-.4"/>
    <path class="st7" d="M36.4,85.3c-.6,0-.6-.2-.6-.6,0-.4.1-.6.5-.6.4,0,.8,0,1.1.3.1.1.2.2.2.4,0,.1-.3.5-.6.5,0,0-.4,0-.6,0"/>
    <path class="st7" d="M41.8,83.9c-.6.1-.6-.1-.7-.5-.1-.3,0-.6.4-.7.4-.2.8-.2,1.2,0,.1,0,.3.2.2.4,0,.1-.2.5-.5.6,0,0-.4,0-.6.1"/>
    <path class="st7" d="M19.5,80.3c.6,0,.5.3.6.6,0,.4-.2.6-.5.6-.4,0-.8,0-1.1-.4-.1-.1-.2-.2-.1-.4,0,0,.3-.4.6-.4,0,0,.4,0,.6,0"/>
    <path class="st7" d="M31.1,86c-.3,0-.5-.1-.6-.4,0-.4,0-.7.3-1,.2-.2.4-.2.7,0,.2.2.5.1.7.4.1.3.1.5-.1.7-.3.2-.6.4-1,.3"/>
    <path class="st7" d="M22.5,15.4c.3-.2,1.1,0,1.3.3,0,.2,0,.4-.2.6-.5.3-1.1.3-1.3,0-.2-.3-.1-.6.2-.8"/>
    <path class="st7" d="M35.7,13.5c.3-.3,1.1-.3,1.3,0,.1.2.1.4,0,.6-.4.4-1,.5-1.3.2-.2-.3-.2-.6,0-.8"/>
    <path class="st7" d="M27.7,14c.3-.3,1.1-.2,1.3.1.1.2.1.4,0,.6-.4.4-1.1.5-1.3.1-.2-.3-.2-.6,0-.8"/>
    <path class="st7" d="M45.8,17.1c.3-.2,1-.2,1.2,0,.1.2,0,.4,0,.5-.4.4-.9.4-1.2.1-.2-.3-.2-.5,0-.7"/>
    <path class="st7" d="M21.3,17.1c-.3.2-1.1.1-1.3-.3,0-.2,0-.4.1-.6.4-.4,1.1-.3,1.3,0,.2.3.1.6-.2.8"/>
    <path class="st7" d="M31,13.7c.2,0,.5.1.7.3.2.2.2.4.2.6,0,.2-.2.4-.5.4-.2,0-.4,0-.6,0-.5,0-.8-.4-.7-.9,0-.5.4-.6.9-.5"/>
    <path class="st7" d="M33.8,14.7c-.2,0-.5-.2-.6-.4-.2-.2-.2-.4,0-.7,0-.2.2-.3.5-.3.2,0,.4,0,.6,0,.5.1.7.5.6.9-.1.5-.4.6-1,.4"/>
    <path class="st7" d="M18.6,16.3c.6,0,.6.2.6.6,0,.4-.1.6-.5.6-.4,0-.8,0-1.1-.3-.1-.1-.2-.2-.2-.4,0-.1.3-.5.6-.5,0,0,.4,0,.6,0"/>
    <path class="st7" d="M38.3,14.9c-.6,0-.5-.3-.6-.6,0-.4.2-.5.5-.6.4,0,.8,0,1.1.4.1.1.2.2.1.4,0,0-.3.4-.6.4,0,0-.4,0-.6,0"/>
    <path class="st7" d="M43.2,16.7c-.6-.1-.5-.4-.4-.7,0-.4.3-.5.7-.5.4,0,.8.2,1,.6,0,.1.2.3,0,.4,0,0-.4.4-.7.3,0,0-.4-.1-.6-.2"/>
    <path class="st7" d="M26,14.4c.3,0,.5.1.6.4,0,.4,0,.7-.3,1-.2.2-.4.2-.7,0-.2-.2-.5-.1-.7-.4-.1-.3-.1-.5.1-.7.3-.2.6-.4,1-.3"/>
    <path class="st7" d="M40.7,15.8c-.3-.1-.3-.4-.2-.7.1-.4.4-.5.8-.6.3,0,.5,0,.6.3,0,.3.4.4.3.7,0,.3-.1.5-.4.5-.4,0-.7,0-1-.3"/>
    <path class="st7" d="M26.1,17.5c.3-.2,1.1,0,1.3.3,0,.2,0,.4-.2.6-.5.3-1.1.3-1.3,0-.2-.3-.1-.6.2-.8"/>
    <path class="st7" d="M42.4,17.6c.3-.3,1.1-.3,1.3,0,.1.2.1.4,0,.6-.4.4-1,.5-1.3.2-.2-.3-.2-.6,0-.8"/>
    <path class="st7" d="M28.3,17.1c.4-.1,1.1.2,1.2.6,0,.2,0,.4-.3.5-.5.2-1.2,0-1.3-.4-.1-.4,0-.6.4-.7"/>
    <path class="st7" d="M17.3,19.1c0,.4-.5,1-.9.9-.2,0-.4-.2-.4-.4,0-.6.3-1.1.8-1.1.4,0,.6.2.6.6"/>
    <path class="st7" d="M45.2,19.2c-.4.1-1.1-.2-1.2-.6,0-.2,0-.4.3-.5.5-.2,1.2,0,1.3.4.1.4,0,.6-.4.7"/>
    <path class="st7" d="M31.6,17.1c.2,0,.5.1.7.3.2.2.2.4.2.6,0,.2-.2.4-.5.4-.2,0-.4,0-.6,0-.5,0-.8-.4-.7-.9,0-.5.4-.6.9-.5"/>
    <path class="st7" d="M38.7,18.4c-.2,0-.5-.2-.6-.4-.2-.2-.2-.4,0-.7,0-.2.2-.3.5-.3.2,0,.4,0,.6,0,.5.1.7.5.6.9-.1.5-.4.6-1,.4"/>
    <path class="st7" d="M36.5,17.1c.6,0,.6.2.6.6,0,.4-.1.6-.5.6-.4,0-.8,0-1.1-.3-.1-.1-.2-.2-.2-.4,0-.1.3-.5.6-.5,0,0,.4,0,.6,0"/>
    <path class="st7" d="M19.2,18.1c.6,0,.6.2.6.6,0,.4-.1.6-.5.6-.4,0-.8,0-1.1-.3-.1-.1-.2-.2-.2-.4,0-.1.3-.5.6-.5,0,0,.4,0,.6,0"/>
    <path class="st7" d="M47.8,19.2c.2.6-.1.6-.4.7-.3.1-.6,0-.7-.4-.2-.4-.2-.8,0-1.2,0-.1.2-.3.4-.2.1,0,.5.2.6.5,0,0,0,.4.1.6"/>
    <path class="st7" d="M23.8,18.6c-.5,0-.5-.3-.5-.6,0-.4.2-.6.5-.6.4,0,.7,0,1,.3.1.1.2.2.1.4,0,.1-.3.5-.6.5,0,0-.4,0-.5,0"/>
    <path class="st7" d="M40.7,18.3c-.5,0-.5-.3-.5-.6,0-.4.1-.6.5-.6.4,0,.7,0,1,.3.1.1.2.2.1.4,0,.1-.2.5-.5.5,0,0-.4,0-.5,0"/>
    <path class="st7" d="M34.2,17c.3,0,.5.1.6.4,0,.4,0,.7-.3,1-.2.2-.4.2-.7,0-.2-.2-.5-.1-.7-.4-.1-.3-.1-.5.1-.7.3-.2.6-.4,1-.3"/>
    <path class="st7" d="M21.6,17.7c.3,0,.5.1.6.4,0,.4,0,.7-.3,1-.2.2-.4.2-.7,0-.2-.2-.5-.1-.7-.4-.1-.3-.1-.5.1-.7.3-.2.6-.4,1-.3"/>
    <path class="st7" d="M20.4,14.4c.3-.2,1.1,0,1.3.3,0,.2,0,.4-.2.6-.5.3-1.1.3-1.3,0-.2-.3-.1-.6.2-.8"/>
    <path class="st7" d="M37.7,11.8c.3-.3,1.1-.3,1.3,0,.1.2.1.4,0,.6-.4.4-1,.5-1.3.2-.2-.3-.2-.6,0-.8"/>
    <path class="st7" d="M31.8,12.3c-.4.2-1.1,0-1.3-.4,0-.2,0-.4.2-.6.5-.3,1.1-.2,1.3.2.2.3,0,.6-.3.8"/>
    <path class="st7" d="M35.8,11.4c.4-.2,1.1,0,1.3.4,0,.2,0,.4-.2.6-.5.3-1.1.2-1.3-.2-.2-.3,0-.6.3-.8"/>
    <path class="st7" d="M45,15.2c-.4.2-1.1,0-1.3-.4,0-.2,0-.4.2-.6.5-.3,1.1-.2,1.3.2.2.3,0,.6-.3.8"/>
    <path class="st7" d="M42.6,14.5c-.4,0-.9-.7-.7-1.1,0-.2.3-.3.5-.3.6,0,1,.5.9,1,0,.4-.3.5-.7.4"/>
    <path class="st7" d="M26,12.1c.2,0,.5.1.7.3.2.2.2.4.2.6,0,.2-.2.4-.5.4-.2,0-.4,0-.6,0-.5,0-.8-.4-.7-.9,0-.5.4-.6.9-.5"/>
    <path class="st7" d="M40.3,13.4c-.2,0-.5-.2-.6-.4-.2-.2-.2-.4,0-.7,0-.2.2-.3.5-.3.2,0,.4,0,.6,0,.5.1.7.5.6.9-.1.5-.4.6-1,.4"/>
    <path class="st7" d="M29.1,11.6c.6,0,.6.2.6.6,0,.4-.1.6-.5.6-.4,0-.8,0-1.1-.3-.1-.1-.2-.2-.2-.4,0-.1.3-.5.6-.5,0,0,.4,0,.6,0"/>
    <path class="st7" d="M23.6,13c.6-.1.6.1.7.5.1.3,0,.6-.4.7-.4.2-.8.2-1.2,0-.1,0-.3-.2-.2-.4,0-.1.2-.5.5-.6,0,0,.4,0,.6-.1"/>
    <path class="st7" d="M46,16.6c-.6,0-.5-.3-.6-.6,0-.4.2-.6.5-.6.4,0,.8,0,1.1.4.1.1.2.2.1.4,0,0-.3.4-.6.4,0,0-.4,0-.6,0"/>
    <path class="st7" d="M34.3,10.9c.3,0,.5.1.6.4,0,.4,0,.7-.3,1-.2.2-.4.2-.7,0-.2-.2-.5-.1-.7-.4-.1-.3-.1-.5.1-.7.3-.2.6-.4,1-.3"/>
    <path class="st8" d="M54.8,21.1c-.7.3-1.2.5-1.8.5-1.2,0-2.3,0-3.4,0l-3.3-.2c-1.3,0-2.6-.2-3.9-.2-2.1,0-4.2-.1-6.3-.2-1,0-2,0-3,0-1.5,0-3,.2-4.5.2-2,0-4,.2-6,.2-1.2,0-2.3.3-3.5.2-1.4-.1-2.8.2-4.2.4-.5,0-1,.1-1.5.2-.3,0-.5,0-.8,0-.3,0-.5,0-.8,0,0,0-.2,0-.2,0-.3,0-.6,0-.6-.2,0-.2.3-.3.5-.3.3,0,.6-.1.9-.1,1.3,0,2.6-.3,3.9-.7.2,0,.6,0,.8,0,1.2.1,2.3,0,3.5-.1.9-.1,1.9,0,2.8-.2,1.1-.2,2.1,0,3.2,0,.6,0,1.1,0,1.7-.1.1,0,.2,0,.3,0,1.4.2,2.8-.1,4.3-.1,2.6,0,5.2,0,7.9.1,1.5,0,3.1.1,4.6.2,1.4.1,2.9.2,4.3.3,1.4,0,2.8.3,4.3.3"/>
    <path class="st8" d="M9.9,24.4c.7-.3,1.2-.5,1.8-.5,1.2,0,2.3,0,3.4,0l3.3.2c1.3,0,2.6.2,3.9.2,2.1,0,4.2.1,6.3.2,1,0,2,0,3,0,1.5,0,3-.2,4.5-.2,2,0,4-.2,6-.2,1.2,0,2.3-.3,3.5-.2,1.4.1,2.8-.2,4.2-.4.5,0,1-.1,1.5-.2.3,0,.5,0,.8,0,.3,0,.5,0,.8,0,0,0,.2,0,.2,0,.3,0,.5,0,.6.2,0,.2-.3.3-.5.3-.3,0-.6.1-.9.1-1.3,0-2.6.3-3.9.7-.2,0-.6,0-.8,0-1.2-.1-2.3,0-3.5.1-.9.1-1.9,0-2.8.2-1.1.2-2.1,0-3.2,0-.6,0-1.1,0-1.7.1-.1,0-.2,0-.3,0-1.4-.2-2.8.1-4.3.1-2.6,0-5.2,0-7.9-.1-1.5,0-3.1-.1-4.6-.2-1.4-.1-2.9-.2-4.3-.3-1.4,0-2.8-.3-4.3-.3"/>
    <path class="st7" d="M13.1,71.1c.3,0,.5,0,.8,0,.2,0,.4,0,.5,0,.1,0,.3,0,.4,0,.2,0,.3,0,.5,0,.2,0,.3,0,.5,0,.2,0,.3,0,.4,0,.2,0,.3,0,.4,0,.1,0,.2,0,.3,0,.1,0,.2,0,.4,0,.4,0,.9.1,1.3.1.3,0,.6,0,.9,0,.1,0,.3,0,.4,0,.1,0,.3,0,.4,0,.5,0,1.1,0,1.6.2.3,0,.7,0,1.1.1.1,0,.2,0,.4,0,.1,0,.3,0,.4,0,.2,0,.3,0,.5,0,.2,0,.4,0,.5,0,.2,0,.5,0,.8,0,.2,0,.4,0,.6,0,.2,0,.4,0,.6,0,.6,0,1.1,0,1.7,0s.4,0,.6,0c.2,0,.3,0,.5,0,.6,0,1.2,0,1.8,0,.3,0,.7,0,1,0,.1,0,.3,0,.4,0,.2,0,.4,0,.6,0,.3,0,.6,0,.8,0,.2,0,.4,0,.6,0,.2,0,.3,0,.5,0,.2,0,.5,0,.7,0s.3,0,.4,0c.1,0,.3,0,.4,0,.1,0,.3,0,.4,0,0,0,.3,0,.4,0,0,0-.2,0-.2,0,.1,0,.3,0,.4,0,.1,0,.3,0,.4,0,.2,0,.3,0,.5,0,.1,0,.2,0,.3,0,.1,0,.2,0,.4,0,.2,0,.3,0,.5,0h.9c.6,0,1.2,0,1.8,0,.8-.1,1.6,0,2.4,0,.1,0,.3,0,.4,0,.1,0,.3,0,.4,0h.9c.1,0,.3,0,.4,0,.2,0,.4,0,.6,0,.1,0,.3,0,.4,0,.2,0,.3,0,.5,0,.3,0,.6,0,.9,0,0,0,.1,0,.2,0,0,0,.2,0,.3,0,.2,0,.5,0,.7,0h.7c.2,0,.5,0,.8,0,.1,0,.3,0,.4.1,0,0,.2.2.2.3,0,.1.2.2.3.4.2.3,0,.6-.2.8-.3.4-.8.5-1.3.7-.2,0-.3,0-.5.1-.1,0-.3,0-.4,0-.2,0-.5.1-.7.2,0,0-.2,0-.3,0-.3,0-.6,0-.9.1-.2,0-.5,0-.7,0-.2,0-.4,0-.6,0-.4,0-.8,0-1.1,0-.5,0-.9,0-1.4,0-.3,0-.7,0-1,0-.3,0-.7,0-1,0-.4,0-.8,0-1.2,0h-5.4c-.9,0-1.9,0-2.8,0-.5,0-.9,0-1.4,0-.5,0-1,0-1.5,0-.3,0-.6,0-.9,0-.3,0-.5,0-.8,0-.2,0-.5,0-.7,0-.3,0-.6,0-.9,0-.5,0-1.1,0-1.6,0-.6,0-1.2,0-1.7,0-.9,0-1.7,0-2.6,0s-1.3,0-2,0-.6,0-1,0c-.3,0-.6,0-.9,0-.2,0-.3,0-.5,0-.2,0-.3,0-.5,0-.1,0-.3,0-.4,0-.3,0-.6,0-.9-.1-.2,0-.5,0-.7-.1,0,0-.2,0-.3,0,0,0-.1-.1-.2-.2-.2-.2-.4-.4-.6-.7,0,0-.2-.2-.3-.3,0-.1-.1-.2-.2-.4,0-.2-.1-.4-.2-.7,0-.2,0-.4,0-.6,0-.1,0-.3,0-.4,0,0,0-.2,0-.2,0,0,0-.2.1-.2"/>
    <path class="st8" d="M53.4,74.8c-1.3,0-2.6.3-3.9.6-.2,0-.6,0-.8,0-1.2-.1-2.3,0-3.5.1-.9.1-1.9,0-2.8.2-1.1.2-2.1,0-3.2,0-.6,0-1.1,0-1.7.1-.1,0-.2,0-.3,0-1.4-.2-2.8,0-4.3.1-2.6,0-5.2-.1-7.9-.2-1.5,0-3.1-.1-4.6-.3-1.4-.1-2.9-.2-4.3-.3-1.4,0-2.8-.3-4.3-.3-.3,0-.5,0-1,0,.7-.3,1.2-.4,1.8-.5,1.2,0,2.3,0,3.4,0l3.3.2c1.3,0,2.6.2,3.9.2,2.1,0,4.2.2,6.3.3,1,0,2,0,3,0,1.5,0,3-.2,4.5-.2,2,0,4-.1,6-.1,1.2,0,2.3-.3,3.5-.2,1.4.1,2.8-.2,4.2-.3.5,0,1-.1,1.5-.2.3,0,.5,0,.8,0"/>
    <path class="st8" d="M53.4,72.3c-1.3,0-2.6.2-3.9.5-.3,0-.6,0-.8,0-1.2-.1-2.3,0-3.5,0-.9,0-1.9,0-2.8,0-1.1.1-2.1,0-3.2,0-.6,0-1.1,0-1.7,0-.1,0-.2,0-.3,0-1.4-.2-2.8,0-4.3,0-2.6,0-5.2-.3-7.9-.4-1.5,0-3.1-.2-4.6-.4-1.4-.2-2.9-.3-4.3-.4-1.4-.1-2.8-.4-4.3-.4-.3,0-.5,0-1-.1.7-.3,1.3-.4,1.8-.4,1.2,0,2.3,0,3.4.2l3.3.3c1.3,0,2.6.3,3.9.3,2.1.1,4.2.3,6.3.4,1,0,2,0,3,0,1.5,0,3,0,4.5,0,2,0,4,0,6,0,1.2,0,2.3-.3,3.5-.1,1.4.2,2.8-.2,4.2-.2.5,0,1,0,1.5-.1.3,0,.5,0,.8,0"/>
    <path class="st7" d="M25.6,70.3c.3-.2.8,0,1,.2,0,.1,0,.3-.1.4-.3.3-.8.3-1,0-.1-.2,0-.5.1-.6"/>
    <path class="st7" d="M41.1,70.9c.2-.2.8-.2,1,0,0,.1.1.3,0,.5-.3.3-.8.4-1,.2-.2-.2-.2-.4,0-.6"/>
    <path class="st7" d="M28.2,70.9c0-.3.6-.6.9-.5.2,0,.2.2.2.4,0,.4-.5.7-.8.6-.3,0-.4-.3-.3-.6"/>
    <path class="st7" d="M48.2,71.6c-.3.1-.8,0-.9-.4,0-.2,0-.3.2-.4.4-.2.9,0,1,.2,0,.3,0,.5-.3.6"/>
    <path class="st7" d="M32.4,70.6c.2,0,.4,0,.5.2.1.1.2.3.1.5,0,.2-.2.3-.4.3-.1,0-.3,0-.4,0-.4,0-.6-.3-.5-.7,0-.4.3-.5.7-.4"/>
    <path class="st7" d="M44.8,71.7c-.2,0-.3-.1-.5-.3-.1-.2-.2-.3,0-.5,0-.2.2-.3.4-.2.1,0,.3,0,.4,0,.4,0,.5.4.4.7-.1.4-.3.5-.7.3"/>
    <path class="st7" d="M35.5,70.7c.5,0,.4.2.5.4,0,.3-.1.4-.4.5-.3,0-.6,0-.9-.2,0,0-.2-.2-.1-.3,0,0,.2-.3.5-.4,0,0,.3,0,.4,0"/>
    <path class="st7" d="M51,71.4c-.5,0-.4-.2-.4-.5,0-.3.1-.4.4-.5.3,0,.6,0,.9.3,0,0,.2.2.1.3,0,0-.2.3-.5.3,0,0-.3,0-.4,0"/>
    <path class="st7" d="M22.4,71.1c-.5,0-.4-.2-.4-.5,0-.3.1-.4.4-.5.3,0,.6,0,.9.3,0,0,.2.2.1.3,0,0-.2.3-.5.3,0,0-.3,0-.4,0"/>
    <path class="st7" d="M38.9,70.6c.2,0,.4,0,.4.3,0,.3,0,.5-.2.7-.2.2-.3.2-.5,0-.2-.1-.4,0-.5-.3,0-.2-.1-.3,0-.5.2-.2.5-.3.8-.3"/>
    <path class="st7" d="M18.5,71c-.2,0-.3-.3-.2-.5,0-.3.3-.4.6-.5.2,0,.4,0,.5.2,0,.2.3.3.3.6,0,.2-.1.3-.3.4-.3,0-.5,0-.8-.2"/>
    <path class="st8" d="M53.3,74.5c0,0-.1.2-.2.3-.2.2-.3.3-.6.1-.3-.1-.6-.3-.9-.5-.4-.3-.7-.6-1.2-.9-.1.1-.2.2-.3.3-.4.3-.7.7-1.1,1-.3.2-.5.2-.7,0-.5-.5-1-.9-1.5-1.4-.2-.2-.3-.3-.5-.5-.1-.2,0-.4.2-.4.2,0,.3.1.5.2.4.3.8.7,1.2,1.1.1,0,.2.2.4.3.4,0,.6-.4.8-.6.1-.2.2-.3.3-.5.3-.4.5-.5.9-.2.1,0,.2.2.4.3.4.3.9.7,1.3,1,.3-.2.5-.5.7-.8.2-.3.4-.6.7-.9"/>
    <path class="st8" d="M38.6,73.4c-.4.6-.9,1-1.3,1.6-.2.4-.5.5-.9.1-.5-.5-1.1-1-1.6-1.5-.4.4-.7.9-1.1,1.3,0,0-.1.2-.2.3-.2.2-.3.2-.6.1-.3-.2-.6-.3-.8-.5-.4-.3-.7-.7-1.2-.9-.1.1-.2.2-.3.3-.4.3-.8.6-1.2.9-.3.2-.5.1-.7,0-.5-.5-.9-1-1.4-1.5-.2-.2-.3-.3-.4-.5-.1-.2,0-.4.3-.4.2,0,.3.1.4.2.4.4.8.8,1.2,1.1.1.1.2.2.3.3.4,0,.6-.3.8-.6.1-.1.2-.3.3-.5.3-.4.5-.4.9-.1.1,0,.2.2.4.3.4.4.9.7,1.3,1.1.3-.2.5-.5.7-.8.2-.3.5-.6.8-.9.4-.3.7-.3.9.2.4.6.6.8,1.3,1.2.3,0,.4-.4.6-.6.3-.4.6-.7.9-1.1.2-.2.4-.3.6,0,0,0,.2.2.2.3.4.6.9,1.1,1.5,1.6.3-.2.4-.4.6-.6.3-.4.6-.8.9-1.1.3-.3.5-.3.8,0,.2.3.4.5.6.8.2.3.4.6.8.8.2-.2.4-.5.5-.7.2-.3.4-.6.7-.9.1-.1.3-.2.4-.3.2,0,.3,0,.4.2,0,.2.1.3,0,.5-.6.5-1,1.2-1.4,1.9-.2.5-.5.5-.9.2-.4-.4-.8-.8-1.1-1.2-.1-.1-.2-.3-.4-.5-.3.2-.4.4-.6.7-.2.3-.5.7-.8,1-.3.4-.5.4-.8,0-.5-.4-.9-.9-1.4-1.4,0,0-.2-.2-.3-.4"/>
    <path class="st8" d="M19.2,73.1c-.5.5-1,1-1.3,1.5-.3.4-.5.5-.9.1-.5-.5-1.1-1-1.6-1.5-.4.4-.7.9-1,1.3,0,0-.1.2-.2.3-.2.2-.3.2-.6.1-.3-.2-.6-.3-.8-.5-.4-.3-.7-.7-1.2-.9-.1.1-.2.2-.3.3-.4.3-.7.7-1.1,1-.3.2-.4.2-.7,0-.5-.5-1-.9-1.5-1.4-.2-.2-.3-.3-.5-.5-.1-.2,0-.4.2-.4.2,0,.3.1.5.2.4.3.8.7,1.2,1,.1,0,.2.2.4.3.4,0,.6-.4.8-.6.1-.1.2-.3.3-.5.3-.4.5-.5.9-.2.1,0,.2.2.4.3.4.3.9.7,1.3,1,.3-.2.5-.5.7-.8.2-.3.5-.6.8-.9.4-.3.7-.3.9.2.4.6.6.8,1.3,1.3.3,0,.4-.3.6-.5.3-.3.6-.7,1-1.1.2-.2.4-.2.7,0,0,0,.2.2.2.3.4.6.8,1.2,1.5,1.6.3-.1.4-.4.6-.6.3-.4.6-.8.9-1.1.3-.3.5-.3.8,0,.2.3.3.6.5.8.2.3.4.6.8.9.2-.2.4-.5.6-.7.2-.3.5-.6.7-.9.1-.1.3-.2.4-.2.2,0,.3,0,.4.3,0,.2,0,.3,0,.5-.7.5-1.1,1.1-1.5,1.8-.3.4-.5.5-.9.1-.4-.4-.7-.9-1.1-1.3-.1-.1-.2-.3-.3-.5-.3.2-.4.4-.6.6-.3.3-.5.7-.8,1-.3.3-.5.3-.8,0-.5-.5-.9-.9-1.4-1.4,0,0-.2-.2-.3-.4"/>
    <path class="st8" d="M3.3,23.6c.5-.7,1.1-1.2,1.5-1.9.3-.5.6-.6,1-.2.6.6,1.2,1.2,1.9,1.9.5-.5.8-1.1,1.2-1.7,0-.1.1-.3.2-.4.2-.2.4-.3.7-.1.3.2.7.4,1,.7.4.4.8.8,1.4,1.2.1-.1.3-.3.4-.4.5-.4.9-.8,1.4-1.2.3-.2.5-.2.8,0l1.7,1.8c.2.2.4.4.5.7.1.3,0,.5-.3.5-.2,0-.4-.2-.5-.3-.5-.4-.9-.9-1.4-1.4-.1-.1-.3-.2-.4-.3-.5,0-.7.4-.9.7-.2.2-.3.4-.4.6-.3.5-.6.5-1.1.2-.2-.1-.3-.2-.4-.4-.5-.4-1-.9-1.5-1.3-.4.3-.6.6-.9,1-.3.4-.6.8-.9,1.1-.5.4-.8.4-1.1-.2-.4-.7-.7-1-1.5-1.5-.3.1-.5.4-.7.7-.4.4-.7.9-1.1,1.4"/>
    <path class="st8" d="M26.2,23.8c.5-.7,1.1-1.2,1.5-1.9.3-.5.6-.6,1-.2.6.6,1.3,1.2,1.9,1.9.5-.5.8-1.1,1.2-1.7,0-.1.1-.3.2-.4.2-.2.4-.3.7-.1.3.2.7.4,1,.6.4.4.8.8,1.4,1.1.1-.1.2-.3.4-.4.4-.4.9-.8,1.3-1.2.3-.3.5-.2.8,0l1.7,1.7c.2.2.4.4.6.6.2.2,0,.5-.3.5-.2,0-.4-.1-.5-.3-.5-.4-1-.9-1.5-1.3-.1-.1-.3-.2-.4-.3-.5,0-.7.4-.9.7-.1.2-.2.4-.4.6-.3.5-.6.6-1.1.2-.2-.1-.3-.2-.4-.3-.5-.4-1-.9-1.5-1.3-.4.3-.6.6-.9,1-.3.4-.6.8-.9,1.1-.5.4-.8.4-1.1-.2-.5-.7-.7-1-1.5-1.5-.3.1-.5.4-.7.7-.4.4-.7.9-1.1,1.4-.2.3-.5.3-.8,0-.1-.1-.2-.3-.3-.4-.5-.8-1-1.4-1.8-2-.3.2-.5.5-.7.8-.3.5-.7.9-1.1,1.4-.3.4-.6.4-.9,0-.2-.3-.4-.7-.6-1-.2-.4-.5-.8-.9-1.1-.2.3-.4.6-.6.8-.3.4-.5.8-.8,1.1-.1.1-.3.3-.5.3-.2,0-.4,0-.5-.3,0-.2-.1-.4.1-.6.8-.6,1.3-1.4,1.7-2.3.3-.6.6-.6,1-.1.5.5.9,1,1.3,1.6.1.2.3.4.4.6.3-.2.5-.5.7-.8.3-.4.6-.8.9-1.2.4-.4.6-.4,1,0,.6.6,1.1,1.1,1.6,1.7.1.1.2.3.4.5"/>
    <path class="st8" d="M54,23.1c-.4.5-.8.4-1.1-.1-.5-.7-.8-1-1.6-1.5-.3.1-.5.5-.7.7-.4.5-.7,1-1,1.4-.2.3-.5.4-.7.1-.1,0-.2-.2-.3-.4-.5-.7-1.1-1.3-2-1.8-.3.2-.4.5-.6.8-.3.5-.6,1-.9,1.5-.3.4-.6.4-.9,0-.3-.3-.5-.6-.7-.9-.3-.4-.6-.7-1.1-1-.2.3-.4.6-.6.9-.2.4-.5.8-.8,1.2-.1.2-.3.3-.5.3-.2,0-.4,0-.5-.3,0-.2-.1-.4,0-.6.7-.6,1.2-1.5,1.5-2.4.2-.6.5-.7,1-.3.5.5,1,.9,1.4,1.4.2.2.3.3.5.5.3-.3.4-.6.6-.9.2-.4.5-.9.8-1.3.3-.5.5-.5,1-.2.6.5,1.2,1,1.8,1.5.1.1.2.2.4.4.5-.7,1-1.3,1.4-2,.3-.5.6-.6,1-.2.7.6,1.3,1.2,2,1.8"/>
    <path class="st1" d="M25.3,50.8c0,.9,0,1.7-.6,2.5-.5.8-1.2,1.1-2.1,1.1-.8,0-1.5-.4-1.6-1.4-.1-.7-.6-1.2-.7-1.9-.1-1.8.8-2.9,2.5-3,1.7,0,2.4.7,2.5,2.7"/>
    <path class="st1" d="M48.9,48.3c.3,1-.3,1.6-1.2,1.9-1.2.4-2.2,0-3.1-.9-.7-.7-.8-1.4-.3-2.2.5-.7.3-1.8,1.3-2.3.8-.5,1.4-.5,2,.2.8.9,1.3,1.9,1.2,3.3"/>
    <path class="st1" d="M12.4,50.4c0-1.6.7-1.5,1.6-1.6,1-.1,1.5.4,1.7,1.4.2,1.2,0,2.2-.8,3.1-.3.3-.6.6-1.1.4-.3-.1-1.2-.8-1.3-1.7,0,0,0-1.1,0-1.6"/>
    <path class="st1" d="M20,58.7c0,1.1-.7,1.9-1.8,1.9-1.2,0-1.8-.8-1.9-2.3,0-1.3,1-1.5,1.9-1.6,1.1-.2,1.7.6,1.8,2"/>
    <path class="st1" d="M52.5,54.4c0,1.5-.6,2.6-1.5,2.5-.9-.1-1.4-.9-1.6-1.7-.2-.6,1.3-2.2,1.8-2.1.9,0,1.4.4,1.3,1.3"/>
  </g>
  <g class="st6">
    <path class="st7" d="M27.8,33.2c-.2,0-.2-.2,0-.3,0,0,0,0,.1-.1.1,0,.3,0,.4,0,0,.1,0,.3,0,.4-.1,0-.3,0-.4,0"/>
    <path class="st7" d="M29.3,34.1c0,0-.1,0-.2,0-.1,0-.2,0-.3-.2,0,0,0-.2,0-.2,0,0,0,0,.1,0,0,0,.2,0,.3,0,0,0,.1.2,0,.3,0,0,0,.1,0,.2"/>
    <path class="st7" d="M31.4,36s0,0,0,0c0,0-.1-.2,0-.3,0,0,.1-.2.2-.2.2,0,.3,0,.3.3,0,.2-.1.2-.4.3"/>
    <path class="st7" d="M26.9,32.2c-.1.1-.3.2-.4,0,0,0-.1-.3,0-.4,0-.1.3-.1.4,0,.1,0,.1.2,0,.3"/>
    <path class="st7" d="M32.1,36.3c0,0,0,0,0,0,0,0,.3,0,.3,0,0,0,0,.3,0,.3,0,0,0,0-.1,0,0,0-.2,0-.2,0,0,0,0-.2,0-.3,0,0,0,0,0,0"/>
    <path class="st7" d="M30.6,34.9c0,.1-.2.2-.3.1,0,0-.1-.2-.1-.3,0-.1.2-.2.4,0,.1,0,.1.2,0,.3"/>
    <path class="st7" d="M23.9,30.6c-.1,0-.2-.1-.2-.2,0,0,0-.2.2-.2,0,0,0,0,0,0,.2,0,.3,0,.3.2,0,.1-.1.2-.2.2,0,0,0,0,0,0"/>
    <path class="st7" d="M25.8,31.4c0,.2-.2.2-.3.2,0,0-.1-.1-.1-.2,0-.1,0-.1.2-.2,0,0,.2,0,.2,0,0,0,0,.2,0,.2"/>
    <path class="st7" d="M36.9,35.2c-.1.1-.2.1-.3,0,0,0,0-.1,0-.2,0-.2,0-.3.1-.3,0,0,.3,0,.3.1,0,.1,0,.3,0,.4"/>
    <path class="st7" d="M38,33.9c0,0,0,.1,0,.2,0,0,0,.1,0,.2,0,0,0,0-.2.1,0,0-.2,0-.2,0,0,0,0,0,0-.1,0,0,0-.2,0-.3,0,0,.2,0,.3,0,0,0,0,0,.2,0"/>
    <path class="st7" d="M40.3,32.4s0,0,0,0c0,0,0,0,0,0-.3,0-.4,0-.4-.3,0-.2.2-.3.4-.2.1,0,.2.2.1.5"/>
    <path class="st7" d="M35.8,36.1c.1.1,0,.3,0,.4-.1,0-.3,0-.4,0,0-.1,0-.3.1-.4,0,0,.2,0,.3,0"/>
    <path class="st7" d="M40.9,31.7c0,0,0,0,0,0,0-.1,0-.3,0-.3.1,0,.3,0,.3.2,0,0,0,0,0,.1,0,0,0,0,0,.1,0,0,0,0,0,0,0,0-.2,0-.2,0,0,0,0,0,0,0"/>
    <path class="st7" d="M39,32.7c0,.1.1.3,0,.3,0,0,0,0-.2,0,0,0-.1,0-.2,0,0,0,0-.1,0-.2,0,0,0,0,0-.1,0,0,0,0,0-.1,0,0,.2,0,.3,0"/>
    <path class="st7" d="M32.8,36.6c-.1,0-.2-.2-.1-.3,0,0,.1-.1.2,0,0,0,0,0,0,0,.1,0,.2.1.2.2,0,.1-.2.2-.3.1,0,0,0,0,0,0"/>
    <path class="st7" d="M34.7,36.5c0,.2,0,.3,0,.4,0,0-.2,0-.3,0,0,0,0-.2,0-.2,0,0,0,0,0-.1,0,0,0,0,0,0,0,0,0,0,0,0,0,0,.1,0,.2.1"/>
    <path class="st7" d="M37.2,30.4c.1,0,.2,0,.2.2,0,0,0,.1,0,.2,0,.1-.1.2-.2.2,0,0-.2-.2-.1-.3,0-.1.1-.2.2-.2"/>
    <path class="st7" d="M35.9,30.5s0-.1,0-.2c0,0,.2,0,.3,0,0,0,0,.1,0,.2,0,0,0,0,0,.1,0,0,0,.2-.2.2,0,0-.1,0-.2-.2,0,0,0-.1,0-.2"/>
    <path class="st7" d="M33.9,30.2s0,0,0,0c.2,0,.2.3,0,.5,0,.1-.2,0-.3,0,0-.2,0-.3.1-.4"/>
    <path class="st7" d="M38.2,30.6c0-.2,0-.3.2-.3,0,0,.2.1.2.3,0,.1-.1.3-.2.3,0,0-.1,0-.1-.2"/>
    <path class="st7" d="M33.2,30.4c0,0,0,0,0,.1,0,.1,0,.3-.2.2,0,0-.2-.2-.2-.3,0,0,0,0,0-.1,0,0,0-.1.1-.1,0,0,.2,0,.2.2,0,0,0,0,0,0"/>
    <path class="st7" d="M34.8,30.6c0-.1,0-.3.2-.3,0,0,.2.1.2.2,0,.1,0,.2-.2.2,0,0-.1,0-.1-.2"/>
    <path class="st7" d="M40.7,30.3c.1,0,.2,0,.2.2,0,0,0,.1-.1.2,0,0,0,0,0,0-.1,0-.2,0-.2,0,0-.1,0-.2.1-.3,0,0,0,0,0,0"/>
    <path class="st7" d="M39.2,30.7c0-.2,0-.3,0-.3,0,0,.1,0,.2,0,0,0,0,.2,0,.2,0,0,0,.2-.2.1,0,0-.1-.1-.1-.1"/>
    <path class="st7" d="M29.2,30.7c.1,0,.2,0,.2.2,0,0,0,.1,0,.2,0,.1-.1.2-.2.1,0,0-.2-.2-.1-.3,0-.1.1-.2.2-.2"/>
    <path class="st7" d="M28,30.7s0-.1,0-.2c0,0,.2,0,.3,0,0,0,0,.1,0,.2,0,0,0,0,0,.1,0,0,0,.2-.2.1,0,0-.1,0-.1-.2,0,0,0-.1,0-.2"/>
    <path class="st7" d="M25.9,30.2s0,0,0,0c.2,0,.2.3,0,.5-.1.1-.2,0-.3,0,0-.2,0-.3.1-.4"/>
    <path class="st7" d="M30.2,31c0-.2.1-.3.2-.3,0,0,.2.2.2.3,0,.1-.1.3-.3.3,0,0-.2,0-.1-.2"/>
    <path class="st7" d="M25.4,30.3c0,0,0,0,0,.1,0,.1-.2.2-.2.2,0,0-.2-.2-.2-.3,0,0,0,0,0-.1,0,0,.1-.1.2-.1.1,0,.2.1.1.2,0,0,0,0,0,0"/>
    <path class="st7" d="M26.8,30.7c0-.1,0-.3.2-.3,0,0,.2.2.2.3,0,.1-.1.2-.2.2,0,0-.1,0-.1-.2"/>
    <path class="st7" d="M32.7,30.7c.1,0,.2,0,.2.1,0,0,0,.2,0,.2,0,0,0,0,0,0-.1,0-.2,0-.2,0,0-.1,0-.2,0-.3,0,0,0,0,0,0"/>
    <path class="st7" d="M31.2,31.1c0-.2,0-.3.1-.3,0,0,.1,0,.2.1,0,0,0,.2,0,.2,0,0-.1.2-.2.1,0,0,0-.1,0-.2"/>
    <path class="st7" d="M32.7,67.5c-.2,0-.3,0-.2-.2,0,0,0-.1,0-.2,0-.1.2-.2.3-.1.1,0,.2.2.2.3,0,.1-.2.2-.3.2"/>
    <path class="st7" d="M34.5,67.3s0,.1,0,.2c-.1,0-.2.1-.4,0-.1,0-.1-.1,0-.2,0,0,0,0,0-.1,0,0,0-.2.2-.2.1,0,.2,0,.3.1,0,0,0,.1,0,.2"/>
    <path class="st7" d="M37.5,67.9s0,0-.1,0c-.3,0-.3-.3,0-.5.2-.1.3,0,.4,0,0,.2,0,.3-.2.4"/>
    <path class="st7" d="M31.1,67.3c0,.2-.1.3-.3.3-.1,0-.3-.1-.3-.3,0-.1.2-.3.3-.3.1,0,.2,0,.2.2"/>
    <path class="st7" d="M38.4,67.7c0,0,0,0,0-.1,0-.1.2-.2.3-.2.1,0,.2.2.2.3,0,0,0,0,0,.1,0,0,0,.1-.2.1,0,0-.2,0-.2-.2,0,0,0,0,0,0"/>
    <path class="st7" d="M36.1,67.4c0,.1-.1.3-.2.3-.1,0-.3-.2-.3-.3,0-.1.2-.2.3-.2.1,0,.2,0,.2.2"/>
    <path class="st7" d="M27.5,67.4c-.2,0-.3,0-.3-.1,0,0,0-.2.2-.2,0,0,0,0,0,0,.2,0,.3,0,.3,0,0,.1,0,.2-.2.3,0,0,0,0,0,0"/>
    <path class="st7" d="M29.7,67.2c0,.2,0,.3-.2.3,0,0-.2,0-.3-.1,0,0,0-.2,0-.2,0,0,.2-.1.3-.1,0,0,0,.1.1.2"/>
    <path class="st7" d="M42.4,66.8c.2.1.2.2,0,.3,0,0-.1,0-.2.1-.1,0-.3,0-.3,0,0,0,0-.3,0-.4.1,0,.3,0,.4,0"/>
    <path class="st7" d="M40.8,65.8c0,0,.1,0,.2,0,0,0,.1,0,.2,0,0,0,0,0,.1.1,0,0,0,.2,0,.2,0,0,0,0-.1,0,0,0-.2,0-.3,0-.1,0-.1-.2,0-.3,0,0,0-.1,0-.2"/>
    <path class="st7" d="M38.7,63.7s0,0,0,0c0,0,0,.2,0,.3,0,0-.1.2-.2.2-.2,0-.4-.2-.3-.3,0-.2.2-.2.4-.2"/>
    <path class="st7" d="M42.8,67.6c0,.2-.2.3-.3.2,0,0,0,0-.1,0,0,0-.1-.1-.1-.2,0,0,0-.1.1-.2,0,0,.1,0,.2,0,0,0,0,0,.1,0,.1,0,.2.1.1.3"/>
    <path class="st7" d="M37.9,63.2c0,0,0,0,0,0,0,0-.3.1-.4,0,0,0,0-.3,0-.3,0,0,0,0,.1,0,0,0,.1,0,.2,0,0,0,.1.2,0,.3,0,0,0,0,0,0"/>
    <path class="st7" d="M39.6,64.8c0-.1.2-.2.4,0,0,0,0,.3,0,.4,0,0-.3,0-.4,0,0,0,0-.2,0-.3"/>
    <path class="st7" d="M39.1,67.4c-.2,0-.3,0-.3-.1,0,0,0-.2.2-.2,0,0,0,0,0,0,0,0,.2,0,.2,0,0,0,0,0,.1.1,0,.1,0,.2-.2.3,0,0,0,0,0,0"/>
    <path class="st7" d="M41.4,67.3c0,.2-.1.3-.2.3,0,0-.2,0-.3-.1,0,0,0-.2,0-.2,0,0,.2-.1.3,0,0,0,0,.1.1.2"/>
    <path class="st7" d="M32.6,63.4c.1-.2.2-.1.3,0,0,0,0,.1,0,.2,0,0,0,0,0,.1,0,0,0,0,0,0,0,0,0,0-.2.2-.2.1-.4,0-.4-.1,0,0,0-.1,0-.2,0,0,0-.1,0-.2"/>
    <path class="st7" d="M31.1,64.5c0,0,0-.1,0-.2,0-.1.2-.2.4-.2,0,0,.2,0,.2.2,0,0,0,0,0,.1,0,.1,0,.2-.1.3-.1,0-.2,0-.3,0,0,0,0,0-.2-.1"/>
    <path class="st7" d="M28.5,65.8s0,0,0,0c0,0,.2,0,.3,0,0,0,.1.2,0,.3,0,0-.1.2-.2.2,0,0-.2,0-.2,0,0,0-.1-.1,0-.2,0,0,0-.2.1-.3"/>
    <path class="st7" d="M33.9,62.7c0-.1,0-.3,0-.4.1,0,.3,0,.4.1,0,.1,0,.3-.1.4-.1,0-.2,0-.3,0"/>
    <path class="st7" d="M27.8,66.5c0,0,0,0,0,0,0,.1,0,.3-.1.3,0,0-.1,0-.2,0,0,0-.1,0-.2,0,0,0,0-.1,0-.2,0,0,0-.2.1-.3.1,0,.2,0,.3,0,0,0,0,0,0,0"/>
    <path class="st7" d="M29.8,65.6c0-.1,0-.3,0-.3,0,0,.3,0,.4,0,0,0,0,.1,0,.2,0,0,0,.1-.1.2-.1,0-.2,0-.3,0"/>
    <path class="st7" d="M37.1,63c.1,0,.2.2.1.3,0,0-.1.1-.3,0,0,0,0,0,0,0-.2,0-.2-.1-.2-.2,0-.1.2-.2.3-.1,0,0,0,0,0,0"/>
    <path class="st7" d="M35.1,62.3c0-.2,0-.3.2-.3.1,0,.2,0,.2.2,0,0,0,.2-.1.2,0,0-.2.1-.2,0,0,0,0-.1,0-.2"/>
    <path class="st1" d="M19.7,74c0,.3-.2.5-.5.5-.2,0-.6-.4-.6-.6,0-.2.4-.5.7-.5.2,0,.5.3.5.7"/>
    <path class="st1" d="M25.2,73.3c0,.3-.2.5-.5.5-.2,0-.6-.3-.6-.6,0-.2.4-.5.6-.5.2,0,.4.3.4.6"/>
    <path class="st1" d="M30.6,74.5c0-.3.2-.4.5-.4.2,0,.5.4.5.6,0,.2-.4.4-.7.4-.2,0-.4-.3-.3-.6"/>
    <path class="st1" d="M17.7,72.9c0,.3-.2.5-.5.5,0,0-.1,0-.2,0,0,0,0,0,0,0,0,0,0,0,0,0,0,0,0,0,0,0,0,0-.1-.1-.2-.2,0,0,0-.1,0-.2,0,0,0-.1,0-.2,0,0,0-.1.1-.2,0,0,.2-.1.3-.1,0,0,.2,0,.2,0,.2,0,.5.4.4.7"/>
    <path class="st1" d="M30.2,73.6c0,.3-.2.5-.5.5,0,0-.1,0-.2,0,0,0,0,0,0,0,0,0,0,0,0,0,0,0,0,0,0,0,0,0-.1-.1-.2-.2,0,0,0-.1,0-.2,0,0,0-.1,0-.2,0,0,0-.1.1-.2,0,0,.2-.1.3-.1,0,0,.2,0,.2,0,.2,0,.5.4.4.7"/>
    <path class="st1" d="M23.6,74.2c0,.4-.2.5-.5.5-.1,0-.2,0-.3,0-.1-.1-.2-.3-.3-.4,0-.2,0-.4.2-.5.2-.1.4-.3.6-.1.2.1.3.3.3.6"/>
    <path class="st1" d="M20.7,73s0-.1.1-.2c.1,0,.2-.2.4-.2.3,0,.3,0,.5.2.1.2.1.5,0,.8,0,.2-.3.2-.5.2-.2,0-.5-.4-.5-.7"/>
    <path class="st1" d="M27.5,74.4c0,.4-.1.5-.4.6,0,0-.2,0-.2,0-.1,0-.2-.2-.3-.3-.1-.2-.2-.4,0-.6.2-.2.4-.3.6-.2.2,0,.3.3.3.6"/>
    <path class="st1" d="M33.3,73.6c0,.4,0,.6-.4.6,0,0,0,0-.1,0,0,0,0,0-.1,0,0,0-.1,0-.2-.1-.1-.1-.2-.3-.2-.4,0-.1,0-.3.2-.4.1,0,.3-.1.4-.2.2,0,.4.1.5.5"/>
    <path class="st1" d="M46.9,74c0,.3-.2.5-.5.5-.2,0-.6-.3-.6-.6,0-.2.4-.5.6-.5.2,0,.4.3.4.6"/>
    <path class="st1" d="M37.2,73.7c0,.2-.2.4-.5.4,0,0-.1,0-.2,0,0,0,0,0,0,0,0,0,0,0,0,0,0,0,0,0,0,0,0,0-.1-.1-.2-.2,0,0,0-.1,0-.2,0,0,0-.1,0-.2,0,0,0-.1.1-.2,0,0,.2,0,.3-.1,0,0,.2,0,.2,0,.2,0,.4.3.4.6"/>
    <path class="st1" d="M41,73.7c0,.2-.2.4-.5.4,0,0-.1,0-.2,0,0,0,0,0,0,0,0,0,0,0,0,0,0,0,0,0,0,0,0,0-.1-.1-.2-.2,0,0,0-.1,0-.2,0,0,0-.1,0-.2,0,0,0-.1.1-.2,0,0,.2,0,.3-.1,0,0,.2,0,.2,0,.2,0,.4.3.4.6"/>
    <path class="st1" d="M49.2,73.5c0,.2-.2.4-.5.4,0,0-.1,0-.2,0,0,0,0,0,0,0,0,0,0,0,0,0,0,0,0,0,0,0,0,0-.1-.1-.2-.2,0,0,0-.1,0-.2,0,0,0-.1,0-.2,0,0,0-.1.1-.2,0,0,.2,0,.3-.1,0,0,.2,0,.2,0,.2,0,.4.3.4.6"/>
    <path class="st1" d="M34.6,74.1c.1-.2.4-.2.6-.1,0,0,0,0,.1.1,0,0,0,0,0,0,0,0,0,0,0,0,0,0,0,0,0,.1,0,0,0,.2,0,.2,0,0,0,.1,0,.2,0,0,0,0-.1.1,0,0-.1,0-.2,0,0,0-.2,0-.3,0,0,0-.2,0-.2,0-.2-.1-.2-.5,0-.7"/>
    <path class="st1" d="M43.8,73.1c.1-.2.4-.2.6-.1,0,0,0,0,.1.1,0,0,0,0,0,0,0,0,0,0,0,0,0,0,0,0,0,.1,0,0,0,.2,0,.2,0,0,0,.1,0,.2,0,0,0,0-.1.1,0,0-.1,0-.2,0,0,0-.2,0-.3,0,0,0-.2,0-.2,0-.2-.1-.2-.5,0-.7"/>
    <path class="st1" d="M38.3,74.1c0-.2.3-.2.5,0,0,0,0,0,.1.1,0,0,0,0,0,0,0,0,0,0,0,0,0,0,0,0,0,0,0,0,0,.1,0,.2,0,0,0,.1,0,.1,0,0,0,0,0,0s0,0-.2,0c0,0-.2,0-.2,0,0,0-.1,0-.2,0-.2,0-.2-.4-.1-.6"/>
    <path class="st1" d="M42.9,74.5c0,.2-.3.2-.5.2,0,0,0,0-.1,0,0,0,0,0,0,0,0,0,0,0,0,0,0,0,0,0,0,0,0,0,0-.1,0-.2,0,0,0-.1,0-.2,0,0,0,0,0-.1,0,0,0,0,.1,0,0,0,.2,0,.2,0,0,0,.1,0,.2,0,.2,0,.2.4.1.6"/>
    <path class="st1" d="M15.8,74.2c0,.2-.3.2-.5.2,0,0,0,0-.1,0,0,0,0,0,0,0,0,0,0,0,0,0,0,0,0,0,0,0,0,0,0-.1,0-.2,0,0,0-.1,0-.2,0,0,0,0,0-.1,0,0,0,0,.1,0,0,0,.2,0,.2,0,0,0,.1,0,.2,0,.2,0,.2.4.1.6"/>
    <path class="st1" d="M26.5,22.4c0,.3-.2.5-.5.5-.2,0-.6-.4-.6-.6,0-.2.4-.5.7-.5.2,0,.5.3.5.7"/>
    <path class="st1" d="M20.1,23.5c0,.3-.2.4-.5.5-.2,0-.6-.3-.6-.6,0-.2.4-.5.6-.5.2,0,.4.3.4.6"/>
    <path class="st1" d="M32.4,23.5c0-.3.2-.4.5-.4.2,0,.5.4.5.6,0,.2-.4.4-.7.4-.2,0-.4-.3-.3-.6"/>
    <path class="st1" d="M17.5,22.8c0,.3-.2.5-.5.5,0,0-.1,0-.2,0,0,0,0,0,0,0,0,0,0,0,0,0,0,0,0,0,0,0,0,0-.1-.1-.2-.2,0,0,0-.1,0-.2,0,0,0-.1,0-.2s0-.1.1-.2c0,0,.2-.1.3-.1,0,0,.2,0,.2,0,.2,0,.5.4.4.7"/>
    <path class="st1" d="M31,22.2c0,.3-.2.5-.5.5,0,0-.1,0-.2,0,0,0,0,0,0,0,0,0,0,0,0,0,0,0,0,0,0,0,0,0-.1-.1-.2-.2,0,0,0-.1,0-.2,0,0,0-.1,0-.2s0-.1.1-.2c0,0,.2-.1.3-.1,0,0,.2,0,.2,0,.2,0,.5.4.4.7"/>
    <path class="st1" d="M24.2,23.6c0,.4-.2.5-.5.5-.1,0-.2,0-.3,0-.1-.1-.2-.3-.3-.4,0-.2,0-.4.2-.5.2-.1.4-.3.6-.1.2.1.3.3.3.6"/>
    <path class="st1" d="M21.3,22.4s0-.1.1-.2c.1,0,.2-.2.4-.2.3,0,.3,0,.5.2.1.2.1.5,0,.8,0,.2-.3.2-.5.2-.2,0-.5-.4-.5-.7"/>
    <path class="st1" d="M35.5,21.9c0,.4-.1.5-.4.6,0,0-.2,0-.2,0-.1,0-.2-.2-.3-.3-.1-.2-.2-.4,0-.6.2-.2.4-.3.6-.2.2,0,.3.3.3.6"/>
    <path class="st1" d="M47.2,23.1c0,.3-.2.4-.5.5-.2,0-.6-.3-.6-.6,0-.2.4-.5.6-.5.2,0,.4.3.4.6"/>
    <path class="st1" d="M43,23.3c0,.2-.2.4-.5.4,0,0-.1,0-.2,0,0,0,0,0,0,0,0,0,0,0,0,0,0,0,0,0,0,0,0,0-.1-.1-.2-.2,0,0,0-.1,0-.2,0,0,0-.1,0-.2,0,0,0-.1.1-.2,0,0,.2,0,.3-.1,0,0,.2,0,.2,0,.2,0,.4.3.4.6"/>
    <path class="st1" d="M40.1,22.4c0,.2-.2.4-.5.4,0,0-.1,0-.2,0,0,0,0,0,0,0,0,0,0,0,0,0,0,0,0,0,0,0,0,0-.1-.1-.2-.2,0,0,0-.1,0-.2,0,0,0,0,0-.2,0,0,0-.1.1-.2,0,0,.2,0,.3-.1,0,0,.2,0,.2,0,.2,0,.4.3.4.6"/>
    <path class="st1" d="M36.8,23.2c.1-.2.4-.2.6-.1,0,0,0,0,.1.1,0,0,0,0,0,0,0,0,0,0,0,0,0,0,0,0,0,.1,0,0,0,.2,0,.2s0,.1,0,.2c0,0,0,0-.1.1,0,0-.1,0-.2,0,0,0-.2,0-.3,0,0,0-.2,0-.2,0-.2-.1-.2-.5,0-.7"/>
    <path class="st1" d="M43.9,21.6c.1-.2.4-.2.6-.1,0,0,0,0,.1.1,0,0,0,0,0,0,0,0,0,0,0,0,0,0,0,0,0,.1,0,0,0,.2,0,.2,0,0,0,.1,0,.2,0,0,0,0-.1.1,0,0-.1,0-.2,0,0,0-.2,0-.3,0,0,0-.2,0-.2,0-.2-.1-.2-.5,0-.7"/>
    <path class="st1" d="M49.1,21.6c.1,0,.3.1.3.3,0,0,0,0,0,.1,0,0,0,0,0,0,0,0,0,0,0,0,0,0,0,0,0,0,0,0,0,0,0,.1,0,0,0,0,0,0,0,0,0,0-.1,0s0,0-.1,0c0,0,0-.1,0-.2,0,0,0-.1,0-.2,0-.2.2-.3.3-.3"/>
    <path class="st1" d="M28.7,24.1c0,.2-.3.2-.5.2,0,0,0,0-.1,0,0,0,0,0,0,0,0,0,0,0,0,0,0,0,0,0,0,0,0,0,0-.1,0-.2,0,0,0-.1,0-.2,0,0,0,0,0-.1,0,0,0,0,.2,0,0,0,.2,0,.2,0,0,0,.1,0,.2,0,.2,0,.2.4.1.6"/>
    <path class="st7" d="M16.8,38.7c-.1,0-.3-.2-.3-.4,0-.2.2-.4.4-.4.2,0,.4,0,.7.2.1.2,0,.2,0,.4,0,.1,0,.2-.2.3-.1,0-.2.1-.4.1-.1,0-.2,0-.3,0"/>
    <path class="st7" d="M18.9,40s0,0-.1.1c-.1,0-.2,0-.3,0-.2-.1-.3-.3-.3-.5,0-.1,0-.3.2-.4.1,0,.3-.1.5,0,.3,0,.5.5.2.8,0,0,0,0-.2.2"/>
    <path class="st7" d="M16,37.5c0,.2-.4.4-.7.4-.2,0-.3-.2-.3-.5,0-.2.1-.4.3-.4.2,0,.4,0,.6,0,.1.1.2.3,0,.5"/>
    <path class="st7" d="M14.3,36.7c0,.3-.3.4-.6.3-.2,0-.3-.2-.2-.5,0-.3.3-.4.5-.4.2,0,.3.3.2.5"/>
    <path class="st7" d="M20.9,45.1c-.1.3-.5.5-.7.3-.3-.2-.4-.5-.3-.7,0,0,0-.1.1-.2.2-.2.6-.3.8,0,0,.2,0,.4,0,.5"/>
    <path class="st7" d="M19.4,46.7c.1-.1.2-.2.4-.2.2,0,.4.2.4.5,0,.2,0,.4-.2.6-.2.1-.5,0-.7-.1-.2-.2-.1-.5,0-.7"/>
    <path class="st7" d="M20.7,43.5c-.2,0-.5-.3-.6-.5,0-.2.1-.4.3-.5.2,0,.4,0,.5.1.1.2.2.4.1.6,0,.2-.2.2-.4.2"/>
    <path class="st7" d="M20.2,40.9c0,.3,0,.5-.2.6-.3,0-.5,0-.6-.2-.1-.3,0-.5.2-.6.2,0,.5,0,.6.2"/>
    <path class="st7" d="M15.8,54.3c0,0,.3-.2.5-.1.2,0,.3.3.3.5,0,.1,0,.2,0,.3,0,.1-.2.2-.3.3-.2,0-.5,0-.6-.3-.2-.3,0-.5.2-.7"/>
    <path class="st7" d="M14.8,57.6s0,0-.2,0c-.1,0-.2-.1-.2-.3,0-.2,0-.5.3-.7.3-.2.7,0,.8.3.1.3,0,.6-.4.6,0,0-.1,0-.2,0"/>
    <path class="st7" d="M17.1,53.2c-.2-.2-.4-.4-.4-.6,0-.2.2-.3.5-.3.2,0,.4,0,.5.3,0,.2.1.4,0,.6-.1.2-.3.2-.5,0"/>
    <path class="st7" d="M14.8,59.6c0,.3-.2.5-.5.4h-.1c-.2,0-.3-.2-.3-.4,0-.2,0-.4.3-.5.3-.1.7,0,.7.4"/>
    <path class="st7" d="M19.2,49.3c0,.2-.2.4-.5.3-.3,0-.4-.3-.4-.5,0-.3.3-.4.5-.4.2,0,.4.3.4.6"/>
    <path class="st7" d="M18.1,51.3c-.3,0-.5-.2-.5-.4,0-.2.1-.4.4-.4.3,0,.5.2.5.4,0,.3-.2.4-.4.4"/>
    <path class="st7" d="M14,64.8c-.3,0-.6-.2-.6-.5,0-.4.2-.6.5-.6s.1,0,.2,0c.2,0,.6.3.4.7-.1.2-.3.3-.5.4"/>
    <path class="st7" d="M14.5,61.9c0,.2,0,.5-.3.5-.3,0-.5,0-.5-.4,0-.3,0-.5.3-.5.2,0,.5.2.5.4"/>
    <path class="st7" d="M49,58.3c-.3-.2-.5-.5-.3-.7.2-.3.6-.3.9-.1,0,0,.2.1.2.2.2.3.2.7-.2.8-.2,0-.4,0-.6,0"/>
    <path class="st7" d="M48.6,55.4c.1.1.2.3.1.5,0,.2-.3.3-.5.3-.3,0-.5-.2-.6-.5-.1-.3,0-.6.3-.6.3,0,.5,0,.7.3"/>
    <path class="st7" d="M48.3,52.9s0,0,.2,0c.1,0,.2,0,.3.2,0,.2.1.4,0,.6,0,.3-.5.5-.8.2-.3-.3-.3-.9.1-1,0,0,.1,0,.2,0"/>
    <path class="st7" d="M50.6,59.4c0-.2.4-.4.7-.4.2,0,.5.3.5.5,0,.2-.2.4-.4.4-.2,0-.4,0-.7,0-.2-.1-.2-.3-.2-.5"/>
    <path class="st7" d="M52,60.9c0-.3.3-.4.6-.4.3,0,.4.2.3.5,0,.3-.3.5-.6.4-.3,0-.4-.3-.4-.5"/>
    <path class="st7" d="M50.9,47.9c0,.2.1.4,0,.6-.1.1-.4.1-.6,0-.2-.1-.4-.3-.4-.5,0-.2,0-.5.3-.6.3,0,.5,0,.7.5"/>
    <path class="st7" d="M50.6,49.7c0,0,.1.2,0,.4,0,.2-.2.3-.3.4-.2.1-.5,0-.7-.1-.1-.2-.1-.4,0-.6.1-.2.3-.3.5-.4.2,0,.3,0,.4.2"/>
    <path class="st7" d="M49.6,45.4c0-.2,0-.3.2-.4.1,0,.3,0,.4,0,0,0,0,0,.1,0,.2,0,.3.2.3.4,0,.2,0,.4-.3.5-.1,0-.3.1-.5,0-.2,0-.3-.3-.2-.5"/>
    <path class="st7" d="M49.5,51.4c0,.2,0,.5-.3.6-.2,0-.4,0-.5-.2-.2-.2,0-.6.2-.7.3-.1.5,0,.6.2"/>
    <path class="st7" d="M52.3,40.1c.3-.1.7-.1.8.1.1.3,0,.7-.3.8,0,0-.2,0-.3.1-.4,0-.7-.2-.5-.6,0-.2.2-.3.4-.5"/>
    <path class="st7" d="M50,43.1c0-.3.2-.5.5-.5.3,0,.4.2.4.6,0,.3-.2.5-.5.5-.2,0-.4-.4-.4-.6"/>
  </g>
  <g class="st4">
    <path class="st7" d="M51.7,41.6c.2.2.2.5,0,.7-.1.2-.3.2-.5.2-.3,0-.4-.4-.2-.7.2-.3.5-.3.7-.1"/>
    <path class="st1" d="M53.6,53.3c-.3-.8-.7,1.8-1-1,0-5.4.2-10.7.1-16.1,0-2.7-.2-5.4-.5-8-.4-2.6-.9-5.2-1.9-7.6-.7-1.6-1.5-3.2-2.6-4.5-1.1-1.3-2.5-2.5-4-3.3-3.1-1.7-6.8-2.4-10.5-2.5-1.8,0-3.7,0-5.5.3-1.8.3-3.5.8-5.1,1.6-1.6.8-3,1.9-4.2,3.3-1.2,1.4-2.1,3-2.8,4.7-1.4,3.4-2,7.1-2.4,10.8-.5,4.5-.5,9-.6,13.5,0,4.5,0,9,0,13.6,0,2.6.2,5.2.5,7.8.3,2.6.7,5.2,1.4,7.7.7,2.5,1.7,4.9,3.1,7,1.5,2.1,3.5,3.8,5.8,4.8,1.6.7,3.3,1.2,5,1.4,1.7.2,3.5.3,5.3.3,3.5-.1,7.1-.9,10-2.9,1.4-1,2.7-2.2,3.8-3.6,1-1.4,1.9-3,2.5-4.6,1.3-3.3,2-6.8,2.4-10.3.5-3.9.7-7.6,1.1-10.6.2-2,.4-1.7.5.6,0,1.5,0,3.2,0,4.8-.2,3.8-.6,7.7-1.5,11.4-.4,1.9-1,3.8-1.8,5.6-.8,1.8-1.8,3.5-3.1,5-1.7,2.1-4.1,3.6-6.6,4.6-2.5.9-5.2,1.3-7.8,1.3-2.6,0-5.3-.2-7.9-.9-1.3-.4-2.5-.9-3.7-1.6-1.2-.7-2.3-1.5-3.2-2.5-1-1.1-1.9-2.2-2.7-3.5-.7-1.3-1.3-2.6-1.8-4-.9-2.7-1.5-5.5-1.9-8.4-.7-5.6-.8-11.3-.8-16.9,0-5.6,0-11.2.4-16.8.2-2.8.5-5.6,1.1-8.4.6-2.8,1.4-5.6,2.9-8.1,1-1.7,2.3-3.3,3.8-4.6,1.6-1.2,3.4-2.1,5.3-2.7,1.9-.6,3.9-.8,5.8-.9h1.5s1.5,0,1.5,0c1,0,1.9.2,2.9.2,1.9.3,3.9.7,5.7,1.4,1.8.7,3.6,1.8,5,3.1,1.5,1.3,2.7,2.9,3.6,4.7.9,1.7,1.5,3.6,2,5.5.4,1.8.7,3.6.9,5.5.2,1.8.3,3.7.3,5.5,0,3.7,0,7.4,0,11.1,0,2.5-.1,4.9-.4,7.2"/>
  </g>
  <g class="st5">
    <path class="st1" d="M72.5,68.7l-2,4.9h.6l.5-1.2h2.3l.5,1.2h.6l-2-4.9h-.5ZM71.9,71.8l1-2.4,1,2.4h-1.9Z"/>
    <path class="st1" d="M77.4,73.7c.6,0,1-.2,1.3-.5.3-.3.5-.8.5-1.5v-3h-.6v3c0,.5-.1.8-.3,1.1-.2.2-.5.4-.9.4s-.7-.1-.9-.4c-.2-.2-.3-.6-.3-1.1v-3h-.6v3c0,.7.2,1.2.5,1.5.3.3.8.5,1.3.5"/>
    <path class="st1" d="M81.7,73.1c-.3,0-.6,0-.8-.1-.2,0-.5-.2-.7-.4l-.2.5c.1.1.3.3.5.3.2,0,.4.2.6.2.2,0,.4,0,.7,0,.3,0,.6,0,.9-.2.3-.1.4-.3.6-.5.1-.2.2-.5.2-.7s0-.4-.1-.6c0-.2-.2-.3-.4-.4-.2,0-.3-.2-.5-.2-.2,0-.4-.1-.6-.2-.2,0-.4-.1-.6-.2-.2,0-.3-.2-.4-.3,0-.1-.1-.2-.1-.4,0-.3,0-.5.3-.6.2-.2.5-.2.8-.2s.5,0,.7.1c.2,0,.4.2.6.4l.2-.5c-.1-.1-.3-.2-.4-.3-.2,0-.3-.2-.5-.2-.2,0-.4,0-.6,0-.3,0-.6,0-.9.2-.2.1-.4.3-.6.5-.1.2-.2.5-.2.8s0,.4.1.6c0,.2.2.3.3.4s.3.2.5.3c.2,0,.4.1.6.2.2,0,.4.1.6.2.2,0,.3.1.4.2,0,0,.1.2.1.4,0,.3,0,.5-.3.6-.2.1-.5.2-.8.2"/>
    <polygon class="st1" points="87.3 68.7 83.7 68.7 83.7 69.2 85.2 69.2 85.2 73.6 85.8 73.6 85.8 69.2 87.3 69.2 87.3 68.7"/>
    <path class="st1" d="M90.3,72l.6,1.6h.6l-.6-1.7c0-.2-.2-.4-.3-.5,0,0-.2-.1-.3-.1.2,0,.4-.2.5-.3.3-.2.4-.6.4-1s-.1-.8-.4-1-.6-.4-1.1-.4h-1.8v4.9h.6v-2.1h1.1c.2,0,.4,0,.5,0,.1,0,.2.2.3.4M88.5,71v-1.8h1.2c.3,0,.6,0,.8.2.2.1.2.4.2.7s0,.5-.2.7c-.2.2-.4.2-.8.2h-1.2Z"/>
    <path class="st1" d="M92.9,72.4h2.3l.5,1.2h.6l-2-4.9h-.5l-2,4.9h.6l.5-1.2ZM94.1,69.4l1,2.4h-1.9l1-2.4Z"/>
    <polygon class="st1" points="99.8 73.1 97.5 73.1 97.5 68.7 97 68.7 97 73.6 99.8 73.6 99.8 73.1"/>
    <rect class="st1" x="100.4" y="68.7" width=".6" height="4.9"/>
    <path class="st1" d="M102.7,72.4h2.3l.5,1.2h.6l-2-4.9h-.5l-2,4.9h.6l.5-1.2ZM103.9,69.4l1,2.4h-1.9l1-2.4Z"/>
    <polygon class="st1" points="109.9 73.6 110.4 73.6 110.4 68.7 109.8 68.7 109.8 72.5 107.2 68.7 106.7 68.7 106.7 73.6 107.3 73.6 107.3 69.7 109.9 73.6"/>
    <rect class="st1" x="113.3" y="68.7" width=".6" height="4.9"/>
    <polygon class="st1" points="115.5 69.7 118.2 73.6 118.6 73.6 118.6 68.7 118.1 68.7 118.1 72.5 115.4 68.7 115 68.7 115 73.6 115.5 73.6 115.5 69.7"/>
    <path class="st1" d="M122.1,73.5c.3-.1.4-.3.6-.5.1-.2.2-.5.2-.7s0-.4-.1-.6c0-.2-.2-.3-.4-.4-.2,0-.3-.2-.5-.2-.2,0-.4-.1-.6-.2-.2,0-.4-.1-.6-.2-.2,0-.3-.1-.4-.3,0-.1-.1-.2-.1-.4,0-.3,0-.5.3-.7.2-.2.5-.2.8-.2s.5,0,.7.1c.2,0,.4.2.6.4l.2-.5c-.1-.1-.3-.2-.4-.3-.2,0-.3-.2-.5-.2-.2,0-.4,0-.6,0-.3,0-.6,0-.9.2-.2.1-.4.3-.6.5-.1.2-.2.5-.2.8s0,.4.1.6c0,.2.2.3.3.4.1.1.3.2.5.3.2,0,.4.1.6.2.2,0,.4.1.6.2.2,0,.3.1.4.2,0,.1.1.2.1.4,0,.3,0,.5-.3.6-.2.1-.5.2-.8.2s-.6,0-.8-.1c-.2,0-.5-.2-.7-.4l-.2.5c.1.1.3.3.5.3.2,0,.4.2.6.2.2,0,.4,0,.7,0,.3,0,.6,0,.9-.2"/>
    <polygon class="st1" points="125.2 73.6 125.2 69.2 126.8 69.2 126.8 68.7 123.1 68.7 123.1 69.2 124.6 69.2 124.6 73.6 125.2 73.6"/>
    <rect class="st1" x="127.4" y="68.7" width=".6" height="4.9"/>
    <polygon class="st1" points="132.3 68.7 128.6 68.7 128.6 69.2 130.1 69.2 130.1 73.6 130.7 73.6 130.7 69.2 132.3 69.2 132.3 68.7"/>
    <path class="st1" d="M135.9,71.7c0,.5-.1.8-.3,1.1-.2.2-.5.4-.9.4s-.7-.1-.9-.4c-.2-.2-.3-.6-.3-1.1v-3h-.6v3c0,.7.2,1.2.5,1.5.3.3.8.5,1.3.5s1-.2,1.3-.5c.3-.3.5-.8.5-1.5v-3h-.6v3Z"/>
    <polygon class="st1" points="138.6 73.6 139.2 73.6 139.2 69.2 140.7 69.2 140.7 68.7 137.1 68.7 137.1 69.2 138.6 69.2 138.6 73.6"/>
    <polygon class="st1" points="144.2 73.1 141.9 73.1 141.9 71.4 144.1 71.4 144.1 70.8 141.9 70.8 141.9 69.2 144.2 69.2 144.2 68.7 141.3 68.7 141.3 73.6 144.2 73.6 144.2 73.1"/>
    <path class="st1" d="M150.7,69.8c-.2-.4-.4-.7-.7-.9-.3-.2-.7-.3-1.1-.3s-.8.1-1.1.3c-.3.2-.5.5-.7.9-.2.4-.2.8-.2,1.4s0,1,.3,1.3c.2.4.4.7.7.9.3.2.7.3,1.1.3s.8-.1,1.1-.3c.3-.2.5-.5.7-.9.2-.4.3-.8.3-1.4s0-1-.2-1.3M149.9,72.6c-.3.3-.6.5-1.1.5s-.8-.2-1.1-.5c-.3-.3-.4-.8-.4-1.5s.1-1.1.4-1.5c.3-.3.6-.5,1.1-.5s.8.2,1.1.5c.3.3.4.8.4,1.5s-.1,1.1-.4,1.5"/>
    <polygon class="st1" points="151.8 73.6 152.4 73.6 152.4 71.4 154.5 71.4 154.5 70.8 152.4 70.8 152.4 69.2 154.6 69.2 154.6 68.7 151.8 68.7 151.8 73.6"/>
    <path class="st1" d="M157.9,72.4h2.3l.5,1.2h.6l-2-4.9h-.5l-2,4.9h.6l.5-1.2ZM159,69.4l1,2.4h-1.9l1-2.4Z"/>
    <path class="st1" d="M165.3,72.3c0-.3,0-.6-.2-.8-.1-.2-.4-.3-.6-.4.2,0,.4-.2.5-.4.1-.2.2-.4.2-.7,0-.4-.1-.7-.4-1-.3-.2-.6-.3-1.1-.3h-1.8v4.9h1.9c.5,0,.9-.1,1.1-.3.3-.2.4-.6.4-1M162.5,69.2h1.2c.3,0,.6,0,.7.2.2.1.2.3.2.6s0,.5-.2.6c-.2.1-.4.2-.7.2h-1.2v-1.6ZM164.5,72.9c-.2.1-.4.2-.8.2h-1.3v-1.7h1.3c.3,0,.6,0,.7.2.2.1.2.4.2.7s0,.5-.2.6"/>
    <path class="st1" d="M170.2,71.1c0-.5,0-1-.2-1.3-.2-.4-.4-.7-.7-.9-.3-.2-.7-.3-1.1-.3s-.8.1-1.1.3c-.3.2-.5.5-.7.9-.2.4-.2.8-.2,1.4s0,1,.3,1.3c.2.4.4.7.7.9.3.2.7.3,1.1.3s.8-.1,1.1-.3c.3-.2.5-.5.7-.9.2-.4.3-.8.3-1.4M169.2,72.6c-.3.3-.6.5-1.1.5s-.8-.2-1.1-.5c-.3-.3-.4-.8-.4-1.5s.1-1.1.4-1.5c.3-.3.6-.5,1.1-.5s.8.2,1.1.5c.3.3.4.8.4,1.5s-.1,1.1-.4,1.5"/>
    <path class="st1" d="M173.5,72l.6,1.6h.6l-.6-1.7c0-.2-.2-.4-.3-.5,0,0-.2-.1-.3-.1.2,0,.4-.2.5-.3.3-.2.4-.6.4-1s-.1-.8-.4-1c-.3-.2-.6-.4-1.1-.4h-1.8v4.9h.6v-2.1h1.1c.2,0,.4,0,.5,0,.1,0,.2.2.3.4M171.7,71v-1.8h1.2c.3,0,.6,0,.8.2.2.1.2.4.2.7s0,.5-.2.7c-.2.2-.4.2-.8.2h-1.2Z"/>
    <rect class="st1" x="175.5" y="68.7" width=".6" height="4.9"/>
    <path class="st1" d="M179.2,73.7c.2,0,.4,0,.6,0,.2,0,.4,0,.6-.1.2,0,.3-.1.4-.2v-2.3h-1.6v.5h1.1v1.4c-.1,0-.3,0-.4.1-.2,0-.4,0-.6,0-.5,0-.9-.2-1.2-.5-.3-.3-.4-.8-.4-1.5s.1-1.1.4-1.5c.3-.3.6-.5,1.1-.5s.5,0,.7.1c.2,0,.4.2.6.4l.2-.5c-.2-.2-.4-.4-.7-.5-.3-.1-.6-.2-.9-.2s-.8,0-1.1.3c-.3.2-.6.5-.7.9-.2.4-.3.8-.3,1.4s0,1,.3,1.4c.2.4.4.7.7.9.3.2.7.3,1.2.3"/>
    <rect class="st1" x="181.8" y="68.7" width=".6" height="4.9"/>
    <polygon class="st1" points="187.1 68.7 186.5 68.7 186.5 72.5 183.9 68.7 183.5 68.7 183.5 73.6 184 73.6 184 69.7 186.6 73.6 187.1 73.6 187.1 68.7"/>
    <path class="st1" d="M190.2,68.7h-.5l-2,4.9h.6l.5-1.2h2.3l.5,1.2h.6l-2-4.9ZM189,71.8l1-2.4,1,2.4h-1.9Z"/>
    <polygon class="st1" points="193.4 68.7 192.8 68.7 192.8 73.6 195.6 73.6 195.6 73.1 193.4 73.1 193.4 68.7"/>
    <path class="st1" d="M72.5,76.2l-2,4.9h.6l.5-1.2h2.3l.5,1.2h.6l-2-4.9h-.5ZM71.9,79.4l1-2.4,1,2.4h-1.9Z"/>
    <polygon class="st1" points="78.8 80.1 76.1 76.2 75.7 76.2 75.7 81.2 76.2 81.2 76.2 77.3 78.9 81.2 79.3 81.2 79.3 76.2 78.8 76.2 78.8 80.1"/>
    <path class="st1" d="M83.2,76.5c-.3-.2-.7-.3-1.2-.3h-1.5v4.9h1.5c.5,0,.9,0,1.2-.3.3-.2.6-.5.8-.8.2-.4.3-.8.3-1.3s0-1-.3-1.3c-.2-.4-.4-.6-.8-.8M83.2,80.2c-.3.3-.7.5-1.3.5h-.9v-3.9h.9c1.1,0,1.7.6,1.7,1.9s-.1,1.1-.4,1.5"/>
    <polygon class="st1" points="86.3 76.8 87.8 76.8 87.8 81.2 88.4 81.2 88.4 76.8 90 76.8 90 76.2 86.3 76.2 86.3 76.8"/>
    <path class="st1" d="M93.3,76.5c-.3-.2-.7-.3-1.1-.3s-.8.1-1.1.3c-.3.2-.5.5-.7.9-.2.4-.2.8-.2,1.3s0,1,.3,1.3c.2.4.4.7.7.9.3.2.7.3,1.1.3s.8-.1,1.1-.3c.3-.2.5-.5.7-.9.2-.4.3-.8.3-1.4s0-1-.2-1.3-.4-.7-.7-.9M93.3,80.2c-.3.3-.6.5-1.1.5s-.8-.2-1.1-.5c-.3-.3-.4-.8-.4-1.5s.1-1.1.4-1.5c.3-.3.6-.5,1.1-.5s.8.2,1.1.5c.3.3.4.8.4,1.5s-.1,1.1-.4,1.5"/>
    <path class="st1" d="M97.9,79.1c0,0-.2-.1-.3-.1.2,0,.4-.2.5-.3.3-.2.4-.6.4-1s-.1-.8-.4-1-.6-.4-1.1-.4h-1.8v4.9h.6v-2.1h1.1c.2,0,.4,0,.5,0,.1,0,.2.2.3.4l.6,1.6h.6l-.6-1.7c0-.2-.2-.4-.3-.5M95.8,78.5v-1.8h1.2c.3,0,.6,0,.8.2.2.1.2.4.2.7s0,.5-.2.7c-.2.2-.4.2-.8.2h-1.2Z"/>
    <path class="st1" d="M102.3,79.1c0,0-.2-.1-.3-.1.2,0,.4-.2.5-.3.3-.2.4-.6.4-1s-.1-.8-.4-1-.6-.4-1.1-.4h-1.8v4.9h.6v-2.1h1.1c.2,0,.4,0,.5,0,.1,0,.2.2.3.4l.6,1.6h.6l-.6-1.7c0-.2-.2-.4-.3-.5M100.2,78.5v-1.8h1.2c.3,0,.6,0,.8.2.2.1.2.4.2.7s0,.5-.2.7c-.2.2-.4.2-.8.2h-1.2Z"/>
    <polygon class="st1" points="104 81.2 106.8 81.2 106.8 80.7 104.5 80.7 104.5 78.9 106.7 78.9 106.7 78.4 104.5 78.4 104.5 76.8 106.8 76.8 106.8 76.2 104 76.2 104 81.2"/>
    <path class="st1" d="M110.3,78.9c-.2,0-.3-.2-.5-.2-.2,0-.4-.1-.6-.2-.2,0-.4-.1-.6-.2-.2,0-.3-.2-.4-.3,0-.1-.1-.2-.1-.4,0-.3,0-.5.3-.6.2-.2.5-.2.8-.2s.5,0,.7.1c.2,0,.4.2.6.4l.2-.5c-.1-.1-.3-.2-.4-.3-.2,0-.3-.2-.5-.2-.2,0-.4,0-.6,0-.3,0-.6,0-.9.2-.2.1-.4.3-.6.5-.1.2-.2.5-.2.8s0,.4.1.6c0,.2.2.3.3.4.1.1.3.2.5.3.2,0,.4.1.6.2.2,0,.4.1.6.2.2,0,.3.1.4.2,0,0,.1.2.1.4,0,.3,0,.5-.3.6-.2.1-.5.2-.8.2s-.6,0-.8-.1c-.2,0-.5-.2-.7-.4l-.2.5c.1.1.3.3.5.3.2,0,.4.2.6.2s.4,0,.7,0c.3,0,.6,0,.9-.2.3-.1.4-.3.6-.5.1-.2.2-.5.2-.7s0-.4-.1-.6c0-.2-.2-.3-.4-.4"/>
    <path class="st1" d="M115.9,78.9c-.2,0-.3-.2-.5-.2-.2,0-.4-.1-.6-.2-.2,0-.4-.1-.6-.2s-.3-.2-.4-.3c0-.1-.1-.2-.1-.4,0-.3,0-.5.3-.6.2-.2.5-.2.8-.2s.5,0,.7.1.4.2.6.4l.2-.5c-.1-.1-.3-.2-.4-.3-.2,0-.3-.2-.5-.2-.2,0-.4,0-.6,0-.3,0-.6,0-.9.2-.2.1-.4.3-.6.5-.1.2-.2.5-.2.8s0,.4.1.6c0,.2.2.3.3.4s.3.2.5.3c.2,0,.4.1.6.2.2,0,.4.1.6.2.2,0,.3.1.4.2,0,0,.1.2.1.4,0,.3,0,.5-.3.6-.2.1-.5.2-.8.2s-.6,0-.8-.1c-.2,0-.5-.2-.7-.4l-.2.5c.1.1.3.3.5.3.2,0,.4.2.6.2.2,0,.4,0,.7,0,.3,0,.7,0,.9-.2.3-.1.4-.3.6-.5.1-.2.2-.5.2-.7s0-.4-.1-.6c0-.2-.2-.3-.4-.4"/>
    <polygon class="st1" points="116.6 76.8 118.2 76.8 118.2 81.2 118.8 81.2 118.8 76.8 120.3 76.8 120.3 76.2 116.6 76.2 116.6 76.8"/>
    <path class="st1" d="M123.7,79.1c0,0-.2-.1-.3-.1.2,0,.4-.2.5-.3.3-.2.4-.6.4-1s-.1-.8-.4-1-.6-.4-1.1-.4h-1.8v4.9h.6v-2.1h1.1c.2,0,.4,0,.5,0,.1,0,.2.2.3.4l.6,1.6h.6l-.6-1.7c0-.2-.2-.4-.3-.5M121.5,78.5v-1.8h1.2c.3,0,.6,0,.8.2.2.1.2.4.2.7s0,.5-.2.7c-.2.2-.4.2-.8.2h-1.2Z"/>
    <path class="st1" d="M126.8,76.2l-2,4.9h.6l.5-1.2h2.3l.5,1.2h.6l-2-4.9h-.5ZM126.1,79.4l1-2.4,1,2.4h-1.9Z"/>
    <rect class="st1" x="129.9" y="76.2" width=".6" height="4.9"/>
    <polygon class="st1" points="131.1 76.8 132.7 76.8 132.7 81.2 133.3 81.2 133.3 76.8 134.8 76.8 134.8 76.2 131.1 76.2 131.1 76.8"/>
    <rect class="st1" x="137.1" y="76.2" width=".6" height="4.9"/>
    <path class="st1" d="M141.4,78.9c-.2,0-.3-.2-.5-.2-.2,0-.4-.1-.6-.2-.2,0-.4-.1-.6-.2-.2,0-.3-.2-.4-.3,0-.1-.1-.2-.1-.4,0-.3,0-.5.3-.6.2-.2.5-.2.8-.2s.5,0,.7.1c.2,0,.4.2.6.4l.2-.5c-.1-.1-.3-.2-.4-.3-.2,0-.3-.2-.5-.2-.2,0-.4,0-.6,0-.3,0-.6,0-.9.2-.2.1-.4.3-.6.5-.1.2-.2.5-.2.8s0,.4.1.6c0,.2.2.3.3.4.1.1.3.2.5.3.2,0,.4.1.6.2.2,0,.4.1.6.2.2,0,.3.1.4.2,0,0,.1.2.1.4,0,.3,0,.5-.3.6-.2.1-.5.2-.8.2s-.6,0-.8-.1c-.2,0-.5-.2-.7-.4l-.2.5c.1.1.3.3.5.3.2,0,.4.2.6.2s.4,0,.7,0c.4,0,.7,0,.9-.2.3-.1.4-.3.6-.5.1-.2.2-.5.2-.7s0-.4-.1-.6c0-.2-.2-.3-.4-.4"/>
    <polygon class="st1" points="143.3 76.2 142.7 76.2 142.7 81.2 145.5 81.2 145.5 80.6 143.3 80.6 143.3 76.2"/>
    <path class="st1" d="M147.6,76.2l-2,4.9h.6l.5-1.2h2.3l.5,1.2h.6l-2-4.9h-.5ZM146.9,79.4l1-2.4,1,2.4h-1.9Z"/>
    <polygon class="st1" points="153.8 80.1 151.2 76.2 150.7 76.2 150.7 81.2 151.3 81.2 151.3 77.3 153.9 81.2 154.4 81.2 154.4 76.2 153.8 76.2 153.8 80.1"/>
    <path class="st1" d="M158.2,76.5c-.3-.2-.7-.3-1.2-.3h-1.5v4.9h1.5c.5,0,.9,0,1.2-.3.3-.2.6-.5.8-.8.2-.4.3-.8.3-1.3s0-1-.3-1.3c-.2-.4-.4-.6-.8-.8M158.2,80.2c-.3.3-.7.5-1.3.5h-.9v-3.9h.9c1.1,0,1.7.6,1.7,1.9s-.1,1.1-.4,1.5"/>
    <polygon class="st1" points="160.2 81.2 163.1 81.2 163.1 80.7 160.8 80.7 160.8 78.9 162.9 78.9 162.9 78.4 160.8 78.4 160.8 76.8 163.1 76.8 163.1 76.2 160.2 76.2 160.2 81.2"/>
    <path class="st1" d="M166.6,79.1c0,0-.2-.1-.3-.1.2,0,.4-.2.5-.3.3-.2.4-.6.4-1s-.1-.8-.4-1c-.3-.2-.6-.4-1.1-.4h-1.8v4.9h.6v-2.1h1.1c.2,0,.4,0,.5,0,.1,0,.2.2.3.4l.6,1.6h.6l-.6-1.7c0-.2-.2-.4-.3-.5M164.5,78.5v-1.8h1.2c.3,0,.6,0,.8.2.2.1.2.4.2.7s0,.5-.2.7c-.2.2-.4.2-.8.2h-1.2Z"/>
    <path class="st1" d="M172.6,78.9c-.2,0-.3-.2-.5-.2-.2,0-.4-.1-.6-.2-.2,0-.4-.1-.6-.2-.2,0-.3-.2-.4-.3,0-.1-.1-.2-.1-.4,0-.3,0-.5.3-.6.2-.2.5-.2.8-.2s.5,0,.7.1c.2,0,.4.2.6.4l.2-.5c-.1-.1-.3-.2-.4-.3-.2,0-.3-.2-.5-.2-.2,0-.4,0-.6,0-.3,0-.6,0-.9.2-.2.1-.4.3-.6.5-.1.2-.2.5-.2.8s0,.4.1.6c0,.2.2.3.3.4.1.1.3.2.5.3.2,0,.4.1.6.2.2,0,.4.1.6.2.2,0,.3.1.4.2,0,0,.1.2.1.4,0,.3,0,.5-.3.6-.2.1-.5.2-.8.2s-.6,0-.8-.1c-.2,0-.5-.2-.7-.4l-.2.5c.1.1.3.3.5.3.2,0,.4.2.6.2s.4,0,.7,0c.4,0,.7,0,.9-.2.3-.1.4-.3.6-.5.1-.2.2-.5.2-.7s0-.4-.1-.6c0-.2-.2-.3-.4-.4"/>
    <polygon class="st1" points="173.3 76.8 174.9 76.8 174.9 81.2 175.5 81.2 175.5 76.8 177 76.8 177 76.2 173.3 76.2 173.3 76.8"/>
    <path class="st1" d="M180.6,79.3c0,.5-.1.8-.3,1.1-.2.2-.5.4-.9.4s-.7-.1-.9-.4c-.2-.2-.3-.6-.3-1.1v-3h-.6v3c0,.7.2,1.2.5,1.5.3.3.8.5,1.3.5s1-.2,1.3-.5c.3-.3.5-.8.5-1.5v-3h-.6v3Z"/>
    <path class="st1" d="M185,76.5c-.3-.2-.7-.3-1.2-.3h-1.5v4.9h1.5c.5,0,.9,0,1.2-.3.3-.2.6-.5.8-.8.2-.4.3-.8.3-1.3s0-1-.3-1.3c-.2-.4-.4-.6-.8-.8M185,80.2c-.3.3-.7.5-1.3.5h-.9v-3.9h.9c1.1,0,1.7.6,1.7,1.9s-.1,1.1-.4,1.5"/>
    <rect class="st1" x="187" y="76.2" width=".6" height="4.9"/>
    <polygon class="st1" points="188.7 81.2 191.5 81.2 191.5 80.7 189.2 80.7 189.2 78.9 191.4 78.9 191.4 78.4 189.2 78.4 189.2 76.8 191.5 76.8 191.5 76.2 188.7 76.2 188.7 81.2"/>
    <path class="st1" d="M195,78.9c-.2,0-.3-.2-.5-.2-.2,0-.4-.1-.6-.2-.2,0-.4-.1-.6-.2-.2,0-.3-.2-.4-.3,0-.1-.1-.2-.1-.4,0-.3,0-.5.3-.6.2-.2.5-.2.8-.2s.5,0,.7.1c.2,0,.4.2.6.4l.2-.5c-.1-.1-.3-.2-.4-.3-.2,0-.3-.2-.5-.2-.2,0-.4,0-.6,0-.3,0-.6,0-.9.2-.2.1-.4.3-.6.5-.1.2-.2.5-.2.8s0,.4.1.6c0,.2.2.3.3.4s.3.2.5.3c.2,0,.4.1.6.2.2,0,.4.1.6.2.2,0,.3.1.4.2,0,0,.1.2.1.4,0,.3,0,.5-.3.6-.2.1-.5.2-.8.2s-.6,0-.8-.1c-.2,0-.5-.2-.7-.4l-.2.5c.1.1.3.3.5.3.2,0,.4.2.6.2.2,0,.4,0,.7,0,.4,0,.6,0,.9-.2.3-.1.4-.3.6-.5.1-.2.2-.5.2-.7s0-.4-.1-.6c0-.2-.2-.3-.4-.4"/>
  </g>
</svg>