<?xml version="1.0" encoding="UTF-8"?>
<svg id="Layer_1" xmlns="http://www.w3.org/2000/svg" version="1.1" viewBox="0 0 274 105.9">
  <!-- Generator: Adobe Illustrator 29.1.0, SVG Export Plug-In . SVG Version: 2.1.0 Build 142)  -->
  <defs>
    <style>
      .st0 {
        fill: #7b5a3d;
      }
    </style>
  </defs>
  <path d="M141.6,17h3l7.9,20.3h-3l-2.2-6.1h-8.6l-2.3,6.1h-2.8l7.9-20.3ZM139.6,28.9h6.9l-3.4-9.5h0l-3.4,9.5Z"/>
  <path d="M165.6,37.3h-2.3v-2.3h0c-1,1.8-2.7,2.7-4.8,2.7-3.9,0-5.1-2.2-5.1-5.4v-9.7h2.4v10c0,1.8,1.1,3,3,3,2.9,0,4.4-2,4.4-4.6v-8.3h2.4v14.7Z"/>
  <path d="M170,32.7c0,2.2,2,2.8,4,2.8s3.6-.3,3.6-2.2-2.4-2.2-4.8-2.7c-2.4-.5-4.8-1.3-4.8-4.2s2.9-4.2,5.5-4.2,5.8,1,6,4.6h-2.4c-.2-1.9-1.8-2.5-3.4-2.5s-3.1.4-3.1,1.9,2.6,2,4.8,2.6c2.4.5,4.8,1.3,4.8,4.2s-3.3,4.6-6.3,4.6-6.1-1.3-6.2-5h2.4Z"/>
  <path d="M185.6,22.6h2.9v2.1h-2.9v9.1c0,1.1.3,1.3,1.8,1.3h1.1v2.1h-1.8c-2.5,0-3.5-.5-3.5-3.2v-9.4h-2.5v-2.1h2.5v-4.4h2.4v4.4Z"/>
  <path d="M190.9,22.6h2.3v3.1h0c1.2-2.4,2.8-3.5,5.4-3.4v2.6c-3.9,0-5.3,2.2-5.3,6v6.5h-2.4v-14.7Z"/>
  <path d="M213,37.2c-.4.3-1,.4-1.7.4-1.3,0-2-.7-2-2.3-1.3,1.6-3.1,2.3-5.2,2.3s-4.9-1.2-4.9-4.1,2.5-4,5-4.5c2.7-.5,5-.3,5-2.2s-1.7-2.4-3.3-2.4-3.6.6-3.7,2.8h-2.4c.1-3.6,3-4.9,6.2-4.9s5.5.6,5.5,4v7.6c0,1.1,0,1.7.8,1.7s.4,0,.7-.1v1.9ZM209.1,29.7c-.9.7-2.8.7-4.4,1-1.6.3-3,.9-3,2.6s1.4,2.2,2.8,2.2c3.2,0,4.5-2,4.5-3.3v-2.5Z"/>
  <rect x="214.8" y="17" width="2.4" height="20.3"/>
  <path d="M222.3,19.9h-2.4v-3h2.4v3ZM219.8,22.6h2.4v14.7h-2.4v-14.7Z"/>
  <path d="M238.2,37.2c-.4.3-1,.4-1.7.4-1.3,0-2-.7-2-2.3-1.3,1.6-3.1,2.3-5.2,2.3s-4.9-1.2-4.9-4.1,2.5-4,5-4.5c2.7-.5,5-.3,5-2.2s-1.7-2.4-3.3-2.4-3.6.6-3.7,2.8h-2.4c.1-3.6,3-4.9,6.2-4.9s5.5.6,5.5,4v7.6c0,1.1,0,1.7.8,1.7s.4,0,.7-.1v1.9ZM234.3,29.7c-.9.7-2.8.7-4.4,1-1.6.3-3,.9-3,2.6s1.4,2.2,2.8,2.2c3.2,0,4.5-2,4.5-3.3v-2.5Z"/>
  <path d="M239.9,22.6h2.3v2.3h0c1-1.8,2.7-2.7,4.8-2.7,3.9,0,5.1,2.2,5.1,5.4v9.7h-2.4v-10c0-1.8-1.1-3-3-3-2.9,0-4.4,2-4.4,4.6v8.3h-2.4v-14.7Z"/>
  <polygon points="134.9 41.5 137.7 41.5 148.4 58 148.5 58 148.5 41.5 151.1 41.5 151.1 61.9 148.1 61.9 137.5 45.5 137.4 45.5 137.4 61.9 134.9 61.9 134.9 41.5"/>
  <path d="M167.4,61.8c-.4.3-1,.4-1.7.4-1.3,0-2-.7-2-2.3-1.3,1.6-3.1,2.3-5.2,2.3s-4.9-1.2-4.9-4.1,2.5-4,5-4.5c2.7-.5,5-.3,5-2.2s-1.7-2.4-3.3-2.4-3.6.6-3.7,2.8h-2.4c.1-3.6,3-4.9,6.2-4.9s5.5.6,5.5,4v7.6c0,1.1,0,1.7.8,1.7s.4,0,.7-.1v1.9ZM163.4,54.3c-.9.7-2.8.7-4.4,1-1.6.3-3,.9-3,2.6s1.4,2.2,2.8,2.2c3.2,0,4.5-2,4.5-3.3v-2.5Z"/>
  <path d="M172.4,47.1h2.9v2.1h-2.9v9.1c0,1.1.3,1.3,1.8,1.3h1.1v2.1h-1.9c-2.5,0-3.5-.5-3.5-3.2v-9.4h-2.5v-2.1h2.5v-4.4h2.4v4.4Z"/>
  <path d="M180,44.5h-2.4v-3h2.4v3ZM177.6,47.1h2.4v14.7h-2.4v-14.7Z"/>
  <path d="M189,46.8c4.7,0,7.1,3.4,7.1,7.7s-2.5,7.7-7.1,7.7-7.1-3.4-7.1-7.7,2.5-7.7,7.1-7.7M189,60.1c2.5,0,4.6-2,4.6-5.6s-2.1-5.6-4.6-5.6-4.6,2-4.6,5.6,2,5.6,4.6,5.6"/>
  <path d="M198.3,47.1h2.3v2.3h0c1-1.8,2.7-2.7,4.8-2.7,3.9,0,5.1,2.2,5.1,5.4v9.7h-2.4v-10c0-1.8-1.1-3-3-3-2.9,0-4.4,2-4.4,4.6v8.3h-2.4v-14.7Z"/>
  <path d="M225.9,61.8c-.4.3-1,.4-1.7.4-1.3,0-2.1-.7-2.1-2.3-1.3,1.6-3.1,2.3-5.2,2.3s-4.9-1.2-4.9-4.1,2.5-4,5-4.5c2.7-.5,5-.3,5-2.2s-1.7-2.4-3.3-2.4-3.6.6-3.7,2.8h-2.4c.1-3.6,3-4.9,6.2-4.9s5.5.6,5.5,4v7.6c0,1.1,0,1.7.8,1.7s.4,0,.7-.1v1.9ZM221.9,54.3c-.9.7-2.8.7-4.4,1-1.6.3-3,.9-3,2.6s1.4,2.2,2.8,2.2c3.2,0,4.5-2,4.5-3.3v-2.5Z"/>
  <rect x="227.7" y="41.5" width="2.4" height="20.3"/>
  <path d="M151.1,79.1c0,5.1-2.9,7.8-8,7.8s-8.3-2.4-8.3-7.8v-13h2.7v13c0,3.6,2.1,5.6,5.6,5.6s5.3-2,5.3-5.6v-13h2.7v13Z"/>
  <path d="M153.8,71.7h2.3v2.3h0c1-1.8,2.7-2.7,4.8-2.7,3.9,0,5.1,2.2,5.1,5.4v9.7h-2.4v-10c0-1.8-1.1-3-3-3-2.9,0-4.4,2-4.4,4.6v8.3h-2.4v-14.7Z"/>
  <path d="M170.9,69h-2.4v-3h2.4v3ZM168.5,71.7h2.4v14.7h-2.4v-14.7Z"/>
  <polygon points="180.7 86.4 178.1 86.4 172.6 71.7 175.4 71.7 179.5 84 179.5 84 183.5 71.7 186.1 71.7 180.7 86.4"/>
  <path d="M199.2,81.7c-.7,3.2-3,5-6.3,5-4.7,0-6.9-3.2-7.1-7.7,0-4.4,2.9-7.7,6.9-7.7s6.8,4.9,6.7,8.4h-11c0,2.6,1.4,4.8,4.6,4.8s3.4-1,3.8-2.9h2.4ZM196.9,77.6c-.1-2.3-1.8-4.2-4.2-4.2s-4,1.9-4.2,4.2h8.5Z"/>
  <path d="M201.3,71.7h2.3v3.1h0c1.2-2.4,2.8-3.5,5.4-3.4v2.6c-3.9,0-5.3,2.2-5.3,6v6.6h-2.4v-14.7Z"/>
  <path d="M212.4,81.8c0,2.2,2,2.8,4,2.8s3.6-.3,3.6-2.2-2.4-2.2-4.8-2.7c-2.4-.5-4.8-1.3-4.8-4.2s2.9-4.2,5.5-4.2,5.8,1,6,4.6h-2.4c-.2-1.9-1.8-2.5-3.4-2.5s-3.1.4-3.1,1.9,2.6,2,4.8,2.6c2.4.5,4.8,1.3,4.8,4.2s-3.3,4.6-6.3,4.6-6.1-1.3-6.2-5h2.4Z"/>
  <path d="M226.5,69h-2.4v-3h2.4v3ZM224.1,71.7h2.4v14.7h-2.4v-14.7Z"/>
  <path d="M233.1,71.7h2.9v2.1h-2.9v9.1c0,1.1.3,1.3,1.8,1.3h1.1v2.1h-1.8c-2.5,0-3.5-.5-3.5-3.2v-9.4h-2.5v-2.1h2.5v-4.4h2.4v4.4Z"/>
  <path d="M244.5,88.4c-1.1,2.9-2.1,3.9-4.3,3.9s-1.1,0-1.7-.3v-2.2c.5.1.9.3,1.4.3,1,0,1.5-.5,2-1.3l1-2.5-5.8-14.6h2.7l4.3,12h0l4.1-12h2.6l-6.4,16.7Z"/>
  <path class="st0" d="M97.7,14.1c0-.2,0-.3-.2-.4-.1-.1-.3-.2-.4-.1-12.5,1.1-19.7,1.3-25.9,1.3s-13.4-.1-25.9-1.3c-.2,0-.3,0-.4.1-.1,0-.2.2-.2.4,0,0-.5,9.4-.5,21.3s.8,19,3,24.5c2.3,5.5,5.7,8.3,12.7,12.3,6.6,3.9,9.4,4.4,11.3,4.4s4.6-.5,11.3-4.4c6.9-4,10.4-6.8,12.7-12.3,2.2-5.5,3-12.1,3-24.5s-.5-21.2-.5-21.3M94.1,59.5c-2.1,5.2-5.5,7.9-12.2,11.8-6.4,3.8-9.1,4.2-10.7,4.2s-4.3-.5-10.7-4.2c-6.7-3.9-10.1-6.5-12.2-11.8-2.2-5.3-3-11.8-3-24.1s.4-18.4.5-20.6c12.2,1.1,18.4,1.2,25.4,1.2s13.2-.1,25.4-1.2c.1,2.2.5,10.5.5,20.6s-.8,18.8-3,24.1"/>
  <path class="st0" d="M84.9,55.5c-1.3.8-2.4,1.5-3.9,1.5s-2.6-.7-3.9-1.5c-1.6-1-3.3-2.1-5.9-2.1s-4.4,1.1-6,2.1c-1.3.8-2.4,1.5-3.9,1.5s-2.6-.7-3.9-1.5c-1.6-1-3.4-2.1-6-2.1s-2.5.3-3.5.7c.3,1.1.5,2.2.9,3.1.8-.4,1.6-.7,2.6-.7,1.7,0,2.9.8,4.2,1.6,1.5.9,3.2,2,5.6,2s4.1-1.1,5.6-2c1.4-.9,2.6-1.6,4.3-1.6s2.9.8,4.2,1.6c1.5.9,3.2,2,5.6,2s4.1-1.1,5.6-2c1.4-.9,2.6-1.6,4.3-1.6s1.8.3,2.6.7c.3-1,.6-2,.9-3.1-1-.4-2.1-.7-3.5-.7-2.6,0-4.4,1.1-6,2.1"/>
  <path class="st0" d="M67,51c1.4-.9,2.6-1.6,4.3-1.6s2.8.8,4.2,1.6c1.5,1,3.2,2,5.6,2s4.1-1.1,5.6-2c0,0,.1,0,.2-.1-5.9-1.8-14.3-4.4-15.6-4.4s-9.8,2.6-15.7,4.4c0,0,.1,0,.2.1,1.5,1,3.2,2,5.6,2s4.1-1.1,5.6-2"/>
  <path class="st0" d="M84.9,62.7c-1.3.8-2.4,1.5-3.9,1.5s-2.6-.7-3.9-1.5c-1.6-1-3.3-2.1-5.9-2.1s-4.4,1.1-6,2.1c-1.3.8-2.4,1.5-3.9,1.5s-2.6-.7-3.9-1.5c-1.6-1-3.4-2.1-6-2.1s-.8,0-1.1,0c.7,1.2,1.5,2.3,2.4,3.3,1.1.3,2,.8,3,1.5,1.5.9,3.2,2,5.6,2s4.1-1.1,5.6-2c1.4-.9,2.6-1.6,4.3-1.6s2.9.8,4.2,1.6c1.5.9,3.2,2,5.6,2s4.1-1.1,5.6-2c1-.6,1.9-1.2,3-1.5.9-1,1.7-2.1,2.4-3.3-.4,0-.7,0-1.1,0-2.6,0-4.4,1.1-6,2.1"/>
  <path class="st0" d="M71.2,67.8c-1.6,0-2.8.8-3.9,1.6-1.1.7-2.2,1.5-3.9,1.9,1.6.9,3,1.5,4,1.9.6-.4,1.2-.7,1.7-1.1.9-.7,1.5-1,2.1-1,.8,0,1.5.4,2.6,1.2.4.3.8.6,1.3.8,1-.4,2.3-1,3.9-1.8-1.4-.3-2.4-1-3.4-1.7-1.3-.9-2.6-1.7-4.4-1.7"/>
  <polygon class="st0" points="80.8 22.7 80.5 24.5 82 23.4 83.2 24.8 83.2 22.9 85.1 22.9 83.7 21.7 84.8 20.1 83 20.5 82.5 18.7 81.6 20.3 79.9 19.6 80.6 21.3 79 22.2 80.8 22.7"/>
  <polygon class="st0" points="73.5 27.2 72.9 29 74.5 28.1 75.5 29.7 75.9 27.8 77.7 28 76.5 26.6 77.8 25.3 76 25.4 75.8 23.5 74.7 25 73.1 24 73.5 25.8 71.8 26.4 73.5 27.2"/>
  <polygon class="st0" points="87.1 28.3 86.7 30.2 88.2 29.1 89.4 30.6 89.5 28.7 91.4 28.7 90 27.5 91.2 26 89.4 26.3 89 24.4 88 26 86.3 25.2 87 27 85.3 27.8 87.1 28.3"/>
  <polygon class="st0" points="83.4 29.6 82.8 27.9 82.2 29.5 80.4 29.6 81.8 30.7 81.3 32.4 82.8 31.4 84.3 32.4 83.7 30.7 85.2 29.6 83.4 29.6"/>
  <polygon class="st0" points="81.3 35.9 82.2 34.3 80.4 34.8 79.7 33.1 79.1 34.8 77.3 34.3 78.2 35.9 76.7 37 78.5 37.2 78.4 39.1 79.7 37.8 81.1 39.1 81 37.2 82.8 37 81.3 35.9"/>
  <path class="st0" d="M85.3,44.3c-7.3-3.5-12.3-6-14.1-6s-6.4,2.5-13.8,6c-7.3,3.5-9.9,4.3-9.9,5.8s1.8.8,2.4.6c.5-.2,19.3-6.2,21.3-6.2s21,6.1,21.6,6.2c.6.2,2.4.9,2.4-.6s-2.5-2.3-9.9-5.8"/>
  <path class="st0" d="M120.2,74.9c-2.5-2.5-5.6-4.8-9.5-5.9.3-.6,4.1-7.4,4.1-10.5s-.4-2.4-1.7-3.6c-1.1-1-5.8-3.6-5.8-3.6-1.3-.7-2.7-.8-4.2-.1-2.7,1.1-4.9,4.2-5.3,5.9-.8,2.8.5,3.7.7,3.8l3,1.8-3.3,7.8c-5,1.6-21.4,9.8-27,9.8s-22-8.2-27-9.8l-3.3-7.8,3-1.8c.1,0,1.5-1,.7-3.8-.5-1.7-2.6-4.7-5.3-5.9-1.5-.6-2.9-.6-4.2.1,0,0-4.7,2.6-5.8,3.6-1.3,1.2-1.7,2.6-1.7,3.6,0,3.1,3.8,9.9,4.1,10.5-3.9,1.1-7,3.5-9.5,5.9-.2.2-.2.5,0,.7,0,0,1.6,2.7,2.2,4.6.6,2,.3,6.2.3,6.2,0,1.9,3.1,3.9,6.7,3.9s5.3-3.4,12.9-7.1c1.6.8,17,8.8,27.1,8.8s25.5-8.1,27.1-8.8c7.6,3.7,7.8,7.1,12.9,7.1s6.7-2,6.7-3.9c0,0-.2-4.2.3-6.2.5-1.9,2.1-4.6,2.2-4.6.1-.2.1-.5,0-.7M99.1,59.8s-.8-.6-.2-2.5c.4-1.5,2.4-4.2,4.7-5.1,1.1-.5,2.2-.4,3.2,0,0,0,4,2.2,5.1,3.1-3.4-.1-8.1,5-7.8,7.6l-5.1-3.1ZM108.1,61.5c.2,1.5-1.5,2.8-2.4,2.4-.8-.3-.6-2.2.5-3.6l1.9,1.2ZM102.4,63.1c1.9,1,2.5,1.9,3.8,1.9,2.4,0,3.5-3.1,2.9-4.3l-2.2-1.4c1.5-1.7,3.6-3,4.9-3,1.1,0,1.9.7,1.9,2s-1,4-3.1,8.3c-.3.7-.7,1.3-1,2-.8-.1-1.6-.2-2.5-.2-2.2,0-4.8.5-7.5,1.4l2.8-6.7ZM35.6,52.2c1-.5,2-.6,3.2,0,2.3.9,4.3,3.7,4.7,5.1.5,2-.2,2.5-.2,2.5l-5.1,3.1c.4-2.6-4.4-7.7-7.8-7.6,1.2-.9,5.1-3.1,5.1-3.1M36.6,63.9c-.9.4-2.6-.9-2.4-2.4l1.9-1.2c1.1,1.4,1.3,3.2.5,3.6M28.6,58.4c0-1.3.8-2,1.9-2,1.3,0,3.4,1.3,4.9,3l-2.2,1.4c-.5,1.2.6,4.3,2.9,4.3s1.9-.9,3.8-1.9l2.8,6.7c-2.7-.8-5.2-1.4-7.5-1.4s-1.8,0-2.5.2c-.3-.7-.7-1.4-1-2-2.1-4.2-3.1-6.6-3.1-8.3M31.1,89.2c-2.7,0-5.5-1.5-5.5-2.8,0-1,3-5.4,10.4-5.6.3,1,.8,2.6.8,4s-1.2,4.4-5.7,4.4M37.8,85.8c.4-1.3,0-3.2-.5-5,1.4.2,3.3.8,5.6,1.8-2.1,1.1-3.8,2.3-5,3.2M104.5,85.8c-1.3-.9-3-2.1-5-3.2,2.2-1,4.1-1.6,5.6-1.8-.5,1.7-.9,3.7-.5,5M111.2,89.2c-4.4,0-5.7-3.2-5.7-4.4s.5-3,.8-4c7.4.2,10.4,4.5,10.4,5.6,0,1.3-2.8,2.8-5.5,2.8M116.6,83.9c-1.8-2-5.5-4.2-10.6-4.2s-22.2,11.3-34.9,11.3-28.4-11.3-34.9-11.3-8.8,2.2-10.6,4.2c0-3.9-.7-5.5-2.5-8.5,2.2-2.1,6.4-5.7,12.1-5.7,9.4,0,28,11.7,35.9,11.7s26.4-11.7,35.9-11.7,9.9,3.7,12.1,5.7c-1.7,3-2.4,4.6-2.5,8.5"/>
  <path class="st0" d="M27.4,79.1c.1,0,.2-.1.2-.2,0,0,0,0,0,0s0,0,0,0c0,0,0-.2-.2-.4,0-.1-.1-.3-.2-.5l-.4-.7-.3-.7c0-.1,0-.2-.1-.2,0,0,0,0,0,0,0,0,0,0,0,0,0,0-.1,0-.3,0v-.2c0,0,.2-.1.3-.2h.3c0-.1.2-.2.2-.2.5.3,1,.6,1.7.9.5.2.8.4,1.1.6l-.3-.5c-.4-.8-.6-1.3-.7-1.4,0,0,0,0,0,0,0,0-.2,0-.3.1v-.2c0,0,.2-.1.3-.2.1,0,.3-.1.5-.3v.2c0,0-.1.1-.2.2,0,0,0,0,0,0,0,0,0,.3.2.5.1.3.2.5.3.6.5,1,.8,1.6.9,1.8h0c-.1,0-.2.1-.4.1-.7-.3-1.7-.9-3-1.6l.6,1.1c.1.2.2.5.4.7,0,.2.2.3.2.3,0,0,0,0,0,0,0,0,0,0,0,0,0,0,.2,0,.2,0,0,0,0,0,0,0v.2c-.2.1-.3.2-.3.2-.1,0-.3.2-.5.3v-.2Z"/>
  <path class="st0" d="M30.3,77.9v-.2s.1,0,.1,0c0,0,0,0,0,0,0,0,0,0,0,0,0,0,0-.2,0-.4,0-.1,0-.3,0-.7v-1.7c0,0,.1-.6.1-.6h.3c0,0,1.7,2.2,1.7,2.2l.2.3v.2c.2,0,.2,0,.2,0,0,0,0,0,0,0,0,0,0,0,.1,0,0,0,0,0,0,0v.2c0,0-.5.2-.5.2l-.7.2v-.2c.1,0,.2,0,.2-.1,0,0,0,0,0,0,0,0,0-.1-.1-.2l-.3-.5-1.1.3v.3c0,.2,0,.4,0,.5,0,0,0,0,0,0,0,0,.1,0,.3,0v.2c0,0-.4.1-.4.1l-.5.2ZM30.8,76.3c.1,0,.3,0,.4-.1.2,0,.3,0,.4-.1l-.8-1.1v1.4Z"/>
  <path class="st0" d="M33.5,77v-.2c.1,0,.2,0,.3,0,0,0,0,0,0-.1,0,0,0-.3,0-.7l-.2-1.5c0-.4,0-.6,0-.7h-.3c-.2,0-.3,0-.4.1,0,0,0,0,0,0,0,0,0,0,0,0,0,.1,0,.3,0,.4h-.2c0-.3,0-.5,0-.6,0,0,0-.2,0-.2h0c0,0,.1,0,.2,0,.1,0,.4,0,.7,0h.9c.4-.1.6-.2.7-.2,0,0,.1,0,.2,0h0c0,.1,0,.2,0,.3,0,0,0,.2,0,.6h-.2c0-.1,0-.2,0-.4,0,0,0,0,0-.1,0,0,0,0,0,0-.1,0-.3,0-.4,0h-.3c0,0,0,.3,0,.7l.2,1.5c0,.4,0,.6.1.7,0,0,0,0,0,0,0,0,.1,0,.3,0v.2c-.3,0-.5,0-.7,0-.2,0-.4,0-.7.1"/>
  <path class="st0" d="M35.5,73.4v-.2s.7,0,.7,0h.3s.3,0,.3,0h0s0,.2,0,.2c-.2,0-.3,0-.3,0,0,0,0,0,0,0,0,.1,0,.3,0,.7v.6s0,.3,0,.3c0,.3,0,.5,0,.6,0,.2,0,.3,0,.4,0,.1.1.2.2.3.1,0,.2.1.4.1.2,0,.4,0,.5,0,.1,0,.2-.2.3-.3,0-.1.1-.4.1-.7v-.5c0-.4.1-.7.1-.8,0-.2,0-.3,0-.4,0,0,0,0,0,0,0,0-.1,0-.3,0v-.2c.3,0,.4,0,.5,0,0,0,0,0,0,0h.5s0,.2,0,.2c-.1,0-.2,0-.3,0,0,0,0,0,0,0,0,0,0,.2,0,.5,0,.3,0,.5,0,.7v.6c0,.2,0,.3-.1.5,0,.2,0,.3-.1.4,0,.1-.2.2-.3.3-.1,0-.2.1-.4.2-.1,0-.3,0-.5,0-.2,0-.4,0-.6-.2-.1,0-.2-.1-.3-.2,0,0-.1-.2-.2-.3,0-.1,0-.2,0-.3,0,0,0-.2,0-.5v-.5s0-.6,0-.6c0-.2,0-.5,0-.6,0,0,0-.1,0-.2,0,0,0,0,0,0h-.3Z"/>
  <path class="st0" d="M39.1,73.8v-.2c0,0,.2,0,.4,0,0,0,.2,0,.4.1.1,0,.3,0,.4,0,.2,0,.3,0,.4,0,.2,0,.4.1.5.2.1,0,.2.2.2.3,0,.1,0,.3,0,.5,0,.2-.2.4-.3.5-.1.1-.3.2-.6.3,0,0,0,.2,0,.3,0,0,0,.1,0,.2,0,0,0,0,0,0l.2.7c0,.2,0,.3,0,.3,0,.2.1.3.1.3,0,0,0,0,0,0,0,0,0,0,.1,0v.2c-.3,0-.4-.1-.5-.1-.1,0-.2,0-.3,0,0,0,0,0,0-.2l-.2-1c0-.3-.1-.5-.2-.7,0,0,0-.1,0-.2h0c.2,0,.3,0,.4,0,0,0,.2,0,.3-.2,0-.1.2-.2.2-.4,0-.2,0-.3,0-.4,0-.1,0-.2-.2-.3,0,0-.2,0-.3-.1,0,0-.1,0-.2,0,0,0,0,.2-.1.4-.1.5-.2.8-.3.9,0,.2-.1.5-.2.8,0,.3-.1.5-.1.6,0,0,0,.2,0,.2,0,0,0,0,0,0,0,0,0,0,0,0,0,0,.1,0,.2,0v.2c-.3,0-.5-.1-.8-.2-.2,0-.4-.1-.6-.1v-.2c.2,0,.3,0,.3,0,0,0,0,0,0,0,0,0,0,0,0,0,0,0,0-.2,0-.3l.2-.7.2-.9v-.5c.2-.2.2-.3.2-.4,0,0,0,0,0,0,0,0-.1,0-.3-.1"/>
  <path class="st0" d="M41.1,77.8v-.2c.2,0,.3,0,.3,0,0,0,0,0,0,0,0,0,0,0,0,0,0,0,.1-.1.3-.3,0,0,.2-.3.4-.5l1.1-1.3.4-.5h.3c0,.1,0,2.9,0,2.9v.4s0,.2,0,.2c0,0,0,0,0,0,0,0,0,0,0,0,0,0,0,0,.1,0,0,0,0,0,0,0v.2c0,0-.6-.2-.6-.2l-.7-.2v-.2c.2,0,.3,0,.4,0,0,0,0,0,0,0,0,0,0-.1,0-.2v-.6s-1-.4-1-.4l-.2.3c-.1.2-.2.3-.3.4,0,0,0,0,0,0,0,0,.1,0,.3.2v.2c0,0-.5-.2-.5-.2l-.5-.2ZM42.5,76.8c.1,0,.3.1.4.2.2,0,.3.1.4.1v-1.4s-.9,1.1-.9,1.1Z"/>
  <path class="st0" d="M44.2,78.9v-.2c.2,0,.3,0,.4,0,0,0,0,0,0,0,0,0,0,0,0,0,0,0,.1-.3.3-.6,0-.1.2-.4.3-.7.1-.3.3-.6.4-.8.1-.2.2-.4.2-.4,0,0,0,0,0,0,0,0,0,0,0,0,0,0-.2-.1-.2-.1v-.2c.4.1.5.2.6.3.1,0,.3.1.4.2v.5s0,.4,0,.4v1.8c.2-.2.4-.4.6-.6l.5-.5c.3-.3.5-.5.6-.5,0,0,.2-.2.3-.3.2,0,.3.1.3.2l.6.2v.2c0,0-.1,0-.1,0-.1,0-.2,0-.3,0,0,0-.1,0-.2.2,0,.1-.1.2-.1.3l-.3.6-.4.8c0,.2-.1.3-.2.3,0,.2-.1.3-.1.4,0,0,0,0,0,0,0,0,0,0,0,0,0,0,0,0,.2.1v.2c0,0-.7-.3-.7-.3l-.6-.3v-.2c.3,0,.4,0,.4,0,0,0,0,0,.1,0,0,0,.1-.2.3-.6l.8-1.7-.9.9-.5.4c-.1.1-.3.3-.5.5-.1.1-.2.2-.3.3h-.1c0-.2,0-.4,0-.7,0-.5,0-.8,0-1v-1.5s-.5,1.1-.5,1.1c0,.2-.2.4-.3.7-.1.3-.2.4-.2.5,0,0,0,0,0,0,0,0,0,0,0,0,0,0,.1,0,.2.1v.2c-.2,0-.4-.1-.5-.2-.2,0-.4-.2-.5-.2"/>
  <path class="st0" d="M50.5,78.2v-.2c0,0,.7.3.7.3l.9.4c.2,0,.3.2.4.3,0,0,.1.2.1.3s0,.3,0,.5-.2.3-.3.4c-.1.1-.3.2-.5.2-.2,0-.4,0-.5,0,0,0,0,0-.1,0,0,0,0,0-.1,0,0,0,0-.1,0-.2h0s0,0,0,0c0,0,0,0,0,0,.1,0,.3,0,.4,0,.1,0,.2-.2.3-.4.1-.2.1-.4,0-.5,0-.1-.1-.3-.3-.3,0,0-.2,0-.3,0,0,0-.1.2-.2.4l-.2.4-.4.9c-.1.2-.2.4-.3.7,0,.1,0,.2,0,.3,0,0,0,0,0,0,0,0,0,0,0,0h.3c0,.1,0,.3,0,.3-.3-.2-.6-.3-.7-.4-.2,0-.4-.2-.5-.2v-.2c.2,0,.3,0,.4,0,0,0,0,0,0,0,0,0,0,0,.1-.2.1-.2.3-.5.4-.8l.4-.8.2-.4c0-.2.1-.3.2-.4,0,0,0,0,0-.1,0,0,0,0,0,0,0,0,0,0,0,0h-.2Z"/>
  <path class="st0" d="M52.9,79.3v-.2c.1,0,.2,0,.4.2,0,0,.2.1.4.2.1,0,.3.1.4.2.2,0,.3.1.4.2.2,0,.4.2.4.3,0,0,.1.2.2.3,0,.1,0,.3,0,.5,0,.2-.2.3-.4.4-.2.1-.4.2-.6.2,0,0,0,.2,0,.3,0,0,0,.1,0,.2s0,0,0,0v.7c0,.2,0,.3,0,.3,0,.2,0,.3,0,.4,0,0,0,0,0,0,0,0,0,0,.1,0v.2c-.3,0-.4-.2-.5-.2-.1,0-.2,0-.3-.1,0,0,0,0,0-.2v-1c0-.3,0-.5,0-.7,0,0,0-.2,0-.2h0c.2,0,.3,0,.4,0,.1,0,.2,0,.3-.1.1,0,.2-.2.3-.3,0-.1,0-.3,0-.4,0-.1,0-.2-.1-.3,0,0-.1-.1-.3-.2,0,0-.1,0-.2,0,0,0,0,.2-.2.4-.2.4-.3.7-.4.9-.1.2-.2.5-.3.7-.1.3-.2.5-.2.5,0,0,0,.1,0,.2,0,0,0,0,0,0,0,0,0,0,0,0,0,0,0,0,.2.1v.2c-.3-.1-.5-.2-.8-.3-.2,0-.4-.2-.6-.2v-.2c.2,0,.3,0,.4,0,0,0,0,0,0,0,0,0,0,0,0,0,0,0,0-.1.1-.3l.3-.7.4-.9.2-.5c0-.2.1-.3.1-.4,0,0,0,0,0,0,0,0-.1,0-.3-.2"/>
  <path class="st0" d="M57.1,80.9v.2c-.2,0-.3,0-.3,0,0,0,0,0,0,0,0,0,0,0,0,0,0,0,0,0,0,.1,0,0,0,.1-.1.2-.2.4-.3.6-.3.6l-.4.9-.2.4c0,.2-.1.3-.1.3,0,0,0,0,0,0,0,0,0,0,0,0,0,0,.1,0,.2.1v.2c-.3-.1-.5-.2-.8-.3-.2,0-.4-.2-.6-.2v-.2c.2,0,.3,0,.3,0,0,0,0,0,0,0,0,0,0,0,0,0,0,0,0,0,.1-.2,0-.2.2-.4.2-.5l.4-1c.1-.3.2-.5.3-.6,0-.2.1-.3.1-.4,0,0,0,0,0,0,0,0,0,0,0,0,0,0-.1,0-.2-.1v-.2c.3,0,.4.2.7.3.2.1.5.2.7.3"/>
  <path class="st0" d="M55.9,84.3v-.2c.2,0,.3,0,.4,0,0,0,0,0,0,0,0,0,0,0,0,0,0,0,.1-.3.3-.6,0-.1.2-.4.3-.8.1-.3.2-.6.3-.9,0-.2.1-.4.1-.5,0,0,0,0,0,0,0,0,0,0,0,0,0,0-.2,0-.2-.1v-.2c.4.1.5.2.6.2.1,0,.3.1.4.1v.5s0,.4,0,.4v1.8c.3-.3.5-.5.6-.6l.5-.6c.3-.3.5-.5.5-.6,0,0,.1-.2.2-.3.2,0,.3.1.3.1l.6.2v.2c0,0-.1,0-.1,0-.1,0-.2,0-.3,0,0,0,0,0-.1.2,0,.1,0,.2-.1.3l-.3.7-.3.8c0,.2-.1.3-.1.4,0,.2-.1.3-.1.4,0,0,0,0,0,0,0,0,0,0,0,0,0,0,.1,0,.2.1v.2c0,0-.7-.3-.7-.3l-.6-.2v-.2c.2,0,.3,0,.4,0,0,0,0,0,0,0,0,0,.1-.2.2-.6l.7-1.7-.9.9-.4.5c-.1.1-.3.3-.5.5-.1.1-.2.3-.3.3h-.1c0-.2,0-.4,0-.7,0-.5,0-.8,0-1v-1.5s-.5,1.2-.5,1.2c0,.2-.2.4-.3.7,0,.3-.2.4-.2.5,0,0,0,0,0,0,0,0,0,0,0,0,0,0,.1,0,.2.1v.2c-.2,0-.4-.1-.5-.2-.2,0-.4-.1-.5-.2"/>
  <path class="st0" d="M61.2,82.8v-.2c0,0,.7.2.7.2h.3c0,0,.3.2.3.2h0s0,.2,0,.2c-.1,0-.2,0-.3,0,0,0,0,0,0,0,0,0-.1.3-.2.7l-.2.6v.3c-.2.3-.2.5-.2.6,0,.2,0,.3,0,.4,0,.1,0,.2.2.3s.2.2.4.2c.2,0,.4,0,.5,0s.2-.1.3-.2c0-.1.2-.3.3-.7v-.5c.3-.4.4-.7.4-.8,0-.2,0-.3,0-.4,0,0,0,0,0,0,0,0-.1,0-.3-.1v-.2c.3,0,.5.1.5.2,0,0,0,0,0,0h.5c0,.1,0,.3,0,.3-.1,0-.2,0-.3,0,0,0,0,0,0,0,0,0,0,.2-.2.5,0,.3-.2.5-.2.7l-.2.6c0,.1,0,.3-.2.4,0,.2-.1.3-.2.4,0,0-.2.2-.3.2-.1,0-.3,0-.4,0-.2,0-.3,0-.5,0-.2,0-.4-.2-.6-.3-.1,0-.2-.2-.3-.3,0-.1,0-.2-.1-.3,0-.1,0-.2,0-.3,0,0,0-.2.1-.5v-.5c.1,0,.3-.6.3-.6,0-.2.1-.4.2-.6,0,0,0-.1,0-.2,0,0,0,0,0,0h-.3Z"/>
  <path class="st0" d="M63.7,87v-.2c.2,0,.3,0,.3,0,0,0,0,0,0,0,0,0,0,0,0,0,0,0,0-.3.1-.6,0-.2,0-.4.2-.8,0-.3.1-.6.2-.9,0-.3,0-.4,0-.5,0,0,0,0,0,0,0,0,0,0,0,0,0,0-.2,0-.2,0v-.2c.3,0,.5.1.6.1.1,0,.3,0,.4,0v.5c0,0,.2.4.2.4l.4,1.8c.2-.3.4-.5.5-.7l.4-.6c.2-.4.4-.6.4-.7,0,0,.1-.2.2-.3.2,0,.3,0,.4,0h.6c0,.1,0,.3,0,.3h0c-.1,0-.2,0-.3,0,0,0,0,.1-.1.2,0,.1,0,.2,0,.3v.7c-.1,0-.3.9-.3.9,0,.2,0,.3,0,.4,0,.2,0,.3,0,.4s0,0,0,0c0,0,0,0,0,0,0,0,.1,0,.3,0v.2s-.7-.1-.7-.1h-.7c0-.1,0-.3,0-.3.2,0,.3,0,.3,0,0,0,0,0,0-.1,0,0,0-.3.1-.6l.3-1.8-.7,1.1-.3.5c0,.1-.2.3-.4.6-.1.2-.2.3-.2.4h-.1c0-.2,0-.4-.1-.6,0-.4-.2-.8-.2-1l-.3-1.4-.2,1.2c0,.2,0,.5-.1.7,0,.3,0,.4,0,.5,0,0,0,0,0,0,0,0,0,0,0,0,0,0,.1,0,.3,0v.2c-.2,0-.4,0-.5-.1-.2,0-.4,0-.5,0"/>
  <path class="st0" d="M72.4,87.5v.3c-.3.1-.4.2-.6.2-.1,0-.3,0-.5,0-.3,0-.6,0-.8-.2-.2,0-.3-.2-.5-.4-.1-.2-.2-.3-.3-.5-.1-.3-.1-.6-.1-.9,0-.5.2-1,.5-1.3.3-.3.8-.5,1.3-.5.2,0,.4,0,.5,0,.2,0,.3.1.5.2h0c0,.1,0,.2,0,.3,0,.2,0,.4,0,.5h-.2c0-.2,0-.3,0-.5,0-.1-.2-.2-.3-.3-.1,0-.3,0-.5,0-.3,0-.6.1-.8.4-.2.2-.3.6-.3,1.1,0,.3,0,.5,0,.7,0,.2.2.4.3.5.1.1.2.2.3.3.2,0,.3.1.6.1.1,0,.3,0,.4,0,.1,0,.3-.1.4-.2h0Z"/>
  <path class="st0" d="M72.7,86.2c0-.3,0-.6,0-.8,0-.2.1-.4.3-.6.1-.2.3-.3.4-.4.2-.1.5-.2.7-.2.3,0,.5,0,.7,0,.2,0,.3.1.5.2.1.1.2.2.3.3,0,.1.1.3.2.4,0,.2,0,.3.1.5,0,.3,0,.6,0,.9,0,.2-.1.4-.2.6-.1.2-.3.3-.4.4-.2.1-.5.2-.8.3-.3,0-.6,0-.9-.1-.2-.1-.5-.3-.6-.5-.2-.3-.3-.6-.3-1M73.3,86c0,.4.1.7.2,1,.1.2.3.4.4.5.2,0,.3.1.5.1.2,0,.3,0,.5-.2.1-.1.2-.3.3-.6,0-.2,0-.5,0-.9,0-.2,0-.5-.1-.6,0-.2-.1-.3-.2-.5,0-.1-.2-.2-.3-.3-.1,0-.3,0-.5,0-.2,0-.4.1-.5.2-.1.1-.2.3-.3.5,0,.2,0,.5,0,.8"/>
  <path class="st0" d="M78.9,84.3h-.2s0,0,0-.2c0,0,0-.1,0-.2,0,0,0,0-.1,0-.1,0-.2,0-.4,0-.1,0-.3,0-.4,0-.3,0-.6.3-.7.6-.1.3-.2.7,0,1.1.1.5.3.8.6,1.1.3.2.6.3.9.2,0,0,.2,0,.3-.1,0,0,.2-.1.2-.2,0,0,0-.1,0-.3,0-.1,0-.2,0-.2,0-.2,0-.3,0-.3,0,0,0,0,0,0,0,0-.2,0-.4,0v-.2s.6-.1.6-.1l.6-.2v.2s0,0-.1.1c0,0,0,0,0,.1,0,.2,0,.3,0,.4,0,.1,0,.3.1.4-.2.2-.4.3-.6.4-.2,0-.4.2-.6.2-.3,0-.6,0-.9,0-.2,0-.4-.1-.5-.2-.2-.1-.3-.2-.4-.4-.2-.2-.3-.5-.4-.8,0-.3,0-.5,0-.7,0-.2,0-.4.1-.6,0-.2.2-.3.3-.4.1-.1.3-.2.4-.3.2,0,.3-.1.5-.2.2,0,.5,0,.7,0,.2,0,.4,0,.5,0h0c0,.2,0,.5,0,.8"/>
  <path class="st0" d="M80.2,86.3c.2,0,.2-.1.3-.1,0,0,0,0,0,0,0,0,0,0,0,0,0,0,0-.2-.1-.4,0-.1-.1-.3-.2-.5l-.3-.8-.3-.7c0-.1,0-.2,0-.2,0,0,0,0,0,0s0,0,0,0c0,0-.1,0-.3,0v-.2c.1,0,.2,0,.3-.1h.3c0-.1.2-.2.2-.2.4.3,1,.7,1.6,1.1.4.3.8.5,1.1.7l-.2-.6c-.3-.9-.5-1.4-.6-1.5,0,0,0,0,0-.1,0,0-.2,0-.3,0v-.2c0,0,.3,0,.4-.1.1,0,.3-.1.5-.2v.2c0,0-.2.1-.2.2,0,0,0,0,0,0,0,0,0,.3.2.6,0,.3.2.5.2.6.4,1.1.6,1.7.7,1.9h0c-.1,0-.2,0-.4,0-.6-.4-1.6-1.1-2.8-1.9l.4,1.2c0,.2.2.5.3.8,0,.2.1.3.1.3,0,0,0,0,0,0,0,0,0,0,0,0,0,0,.2,0,.2,0,0,0,0,0,0,0v.2c-.2,0-.3.1-.4.2-.1,0-.3.1-.5.2v-.2Z"/>
  <path class="st0" d="M82.9,83.7c-.1-.3-.2-.5-.2-.8,0-.2,0-.5,0-.7,0-.2.2-.4.3-.5.2-.2.4-.3.6-.4.2-.1.5-.2.7-.2.2,0,.3,0,.5,0,.2,0,.3.1.4.2.1,0,.2.2.3.3,0,.1.2.3.3.5.1.3.2.6.2.9,0,.2,0,.4,0,.6,0,.2-.1.4-.3.5-.2.2-.4.4-.7.5-.3.1-.6.2-.8.1-.3,0-.5-.1-.7-.3-.2-.2-.4-.5-.6-.8M83.5,83.3c.2.4.3.6.5.8.2.2.4.3.5.4.2,0,.4,0,.5,0,.2,0,.3-.2.4-.3,0-.2.1-.4,0-.6,0-.3-.1-.5-.2-.9,0-.2-.2-.4-.3-.6s-.2-.3-.4-.4c-.1,0-.3-.2-.4-.2-.1,0-.3,0-.5,0-.2,0-.3.2-.4.4,0,.2-.1.4,0,.6,0,.2.1.5.2.7"/>
  <path class="st0" d="M87.6,80.6h-.2c0,0-.2-.2-.2-.3,0,0-.2,0-.3,0-.1,0-.2,0-.4,0-.2,0-.3.2-.3.4,0,.2,0,.3,0,.4,0,.1.1.2.2.2,0,0,.1,0,.2,0,0,0,.2,0,.3,0,0,0,.2,0,.3,0,.1,0,.2,0,.3,0,.1,0,.2,0,.3,0,0,0,.2,0,.2,0,0,0,.1,0,.2.2,0,0,.1.2.2.3,0,.2.1.4.1.6,0,.1,0,.3,0,.4,0,.1-.1.3-.2.3-.1.1-.3.3-.5.4-.2,0-.3.1-.5.2s-.3,0-.5,0c0-.2-.2-.5-.3-.8h.2c0,0,.1.2.2.3,0,0,.2.1.4.1.2,0,.3,0,.4,0,.1,0,.2-.1.3-.2,0,0,.1-.2.1-.3s0-.2,0-.3c0,0-.1-.2-.2-.2,0,0-.1,0-.2,0,0,0-.2,0-.4,0-.3,0-.4,0-.5.1-.1,0-.2,0-.4,0-.1,0-.2-.1-.3-.2,0,0-.2-.2-.2-.3,0-.2-.1-.3-.1-.5,0-.2,0-.3,0-.5s.1-.2.3-.3c.1,0,.2-.2.4-.2.1,0,.3-.1.4-.2.1,0,.3,0,.4,0h0c0,.2,0,.3.1.4,0,.1,0,.2.2.4"/>
  <path class="st0" d="M91.6,81v.3c0,.2-.2.3-.3.4-.1.1-.3.2-.5.3-.3.1-.5.2-.8.2-.2,0-.4,0-.6-.1-.2,0-.3-.2-.5-.3-.2-.2-.4-.4-.5-.7-.2-.5-.3-.9-.2-1.4.1-.4.4-.8.9-1,.2,0,.3-.2.5-.2.2,0,.3,0,.6,0h0c0,.1,0,.2,0,.3,0,.2.1.3.2.5h-.2c0,0-.2-.2-.2-.3-.1,0-.3,0-.4,0-.1,0-.3,0-.5.1-.3.2-.5.4-.6.7,0,.3,0,.7.2,1.1.1.2.3.4.4.6.2.1.3.3.5.3.2,0,.3.1.4.1.2,0,.4,0,.6-.1.1,0,.2-.1.3-.2,0,0,.2-.2.3-.4h0Z"/>
  <path class="st0" d="M92,81.3h0c0-.2,0-.3.1-.3,0,0,0-.2-.1-.3-.1-.3-.2-.5-.3-.6l-.5-1s0-.2-.2-.4c0-.2-.1-.3-.2-.3,0,0,0,0,0,0,0,0-.1,0-.3,0v-.2c0,0,.4-.2.4-.2,0,0,.2,0,.3-.1.2,0,.4-.2.6-.3l.4-.2s.1,0,.3-.1c0,0,0,0,0,0h0s.1.4.1.4c0,0,0,.1.1.3h-.2c0-.1-.2-.2-.2-.2,0,0,0,0,0,0,0,0,0,0-.2,0-.1,0-.3.1-.4.2-.1,0-.2.1-.3.2,0,.2.2.4.3.7l.2.5c0,0,.2,0,.3-.1,0,0,.1,0,.3-.2,0,0,.1,0,.1,0,0,0,0,0,0,0,0,0,0-.2-.1-.3h.2c0,0,.2.4.2.4l.3.5h-.2c0,0-.1-.2-.2-.2,0,0,0,0-.1,0,0,0-.2,0-.4.1-.1,0-.2.1-.3.2l.5,1c0,.1.1.2.1.3.1,0,.2,0,.4-.2.1,0,.3-.1.4-.2.1,0,.2-.1.2-.2,0,0,0,0,0,0,0,0,0-.2-.1-.5h.2c.1.2.2.5.3.7h0c0,0-.2.2-.3.2h-.3c-.3.3-.5.4-.6.5,0,0-.2.1-.6.3"/>
  <path class="st0" d="M92.9,77.1v-.2c0,0,0,0,.2-.1,0,0,.2,0,.4-.2.1,0,.3-.1.4-.2.2,0,.3-.1.4-.2.2,0,.4-.1.5-.2.1,0,.2,0,.4,0,.1,0,.2.2.3.4,0,.2.1.4,0,.6,0,.2-.1.4-.3.6,0,0,.1.1.2.2,0,0,.1,0,.1,0,0,0,0,0,0,0l.5.4c.1.1.2.2.2.2.2.1.3.2.3.2,0,0,0,0,0,0,0,0,0,0,.1,0v.2c-.1,0-.3.1-.4.2-.1,0-.2,0-.3.2,0,0,0,0-.1-.1l-.8-.6c-.2-.2-.4-.3-.6-.4,0,0-.1,0-.2,0h0c.2-.2.3-.2.3-.3,0,0,0-.2,0-.3,0-.1,0-.3,0-.4,0-.1-.1-.2-.2-.3-.1,0-.2-.1-.3-.1,0,0-.2,0-.3.1,0,0-.1,0-.2.1,0,0,0,.2.2.4.2.4.3.7.4.9.1.2.2.5.3.7.1.3.2.5.3.5,0,0,0,.1,0,.2,0,0,0,0,0,0,0,0,0,0,0,0,0,0,.1,0,.2,0v.2c-.1,0-.4.2-.6.3-.2,0-.4.2-.6.3v-.2c0,0,.1-.1.2-.1,0,0,0,0,0,0,0,0,0,0,0,0,0,0,0-.2-.1-.3l-.3-.7-.4-.9-.2-.5c0-.2-.2-.3-.2-.3,0,0,0,0,0,0,0,0-.1,0-.3,0"/>
  <path class="st0" d="M97.1,78.9h0c0-.2.1-.3.1-.3,0,0,0-.2-.1-.3,0-.3-.2-.5-.2-.6l-.4-1.1s0-.2-.2-.5c0-.2-.1-.3-.2-.3,0,0,0,0,0,0,0,0-.1,0-.3,0v-.2c0,0,.4-.2.4-.2,0,0,.2,0,.3-.1.2,0,.4-.2.6-.2l.4-.2s.1,0,.3-.1c0,0,0,0,0,0h0s0,.4,0,.4c0,0,0,.1.1.3h-.2c0-.1-.1-.2-.2-.3,0,0,0,0,0,0,0,0,0,0-.2,0-.1,0-.3,0-.4.1-.1,0-.2,0-.4.2,0,.2.1.4.2.7l.2.5c0,0,.2,0,.3,0,0,0,.1,0,.3-.1,0,0,.1,0,.1,0,0,0,0,0,0,0,0,0,0-.2,0-.3h.2c0,0,.2.5.2.5l.2.5h-.2c0-.1-.1-.2-.2-.3,0,0,0,0-.1,0-.1,0-.2,0-.4.1-.1,0-.2,0-.3.1l.4,1c0,.1,0,.2.1.3.1,0,.2,0,.4-.1.1,0,.3-.1.4-.2.1,0,.2-.1.2-.1,0,0,0,0,0,0,0,0,0-.2,0-.5h.2c0,.3.2.5.3.7h0c0,0-.2.1-.4.2h-.3c-.3.2-.5.3-.7.4,0,0-.3.1-.7.3"/>
  <path class="st0" d="M99.6,74.4v-.2s0,0,.3,0c0,0,.2,0,.4,0,.1,0,.3,0,.4-.1.2,0,.3,0,.4-.1.2,0,.4,0,.5,0,.1,0,.2,0,.3.2.1,0,.2.2.2.4,0,.2,0,.4,0,.6,0,.2-.2.4-.4.5,0,0,.1.1.2.2,0,0,.1.1.1.1,0,0,0,0,0,0l.5.5c.1.1.2.2.2.2.1.1.2.2.3.2,0,0,0,0,0,0,0,0,0,0,.1,0v.2c-.2,0-.3,0-.4.1-.1,0-.2,0-.3,0,0,0,0,0,0-.1l-.7-.8c-.2-.2-.3-.4-.5-.5,0,0-.1-.1-.2-.1h0c.2-.1.3-.2.4-.2,0,0,.1-.2.2-.3,0-.1,0-.3,0-.4,0-.2,0-.3-.2-.4,0,0-.2-.1-.3-.2,0,0-.2,0-.3,0,0,0-.1,0-.2,0,0,0,0,.2,0,.4.1.5.2.8.2.9,0,.2.1.5.2.8,0,.3.1.5.2.6,0,0,0,.2,0,.2,0,0,0,0,0,0,0,0,0,0,0,0,0,0,.1,0,.2,0v.2c-.2,0-.4.1-.7.2-.2,0-.4.1-.6.2v-.2c.1,0,.2,0,.2,0,0,0,0,0,0,0,0,0,0,0,0,0,0,0,0-.2,0-.3l-.2-.7-.2-.9v-.5c-.2-.2-.2-.3-.3-.4,0,0,0,0,0,0,0,0-.1,0-.3,0"/>
  <path class="st0" d="M103.4,76.9h0c0-.2.1-.3.2-.3,0,0,0-.2,0-.3,0-.3,0-.5,0-.6v-1.1c-.1,0-.2-.2-.2-.5,0-.2,0-.3,0-.3,0,0,0,0,0,0,0,0-.1,0-.3,0v-.2s.5,0,.5,0c0,0,.2,0,.3,0,.2,0,.4,0,.7,0h.4c0,0,.2,0,.3,0,0,0,0,0,0,0h0s0,.4,0,.4c0,0,0,.1,0,.4h-.2c0-.2,0-.3,0-.3,0,0,0,0,0,0,0,0,0,0-.2,0-.1,0-.3,0-.4,0-.1,0-.3,0-.4,0,0,.2,0,.4,0,.7v.5c.2,0,.3,0,.4,0,0,0,.2,0,.4,0,0,0,.1,0,.1,0,0,0,0,0,0,0,0,0,0-.2,0-.3h.2s0,.5,0,.5v.6c0,0,0,0,0,0,0-.2,0-.3,0-.4,0,0,0,0-.1,0-.1,0-.2,0-.4,0-.1,0-.3,0-.3,0v1.1c.1.1.2.2.2.3.1,0,.3,0,.4,0,.2,0,.3,0,.4,0,.1,0,.2,0,.2,0,0,0,0,0,0,0,0,0,0-.2,0-.5h.2c0,.3,0,.6,0,.8h0c0,0-.2,0-.4.1h-.3c-.3,0-.6,0-.7.1,0,0-.3,0-.7.1"/>
  <path class="st0" d="M105.8,73.3v-.2s.2,0,.3,0c0,0,.2,0,.4,0,.2,0,.3,0,.4,0,.2,0,.3,0,.4,0,.2,0,.4,0,.5,0,.1,0,.2.1.3.2,0,.1.1.3.1.4,0,.2,0,.4-.2.6-.1.2-.3.3-.5.4,0,0,0,.2.1.2,0,0,0,.1,0,.1,0,0,0,0,0,0l.3.6c0,.2.1.2.1.3.1.2.2.3.2.3,0,0,0,0,0,0,0,0,0,0,.1,0v.2c-.2,0-.4,0-.5,0-.1,0-.2,0-.3,0,0,0,0,0,0-.1l-.4-.9c-.1-.3-.2-.5-.3-.6,0,0,0-.1-.1-.2h0c.2,0,.3,0,.4-.1,0,0,.2-.1.2-.3,0-.1,0-.3.1-.4,0-.2,0-.3,0-.4,0-.1-.1-.2-.2-.2,0,0-.2,0-.3,0,0,0-.1,0-.2,0,0,0,0,.2,0,.4,0,.5,0,.8,0,1,0,.3,0,.5,0,.8,0,.4,0,.6,0,.6,0,0,0,.2,0,.2,0,0,0,0,0,0,0,0,0,0,0,0,0,0,.1,0,.3,0v.2c-.3,0-.5,0-.8,0-.2,0-.4,0-.6,0v-.2c.2,0,.3,0,.3,0,0,0,0,0,0,0,0,0,0,0,0,0,0,0,0-.2,0-.3v-.7s0-.9,0-.9v-.5c0-.2,0-.3,0-.4,0,0,0,0,0,0,0,0-.1,0-.3,0"/>
  <path class="st0" d="M109,73.4v-.2s.7.2.7.2h.3c0,0,.3.1.3.1h0s0,.2,0,.2c-.2,0-.3,0-.3,0,0,0,0,0,0,0,0,0-.1.3-.2.7v.6c-.1,0-.2.3-.2.3,0,.3-.1.5-.1.6,0,.2,0,.3,0,.4,0,.1,0,.2.2.3,0,0,.2.1.4.2.2,0,.4,0,.5,0,.1,0,.2-.1.3-.3,0-.1.2-.3.2-.7v-.5c.2-.4.3-.7.3-.8,0-.2,0-.3,0-.4,0,0,0,0,0,0,0,0-.1,0-.3-.1v-.2c.3,0,.4.1.5.1,0,0,0,0,0,0h.5c0,0,0,.3,0,.3-.1,0-.2,0-.3,0,0,0,0,0,0,0,0,0,0,.2-.1.5,0,.3-.1.5-.2.7v.6c-.2.1-.2.3-.3.5,0,.2-.1.3-.2.4,0,0-.2.2-.3.3-.1,0-.3.1-.4.1-.1,0-.3,0-.5,0-.2,0-.4-.1-.6-.2-.1,0-.2-.2-.3-.3,0-.1-.1-.2-.1-.3,0-.1,0-.2,0-.3,0,0,0-.2.1-.5v-.5c.1,0,.2-.6.2-.6,0-.2,0-.4.1-.6,0,0,0-.1,0-.2,0,0,0,0,0,0h-.3Z"/>
  <path class="st0" d="M111.2,77.2v-.2c.2,0,.3,0,.4,0,0,0,0,0,0,0,0,0,0,0,0,0,0,0,.1-.3.3-.6,0-.1.2-.4.4-.7.1-.3.3-.6.4-.8.1-.2.2-.4.2-.4,0,0,0,0,0,0,0,0,0,0,0,0,0,0-.2-.1-.2-.1v-.2c.4.1.5.2.6.3.1,0,.3.1.4.2v.5s0,.4,0,.4v1.8c.2-.2.4-.4.5-.6l.6-.5c.3-.3.5-.5.6-.5,0,0,.2-.2.3-.3.2,0,.3.1.3.2l.6.3v.2c0,0-.1,0-.1,0-.1,0-.2,0-.3,0,0,0-.1,0-.2.2,0,.1-.1.2-.1.3l-.3.6-.4.8c0,.2-.1.3-.2.3,0,.2-.1.3-.1.4,0,0,0,0,0,0,0,0,0,0,0,0,0,0,0,0,.2.1v.2c0,0-.7-.3-.7-.3l-.6-.3v-.2c.3,0,.4.1.4,0,0,0,0,0,.1,0,0,0,.1-.2.3-.6l.8-1.7-1,.9-.5.4c-.1.1-.3.3-.5.5-.1.1-.2.2-.3.3h-.1c0-.2,0-.4,0-.7,0-.5,0-.8,0-1v-1.5c0,0-.5,1.1-.5,1.1,0,.2-.2.4-.3.7-.1.3-.2.4-.2.4,0,0,0,0,0,0,0,0,0,0,0,0,0,0,0,0,.2.1v.2c-.2,0-.4-.2-.5-.2-.2,0-.4-.2-.5-.2"/>
</svg>