<?xml version="1.0" encoding="UTF-8"?>
<svg id="Layer_1" xmlns="http://www.w3.org/2000/svg" xmlns:xlink="http://www.w3.org/1999/xlink" version="1.1" viewBox="0 0 160.3 85.5">
  <!-- Generator: Adobe Illustrator 29.1.0, SVG Export Plug-In . SVG Version: 2.1.0 Build 142)  -->
  <defs>
    <style>
      .st0 {
        fill: none;
      }

      .st1, .st2 {
        fill: #c4422a;
      }

      .st3 {
        fill: #e3b9a5;
      }

      .st4 {
        fill: #f7f8f8;
      }

      .st5 {
        clip-path: url(#clippath-1);
      }

      .st6 {
        clip-path: url(#clippath-3);
      }

      .st7 {
        clip-path: url(#clippath-4);
      }

      .st8 {
        clip-path: url(#clippath-2);
      }

      .st9 {
        clip-path: url(#clippath-6);
      }

      .st10 {
        clip-path: url(#clippath-5);
      }

      .st11 {
        fill: #b6b8bb;
      }

      .st12 {
        clip-path: url(#clippath);
      }

      .st2 {
        fill-rule: evenodd;
      }
    </style>
    <clipPath id="clippath">
      <rect class="st0" x="7.4" y="12.4" width="145.6" height="60.8"/>
    </clipPath>
    <clipPath id="clippath-1">
      <path class="st0" d="M54.8,15.5c-.5,2.8-1,8.8-3.3,10.6-3,2.5-7.3,0-8-3.3-.8-3.5,1.5-5.8-3.8-6-4.8-.2-3,3.8-6.3,5-1.1.4-2.1,0-3.2-.6-.9-.4-1.8-.8-2.8-.7-1.8.3-3.3,2-4.5,3.3-2.8,3.5-3.3,6.5-7.3,8.6-3.5,1.5-5.5,1.3-7,5-1.3,2.8-.8,6.5-.5,9.6,1.3,6.5,3.8,14.3,12.1,10.8,5.8-2.5,12.1-8,18.9-5,6.3,2.5,9.6,8.8,16.3,10.8,7.8,2,11.3-5.8,13.6-11.8,2.8-7.5-1.5-11.3-5.3-17.4-2.5-3.9-4.9-12.8-4.9-12.8,0,0-.7-1.7-1.2-2.5-.5-.9-1.3-1.9-1.7-2.8-.3-.9-.6-1.2-.7-1.2s-.3.4-.3.4"/>
    </clipPath>
    <clipPath id="clippath-2">
      <path class="st0" d="M55.7,73c2.5,1,5.9-4,3.6-5.3h0c-1.5-.5-3-1-4.5-1-.8,1-.5,5.5,1,6.3"/>
    </clipPath>
    <clipPath id="clippath-3">
      <rect class="st0" x="7.4" y="12.4" width="145.6" height="60.8"/>
    </clipPath>
    <clipPath id="clippath-4">
      <rect class="st0" x="7.4" y="12.4" width="145.6" height="60.8"/>
    </clipPath>
    <clipPath id="clippath-5">
      <rect class="st0" x="7.4" y="12.4" width="145.6" height="60.8"/>
    </clipPath>
    <clipPath id="clippath-6">
      <rect class="st0" x="7.4" y="12.4" width="145.6" height="60.8"/>
    </clipPath>
  </defs>
  <g class="st12">
    <path class="st2" d="M59.2,67.7c-1.5-.5-3-1-4.5-1-.8,1-.5,5.5,1,6.3,2.5,1,5.9-4,3.6-5.3h0Z"/>
    <path d="M59.2,67.4c-1.5-.5-3-1-4.6-1h-.1c-.2.3-.3.6-.3,1,0,.4-.1.8-.1,1.3,0,.8.1,1.8.4,2.6.1.4.3.8.5,1.1.2.3.4.5.7.7h0s0,0,0,0c.2,0,.5.1.8.1,1,0,1.9-.6,2.6-1.5.7-.8,1.2-1.9,1.2-2.8,0-.3,0-.6-.2-.9-.1-.3-.4-.5-.6-.7l-.2.3c.2.1.4.3.5.5.1.2.2.4.2.7,0,.8-.4,1.8-1.1,2.5-.7.8-1.6,1.3-2.4,1.3-.2,0-.4,0-.6-.1v.2c0,0,0-.2,0-.2-.2,0-.4-.3-.6-.6-.5-.8-.8-2.2-.8-3.5,0-.5,0-.9.1-1.2,0-.4.2-.6.3-.8h-.1c0-.1,0,0,0,0,1.5,0,3,.5,4.5,1v-.3Z"/>
    <path class="st2" d="M55,15s.5-.2.6,1.2c0,.2,3,5.2,3,5.2,0,0,2.4,9.3,4.8,13.1,3.8,6,8.1,9.8,5.3,17.4-2.3,6-5.8,13.9-13.6,11.8-6.8-2-10.1-8.3-16.4-10.8-6.8-3-13.1,2.5-18.9,5-8.3,3.5-10.8-4.3-12.1-10.8-.3-3-.8-6.8.5-9.6,1.5-3.8,3.5-3.5,7.1-5,4-2,4.5-5,7.3-8.6,1.3-1.3,2.8-3,4.5-3.3,1-.1,2,.3,2.9.7,1.1.5,2.1,1,3.2.6,3.3-1.3,1.5-5.3,6.3-5,5.3.3,3,2.5,3.8,6,.8,3.3,5,5.8,8.1,3.3,2.3-1.8,2.8-7.8,3.3-10.6l.4-.5Z"/>
  </g>
  <g class="st5">
    <path class="st4" d="M42,17.3c-.2,0-.4-.2-.7-.2,0,0,0,0,0,0,.3,0,.5.1.7.2,0,0,0,0,0,.1M42.6,17.7c0,0-.2-.2-.3-.2,0,0,0,0,0-.1.1,0,.2.1.3.2,0,0,0,.1,0,.2M43.1,20.4c0-.1,0-.3,0-.4,0,0,.2,0,.3-.1,0,.1,0,.3,0,.4,0,0-.2,0-.3,0M28,20.6c0,0-.2,0-.2,0,0,0,0,0,0,0h0c0,0,.1,0,.2,0,0,0,0,0,0,0M58.3,20.9c0,0,0-.1-.1-.2,0,0,0,0,0,0,0,0,0,.1,0,.2,0,0,0,0,0,0M58.5,21.2s0,0,0-.1c0,0,0,0,0,0,0,0,0,.1,0,.2,0,0,0,0,0,0M43.1,21.4c0-.1,0-.2,0-.3,0,0,.1,0,.2,0s0,0,0,0c0,0,0,.2,0,.3,0,0-.2,0-.3,0M58.8,22c0,0,0-.2,0-.2,0,0,0,0,0,0,0,0,0,.1,0,.2,0,0,0,0,0,0M32.2,22c-.3,0-.6,0-.9-.2,0,0,0,0,0,0,0,0,0,0,0,0-.2,0-.4-.2-.7-.3,0,0,0-.1,0-.2.6.3,1.1.5,1.7.6,0,0,0,0,0,0M43.5,23.6c0-.2-.2-.4-.2-.7,0,0,.2,0,.3,0,0,.1,0,.2,0,.4,0,.1,0,.3-.1.4M44.2,24.5c-.1,0-.2,0-.3,0,0-.1-.1-.2-.2-.3h.1c0,0,0-.1,0-.2,0,.2.2.4.3.6M44.6,25.3c0,0-.1-.1-.2-.2,0,0,.1,0,.2-.1,0,.1.2.2.3.3,0,0-.2,0-.3,0M60.1,26.6c0-.1,0-.3-.1-.4,0,0,0,0,0,0,0,0,0,0,0,0,0,.1,0,.3.1.4,0,0,0,0,0,0M46.6,26.8c-.3-.1-.5-.2-.8-.4,0,0,0,0,.1,0,0,0,.1,0,.2,0,.2.1.4.2.6.3,0,0-.1,0-.2,0M60.2,26.8s0,0,0,0c0,0,0,0,0,0,0,0,0,0,0,.1,0,0,0,0,0,0M60.3,27s0,0,0,0c0,0,0,0,0,0s0,0,0,0c0,0,0,0,0,0M49,27.1s0,0,0,0c0,0,.2,0,.3,0,0,0,0,0,0,0,0,0-.2,0-.3,0M60.4,27.5c0,0,0-.1,0-.2,0,0,0,0,0,0,0,0,0,.2,0,.2,0,0,0,0,0,0,0,0,0,0,0,0M61.5,30.5c-.2-.5-.4-1-.6-1.6,0-.2,0-.3,0-.5.2.7.5,1.3.8,2,0,0,0,0-.1,0M61.6,30.7c0,0,0-.1,0-.2,0,0,0,0,.1,0,0,0,0,.1,0,.2,0,0,0,0-.1,0M61.8,31.2c0-.2-.1-.3-.2-.5,0,0,0,0,.1,0s0,0,0,0c0,0,0,0,0,.1,0,0,0,0-.1.1,0,0,0,0,.1,0,0,0,0,.1,0,.2,0,0-.1,0-.2,0M62.2,32.2c0,0,0-.2-.1-.2,0,0,0,0,.1,0,0,.1,0,.2,0,.3M62.6,33c0,0,0-.1-.1-.2,0,0,0-.2,0-.3,0,0,0,.2.1.2,0,0,0,.2-.1.2M62.9,33.6c0,0,0-.2-.1-.2,0,0,0-.1.1-.2,0,0,0,0,0,.1,0,0,0,.2,0,.3M63.4,34.4c0,0-.1-.2-.2-.2,0,0,0-.2,0-.3,0,0,0,.2.1.2,0,0,0,0,0,0h0c0,0,0,.1.1.2,0,0-.1,0-.2,0h0s0,0,0,.1M63.9,35.2c-.1-.2-.3-.5-.4-.7,0,0,.2.1.4.2,0,0,0,0,0,0,0,.2.2.3.3.4,0,0-.1,0-.2,0M64.1,35.6c0,0,0-.1-.1-.2,0,0,.1,0,.2,0,0,0,0,.1.1.2,0,0-.1,0-.2,0M64.4,36.1c0,0,0-.1-.1-.2,0,0,.2,0,.2,0,0,0,0,.1.1.2,0,0-.1,0-.2,0M64.6,36.3s0,0,0,0c0,0,0,0,0,0,0,0,0,0,0,0M66.2,38.6c-.3-.4-.5-.8-.8-1.1,0,0,0-.2,0-.2,0,0,.1.1.2.2,0,0,.1.2.2.2.1.2.3.4.4.6,0,0,0,0,0,0,0,0,0,0,0,0,0,0,.1.2.2.3,0,0-.2,0-.2,0M66.4,38.9c0,0,0-.1-.1-.2,0,0,.2,0,.2,0,0,0,0,.1.1.2,0,0-.2,0-.2,0M66.5,39.2c0,0,0-.1-.1-.2,0,0,.2,0,.2,0,0,0,0,.1.1.2,0,0-.2,0-.2,0M66.9,39.8c0,0,0-.1-.1-.2,0,0,.2,0,.2,0,0,0,0,.1.1.2,0,0-.2,0-.2,0M69.6,45.5c0,0-.1,0-.2,0,0-.2,0-.4-.1-.6,0,0,.1,0,.2,0,0,.2,0,.4.1.6M69.8,46.6c0,0-.1,0-.2,0,0,0,0-.2,0-.3,0,0,.1,0,.2,0,0,0,0,.2,0,.3M68.9,51.7s0,0-.1,0c0-.2.1-.4.2-.5,0,0,0,0,.1,0,0,.2-.1.4-.2.5M68.5,52.7s0,0,0,0c0,0,0,0,0,0,0,0,0-.2.1-.3,0,0,0,0,.1,0,0,0,0,.2-.1.3M29.2,53.2s0,0,0,0c.3-.1.6-.2.9-.4-.3.1-.6.2-.9.4M27.1,54.1s0,0,0,0c.1,0,.2-.1.3-.2,0,0,0,0,0,0-.1,0-.2.1-.3.2M24.9,55.3s0,0,0,0c.1,0,.3-.2.4-.2,0,0,0,0,0,0-.1,0-.3.2-.4.2M23.7,56s0,0,0,0c0,0,0,0,0,0,0,0,0,0,.1,0,0,0,0,0,0,0,0,0,0,0-.1,0M23.3,56.2s0,0,0,0h.2c0-.1,0,0,0,0,0,0-.2,0-.2.1M23,56.3s0,0,0,0c0,0,0,0,0,0,0,0,0,0,0,0,0,0,0,0,0,0M22.7,56.5s0,0,0,0c0,0,.1,0,.2,0,0,0,0,0,0,0,0,0-.1,0-.2,0"/>
    <path class="st3" d="M29.1,51.8c-.3,0-.6,0-.8-.2v-.2c.3.1.6.2.8.4M29.2,53.2c-.2-.2-.5-.3-.8-.4v-.6c.5.3,1.1.5,1.7.5s.3,0,.4,0c-.1,0-.2,0-.4.1-.3.1-.6.2-.9.4M46.1,48.9s0,0,0,0c0,0,0,0,0,0M32.5,49.2c-.8,0-1.5.2-2.2.2.4.6,1.1.8,1.9.8s1.6-.3,1.9-.6c0,0,0,0-.1,0,0,0-.1,0-.2,0,0,0-.2,0-.2,0-.1,0-.2,0-.3,0,0,0,0,0,.1,0s0,0,.1,0c0,0,0,0,.1,0,0,0,.1,0,.1,0-.4-.1-.8-.2-1.2-.2M41.2,48.9c-1.1,0-2,.8-2.6,1.4-.2.2-.5.4-.4.6.4-.3,1.1-.6,1.5-.7-.2.3-.6.4-.9.6,0,0,.1,0,.2,0,1.3,0,2.2-.8,2.2-1.9M32.5,50.6h0c.4.4.9.5,1.4.5.9,0,1.8-.4,2.2-1.1-.1,0-.2,0-.4,0-.2,0-.4,0-.3-.3-.1,0-.3,0-.4,0-.9,0-1.5.5-2.1.8,0,0,0,0,.1,0,0,0,.1,0,.2,0,0,0,.2,0,.2,0,.1,0,.2,0,.3,0-.1,0-.2,0-.4,0s-.3,0-.5,0c-.1,0-.3,0-.4,0M38.7,51.2s0,0,0,0c0,0,0,0,0,0M38.5,49.5c-1.7,0-2.5,1-3.6,1.7.3.1.7.2,1,.2,1.4,0,2.6-1.1,3.1-1.9,0,.1-.3.2-.5.2,0-.1,0-.2,0-.2M29.1,50.5c.4.6,1.1.9,1.9.9s1.2-.2,1.7-.5c-.7-.4-1.7-.7-2.6-.7s-.5,0-.7,0c0,.5.8.3,1.1.6,0,0-.2,0-.2,0-.4,0-.8-.3-1.2-.4M44,49.9c-.3.7-.5,1.5-1.2,1.7,1.5,0,1.8-1.6,1.6-3.1-.1.1,0,.4-.3.4h0c-.2,0,.1-.2,0-.3-.9.5-1.6,1.5-1.5,2.7.2-.2.3-.6.6-.7,0,.4-.5.5-.4.7.8-.2.7-1.2,1.3-1.6M42.4,51.6c-.1,0-.3,0-.2.3.2,0,.3-.1.4-.2,0,0,0,0-.1,0M45.4,51.1c0,.6-.4,1-.7,1.4.4-.1.6-.5.9-.7,0,0-.2,0-.1-.1.1-.1.2-.3.4-.4,0,.1-.2.2,0,.3.5-.5,0-2,.3-2.6-.4,1.2-1.9,1.7-1.6,3.4.4-.3.5-.9.9-1.2M41.1,51.8s0,0,0,0c-.4.5-1,.8-1.5,1.2,1.5-.2,2.5-1,2.8-2.5,0,0,0,0-.1,0s0,0,0,0c-1.1.4-1.7,1.1-2.2,2,.5,0,.7-.7,1.1-.7M48,49.4c-.4.9-1.1,1.6-1.2,2.7,0,.7.2,1.2-.1,1.7.8-.2,1-1,1.5-1.5.1-.7-.2-1.4-.1-2,0-.3.3-.7,0-.9M44.4,50.8c-.1.2-.3.4-.4.7-1.2.2-1.3,1.4-1.8,2.3,0,0,0,0,.1,0,.1,0,.2,0,.3,0,0,0,.2,0,.3,0s0,0,0,0c0-.3.4-.9.7-.9s0,0,0,0c-.1.3-.4.5-.6.7,1.1-.2,1.3-1.7,1.4-2.8M45.8,53c-.3.7-.7,1.3-1.1,1.8,1.3-.2,2.3-1.2,1.7-2.8,0-.2.1-.4.1-.6-1.2.4-1.9,1.7-1.9,3,.4-.4.6-1.1,1.1-1.5M47.2,55.6s0,0,0,.1c0,0,0,0,0-.1M46.7,58.1c0,0-.1-.1-.2-.2.2-.8.5-1.6.7-2.1-.2.3-.7.5-.5.9-.4.1-.8.3-1.1.5,0,0-.1,0-.2-.2,1.1-.5,1.9-1.2,1.8-2.8-.7.1-.7.9-1.2,1.2,0-1,1.4-1.2,1.5-2-1.1.8-2.1,1.7-2.5,3.2,0,0-.1,0-.2-.1.2-.5.3-1,.4-1.4-.4.1-.7.6-1,.9,0,0-.1,0-.2-.1.2-.2.4-.4.6-.7-.3.1-.6.3-.8.5-.1-.1-.3-.2-.4-.3.4-.3.7-.7,1-1.1,0-.7,0-1.1.4-1.5-1,.4-1.7,1.1-2.2,2,0,0-.1,0-.2-.1,0-.2.2-.5.2-.7-.2.1-.5.2-.8.3-.2,0-.3-.2-.5-.3.7-.5,1.1-1.4,1.1-2-.8.4-1.6.8-2.1,1.5,0,0-.2,0-.3-.1,0,0,0,0,0,0,0,0,0,0,0,0s0,0,0,0c-.3-.1-.6-.3-.9-.4.9-.5,1.3-1.4,2-2.1-.2,0-.5,0-.7.1,0,0,0,0,0,0-1.4,0-1.8.8-2.4,1.5,0,0-.1,0-.2,0,.3-.4.6-.8.8-1.1,0,0-.2,0-.3.2-.1-.1,0,0,0-.3-.9,0-1.5.4-2,.9,0,0-.2,0-.3,0,0,0,.1-.1.2-.2-.3,0-.5-.1-.8-.1-.4,0-.8.1-1.1.3-.1,0-.3,0-.4,0,.1,0,.2-.2.3-.3,0,0-.1,0-.2,0-.2,0-.3,0-.2-.3-.2,0-.4,0-.6,0-.8,0-1.4.3-2.1.5.2.2.9,0,1.2.2-.1,0-.3.1-.4.1-.3,0-.5,0-.8-.2-.3,0-.5-.2-.7-.2s0,0-.1,0c.3.3.8.5,1.2.6-.2,0-.4.1-.5.2-.7-.4-1.4-1.3-2.4-1.3s-.3,0-.4,0v-.2c.2,0,.4,0,.7,0-.2-.3-.4-.6-.7-.9v-.3c.3.2.8.3,1.2.3s.3,0,.4,0c.2,0-.1-.2.1-.2.1,0,.3.2.5.2s0,0,.1,0c-.6-.6-1.3-1.2-2.4-1.3v-.2c.2,0,.4,0,.6,0s.2,0,.3,0c0-.1-.2-.2-.3-.2h.5c.4.6,1.2.9,2,.9s.8,0,1.2-.2c-.1-.3-.4-.5-.7-.7h.6c.1,0,.3.2.4.2h0c.2,0,.4,0,.4-.2h.4c-.2.1-.4.3-.5.4,0,0,0,0,0,0s0,0,.1,0,0,0,.1,0c0,0,.1,0,.2,0,0,.2-.3,0-.3.2.3,0,.5.1.8.1.8,0,1.5-.4,1.8-.8h.6c-.5.4-.9.7-1.5,1,.4.2.7.2,1.1.2.9,0,1.6-.5,2.1-1.2h.2c-.2.3-.5.7-.8,1,.6,0,.7-.6,1.2-.7,0,.5-.9.6-.9.9.8-.1,1.7-.6,2.1-1.2h.2c0,.2-.1.4-.2.6.2,0,.3-.4.4-.6h.3c0,.2-.3.3-.2.4.2,0,.4-.2.6-.4h.8c-.3.8-.4,1.8-.7,2.3,0,0,0,0,0,0,.4,0,.6-.2.9-.2.4-.6,1-1.3,1.2-2.1h.3c0,.1,0,.3,0,.4.2,0,.4-.2.6-.4h.5c-.2.6-.2,1.2,0,1.8.2-.3.2-.8.4-1.2.3.8-.3,1.3-.5,1.7.6-.1.5-.9.9-1.3.2.2,0,.5-.1.7.5-.3.7-.9.7-1.6h.4c0,.1,0,.2-.1.3.2,0,.3-.2.4-.3h.2c-.4.7-.9,1.5-.4,2.6.2-.3,0-.9.3-1.1.1.5-.2,1.1,0,1.4.4-.3.3-1.1.8-1.4.1.2-.2.4,0,.4.4-.5.3-1.3.1-1.9h.2c0,.2.1.5.2.7.1-.2,0-.4,0-.7h.2c0,.3,0,.6,0,.7,0-.2,0-.5,0-.7h.2c0,.1,0,.2,0,.2,0,0,0-.2.1-.2h.2c0,.1,0,.3,0,.5-1.2.6-.3,2.4-.7,3.6.4,0,.6-.3.7-.6v.7c0,.2-.1.4-.3.5-.1-.3.2-.5,0-.6-.2.2-.3.5-.7.5s0,0,0,0c-.3.8-.5,1.6-.5,2.6.6-.3.5-1.3,1-1.6-.1.5-.4,1-.6,1.5.5-.2.8-.6,1.1-1.1v.4c-.3.5-.7.8-1.3,1-.5.6-.9,1.6-1,2.5M49,59.6c-.3-.4-.7-.9-1-1.3-.2.1-.4.2-.7.3,0,0-.1-.1-.2-.2.4-.3.5-.8.9-1.1,0,.4-.4.6-.5.9.9-.4,1.3-1.4,1.5-2.5v.9c0,.2-.2.4-.3.6,0,0,.2,0,.3,0v.7c-.2-.2-.4-.3-.5-.5,0,.2-.2.2-.2.4.3.2.5.4.7.7v.4c-.1-.2-.2-.4-.4-.4s0,0,0,0c.1.1.3.4.4.5v.5M28.3,21.8c-.2-.4-.3-.8-.5-1.2,0,0,.2,0,.2,0,.1.2.2.4.3.6v.6M28.3,23.5c-.1-.3-.5-.8-.2-.9,0,.1.1.3.2.4v.5M19.8,32.5h-1.1c-.5-.4-1-.7-1.5-1.1.2-.1.3-.3.5-.4.7.6,1.4,1.1,2.1,1.5M22.1,32.5h-.2c0-.1.1-.2.2-.3,0,0,0,.2,0,.3M24.8,32.5h-.2s0,0,0,0,0,0,0,0c0,0,0,0,0,0M24.1,24c0,.2.2.4.4.5,0-.2,0-.5-.4-.5M25.6,28.5s0,0,0,0c0,.3-.7.5-.4.7,1.4-.4,2.1-2.3,2.4-3.8-1.5.3-2.2,1.8-2.5,3.1,0,0,0,0,0,0,0,0,0,0,0,0,0,0,0,0,.1,0s0,0,0,0c0,.1-.3.5-.3.5s0,0,0,0c.2,0,.4-.5.5-.5M21.2,30s0,0,0,0c0,0,.2.3.3.3s0,0,0,0c-.1,0-.3-.3-.4-.3M21.3,30.8c-.2,0-.6.3-.5.4.1-.2.6,0,.5-.4M24.2,30.5c-.1.2-.6.7-.5.7s0,0,0,0c.2,0,.7-.3.5-.7M23.8,29.9s0,0,0,0c0,.7-1,1-.7,1.7.1-.2.2-.3,0-.5,1.3-.6,1.6-2.7,2-4-.5.4-.8,1.1-1.2,1.6,0-.8,1-1.3.9-1.7-1.3.7-1.7,1.9-1.9,3.6.4,0,.4-.8.7-.8M27.5,32.5h-.3c0-.6,0-1.2,0-1.7-.3.4-.3,1.2-.5,1.7h0c0-.4.2-1.4.2-1.6-.4.3-.8.9-.9,1.6h-.2c.3-.7.5-1.3.7-1.9,0,.1,0,.3,0,.3.8-.8,1.3-2.1,1.4-3.4-.7.5-1.5,1.1-1.8,2.2-.1.6,0,1.3-.1,1.8,0,.4-.4.7-.4,1.1h-.3c.5-.9.7-2,.5-3.5-.3.4-1,.5-.9,1.2-.8,0-.6,1.3-.5,2.3h-.3c0-.6-.1-1.1,0-1.4-.5.3-.8.9-1.1,1.4h-.2c0-.2.2-.3.1-.4-.1.1-.2.3-.2.4h-.2c.2-.2.3-.5.4-.8.1-.8-.2-1.6.2-2.3-.6.3-.6,1.1-.9,1.6,0-.6.3-1,.5-1.4-1,.4-1.4,1.7-1.3,2.9h-.2c0-.4-.1-.9-.2-1.3-.3.3-.4.8-.5,1.3h-.2c0-.4.2-.7.1-.9-.2.3-.3.6-.5.9h-.2c-.4-.5-1.3-.8-1.4-1.4.4.3.9,1,1.3,1-.5-.5-1.1-1.1-1.6-1.5,0,0,0,0,.1-.1.6.4,1.2.9,1.8,1.4.2-.6.6-1,1.2-1.2-.5-.6-1.1-1.2-1.7-1.8,0-.1.2-.3.3-.4.7.5,1,1.4,1.8,1.7-.3-.6-1.1-1-1.1-1.5.5.4.7,1,1.3,1.3,0-.5-.5-.8-.8-1.2-.3-.3-.5-.6-.8-.9,0,0,0-.1.1-.2.6.6,1.2,1.2,1.7,1.9.6-.3,1.3-.5,1.3-1.1-.7-.8-1.4-1.6-2-2.5,0,0,.1-.2.2-.3.1,0,.4.1.3.3,0,0,0-.1,0-.1.6.7,1,1.5,1.8,2.1,0-.5-.8-.7-.7-1.2.3.3.5.9.8.9s0,0,0,0c0-.7-.9-.9-.9-1.4.4.2.6.9.9.9h0c-.6-.8-1.2-1.5-1.9-2.2,0,0,0,0,.1-.1.7.8,1.4,1.7,2.1,2.5.3-.4,1-.3,1.4-.4-.8-1.1-1.5-2.3-2.3-3.4.2-.2.4-.4.5-.5.6.9,1.1,1.8,1.6,2.7.2-.2-.3-.4-.2-.7.4.3.6.9.9,1.2,0-.7-.9-1-.9-1.9-.3-.6-.7-1.1-1.1-1.7,0,0,0,0,.1-.1.7,1.1,1.4,2.3,2.2,3.3.4-.5,1.4-.2,1.6-.9-.5-1.3-1.1-2.5-1.7-3.8.2,0,.3-.1.5-.2,0,.2.2.4.4.6,0-.2-.1-.4-.2-.6,0,0,.1,0,.2,0,0,.2.2.4.2.7,0,.1,0,.2,0,.4,0,.7.6,1.4.9,1.9v1.3c-.4.6-.7,1.3-.7,2.1.3-.4.4-.9.7-1.3v.4c-.3.6-.8,1.1-.9,1.6.3-.2.6-.5.9-.7v.5c-.3.6-.3,1.4-.6,2,.2,0,.4-.2.6-.3v.2c-.5.2-1,.7-1,1.1.2-.5.6-.8,1-1.1v.7s-.1,0-.2,0c0,0,0-.3.1-.4-.7.5-1,1.5-.7,2.7M27.8,32.5h-.2c0,0,0,0,.1-.1,0,0,0,0,0,.1M28.3,32.5h-.4s0,0,0,0c.2,0,.3-.2.4-.3v.3M50.1,32.5h-.8c0-.1-.2-.2-.4-.2v-.2s0,0,0,0c0,0,0,0,0-.1v-.3c.4.3.7.6,1.1.9M53.4,22.9c0,.2.3.4.4.4s.1,0,0-.2c0,0,0,.1,0,.1,0-.1-.2-.2-.3-.4M54.1,22.8c.2.4.4.8.8,1,.2-.2-.2-.2-.1-.4,0,0,0,0,0,0,.1,0,.3,0,.1,0,0,0-.1,0-.2,0-.2,0-.3,0-.3-.2.3,0,.9,0,.6.4.4,0,.4-.3.6-.5-.2,0-.3,0-.5,0s-.1,0-.2,0c0,0-.1,0-.2,0-.1,0-.2,0-.3,0v-.2s0,0,0,0c0,0-.1,0-.1,0,0,0,0,0-.1,0s0,0,0,0M57.3,26.6c0,0,.2,0,.3.1,0,0,.2.1.2.1s0,0,.1,0c-.3-.3-.6-1.1-.7-1.5.5.3.4,1.1.9,1.5,0-1.4-.8-2.1-1.2-3-.3.3-.7.6-1,.9.4.7,1.2,1,1.4,2,0,0,0,0,0,0M59.7,26.9c-.3.2-.7.3-.9.6.3-.1.6-.3.9-.6M52.5,26.9s0,0,0,0c-.3.6-1.3.9-1.4,1.5.3-.3.7-.7,1.2-.9,0,.2-.3,0-.2.4.8-.4,1.6-1.3,2.3-2-.1,0-.2,0-.3,0-.6,0-.9.9-1.4,1.2,0,0,0,0-.2,0M54.6,26c-1,1-2,1.9-3,2.8.5.6.5,1.7,1.2,2,1.2-.8,2.5-1.6,3.8-2.3-.7-.8-1.4-1.6-2-2.5M59,29.6c.9.4,1.6.9,2.4,1.4-.3-.9-1.4-1-2-1.7.6,0,1,.7,1.5.7h0c-.9-1.4-2.2-2.5-3.9-3.2-.1,0,0,.2-.2.2s0,0,0,0c-.3-.1-.7-.5-1-.5s0,0,0,0c.6.7,2,1,2.3,1.8-.9-.6-2.1-1.2-2.7-1.9,0,0,0,0,0,0,0,0,0,0,0,0,1.3,1.7,2.7,3.6,4.9,4.1-.4-.3-.9-.5-1.2-.9M59.9,30.5c.1.3.7.5.9.5-.3-.2-.6-.4-.9-.5M54.7,30.4s0,0,.1,0c-.4.4-1.1.6-1.5,1.1.4,0,.7-.5,1.1-.5s.2,0,.3,0c.7-.7,1.8-1.1,2.7-1.7,0-.2-.2-.3-.4-.4-.6.3-1.2.8-1.8,1.1-.1-.2.4-.2,0-.3-.5.5-1.3.6-1.7,1.2.4,0,.8-.6,1.1-.6M58.7,31.5c-.3,0-.8.2-.7.4.4,0,.4-.2.7-.4M61.4,31.4c.2,0,0,.5.3.5,0-.8-.8-1.3-1.4-1.3.4.2.7.5.9.8,0,0-.1,0-.2,0s0,0,0,0c.1,0,.2.2.3.2s0,0,0-.2M61.9,32.5h-.3c-.4-.6-.8-1-1.4-1.4.1.6.6.8.7,1.4h0c-.6-.6-.9-2-1.9-2,0,0,.3.4.1.5,0,0,0-.2-.1-.2s0,0,0,0c.2.6.3,1.1.6,1.6h-.5s0,0,0,0c0,0,0,0,0,0h-.5c.2,0,.3-.2.5-.3,0-.2,0-.4-.2-.5-.5.2-.9.5-1.3.8h-.3c0,0,0-.1,0-.2,0,0-.1.1-.2.2h-1c.9-.5,1.8-.9,2.7-1.4-.2-.7-.4-1.4-1-1.7-1.5.7-2.8,1.6-4.1,2.5,0,.2.2.4.2.6h-.2c-.5-1.1-1.2-2.2-2.6-2.2s-.3,0-.4,0c.4.2.8.4,1,.7,0,0,0,0,0,0h0c0,0-.1,0-.2,0,.2,0,.5,0,.6.3,0,0,0,0-.1,0-.3,0-.6-.3-.8-.5,0,0,.1,0,.1,0-.3-.2-.5-.4-.7-.5.4,1.1,1.7,1.6,2.8,2.1h-.6c-.2-.1-.5-.2-.7-.2,0,0,0,.1.1.2h-.5c-.4-.7-.9-1.4-1.9-1.5-.2,0-.5,0-.8,0v-.2c0,0,.1,0,.2,0,0,0,.2,0,.2,0,.4,0,.8,0,1.1.3-.3-.5-1-.7-1.5-1v-.2c.2,0,.4.1.6.2.3.1.5.3.5.3s0,0,0,0c-.2-.5-.6-.8-1.1-1v-.6c.4.1.8.3,1.2.4,0,0-.2,0-.3,0-.3,0-.6-.1-.8-.2.5.5,1.4,1,2.4,1s.3,0,.4,0c0-1.7-1.5-1.8-3-1.9v-.3c.2,0,.5,0,.7-.1,0,0-.1,0-.2,0-.1,0-.3,0-.4,0v-.2c.2,0,.3.1.5.2,0-.2-.2-.4-.4-.6,0,0,.2,0,.3,0,.3.4.5,1,1.2,1h0c1-.9,2-1.7,2.8-2.8-.3,0-.6-.1-.9-.2,0,0,0-.2.1-.2,1.5.6,3.1,1,4.4,1.7-.8-1.5-2.1-2.6-3.8-3,.2-.4.3-.9.4-1.4.2.2.3.4.4.6.2-.2.4-.2.6-.2.4,0,.9.2,1.3.2.9-.6,1.6-1.3,2.3-2,0,0,0,.1.1.2-.2.3-.5.6-.6.8.3-.2.5-.4.7-.7,0,0,0,0,0,.1-.3.4-.7.7-1,1.1-.9.5-1.6,1.2-2.3,1.9.5-.2.8-.9,1.3-.9s0,0,0,0c-.4.4-.8.7-1.1,1.1,1.2-.6,2.3-1.6,3.3-2.5,0,0,0,.1,0,.2-.5.5-1.1,1-1.6,1.5.7.9,1.1,2.2,1.6,3.4.4-.2.9-.3,1.2-.6-.4-.4-1.2-.3-1.5-.7,0,0,.1,0,.2,0,.5,0,1.1.3,1.4.6,0,.1,0,.3.1.4-.2,0-.3.1-.4.3.2,0,.3,0,.4-.2,0,0,0,0,0,0-.4.2-.9.5-1.2.9.5-.1.8-.7,1.2-.7,0,0,0,0,0,0-.3.3-.9.5-.9.8.3-.2.7-.3,1-.5,0,0,0,.1,0,.2-.3.2-.5.3-.8.5,0,.2.2.3.4.4,0-.1,0-.4,0-.4.1.2.2.5.1.8.4.1.4.7.8.9,0-.2,0-.4,0-.6.2.5.4,1,.6,1.6h0,0c0,0,0,.1,0,.2,0,0,0,0,0,0,0,0,0,0,0,0,0,.2.1.3.2.5h0c0,.3.2.9.1,1.3M62.2,32.5h-.1c0-.1,0-.4,0-.5,0,0,0,.2.1.2,0,.1,0,.2,0,.3M28.8,34.2c0-.6.3-1.1.3-1.7h.2c0,.6-.2,1.3-.5,1.7M28.3,36.6v-.8c0-.2,0-.3,0-.4,0,0,0,0,0,0v-.4c0,0,.1-.1.2-.2,0-.7,0-1.4-.1-1.9,0,0,0,0,0,0v-.4h.4c-.1.5,0,1.2,0,1.8,0,.8-.3,1.6-.5,2.3M49,36.6s0,0,0-.1c0,0,0,0,0,0h0M28.3,43.4s0,0,0,0v-.3c0,.1.1.2,0,.3M40.8,48.2h-.3c0-.1.2-.2.3-.3,0,.1,0,.2,0,.3M32.6,33.7c-.3.1-.7.5-.6.7,0-.3.5-.4.6-.7M45.2,33.9c.5,0,1.1.3,1.4.6,0-.3-.3-.7-.5-.7s0,0,0,0c0,0,0,.1,0,.1-.3-.2-.6-.2-.8-.4,0,0,0,0,.1,0,0,0,.2,0,.2,0,0,0,.1,0,.2,0s0,0,0,0c-.2-.3-.6-.4-.9-.4s-.9.2-1.2.5c.4.4.9.6,1.6.6s.5,0,.7,0c-.3-.2-.8-.1-1-.4,0,0,0,0,.1,0M39.1,33.9h0c-.2.5-.6.6-.9.9,1.6,0,2.3-1,3.4-1.5-.4-.2-.8-.3-1.2-.3-1.2,0-2.2.8-2.6,1.7.6,0,.8-.9,1.3-.9M39.7,34.9c0,0,.1,0,.2,0,0,0,.1,0,.2,0s0,0,.1,0c0,0,0-.2,0-.2.3.2.5.3.8.3.8,0,1.7-.5,2.6-.6-.1-.1-.3-.1-.5-.1s0,0-.1,0h0c-.2,0-.3,0-.4-.1,0,0,.2,0,.3,0s.3,0,.4,0c.1,0,.2,0,.3,0s0,0,0,0c-.3-.4-.9-.5-1.5-.5s-1.4.2-1.6.7c.1,0,.4-.1.6-.1s.5,0,.6.2h0c-.8,0-1.6,0-2,.5,0,0,0,0,.1,0M31.8,34.7s0,0,0,0c0,.2-.6.3-.3.5,0-.1.5-.5.3-.5M43.2,35.4c0,.3-.4.3-.8.3.3.3.7.4,1.1.4s1-.1,1.5-.2c-.2-.1-.6,0-.7-.3,0,0,0,0,.1,0,0,0,.1,0,.2,0,0,0,.1,0,.2,0s0,0,.1,0c-.4-.6-1-.8-1.7-.8s-1.4.2-2,.4c.3,0,1,.3,1.5.3s.3,0,.4,0M38,33.3c-1.5,0-2,1.8-2.4,2.8.5-.5.9-1.1,1.3-1.7,0,.5-.5,1-.9,1.5,1-.3,1.5-1.3,2.1-2,0,0-.2,0-.1-.1.2-.2.4-.2.5-.4,0,0,0,0,0,0-.1,0-.2,0-.3.2,0,0-.2.2-.3.2s0,0,0,0c0-.2.3-.1.4-.3,0,0-.1,0-.2,0M46.1,35.2c.9.1,1.2.8,1.8,1.2-.1-1-1-1.3-1.6-1.9,0,0-.2,0-.2,0-.3,0-.5,0-.7,0-.2,0-.4,0-.6,0s-.4,0-.6-.1c.2.2.4.5.6.5s.1,0,.2,0c.2.5.9,1,1.5,1s.4,0,.5-.2c0,.1,0,.2.2.2s.1,0,.1,0c-.3-.4-1-.4-1.2-.8M40.8,35.3c-1.1,0-2.3.9-2.6,1.7.3-.2.7-.7,1-.7s0,0,0,0c-.1.2-.4.3-.5.5,0,0,.2,0,.3,0,1.3,0,1.7-.8,3.1-.8-.4-.5-.8-.7-1.4-.7M29.6,33.8c-1,.4-.7,2.4-.4,3.3.7-.9,1.8-2.3,1.3-4-.6.2-.7.8-1,1.2,0-.2.1-.3,0-.5M35.3,34.3c-1,.5-1.9,1.4-1.7,2.8,1.4-.6,2.2-1.8,2.6-3.1,0,0,0,0,0,0-.6,0-.6.6-1,.7,0-.2.4-.3.2-.4M32.2,34.5c-.2.5-.6,1-.8,1.2,0,.7.2,1.4,0,2,.4-.1.5-.5.5-.9.9-.5,1.5-2.2,1.1-3.3-.2.5-.5,1.3-.8,1.9-.2-.2.3-.7,0-.9M43.9,36.8s0,0,0,0c.4.7,1.4.9,2.1,1.2,0-.5-.4-.5-.4-.9h0c.1,0,.2.1.3.2,0,.1.2.2.2.2s0,0,0,0c0-1.1-1.1-1.4-2.2-1.4s-.8,0-1.1,0c.5.2,1.4.2,1.6.7-.1,0-.3-.2-.5-.2M39.3,35c-1.8.2-2.7,1.4-3.2,3.1,0,0,.1,0,.2,0,.2,0,.2-.1.3-.3-.1,0-.3,0-.2-.1,0,0,0,0,0,0,1.2,0,1.6-1.3,2.3-2.1.2-.2.6-.4.6-.7M47.1,37.5c.8,0,.9.7,1.5.9,0-1.3-1.1-1.5-1.7-2.3,0,0-.2,0-.2,0s-.2,0-.3,0-.2,0-.3,0-.1,0-.2,0c.2.2.4.3.3.7.4.5.8,1.2,1.6,1.2s0,0,.1,0c-.2-.3-.7-.2-.8-.6M46.1,38c-.1.1,0,.4.1.4h0c0-.2,0-.4-.1-.4M43.4,38.3c0,0-.1,0-.1,0,.2,0,.4.2.6.3,0-.2-.3-.3-.4-.3M42.5,37.9c1.1,0,1.6.8,2.1,1.1-.4-1.2-1.2-2.8-2.6-2.8h0c-.5,0-.6.3-.9.4,0,0,0,0,0,0,0,0,0,0-.2,0,0,0-.1,0-.1,0h0c-.3,0-.3.2-.4.4.8,0,1.4.2,2.1.3,0,.1-.2.2-.4.2-.5,0-1.1-.2-1.3-.2.3.4,1,.4,1.4.8.1,0,.3,0,.4,0M32.5,37.8c.3.5-.5.9-.3,1.4.8-1,1.2-2.1,1.4-3.5-1.3.2-1.8,1.7-1.5,2.9.1-.2.1-.7.4-.8M40.7,37.6c-1.1,0-1.7,1.3-2.8,1.6.3,0,.6,0,1,0s.2,0,.3,0c0-.3-.3-.2-.2-.4,0,0,0,0,0,0,0,0,.2,0,.3-.1,0,0,.2-.1.3-.1s.1,0,.2,0c0,.3-.4,0-.4.3.1,0,.2,0,.4,0,.7,0,1.4-.4,2.2-.4,0,0-.2,0-.3,0s-.2,0-.2,0c0,0-.2,0-.2,0-.1,0-.2,0-.3-.1.1,0,.3,0,.4,0s.1,0,.2,0c0,0,.1,0,.2,0,.1,0,.2,0,.3,0,0,0-.2-.1-.3-.1s-.2,0-.3,0c-.1,0-.2,0-.3,0-.2,0-.3,0-.4-.2,0,0,0,0,.2,0,0,0,.2,0,.2,0,0,0,.1,0,.2,0s.1,0,.1-.1c-.3-.1-.5-.2-.7-.2M40.4,39c-.1,0-.2,0-.3,0,0,0,.3.1.4.1s.1,0,0-.1c0,0-.1,0-.3,0M39.6,36.9c-1.8,0-2.4,1.2-3,2.6.7,0,.6-1,1.3-1.2,0,.3-.7.6-.4.7.9-.3,2-1,2.7-1.7,0,0,0,0-.1,0-.3,0-.5,0-.7.2-.2,0-.4.2-.6.2s0,0-.1,0c.3-.2.7-.3,1-.5,0,0,0,0-.1,0,0,0-.1,0-.2,0,0,0-.1,0-.2,0s0,0-.1,0c0-.2.5,0,.5-.3M44.7,39.3c0,.2,0,.4.3.4,0-.3-.2-.3-.3-.4M30.3,35.9c-1.2,1.1,0,2.1,0,3.3,0,.3-.3.4-.1.9.2-.7.3-1.3.3-1.9,0-.2-.3-.7,0-.9,0,.4.1.9.1,1.1.6-.5.3-2.5.4-3.1-.2,0,0,.5-.2.5s0,0,0,0c0-.1,0-.3,0-.3-.3.2,0,.8-.4.9,0-.1,0-.4,0-.4M35.8,38.6c-.5.6-1.5,1.2-1.5,2.1.3-.4.4-.8.9-.9-.1.3-.7.5-.6.8.7-.7,2.1-1.1,2.1-2.2-.1.1-.2.4-.4.4,0-.2.1-.4.1-.4s0,0-.1,0c-.3.2-.4.7-.8.8,0-.3.4-.6.3-.7M46.3,39.4c.7.3.4,1.1.6,1.6.5-1.4-.9-2.9-2.1-3.1.2.1.4.5.3.7-.3,0-.2-.4-.4-.5.3,1.2,1.1,1.9,2,2.5,0-.6-.5-.9-.4-1.2M46.6,37.9c.2,1.1.7,2,1.5,2.6.2.2.4.6.6.6s0,0,0,0c-.3-.6-.8-1.1-1.2-1.7.5,0,.7.8,1,.9,0-.1-.3-.5-.2-.6.3.1.4.6.5.9,0-1.5-1-2.3-2.3-2.7M29.6,40.8s0,0,.1,0c0,0-.2.4,0,.4,0-.3,0-.4,0-.7.7-1.1.2-2.4-.4-3.4-.5,0,.1.8-.3.9-.1,0,0-.3-.1-.4-.6,1.2,0,2.4.6,3.1,0-.1,0-.2.1-.2M34.9,36.6s0,0,0,0c-.1.3-.5.3-.6.6-1.3.7-2.6,3.3-1.2,5-.2-.7.6-.9.4-1.7,0,0,.1,0,.2,0s0,0,0,0c.3-1.2.1-3.1,1-3.4-.4.5-.7,1.5-.6,2.3,0-.2,0-.5.2-.5.1.4-.2.7,0,.9.2-.8,1.1-1.1,1.5-1.8.3-.4.3-1,.5-1.4.2-.5.6-.7.7-1.2-.7.4-1.5.7-2,1.2-.1,0,0-.2-.2-.2M41.8,40.5s0,0,0,.1c.3.7,1,1.1,1.2,1.8.3-.8,0-2.1-.9-2.1s-.2,0-.2,0c0,0,.1,0,.1.2,0,0,0,0,0,0,0,0,0,0-.1,0,0,0,0,0,0,0M31.7,37.7c-1.5,1.1-1.4,3.7-.1,5-.3-1.4.6-3.3,0-4.5-.2.7-.2,1.5-.5,2,0-1,.3-2.1.6-2.6M47.7,41.6c.2.6.6.9.5,1.8.9-.6.4-2.8-.5-2.8s0,0,0,0c0,0,0,.1,0,.1-.2,0-.2-.4-.4-.5-.3,1-.1,2.2.7,2.7,0-.5-.6-1-.3-1.3M46,41.8c.4.3.6,1.1.4,1.8,1.1-1,.1-3.3-.9-3.4.2.1.5.8.1.9-.1-.4-.2-.8-.5-1.1,0,1.2.6,2.5,1.2,3.3.2-.7-.4-1-.3-1.5M32.5,43.1c.3.3.3.9.8,1,.2-.2.1-.5,0-.7-.3-1-.7-2-1.1-2.8-.1.6,0,1.1,0,1.5-.4-.4,0-1.4-.2-1.9-.2,1.3-.7,3.2.7,3.6,0-.2-.3-.5,0-.7M35.1,43.9c0,0,.1,0,.2,0-.4.3-1,.4-1.4.7,0,0,.2,0,.3,0,.9,0,1.7-.9,2.7-1,1.6-.3,2.9-.9,4.1-1.5.2,0,.2.2.4.2,0-.5.2-.8,0-1.3,0,0,0,0,.1,0s0,0,0,0c0-.4-.2-.5,0-.9-.3-.2-.7-.3-1.1-.3s-1,.1-1.5.2c-.5.1-1,.2-1.4.2s0,0,0,0c.6-.4,1.8-.6,2.7-.6s.4,0,.5,0c0-.2,0-.3-.1-.3s-.2.1-.2.1c0,0-.2,0-.2,0-1.8,0-3.8.4-5.1,1.3,0-.3.5-.3.3-.4-.9.5-1.8,1-2,2.1.3,0,.4-.7.7-.7s0,0,0,0c-.2.5-.9,1-.6,1.6.7-.8,1.8-1.6,2.8-1.9-.5.5-1.5.8-1.8,1.3,1.6-1.3,4.2-1.7,6.3-2.6,0,0-.1,0-.2,0-.1,0-.2,0-.4,0-.1,0-.2,0-.3,0s-.2,0-.2,0c.1-.2.4-.3.6-.3s.5,0,.7.1c0,.1-.2,0-.2.1,0,0,0,0,.1,0,.2,0,.3,0,.3.2,0,0-.2,0-.2,0,.1.1.3.3.2.4,0,0-.2,0-.3,0s-.2,0-.3,0c0,0-.2,0-.3,0s-.1,0-.2,0c.1-.2.7,0,.7-.3-.2,0-.4,0-.6,0s-.1,0-.2,0c-.4.6-1.1,1-1.9,1-1.3,0-2.7.6-3.6,1.3,0,0,0,.3-.1.4-.3.3-.6.3-.9.6,0,.3.1.4.2.6.3-.2.8-.5,1.2-.5M30,40.8c-.3.6-.2,1.6-.2,2.6.6.4.9,1.1,1.7,1.4,0-.3-.4-.3-.4-.7,0,0,0,0,0,0,.3,0,.2.3.4.4.1-1.7-.7-2.4-1.2-3.6-.3.8.2,1.7.3,2.2-.6-.3-.4-1.4-.6-2.2M43.4,42.1c.1.8.6,1.8.6,3,0,0,0,0,0,0s0,0,0,0c0-.1.3-.2,0-.2,0,0,0,0,0,0s0,0,0,0c1.1-1.1,1-3.4-.3-3.9,0,0,.2.4,0,.4s0,0,0,0c-.7-.7-.7-2.6-2-2.6s-.3,0-.5,0c.2.2.5.4.7.8-.3-.1-.5-.5-.9-.5.2,1,1.7.8,2.3,1.5.2.7,1.1,1.5.7,2.4,0-.5-.2-.7-.3-1,0,.3.2.5,0,.6-.1,0,0-.4-.1-.4M34.7,44.9c.2.1.2.5.5.5s0,0,.2,0c0-.4.2-.8-.1-.9-.3.2-.6.3-1,.4,0,.2,0,.5.4.5s0,0,.1,0c0-.1-.2-.4,0-.4M31.7,44.3c0,.9.5,1.2,1.2,1.2s.5,0,.7,0c.2-.2-.3-.3,0-.4.2,0,.1.2.3.2s0,0,0,0c-.4-1-1.7-1-2.4-1.8-.1.7.4.8.6,1.2-.3,0-.3-.3-.6-.4M35.7,44.3s0,0,0,0c0,.4-.4,1.3.2,1.3s0,0,0,0c0-.1-.2-.3,0-.4,0,0,0,0,0,0,0,0,0,0,.1.1,0,0,0,.1.1.1s0,0,0,0c0,0,0,0,0,0,.1,0-.2-.3,0-.4.2,0,.2.2.4.2s0,0,0,0c-.1-.5-.2-.9-.2-1.4-.3,0-.4.2-.7.2,0,.3.2.5,0,.5,0,0,0-.4-.1-.4M47.7,44.4s0,0,0,0c0,.6-.5,1.1-.3,1.7.8-1,.8-3-.3-3.6-.1.4.3.7,0,.9-.1-.2,0-.6-.2-.7-.4,1-.3,2.4.3,3.1.2-.5,0-1.2,0-1.5.1.2.1.4.3.5,0-.1,0-.3,0-.3M40.3,43.9c-.3.8-.1,2.1-.7,2.6.7-.2.7-1.1,1.2-1.5.2.3-.4.8-.3,1,.4-.5.8-.6,1.2-1.2,0-1-.3-1.7-.4-2.5-.4.3-.9.7-1.2.7,0,.2.3.5,0,.7-.3-.1-.2-.6-.6-.6s-.1,0-.2,0c-.1,0,.1.4-.1.4,0-.1,0-.2-.1-.2s0,0,0,0,0,0,0,0c0,0-.1,0-.2-.1,0,.3.1.4,0,.7,0,0,0,0-.1,0s0,0,0,0c0,.2.1.4.2.6,1.4,0,1.5-1.5,2.5-1.9,0,.4,0,1.2-.4,1.6,0-.3.3-.7,0-.9-.4.2,0,1.3-.4,1.5,0-.5,0-.8,0-1.1M45.5,45.6c.2.3,0,.8-.1,1,0,0,0,0,0,0,.1,0,.1-.3.2-.4.3-.5.6-1.4.6-2.1,0-1-1.2-1.5-1.4-2.7-.1-.7,0-1.3-.1-1.7-.2-.3-.5-.4-.7-.8-.4-.1-.9-.4-1.3-.4s-.1,0-.2,0c.2.3,1.3.4,1.3.9-.2-.1-.5-.4-.7-.4s0,0-.1,0c.3.3.8.7.8,1.1-.3-.3-.6-.9-.9-.9.2.3.4.6.4,1.1.9.4,1.4,1.3,1.7,2.2-.5,1.1-.3,2.8.3,3.6,0-.2,0-.6.1-.6M29.7,43.4c-.1,1.6.8,3.3,2.2,3.3s.5,0,.8-.1c-1.2-.3-1.1-2-2.3-2.3,0,.2.4.3.2.4-.4-.1-.4-.6-.7-.9,0,.7.5,1,.7,1.6-.6-.3-.9-1.7-.9-2M30.3,46.1c-.1.2.3.4.4.6,0-.3-.2-.4-.4-.6M32.8,46.3s0,0-.1,0c.5.2,1,.7,1.6.7s0,0,.1,0c.6,0,.8-.9,1.2-1.2-.3-.2-.7-.2-1-.2s-.7,0-1,0c-.3,0-.7,0-1,0s-.4,0-.5,0c.2.3.8.3,1,.6,0,0,0,0-.1,0s0,0-.1,0c0,0,0,0-.1,0M38.6,45.1c-.7.5-.8,1.7-1.5,2.2,0,0,0,0,.1,0,.5,0,.5-.6,1-.8,0,.3-.3.2-.3.5,1.4,0,2-1,2-2.3,0,0,0,0,0,0-.2,0-.3.1-.3.3,0,.1-.1.3-.3.3h0c0-.1.3-.5.2-.5s0,0,0,0c-.4.4-.5.9-1,1.1,0-.3.5-.5.3-.7M35.6,47.4c.4,0,.5.2.8.2.8-.5,1.4-1.8,2-2.8-.3-.3-.2-1-.6-1.2h-.1c-.3.3.4.7,0,.9-.2-.2-.1-.6-.4-.7-.1,0,0,.3-.2.3s0,0-.1,0c0,.5.2.8.4,1.2h0c0,0-.2,0-.2,0,0,.1.1.2.3.2s.1,0,.2,0c-.1,0-.3-.3-.1-.4.4,0,.3.3.4.6-.2,0-.4,0-.5,0-1.5,0-2.1,1.2-2.7,1.8h0c.8,0,1.5-.4,1.8-.6,0,.5-.8.3-.9.7,0,0,0,0,.1,0M43.1,42.8c0,.6-.5,1-.6,1.7-.2,1.4,0,2.9-.9,3.6.5,0,.5-.6.8-1,.4-.6,1.1-1,1.2-1.5.3-.9,0-2-.5-2.7M47.8,48.2h-.2c0-.3-.2-.6-.3-.9-.1.3-.3.6-.4.9h-.2c.9-.9.6-2.6,0-3.6,0,.4.2,1.1,0,1.2,0-.1,0-.4-.1-.5-.3.8-.6,1.8-.1,2.7.1-.4,0-.6.1-.8.1.3,0,.7,0,1h-.4c0-.3-.1-.7-.2-.9,0,.2,0,.4-.3.4s0,0,0,0c0-.2.3-.6,0-.6s0,0,0,0c-.3.2-.5.6-.7,1.1h-.5c.3-.3.5-.8.9-1.1.3-1.3-.7-1.7-.7-2.6-.2.3.2,1.6-.3,1.8,0-.4.2-.9,0-1.2-.7.6-.3,1.9-.4,3h-.3c0-.4,0-.9-.2-1.4-.3.3-.4.9-.5,1.4h-.2c.1-.4.2-.8.4-1.2-.4.2-.7.6-.9,1.2h-.8c.9-.8,1.1-2.4,1.1-3.9,0,0,0,0-.1,0s-.1,0-.1,0c1-.7.7-2.7-.3-3.1,0,.3.3.7.1.9-.2,0,0-.3-.2-.3s0,0,0,0c-.3,1.2.3,1.9.2,3.1-.9.6-1.2,2.2-1.5,3.3h-.2c.2-.3.2-.5.2-.9,0,0,0,0,.1,0,0-.3.2-.6,0-.7-.3.2-.3.6-.7.7,0-.3.8-.7.6-.9-.4.1-.6.7-.9.7s-.1,0-.2,0c-.2.4-.5.7-.7,1.1h-.2c.2-.3.3-.5.5-.8-.4,0-.7.5-1,.5s0,0-.1,0c.3-.4,1-.4,1.4-.8-1.1.1-1.8.6-2.5,1.2h-.6s0,0,0,0c0,0-.2,0-.2,0h-.6c.4-.1.7-.2,1.2-.3-.3-.2-.6-.3-1-.3-.6,0-1.3.3-1.8.6h-.4c.2-.2.1-.7.8-.7-.4-.1-.9-.1-1.3-.3,0,0,.2,0,.3,0s.2,0,.4,0c.1,0,.2,0,.3,0s.1,0,.2,0c-.2-.3-.5-.3-.9-.3s-.4,0-.6,0c-.2,0-.4,0-.6,0-.3,0-.6,0-.8-.2.1.5.9.6,1.2.8,0,0,0,0-.2,0s0,0,0,0c0,0,0,0,0,0,0,0-.2,0-.2,0,.3.2.5.4.7.5h-.6c-.8-.4-2-.6-2.9-.9,0,.3.2.6.4.9h-.5c0,0-.2-.1-.2-.3,0,0,.2,0,.1-.1-.1-.2-.3-.4-.5-.6v-.9c.4.7,1.1,1.1,2,1.1s.2,0,.3,0c0-.4-.7-.2-.8-.6,0,0,0,0,0,0,.2,0,.4,0,.5.2.1,0,.3.2.4.2s0,0,0,0c-.6-.9-1.7-1.3-2.6-2,0,.4.6.6.6.9h0c-.2,0-.2-.2-.4-.3,0,.1,0,.2-.1.2s0,0,0,0v-1.2c.5.7,1.2,1.1,1.7,1.3-.2-.4-.8-.9-.7-1.4.2.2.2.5.4.6,0-1.2-.8-1.7-1.4-2.4v-.4c0,.1.1.3.2.4.3,0-.4-.6,0-.7.1.2.1.5.4.7,0-.1,0-.2.1-.2s0,0,0,0c0,.2.1.3.2.4,0-.3-.1-.3,0-.6,0,0,0,0,0,0,.1,0,0,.2.2.2.1-1.5-.6-2.1-1-3,0,.7.4,1.3.4,1.7-.3-.2-.3-.7-.5-1v-.9c.2-.2,0-.5,0-.8,0-.6.5-1.1.5-1.7,0-.8-.3-1.5-.1-2.3.2-.8,1.1-1.3,1.4-2.1h1c-.3.8-.3,1.7-.3,2.6,0-.2.4-.1.4-.4,0,0,0,0,0,0,0,0,0,0-.1,0,0,0,0,0,0,0s0,0,0,0c.2-.4.3-.9.7-1.2.2.3-.4.7-.2.9.5-.5,1-1.2,1.2-2h.2c-.1.3-.2.6-.3.9.2,0,.3,0,.4-.2,0,0-.2,0-.1-.1.3-.1.6-.3.9-.6h.9c-.2.2-.3.4-.4.5,0-.2.3-.3.1-.4-.4.2-.6.9-.9.9,0,.8,0,1.5-.2,2.1.4,0,.6-.4.9-.5,0,0,0,0-.1,0-.1,0-.2,0-.3.1,0,0-.1.1-.2.1s0,0,0,0c.1-.3.2-.7.4-.9.2.2-.3.4,0,.6,1.1-.2,1.1-1.5,1.5-2.4h.3c0,.1,0,.2,0,.4,0,0,0,0,0,.1,0,0,0,0,0-.1,0,0,0,0,.1,0s.1,0,.1,0c-.3.2-.6.8-.4.8s.1,0,.3-.1c0,.3-.6.5-.4.7.8-.5,1.7-.9,2.1-1.8h.2c0,.1-.2.3-.2.4,0,0,0,0,0,0,.1,0,.2,0,.3-.1s.2-.1.3-.1,0,0,.1,0c0,.2-.3.1-.3.3.1,0,.2,0,.4,0,.5,0,.9-.2,1.3-.5h1.1c-.2,0-.5,0-.6.2.3,0,.6,0,.8,0,.5,0,1,0,1.4-.3h.5c-.4.2-.8.4-1.2.4,0,.1,0,.2.1.2s0,0,.1,0c0,0,.1,0,.2,0s0,0,0,0c.3.3.7.4,1.1.4.6,0,1.3-.2,1.8-.4,0-.2-.2-.2-.1-.4,0,0-.2,0-.3,0-.2,0-.4,0-.6-.2h1.1c.4.4,1.1.6,1.7.6s.7,0,1-.2c-.2-.2-.9,0-1-.4,0,0,0,0,.1,0s.1,0,.2,0c0,0,.1,0,.2,0,.1,0,.3,0,.3,0,0,0,0,0,0-.1h.6c.3,0,.6.1.9.1s.2,0,.3,0v.2c-.5,0-.9,0-1.3,0,.4.4.8.8,1.3,1.2v.5c-.3-.8-1.1-1.3-2.2-1.3s-.3,0-.5,0c.3,1.1,1.4,1.7,2.5,1.7s0,0,.1,0c-.2-.3-.8-.2-1-.6.5,0,.8.2,1.1.4v.8c-.7-.4-1.6-.6-2.3-1,.2.2.5.6.8.6s.1,0,.2,0c0,1,.6,1.7,1.4,2v.2c-.1,0-.3,0-.4-.1,0,.2.3.2.4.5-.2,0-.1.3-.1.5,0,.2.1.3.2.5v2.3c0,.1,0,.2-.2.2s0,0,0,0c0,.6,0,1.1.2,1.6v.9s0,0-.1-.1c0,0,.2.3,0,.4-.3,0-.1-.5-.4-.6-.4,1.1,0,2,.5,2.8v.7c-.1-.6-.5-1.2-.9-1.6-.4,1-.5,2.1-.3,3M48.3,48.2h-.2c0-.2,0-.5.2-.5,0,.1,0,.3,0,.5M48.6,48.2h-.2c0-.2,0-.3.2-.4,0,.1,0,.3,0,.4M49,48.2h-.2c0-.2.1-.3.2-.5v.5M49,48.3h0s0,0,0,0c0,0,0,0,0,0M8.3,48.4s0,0,0-.1h.6c-.2,0-.4,0-.6.1M51.4,48.7c0-.1,0-.3-.1-.5h.2c0,.2,0,.4,0,.5M58.7,49.6c.4-.5.8-1,1.3-1.4h.3c-.6.4-1,1.2-1.6,1.4M66.1,50.5c.2.2.8.5,1.3.5s.2,0,.2,0c-.6,0-.9-.4-1.5-.4M64.3,54.6c.6-1.9,2-4.1,2.1-6.4h.3c0,.7-.2,1.4-.4,1.9.7.4,1.8.6,2.7,1,0,.2-.1.4-.2.5-.8-.4-1.8-.2-2.7-.8,0,.2-.2.4-.2.7.9.3,1.8.6,2.7.9,0,0,0,.2-.1.3-.9-.3-1.8-.6-2.6-.9-.5.9-.7,2.2-1.5,2.8M18.8,48.5c-.2,0-.3,0-.5.2.2,0,.5,0,.7-.1,0,0-.1,0-.2,0M17.2,49c-.3,0-.7,0-.9.3.3,0,.6-.1.9-.3M18.8,48.8c-.2,0-.2.1-.3.1,0,.2.1.2.2.3,0-.1.1-.3.1-.4h0M18.6,49.6s0,0,0,0c.2-.3-.2-.3-.1-.7,0,0,0,0,0,0,0,0,0,0-.1,0,0,0,0,0-.1,0s0,0,0,0c0,.3.4.3.4.5h0M15.6,49.6c-.5,0-1.1,0-1.3.4.5-.1,1-.2,1.3-.4M19.1,50.6c0,0,0,0,.1,0,0,0,0,0,.1,0s0,0,0,0c0-.4-.2-1.1-.4-1.4,0,.5,0,.9,0,1.3,0,0,0,0,0,0M23.2,48.6c.2,1.3,1.2,2.1,2.6,2.1.2,0,.4,0,.7,0-.9-.7-1.4-2.2-2.8-2.2s-.2,0-.3,0c.3.3.7.5.9.8-.5,0-.7-.4-1-.7M11,50.4c-.5.3-1.2.3-1.7.7.5-.2,1.5-.3,1.7-.7M20.9,49.1c.2.3.5.7.4,1.1.6,1.1,2,1.4,3.4,1.7-.5-1.6-2.2-2.4-3.7-2.8M19.8,51.9c0,.1-.2,0-.1.3h.2c0-.1,0-.3,0-.3M26.7,51.9c.5,0,1,.4,1.3.6-.5-1-1.7-1.8-3.5-1.8s0,0-.1,0c.1.6.9.5,1.3.8,0,0,0,0-.1,0-.1,0-.2,0-.4,0-.1,0-.3,0-.4,0s-.1,0-.1,0c.5.5,1.2,1,2.2,1s.5,0,.7,0c-.3-.2-.9-.2-1.2-.4,0,0,.2,0,.3,0M19.6,50.2c.2,1.6,1.6,1.9,3,2.3-.7-1.4-1.8-2.7-3.1-3.2.3.3.7.6.9.9-.4,0-.4-.4-.7-.4,0,.4.5.6.3.8-.2,0-.1-.4-.4-.4M16.7,52.1c-.5.1-.7.4-1.1.6.4-.1.7-.4,1.1-.6M24.6,52.8c.4,0,.8.3,1.2.5.4.3.7.5,1.1.5s0,0,0,0c-.3-.4-1.2-.6-1.3-.9h0c.1,0,.2,0,.4.2.1,0,.2.2.3.2s0,0,0,0c-1-1-2.8-1.2-4.2-1.8.5,1.1,1.5,2.3,3,2.3s.6,0,.9-.1c-.6-.2-1-.6-1.5-.8,0,0,0,0,.1,0M20.7,52.2c.1,1.6,1.3,2.6,3,2.6s.5,0,.7,0c-.6-.8-1.2-1.7-2.4-2-.3,0-1.2,0-1.2-.4h0c.1,0,.3,0,.4.1.1,0,.3.1.4.1s.1,0,.2,0c-.4,0-.7-.2-1.1-.3M16.4,53.3c-1.3.5-2.5,1.2-3.6,1.9,1.2-.5,2.8-1.4,3.6-1.9M19.1,56.6c0,.3-.7.4-.6.7.1-.2.7-.4.6-.7M16.8,58.2c0,0-.1.1-.2.2.1,0,.2-.1.2-.2M17.8,57.8c-.1.2-.8.5-.5.7,0-.3.6-.4.5-.7M16.4,58.7c0,0,.1-.1.2-.2,0,0,0,0,0,0s0,0,0,0c.2-.3.5-.4.7-.7,0,0,0,.2,0,.2,0-.3.6-.4.5-.6-.2.1-.3.3-.5.4.8-.7,1.7-1.7,2.6-2.1,0,0-.3.3-.3.3s0,0,0,0c.6-.6,1.8-1,2-1.7-.6.3-1,1.1-1.6,1.2.4-.4,1-.7,1.3-1.2-1.5,1-3.4,2.4-4.7,3.8.1,0,.3-.3.4-.3s0,0,0,0c-.4.4-.8.7-1.2,1-.2,0-.4,0-.5,0,1.9-1.6,3.8-3.1,5.6-4.8-.2-.4-.4-.7-.5-1.2-.4.3.2.6.1,1-.3-.4-.7-1-.4-1.7-.6.8.4,1.6.4,2.1-.2,0-.1-.3-.3-.3,0,.1,0,.2.1.3-.6-.1-.4-1.5-.9-2-2.1,1.1-4.3,2.1-6.3,3.1-.6.3-1.2.6-1.8.9,0,0-.2-.2-.2-.3.5-.3,1-.6,1.5-.9-.5.2-1.2.5-1.7.6,0,0,0,0,0,0,.8-.4,1.5-.8,2.4-1.1,0,0-.1.2,0,.2,1.4-.8,3-1.5,4.6-2.2.7-.3,1.4-.4,1.9-.9-.9,0-1.9,1-2.9,1,0,0,0,0,0,0,.9-.4,2.2-.8,2.6-1.4-.3.2-1,.5-1.3.5.4-.3,1.1-.4,1.3-.8-.8.3-1.6.6-2.2,1.1,0,0,0-.1,0-.1s-.1,0-.2,0c-.1,0,0,0,0,.1-1.3.8-2.7,1.5-4.3,2,0,0,0,.1,0,.1s.1,0,.2,0c0,0,.1,0,.2,0s0,0,0,0c-.9.4-1.7.9-2.6,1.4,0-.1-.2-.2-.2-.4,2.8-1.4,5.5-2.9,8.4-4.2-.3-.3,0-.7-.2-1.1-.2.3,0,.8,0,1-.5-.1-.5-1.3-1.1-1.5-2.7.8-5.5,2.1-8.4,3.1,0-.1,0-.3-.1-.4,1.7-.6,3.4-1.2,5-1.8-.1,0-.3,0-.4,0s-.2,0-.3,0c0,0-.2,0-.3,0h0c1.4-.5,3.2-.8,4.7-1.3.3,0,.7-.2.7-.4h-.1c-1.4.7-3.1.4-4.6,1.1-.6.6-2.1.9-3,1.5-.6,0-1.2.3-1.8.6,0-.1,0-.3-.1-.4,2.6-.8,5.1-1.7,7.6-2.7h.6c-.3,0-.5.2-.6.4.3-.2.8-.2,1.1-.4h1.2c.5.6,1.2,1.1,1.9,1.5,0-.4-.4-.3-.4-.7,0,0,0,0,0,0,.3,0,.2.3.4.4-.2-.4-.4-.8-.6-1.1h.3c.2.3.4.6.6.8.5,0,.9.4,1.5.4.2.1.6.6.8.6s0,0,0,0c-.3-.6-1.3-1.1-1.8-1.7h.2c.5.2.9.7,1.3,1,0-.5-.3-.8-.5-1h1.1c.5.2,1.1.3,1.5.4,0-.1-.2-.2-.3-.4h.2c.2.2.5.4.6.7.6.2,1.3.2,1.8.4-.2-.4-.4-.8-.7-1.2h.6c.3.1.6.2.9.2v.2c-.1,0-.3,0-.5,0h0c-.1,0-.3,0-.4,0,.1.5.4.9.9,1.1v.3c-.5-.4-1.2-.7-2-.7.2.4.7.4.9.8-.7-.1-1-.6-1.5-.9.4,1.1,1.2,1.8,2.5,1.8s0,0,0,0v.2c0,0-.2,0-.3,0,0,0,.2.1.3.2v.2c-.3-.1-.5-.3-.8-.4,0,.2.1.4.3.4,0,0,0-.1,0-.1.2,0,.5.3.3.3,0,0,0,0,0,0,0,0,0,0-.1,0,0,0,0,0-.1,0s0,0,0,0c.1.2.3.3.4.4v.6c-.4-.1-.8-.2-1.2-.2s-.5,0-.8,0c.1.6.9.5,1.2.9,0,0,0,0,0,0,0,0-.1,0-.2,0,0,0,0,0-.1,0s0,0,0,0c0,.1.2.2.4.3-.1,0-.2.1-.3.2-.2-.1-.4-.2-.7-.2,0,0-.2,0-.3,0-.2,0-.5,0-.7,0-.2,0-.5,0-.7,0s-.5,0-.7-.2c.3.3.7.9,1.3,1.3-.1,0-.3.2-.4.2-.3-.2-.5-.3-.9-.3s-.3,0-.5,0c.3,0,.8.3.7.4-.3,0-.4-.3-.8-.3s0,0,0,0c0,.3.4.4.5.6,0,0,0,0-.1,0,0,0-.1,0-.1,0s0,0,0,0c0,0,0,0,0,.1,0,0-.1,0-.2.1-.2-.5-.5-.9-1-1.3.3.4.4,1,.7,1.4,0,0,0,0,0,0-.1-.1-.2-.3-.4-.4,0,.2.2.3.3.5,0,0-.1,0-.2,0-.4-.4-.5-1-.5-1.8,0,0,0,0-.1,0-.2,0-.3.4-.5.4,0,.2.5.1.5.4,0,.1-.2.2-.3.2-.2,0-.4-.1-.5-.2-1.1,1-2.4,2.1-3.8,3.2-.4,0-.7,0-1.1,0M51.1,61.6c-.5-.3-.9-.6-1.3-.9-.3-.3-.5-.7-.8-1v-.5s0,0,.1,0,0,0,0,0c0,0-.1,0-.2-.2v-.4c.1.2.3.3.5.5,0,0,0,0,0,0s0,0,0,0c.2.2,0,.4.3.8.1.2.6.5.9.9.2.2.3.5.4.7M60.7,49.2c0,0,.2,0,.3,0,.1,0,.2,0,.3,0s.2,0,.2-.2c0,0,0,0-.1,0-.1,0-.2,0-.3,0,0,0-.2,0-.3,0s-.1,0-.2.1c0,0,0,0,0,0M63,50.9c0,0-.1,0-.1,0,.2.2,0,1,.1,1.2.1-.4.2-.8.3-1.2,0,0-.2,0-.3,0M61.3,52.1c0,.3-.2.6,0,.8,0-.3.3-.8,0-.8M60.1,50c-.4.7-.8,1.4-1.1,2.2.6.3,1.2.6,1.9.9.3-.8,0-2.1.3-2.8-.4,0-.7-.2-1.1-.3M62.5,50.8c0,.9-.2,1.9,0,2.6.4-.6.3-1.7.3-2.6h-.2M60.7,53.2s0,0,0,0c.2,0,.5.3.7.3s0,0,.1,0c-.1,0-.6-.3-.8-.3M62,50.7c.2,1-.5,2.7.2,2.9-.3-.8.2-1.7,0-2.9-.2,0-.5-.3-.8-.3s-.1,0-.2,0c.6.6,0,2.1.3,2.9.5-.3,0-2.2.4-2.6M60,54s0,0,0,0,0,0,0,0h0M60,53.8c.5.3,1,.6,1.6.8-.5-.4-1-.5-1.1-1,0,0,0,0,0,0,0,0,0,0,0,0,0,0,0,0,0,0s0,0,0,0c-.3-.3-.5-.7-.9-.7,0,.3.4.2.4.4-.6,0-1-.6-1.4-.7,0,.6.7.4.8.9,0,0,0,0,0,0-.2,0-.3,0-.4-.2-.1,0-.2-.2-.3-.2s0,0-.1,0c.5.1.9.8,1.4.8,0,0-.2-.2,0-.2M61.1,54.8s0,0,0,0c0,.2,0,.4,0,.5h0c.3,0,.2-.3.3-.4,0,0,0,0,0,0,0,0,0,0-.1,0,0,0,0,0-.1,0M58.6,53.8c-.2,1.5.1,2.8.3,4,1-.7,1.9-1.5,2-3.1-.8-.3-1.4-.8-2.3-.9M59.7,57.8c-.2.2-.4.4-.7.6,0,0,0,0,0,0,.3,0,.6-.4.6-.6M59.4,60.7h0v.6h0c.2,0,.3-.1.3-.3,0-.1-.1-.3-.3-.3M59.3,63.7c.2-2.3-.5-4.8-.8-6.9-.5-3.2.5-5.5,1.8-7.4.2-.3.6-.6.6-1-.6.3-1.1,1.1-1.5,1.4.2-.8.9-1.1,1.3-1.6h.5c0,.2.1.4.3.5,0-.2,0-.3,0-.5h.2c0,.3.2.6.5.7,0-.2,0-.5,0-.7h.2s0,0,0,0c0,.3-.1.8.3.8s0,0,0,0c0-.2,0-.5,0-.8h.2c0,.3,0,.6.2.9.2-.2,0-.6,0-.9h.2c.1.3-.1.8.2,1,0-.4,0-.7,0-1h.2c0,.5-.1,1.3.1,1.6,0,0,0,0,0,0,0,0-.2,0-.2,0,0,0-.1,0-.2,0s0,0,0,0c0,0,.1,0,.1.1,0,0-.2,0-.3,0-.3,0-.7-.1-1-.3-.3-.1-.7-.3-1-.3s-.3,0-.5.1c0,0,0,0,.1,0,.3,0,.6,0,.6.3,0,0,0,0,0,0-.1,0-.2,0-.3,0-.1,0-.2,0-.3,0s-.2,0-.2.2c1.3.1,2.1.7,3.2.9,0-.2.2-.4.2-.6,0,0-.3,0-.3-.2h.4c.2-.6.4-1.1.5-1.8h.2c-.5,3.4-2.2,6.1-3.9,8.4.1,0,.2-.1.2-.2.1.3-.4.5-.5.7.6-.3.8-.8,1.4-1.1-.9.9-1.6,1.6-2.4,2.6.6-.4,1.1-.9,1.7-1.4-.2.7-1.5,1.2-1.7,1.8.7-.5,1.5-1.5,2.4-2-.6,1-2,1.5-2.3,2.6.6-.2,1-1.1,1.8-1.3-.4.5-.9.7-1.3,1.2.4-.1,1-.6,1.5-.9-.4.7-.6,1.7-1,2.6-.2-.5.5-1.3.6-1.9,0,0,0,0,0,0-.2,0-.6.2-.7.4,0,0,0,.1,0,.1s0,0,0-.1c0,0,0-.1.2-.1s0,0,0,0c-.4.7-.5,1.7-1.1,2.3,0,0,0,0,0,0,0,0,0,0,.1-.1,0,0,0-.1.2-.1s0,0,0,0c0,.3-.3.3-.3.7,0,0,0,0,0,0,0,0,.2-.2.2-.2.2.3-.3.4-.3.7,0,0,0,0,0,0,.1,0,.2,0,.2-.1.2.2-.3.4-.3.7.2,0,.3-.2.4-.4.2.2-.2.4-.3.6-.1,0-.2,0-.3,0M55.7,48.4s0,0,0,0c-.3.8-.9,1.2-.9,2.1.7,0,1.1.5,1.8.7.2-.9.8-1.3,1-2.2-.7-.1-1.3-.6-1.9-.6M55.5,51s0,0,0,0c.3,0,.7.5,1.1.5s0,0,.1,0c-.3-.1-.8-.4-1.1-.4M54.7,50.8c0,.2-.2.4-.2.7.6.5,1,.4,1.8.7,0-.3-.9-.3-.7-.6,0,0,0,0,0,0,.2,0,.3,0,.4.2.1,0,.2.2.3.2s0,0,0,0c0-.3-.1-.3-.3-.3h0c0,0-.1,0-.2,0-.5-.2-.8-.6-1.2-.8M50.4,49.6c-1.3,1.1-.7,2.8-1.1,4.3.9-.1.4-1.4.9-2,0,.6-.3,1.1-.1,1.4.9-.7.8-2.6.3-3.7M52.1,50.9c-1,.8-.2,2.8-.7,4.1.3-.1.6-.3.7-.5,0,0,0,0,0,0,0,0-.1,0-.2.1,0,0,0,.1-.1.1s0,0,0,0c.2-.3.2-.7.6-.8,0,.1-.3.3,0,.4,1.5-.9,1.1-2.9.7-4.7-.6.8-.5,2-.4,2.8-.3-.3-.3-1.1-.3-1.5M51.2,55.2c0,.1-.2.2-.1.4.3,0,1-.3.7-.5,0,.1-.2.1-.4.1s-.1,0-.2,0M54.4,51.7c-.2.3-.5.6-.9.7,0,.4-.2.7-.3.9,1.1.9,2.1,1.8,3.2,2.7-.2-1-.3-2.5,0-3.6-.7,0-1.3-.6-2-.8M55.5,55.5c.2.4.6.6,1,.9-.2-.4-.7-.6-1-.9M52.8,54.2c1.3,1.1,2.5,2,3.8,2.9,0-.8-1.5-.9-1.2-1.6-.6-.4-1.1-1.3-1.9-1.3-.2-.1-.2-.4-.3-.6-.3.1-.5.4-.7.7.7.3,1.3,1.2,1.9,1.4-.5-.5-1.4-1-1.6-1.5M50.8,56.6c0,.2.2.5.4.5s0,0,0,0c-.2,0-.2-.4-.4-.4M55,56.3s0,0,0,0c.7.3,1.1,1.2,1.8,1.3-.5-.5-1.1-1.3-1.8-1.3M53,58s0,0,0,0c.2.3.5.5.7.7,0,0,0,0,0,0,0,0,0-.2-.2-.4-.1-.2-.3-.4-.4-.4M53.1,59.2c.1.3.6.7.7.7-.2-.3-.4-.5-.7-.7M52.5,54.7c-.2.6-.8.8-1.3,1,1.6,1.4,2.7,3.2,4.4,4.5.4-.6,1.7-.6,1.5-1.6-1.4-1.4-2.9-2.7-4.5-3.9M54.2,59.2c.2.6.5,1,1.1,1.2-.3-.5-.8-.8-1.1-1.2M54.4,60.6s0,0,0,0c0,.2,0,.3.2.3s0,0,0,0c-.1,0,0-.2-.2-.2M49.5,59c.9.7,1.4,2.5,2.5,2.6-.7-.9-1.5-2.1-2.5-2.6M50.4,56.8c-.3.5-1,.5-1.5.9.5.6.8,1.4,1.7,1.7.6,1.1,1.4,2,2.1,3,.4-.5,1.1-.8,1.5-1.3-1.2-1.5-2.4-2.9-3.8-4.2M56.3,62.6s0,0-.1,0c0,0,.1,0,.1,0M57.4,61.7c-.1.1-.2.2-.4.3.1.3.4.6.7.8,0-.2,0-1-.3-1.1M56.8,62.3c0,0-.1,0-.2,0,.4.1.5.6.9.7,0-.3-.4-.8-.7-.8M57.7,63.1c-.2,0-.4.4-.4.4,0-.2.3,0,.4-.3,0,0,0,0,0-.1h0M57.7,63.9h0c0,0,0-.2,0-.3,0,0-.1.2-.2.2-.2,0-.4,0-.6,0,0,0,0,0,0,0-.2-.4-.7-.5-.7-1.1,0,0,0,0,0,0,0,0,0,0,0,0h0c-.4.2-.7.5-1.1.8-.1,0-.2,0-.3-.1.7-.5,1.4-1,2-1.5.2-.1,1-.3.6-.8-.4.2-1,1.2-1.7,1.3.6-.7,1-1.1,1.7-1.6,0-.3-.1-.6-.2-.9-.6.4-1.1,1-1.8,1.2.4-.8,1.5-.9,1.8-1.8,0,0,0,0-.1,0s0,0,0,0c-.5.6-1.3.9-2,1.4-.6.4-1.1.9-1.6,1.4-.2.2-.4.3-.5.5-.4-.2-.8-.4-1.2-.6,0,0,0,0,0,0h0s0,0,0,0c-.1-.1-.3-.2-.4-.4-.3-.3-.6-.8-.7-1.1-.3-.7-.9-1.1-1.2-1.8,0,0,.1-.1,0-.2,0-.2-.2-.3-.3-.4v-.7c.5,0,.9-.2,1.2-.5,0,0,0,0,0,0-.1,0-.2,0-.4.2s-.3.2-.4.2-.2,0-.2,0c.6-.2,1.4-.5,1.7-.9.4.8,1.2,1.2,1.6,2,0,0,0,0,0,0,.1,0,.1-.1.2-.1.2.3.4.6.3.9,0,0,0,0,0,0,0,0,0,0,0-.2,0,0,0-.2,0-.2s0,0,0,0c.7.6,1.2,1.5,1.9,2-.7-1.1-1.9-2.1-2.4-3.2,0,0,0,0,0,0s0,0,0,0c-.2-.1-.6-.1-.4-.5h0s0,0-.1,0c0-.3-.5-.6-.6-.6s0,0,0,0c.2.2.3.5.5.6-.4-.2-.9-.8-1-1.1,0,0,0,0,0,0,0,0,0,0,0,0,0,0,0,0,0,0s0,0,0,0c-.2,0-.1-.3-.3-.3s0,0,0,0c-.3.5-.9,1.1-1.5,1.1s-.1,0-.2,0c1.3-.2,1.6-1.5,2.3-2.3,0-.7,0-1.3-.1-1.9,0,.3,0,.7-.3.7-.1-.3.3-.5,0-.7-.1,0,0,.3-.2.3s0,0,0,0c0-.2.2-.4,0-.5-.2.9-.7,1.6-1.1,2.3,0,0,0-.2-.1-.2-.2.7-.3,1.6-.6,2.3v-.9c.1-.6.3-1.2.5-1.7h-.2c0,.2-.1.3-.2.5v-.4c.3-.6.4-1.3.2-2.1,0,0-.1.2-.2.3v-.7c.2-.4.2-1,.5-1.1,0-.5.6-.6.3-1,0,.1,0,.2-.1.2,0-.3-.1-.5,0-.9h0c-.4,0-.4-.4-.4-.7h.5c0,.4.2.8.5,1.1.1-.3,0-.7,0-1.1h.2c.1.3.2.7,0,1,.3-.2.5-.6.5-1h.2c-.7.9,0,2.7,0,3.7,1.3-.9,1.1-2.4.6-3.7h.1c0,.4.3.7.6,1,0-.3,0-.6,0-1h.2c.1.7.1,1.3,0,1.8.4-.5.6-1.1.6-1.8h.6c0,.5,0,1.1,0,1.5-.4-.4,0-1-.2-1.5-.7,1.2,0,2.6,0,3.9,1.3-.6,1.4-2.5.9-3.9h.2c.1.3.3.7.5,1,0-.2-.3-.7.1-.9,0,.2,0,.5,0,.6,0-.2.1-.4.2-.6h1.4c.2,0,.4.1.6.3,0,0,0,0,0,0,0,0-.1,0-.2,0,0,0,0,0-.1,0s0,0,0,0c.3,0,.5.3.8.4,0-.3.4-.4.5-.7h.3c-1.3,1.4-2.1,3.3-2.1,6,0,.2.2.1.2.3-.2,3.1,1.2,5.9,1.3,9.4,0,0-.2,0-.3,0"/>
    <path class="st3" d="M28.3,26v-.4c0,0,.1-.1.2-.2,0,.2-.1.4-.2.6M49,27.8c0,0-.2-.1-.2-.3,0,0,.1,0,.2,0v.2M49,30.1c-.1,0-.3-.1-.4-.2,0,0,.1,0,.2,0s.2,0,.2,0v.2M49,32.3c-.4,0-.9,0-1.1-.3,0,0,.2,0,.3,0s.3,0,.4,0c.1,0,.2,0,.3,0s0,0,0,0v.2M44.3,32.5h-.6c0,0-.1,0-.2-.1,0,0,.1,0,.2,0,.1,0,.2,0,.3,0,0,0,.2,0,.3,0M36.8,22.9c0,0,.1,0,.2,0,0,.3-.5.3-.6.5,0,0,0,0,.1,0,1.8,0,2.7-.9,3.6-1.8-.1,0-.2,0-.3,0-.9,0-1.4.7-2.1.7.3-.6,1.5-1,2.4-1s.8,0,1,.2c.3,0,.6-.1.7-.3-.7-.2-1.3-.3-2-.3-1.4,0-2.7.5-3.4,1.5-.5.2-.8.6-1.2.9,0,0,.1,0,.2,0,.2,0,.4-.1.6-.2.2-.1.4-.2.6-.2M40.4,23.2c0,.2,0,.3.1.3s0,0,0,0v-.3h-.2M39.6,22.9c-.4,0-.8.2-1,.5.3,0,.6.2.9.2s.1,0,.2,0c0-.4.3-.5.4-.6-.2,0-.3-.1-.5-.1M37.8,23.6s0,0,0,0c0,0,0,0,0,0M28.8,23c0,.3.2.5.3.7,0-.4-.1-.5-.3-.7M40.1,23.8c.4,0,.7.1,1,.2,0-.3-.4-.4-.7-.4s-.4,0-.6.2c0,0,.2,0,.3,0M41.5,23.3c-.2,0-.4,0-.6,0,.3.5,1,.5,1.4.9.4-.2.6-.5.7-1-.2,0-.3,0-.5,0s-.3,0-.5,0-.3,0-.5,0M40.2,24.8s0,0,.1,0c-.2.5-.9.4-1.2.6.1,0,.3,0,.4,0,.9,0,1.7-.5,2.2-1,0,0,0,0-.2,0s0,0,0,0h0c0,0-.2,0-.2,0,0-.1.3,0,.3-.1-.2,0-.3,0-.4,0-.3,0-.5,0-.7,0s-.4,0-.6,0-.3,0-.5,0c0-.2.4-.1.4-.4-1,.2-1.5.9-2.1,1.5.7,0,1.4-.5,1.9-.5h0c0,.3-.5.2-.5.4,0,0,0,0,0,0,.2,0,.4,0,.5-.2.2,0,.3-.2.5-.2M35.6,25.1c.1,0,.2,0,.2.1-.2,0-.3.2-.4.4,1.6,0,2.6-1.1,3.5-2,0,0-.1,0-.2,0-.4,0-.8.3-1.2.5-.4.3-.7.5-1.1.5h0c.4-.4,1.1-.7,1.3-1.1,0,0,0,0,0,0s0,0-.1,0c0,0,0,0-.1,0s0,0,0,0c0,.2-.5.6-.9.6s-.1,0-.2,0c.1-.2.5-.2.6-.4,0,0,0,0,0,0-.9,0-.9.8-1.3,1.3h0M32.8,22.3c-1.8.5-2.8,2.1-3.2,3.7,1.4-.8,2.7-1.8,3.4-3.4-.6,0-.8.9-1.2.9s0,0,0,0c.2-.5,1-.9,1.1-1.2M44.3,26.3c0,0,.1,0,.2,0,0,0,.1,0,.2,0s0,0,0-.1c0,0-.1,0-.2,0s-.2,0-.2,0c0,0,0,0,0,0M33,25.9s0,0,0,0c-.2.5-.7.3-.9.8,1.5-.8,3.2-1.5,3.9-3.1-.8,0-.9.7-1.5.9,0-.4.4-.4.4-.7,0,0,0,0-.1,0-.2,0-.3,0-.4.1-.1,0-.2.1-.4.1s0,0,0,0c-.3.8-.9,1.2-1.2,1.9,0,0,0,0,0,0,0,0,0,0,.1,0,0,0,0,0,.1,0M31.8,27.2c-.2,0-.5.1-.6.4,0,0,0,0,0,0,.3,0,.4-.2.5-.4M38,26.9s0,0,.1,0c0,.4-.5.3-.7.6.1,0,.2,0,.3,0,1.3,0,2.2-.8,2.9-1.5,0,0-.1,0-.2,0-.3,0-.6.2-.9.3-.3.2-.5.3-.8.3h0c.4-.4.9-.7,1.5-.9-.1,0-.5-.1-.6-.1s0,0,0,0c0,0,.1,0,.1,0,0,.1-.2.1-.4.1-.2-.1.1-.2-.1-.2h0s0,0-.1,0c-1.2,0-1.6.9-2.1,1.6,0,0,0,0,0,0,.2,0,.3-.1.4-.2.1-.1.2-.2.3-.2M40.4,26.9s0,0,.1,0c-.2.2-.5.2-.7.4.2,0,.5,0,.7,0,.9,0,1.8-.4,2.2-1,0,0,0,0-.1,0-.1,0-.2,0-.3,0,0,0-.2,0-.3,0s-.1,0-.2,0c.1-.3.8-.1.9-.4-.2,0-.4,0-.6,0-.9,0-1.8.2-2.2.9,0,0,0,0,0,0,0,0,0,0,.2,0,0,0,.1,0,.2,0M42.8,27.4c0,0,.1,0,.2,0,0,0-.1,0-.1.1.3.1.7.2,1.1.2.6,0,1.2-.1,1.3-.5-.2,0-.6.1-.9.1s-.2,0-.3,0c.3-.3,1-.2,1.6-.2-.2-.4-.9-.6-1.5-.6s-1.5.3-1.6.8c0,0,0,0,0,0s0,0,.1,0c0,0,0,0,.1,0M37.5,25.6c-1.5,0-1.7,1.4-2.4,2.2.1,0,.2,0,.4,0,1.2,0,2.1-1.2,2.5-2-.5,0-.8.7-1.2.7s0,0,0,0c.1-.5.7-.6.9-.9,0,0-.1,0-.2,0M32.1,24.5c0,.2-.1.2,0,.4-1.2.4-1.3,1.9-1.9,2.9,1.3-.7,2.4-1.5,2.9-2.9-1.1.1-1.4,1.3-2,1.8.3-1,1-1.6,1.6-2.3,1.5-.4,2.6-1.4,3.6-2.3-.1,0-.2,0-.3,0-.2,0-.4,0-.5-.2,0,0,.1-.1.2-.1s.1,0,.2,0c0,0,.1,0,.2,0,.1,0,.2,0,.3-.2-.2,0-.3,0-.5,0-1.9,0-2.5,1.3-3.3,2.4.1.3,0,.3,0,.6-.1,0-.2,0-.2,0s0,0-.1,0M33.7,27.7s0,0,.1,0c-.2.5-.8.9-.9,1.2.7-.9,2.5-1.1,2.5-2.4-.1.1-.2.5-.4.5s0,0,0,0c0-.5.7-.7.7-.9-1.1.3-2.1,1-2.1,2.2,0-.1.2-.5.3-.5M46,27.6c-.7,0-1.4.2-1.9.6.8.4,1.6.8,2.4.8s.7,0,1.2-.3c-.3-.4-1.3-.1-1.7-.4.2-.2.5,0,.7-.2-.2,0-.2-.2,0-.2.2,0,.9.2.5.4.2,0,.4,0,.5.1-.3-.7-1-.9-1.7-.9M38.9,27.6c-1.3,0-1.7.9-2.3,1.7,1.4,0,2.6-.3,3.1-1.3,0,0,0,0,0,0-.3,0-.6.1-.8.3-.2.1-.4.3-.6.3s0,0,0,0c.3-.5,1-.6,1.5-.9-.5,0-1,.4-1.3.4s0,0,0,0c.1-.2.4-.3.6-.4M41.1,27.7c-1.4.1-1.6,1.4-2.8,1.7,0,0,0,0,0,0,.5,0,1-.3,1.5-.4,0,0,0,0,.1,0,.1,0,.3,0,.4,0,.1,0,.3,0,.4,0s.2,0,.4,0c.7-.3,1.1-1.1,1.9-1.1,0,0-.1,0-.2,0-.7,0-1.4.5-1.9.7.3-.7,1-.6,1.5-.9,0,0-.2,0-.3,0-.2,0-.4,0-.6.2-.2,0-.4.2-.6.2s0,0-.1,0c0-.1.3,0,.2-.3M42.2,29.4c0,0,.1,0,.2,0,.4,0,.7.3,1.1.3s.2,0,.3,0c.3-.3.9-.3,1.3-.6-.1-.1-.3-.1-.5-.1s-.5,0-.7.1c-.2,0-.4.1-.6.1s0,0-.1,0c.2-.3.9-.2,1.2-.5-.2,0-.4.1-.6.1s-.2,0-.2-.1c0-.2.3,0,.4-.2-.2,0-.4,0-.6,0-1,0-1.5.8-2.4,1,.1.2.3.2.5.2s.3,0,.4,0c.1,0,.3,0,.4,0M31.8,28.5c0,.7-.8.8-.7,1.2.5-.6,1.2-.8,1.8-1.2.1-.6.5-1.4.7-1.8-.4.2-.6.7-1,.9.1-.5.5-.8.8-1.1-.2,0-.5,0-.6.2.2.1,0,.3-.2.4-.1-.1,0-.1,0-.3-.8.4-1.4,1.3-1.4,2.3.2-.2.2-.6.5-.7M35.7,28c-.9.2-1.1,1.6-1.4,2.1.8-.4,1.8-.5,2.3-1.1.1-.6.6-.9.9-1.3-.9,0-1,.8-1.8,1.1.1-.5,1.1-.9.9-1.1-.6,0-.8.6-1.2.8,0-.2.5-.5.1-.5M44,30h0c0,0,0,.2.2.3.7.3,1.3.5,2.2.5s.7,0,1,0c0-.2-.3-.3-.6-.3s-.1,0-.2,0c0,0-.1,0-.2,0-.2,0-.4,0-.5-.2,0,0,.1,0,.2,0,0,0,.2,0,.3,0,.1,0,.2,0,.3,0,.2,0,.3,0,.4,0-.2,0-.2-.2-.4-.3,0,.1-.1.2-.3.2-.2,0-.5-.1-.6-.2,0,0,0,0,.1,0s.1,0,.2,0c0,0,.1,0,.2,0s.1,0,.2,0c-.3-.2-.8-.3-1.2-.3-.7,0-1.5.3-2,.5,0,.2.1.3.2.3s.2,0,.2,0c0,0,.1,0,.1,0M37.6,30.7s0,0,.1,0c0,.2-.3.2-.4.4.2,0,.3,0,.5,0,1.5,0,2-1.1,2.9-1.7-.1,0-.2,0-.3,0-.6,0-1,.5-1.5.8,0-.5.8-.6.7-.9,0,0,0,0-.2,0s0,0,0,0c0,0,0,0,0,0,0,0-.2,0-.3,0,0,0,0,0,0,.1-.1,0-.3.1-.4.1s-.1,0-.2-.1c0,0,0,0,0,0,.2,0,.3,0,.3-.1-.8.2-1.3.8-1.8,1.4,0,0,0,0,0,0,0,0,.1,0,.2-.1,0,0,.1-.1.2-.1M41.8,29.6c-1.3,0-1.9,1.1-2.9,1.6.3,0,.6-.1.9-.1s.4,0,.6,0c.2,0,.4,0,.6,0,.4,0,.7,0,1-.2.5-.2.5-.7,1.1-.9-.1,0-.3,0-.4,0-.2,0-.5,0-.7.2-.2,0-.4.2-.6.2s-.1,0-.2,0c.4-.2.9-.4,1.4-.5-.3-.1-.6-.2-.9-.2M32.9,31s0,0,.1,0c0,.2-.3.1-.4.3,0,0,0,0,0,0,.5,0,.6-.7.6-.8.3-.4.8-.7,1-1.2.2-.5.1-1.1.7-1.4-.7.2-.8.9-1.4,1.2,0-.5.7-.8.7-1.1-.7.2-.6.8-1.2,1,0-.2.2-.3,0-.3-.6.5-.3,1.8-.8,2.3h0c.1,0,.2,0,.3-.1,0,0,.2-.1.2-.1M38.9,31.3c0,0-.2,0-.3.1,0,0,.2,0,.3-.1M31,27.7c-1.5.5-1.6,2.3-2,3.9.9-1,2.3-1.8,2.2-3.6-.3.3-.3.8-.7,1,0-.5.4-.8.6-1.2M43.9,30.4c-.8,0-1.4.6-2,.9.8.1,1.4.4,2,.4s.2,0,.3,0c.4,0,.9-.4,1.4-.4s.1,0,.2,0c-.1-.2-.4-.2-.7-.2s-.1,0-.2,0c0,0-.1,0-.2,0-.2,0-.4,0-.5,0,.2-.1.6,0,.7-.2,0,0-.2,0-.4,0s-.1,0-.2,0c0,0-.1,0-.2,0-.2,0-.3,0-.4,0,0-.3.4,0,.4-.2-.2,0-.3,0-.4,0M37.2,29.4c-1.4,0-1.7,1.7-2.4,2.6.5-.3,1.2-.3,1.7-.7.7-.5,1-1.4,1.7-1.8,0,0-.2,0-.2,0-.6,0-.7.8-1.3.8.2-.4.5-.7.9-.9-.1,0-.2,0-.3,0M31,31.6c0,.3-.2.5-.3.7,1-.6,2.1-1.9,1.8-3.3-.5.5-.4,1.5-1.1,1.8.3-.5.4-1.3.8-1.7-1.2.4-1.9,1.5-1.7,3,.2-.2.2-.5.4-.5M47.8,32.5h-.6c-.3-.2-.9,0-.9-.5,0,0,0,0,.1,0,0,0,.1,0,.2,0,0,0,.1,0,.2,0s0,0,0,0c-.3-.3-.7-.4-1-.4s-1.1.2-1.7.4c.1,0,.1,0,.2,0s0,0,.2,0c0,.2.2.3.4.5h-.5s0,0,0,0c-.3-.2-.6-.3-.8-.3s-.7.2-1,.3h-.5c.3-.1.5-.3.6-.5h0c0,0-.1,0-.2,0,0,0-.2,0-.2,0s-.2,0-.2-.1c.4,0-.2-.3.1-.4,0,0,0,0-.1,0s-.2,0-.3,0c0,0-.2,0-.3,0-.2,0-.3,0-.2,0,0,0,0,0,0,0,0,0,0,0,0,0,0,0,0,0,0,0,0,0,.1,0,.1.2,0,0,0,0,0,0,0,0-.1,0-.2,0,0,0-.1,0-.2,0s0,0,0,0c0-.1,0-.2,0-.2-.6,0-.9.4-1.2.7h0c.1,0,.2,0,.4,0,.1,0,.2,0,.3,0s.1,0,.2,0c0,.2-.2.2-.4.2h-1.1c.6-.4,1.1-1,1.9-1.1,0,0,0,0-.1,0,0,0-.1,0-.2,0,0,0-.1,0-.2,0-.1,0-.3,0-.4,0,0,0,0,.2,0,.2,0,0-.4-.2-.6-.2s-.4,0-.3.2c-.1,0-.2,0-.3,0-.2,0-.4,0-.5.2-.2,0-.3.2-.4.2s-.1,0-.2,0c-.2.2-.3.5-.4.8h-.2c.1-.2.2-.4.2-.7,0,0,.6-.4.3-.4-.5.3-.8,1-1.3,1.1.3-.4.7-.7,1-1.1-.7.3-1.6.5-1.9,1.1h-.3c0-.2.2-.4.3-.5h0c-.5,0-.8.3-1,.5h-.9c.6-.5,1.1-1.3,1.7-1.9-.1-.4.3-.5,0-.7-.5.2-.6,1-1.1,1s0,0,0,0c.2-.3.4-.6.7-.9-.2,0-.3.1-.5.1,0,.3-.5.9-.7.9h0c.1-.4.4-.5.7-.8-.9.4-1.2,1.4-1.5,2.3h-.2c0-.3.1-.5,0-.8-.2.2-.2.6-.5.7,0-.2.2-.5,0-.5-.1.1-.2.4-.4.4.1-.5.5-.6.7-1-.7,0-1.2.6-1.4,1.2h-1c0-.1,0-.3.1-.4,0-.4,0-.8,0-1.5-.2.3-.2.8-.5,1.1,0-.4,0-.7.2-.9-.5.2-.6,1-.7,1.7h-.2c0-.2,0-.4,0-.6-.2.2-.3.4-.4.6h-.4v-.3c.6-.6.7-1.9.8-2.9-.3.4-.4.9-.7,1.4-.3-.5.6-1.1.3-1.4,0,.1-.1.3-.4.3.1.2.1.4,0,.5v-.7c0,0,.1,0,.2-.1,0,0-.1,0-.2,0v-.2c1.1-.6,1.9-1.7,2-3-.4.2-.5.8-.8.8s0,0-.1,0c.1-.4.5-.6.8-.9-1.1,0-1,1.3-1.8,1.6,0-.3.5-.4.3-.7-.2,0-.4.3-.5.4v-.5c.7-.7,1.4-1.5,1.5-2.5-.1.3-.1.7-.5.7.3-.6.3-1,.4-1.3-.5.3-1,.6-1.3,1.1v-1.3s0,0,0,0c0,0,0,0,0,0v-.5c.1.4.2.8.5,1,0-.5-.5-.9-.4-1.4.1,0,0,.3.2.3-.1-.4-.2-.7-.4-1.1v-.6c.2.5.5,1,.8,1.5,0,.3.2.5.3.8.5-.3,1.2-.2,1.6-.5-.1-.5-.3-1-.4-1.4.2,0,.4.2.7.3,0,.3.1.7.2.7s0,0,0,0c0-.2,0-.5-.2-.7.3,0,.6.2.9.2,0,0,0,0,0,.1.2,0,.4-.1.6-.2.1,0,.2,0,.3,0,.2,0,.3,0,.5,0,0,0,0,0,0-.1.3-.1.6-.3.8-.5,0,.1,0,.2.2.3,0-.2,0-.3,0-.4.2-.2.4-.4.5-.6,0,.3,0,.7,0,1,0,0,.1,0,.2,0,.1,0,.3,0,.5,0,.2,0,.3,0,.5,0s.2,0,.3,0c.2-1.2.3-2.5.3-3.8.2-.2.5-.4.8-.5,0,1.2,0,2.4-.1,3.5.4-1,.5-2.3.5-3.6,0,0,.2,0,.3,0,0,1.3-.2,2.7-.3,4,.4,0,1.1-.4,1.7-.4s.3,0,.5,0c.4-1.1.7-2.3,1-3.6.3,0,.5.1.7.2-.3,1.1-.6,2.3-.9,3.5.4,0,.2-.9.5-.9s0,0,.1,0c.2-.8.4-1.6.6-2.4.1,0,.2.1.3.2-.4.8-.5,1.9-.8,2.9.4,0,.8-.4,1.3-.6,0,.1,0,.2,0,.4-.4.1-.9.4-.8.7.2,0,.3,0,.4,0s.2,0,.3,0c0,0,0,0,0,0,0,.1,0,.2,0,.3-1.3,0-2.5.5-3.2,1.2.2,0,.3,0,.5,0,.4,0,.8,0,1.2-.2.4,0,.7-.2,1.1-.2s.2,0,.4,0c-.7.3-1.7.5-2.3.6.5.1,1.1.2,1.6.2s.7,0,1-.1c0,.2.1.4.2.7,0,0,0,0-.2,0s0,0,0,0c0,.1,0,.4,0,.4h0c0-.2,0-.3.1-.3,0,.1,0,.2,0,.3h.2c0,.1.1.2.2.3-.1,0-.3,0-.4,0-1.1,0-2.3.7-3,1.2,0,0,.2,0,.2,0,.3,0,.6-.1.8-.2.3-.1.6-.2.9-.2s.1,0,.2,0c-.2.3-.8.2-.9.5.4,0,.8-.3,1.2-.3s.2,0,.4,0c-.2.2-.5.2-.7.4,0,0,.2,0,.2,0,.8,0,1.2-.5,1.7-.8,0,0,.1.2.2.2-.4,0-.7.3-1,.6.3,0,.5,0,.7,0s.2,0,.3,0c.1,0,.2,0,.4,0h0c0,.1,0,.2,0,.3.3,0,.6,0,.9.1.2.1.5.3.8.4,0,0-.1,0-.2,0,.3.3.9,0,1.3.4,0,0-.2,0-.2,0-.2,0-.4,0-.5-.1-.2,0-.3-.1-.4-.1s-.1,0-.2,0c.3.4,1.4.1,1.4.7.4,0,.8.1,1.2.1h0v.3c-.4,0-.7,0-1.1-.1.1.3.1.7.4.7.2,0-.3-.3,0-.4.2.1.5.2.7.3v.6c-.4-.2-.8-.2-1.3-.2s-1,0-1.4.3c.9,0,1.2,1.1,2,1.3.2,0,.4,0,.7,0h0v.2c-.4,0-.8,0-1.1-.2,0,0,0,0-.1,0,0,0,0,0,.1,0,.4.2.7.5,1.1.8v.3c-.4-.6-1.2-1-2.2-1s-.7,0-1,.1c.3.3,1.5.1,2,.5,0,0-.2,0-.3,0-.2,0-.4,0-.6,0-.2,0-.4,0-.5,0s0,0,0,0c.3.2.7.3.8.7.2,0,.4.2.6.2M26.7,32.6s0,0,0,0h0s0,0,0,0M60.9,32.6s0,0,0,0h0s0,0,0,0M22.8,32.8c0,0,0-.2,0-.3h.2c0,0-.1.2-.2.3M20.5,33.1c0-.2-.1-.4,0-.6h.2c0,.2,0,.4-.1.6M56.3,33.1c.3-.2.8-.3,1-.6h.3c-.4.3-.8.5-1.3.6M53.9,33.3c-.3-.3-.8-.6-1.2-.8h.6c.2,0,.4.2.6.3,0,0,0-.2-.1-.3h.2c0,.3,0,.5,0,.8M28.3,36.9c0-.4,0-.8,0-1.1v.8c0,0,0,.2,0,.3M21.9,48.2h-.2s0,0,0,0c0,0,.2,0,.3,0M19.5,33.4c-.2.3-.6.4-.5.9.3-.1.6-.7.5-.9M13.7,34.6c0,0-.1,0-.2,0,.4,0,.9.3,1.2.3s.1,0,.2,0c-.4,0-.8-.3-1.2-.3h0M13.9,34c1.4.4,2.8,1.3,4.1,1.5-.3,0-.8-.2-.4-.4-1.3-.2-2.5-1-3.7-1.2M18,35.6h0M17.8,35.3s0,0,0,0c.2,0,.4.3.6.3s.1,0,.2,0c-.2,0-.5-.2-.7-.2M14.9,35.1c1.2.3,2.2.8,3.4,1.2-1-.5-2.3-1.1-3.4-1.2M24.9,36.2h0c0,.3-.1.7,0,.9.9-.9,1.1-2.7.7-4.2-.4.4,0,1.7-.4,2,0-.2,0-.7,0-.8-.1.1,0,.4-.2.5-.1-.3.2-.8.3-1.2-.8.3-1.2,2.4-.4,3.4,0-.3,0-.6.2-.6M22.4,33.1c-1.5,1.3-.4,3.7,0,5.3,0-.5.3-1.1,0-1.4.9-1.2.3-2.7-.1-3.9M18.8,35.6c-.1,0,0,.2-.2.2-.2,1.3.4,2.3,1,3,.8-1.5.2-3.1-.4-4.5,0,.7,0,1.8,0,2.3-.5-.3-.2-1.4-.3-1.9,0,.2-.1.5-.1.8,0,0,0,0-.1,0M26.1,35.3c-.7,1-.1,2.1-.1,3.5.4-.2.2-.6.4-.9.3-.7.8-.9.9-1.7,0-.7-.2-1-.3-1.6,0,0,0,0-.1,0s0,0,0,0c-.1.3,0,1.2-.3,1.6-.2-.3.1-.9,0-1.2-.4.2,0,.9-.4,1.2,0-.3.3-.5,0-.7M13.9,38.6c.2.2.8.4,1.2.4s.3,0,.4,0c-.6,0-1-.2-1.6-.3M23.7,38.5c.1.2,0,.6.2.8.8-1,.5-3.2,0-4.1-.2.5,0,1.3,0,1.7-.3-.4-.1-1.1-.2-1.5-.5.3,0,1.3-.3,2-.2-.3-.1-.7,0-1.1-.7,1,0,2.2.3,2.8,0-.2,0-.5,0-.6M17,39.3c0,0-.2,0-.2,0,.2.2.7.1.9.2,0-.2-.5-.2-.7-.2M17.2,39.6c0,.3.5.2.7.3,0-.3-.5-.2-.7-.3M19.7,39.1c0,.3,0,.6.1.8,0-.3.1-.8-.1-.8M20.8,36.1c-.9,1.8.4,2.9,1,4.2.2-.6-.3-1.6-.2-2.2.3.3.1,1,.4,1.3.4-1.5-.5-2.7-.9-3.6,0,.4,0,.7-.1,1,.2,0,.4.5.2.7-.1,0,0-.3-.2-.4,0,.3.2.6,0,.7-.4-.4,0-1.4-.2-1.8M25.4,39.9c0,0,0,.1,0,.2,0,.1,0,.2,0,.2h0c.5-1,.5-2.5-.1-3.5-.4.5.4,1.5,0,2,0-.5-.1-1-.2-1.5-.8.8-.6,2.5.2,3.1,0-.1-.2-.4,0-.4s0,0,0,0h0M26.2,40.1c0,.2,0,.4.1.5,0-.2,0-.5-.1-.5M17.9,38.4c0,1.6.7,2.3,1.4,3.1.6-1.6-.1-3.4-1-4.4-.1,1.2.8,1.8.6,2.8-.3-.6-.4-1.4-.7-1.9,0,.4.3.8,0,1.1-.2-.1,0-.6-.3-.8M19.9,38.7c-.3,1.8.9,2.5,1.8,3.4,0-.5-.6-.9-.5-1.3.3,0,.1.5.4.5-.2-1-.4-2-1.2-2.8-.2.2.2.6,0,.8-.2-.4-.3-1-.2-1.6,0-.4.4-1.1,0-1.2-.2.9-.3,2.2,0,3-.2-.2,0-.6-.3-.8M22.7,40.7c.2.5.4,1.1.7,1.5v-.6h.2c.2-1.2,0-2.5-.7-3.3,0,.6.3,1.2.3,1.6-.4-.4-.3-1.2-.6-1.7-.4.9-.6,2.2,0,2.8,0-.1-.2-.4,0-.4M16.2,42.2c0,0,.1,0,.2,0,0,0,.1,0,.2,0s.1,0,.2-.1c0,0,0,0,0,0,0,0-.1,0-.2,0,0,0-.1,0-.2,0,0,0-.2,0-.2,0h0M26.5,39.2c-.2,1.4.6,2.2.9,3.4,0-.5.1-.8,0-1.2.9-1.1-.2-2.4-.3-3.9,0,0,0,0-.1,0s0,0,0,0c-.1.2,0,.9-.2,1.5-.2,0,0-.6,0-.6s0,0,0,0c-.2.8.4,1.5,0,1.9-.1-.3,0-.8-.3-.9M8.3,42.4c-.1,0-.3,0-.5,0,0,0,.1,0,.3,0,0,0,0,0,.1,0,.2,0,.3,0,.3,0,0,0,0,0-.2,0M16.2,42.8c.2,0,.4,0,.7,0,.2,0,.5,0,.6,0s.2,0,.3,0c-.1-.1-.5-.2-.8-.2s-.8,0-.9,0c0,0,.1,0,.2,0M14.8,43c-.4,0-.9,0-1.1.1h1.3c.2,0,0-.1-.2-.1M10.8,43.1c-.2,0-.3,0-.4,0,0,0,0,0,.2,0s.3,0,.6,0c-.1,0-.3,0-.3,0M9.4,43.2c-.7,0-1.4,0-1.5.2,0,0,.1,0,.2,0,.3,0,.5,0,.7,0,0,0,0,0,.1,0,.6,0,1.8,0,1-.1-.1,0-.3,0-.4,0M17.7,40.7c-.2,1.8.7,2.9,1.8,3.7.2-2.1-.5-3.3-1.5-4.2.2,1.2,1,2.1.9,3.1-.5-.8-.6-1.9-1.2-2.7M21.9,41.2c-.4,1.5,1,2.5,1.8,3.3-.1-1.7-.9-2.8-1.7-3.8,0,.8.7,1.1.8,1.8-.5-.3-.6-.9-.9-1.3M25.6,42.2c.1,1.5,1.5,1.7,2.1,2.7,0-1.7-1-3.3-1.8-4.6-.2.5.5,1.3.7,1.8-.5-.3-.7-.8-.9-1.4-.3.8.3,1.3.4,2-.2,0-.3-.4-.4-.5M24.5,43.9c.4.5.8,1,1.2,1.4-.1-.6-.6-1.1-.4-1.8-.4-.7-1.1-.9-1.6-1.5v.4c.2.1.6,1,.7,1.3-.3-.2-.4-.6-.7-.9,0,1.3.7,2.1,1.5,2.2-.3-.2-.9-.6-.7-1M27.9,44.8s0,0,0,0c0,.2,0,.6.1.7.1,0-.1-.7-.1-.7M15.4,45.5c-.3.2-1,0-1,.3.3,0,.8,0,1-.3M16.2,46.1c-.5,0-.9,0-1.2.3.5,0,.8-.2,1.2-.3M21.9,44.4c.2,1.4,1.5,2,2.4,2.5-.2-1.7-1-2.8-2.3-3.5,0,.7.9,1.1.9,1.6-.4-.3-.7-.8-1.1-1.2,0,.6.5.8.6,1.4-.3-.1-.4-.5-.6-.7M25.9,44.8s0,0,0,0c.2,1.2,1.6,1.7,2.5,2-.2-.2-.1-.7-.4-.8-.1-1.8-2.2-1.8-2.4-3.5,0,0-.2,0-.2,0,.3-1.5-.5-2.4-1-3.4-.5.9.7,1.9.7,3-.3-.6-.6-1.3-.9-2,0,0,0,0,0,0,0,0,0,.7,0,1,0,.9.7,1.5,1.3,1.5.4.9.4,1.8,1.2,2.6,0,0,0,0,0,0-.1,0-.2,0-.3-.2,0,0-.1-.2-.2-.2M25.6,46.6c.4.2.6.8.9.9-.4-.5-.2-1-.4-1.5-.4-.8-1.5-.9-2-1.5.2,1.3.7,2.5,1.9,2.6-.1,0-.5-.4-.3-.5M11.9,47.2c-.5.1-.8,0-1.2.2.1,0,.2,0,.3,0,.3,0,.7-.1.9-.3M10.2,47.5c-.3,0-.7,0-.9.2.4,0,.7,0,.9-.2M18,46.5c-.2.3-.2.7-.2,1.2.1,0,.2,0,.4,0s0,0,.1,0c-.1-.4-.2-.8-.3-1.2M27.4,48.2h-.6c-.5-.6-1.2-1.1-2-1.2.2.2.5.3.7.7,0,0,0,0,0,0-.2,0-.3-.1-.4-.3-.1-.1-.2-.3-.3-.3s0,0,0,0c.2.4.7.4.8.9-.3,0-.5-.4-.6-.4s0,0,0,0c0,.2.2.3.3.4h-.2c-.6-.9-1.3-1.9-2.4-2,.2.5.9.8,1,1.2-.5,0-.8-.9-1.2-.9h0c.2.5.4,1,.7,1.5.2,0,.4.2.7.3h-1.1c-.1-.1-.2-.3-.3-.4-.3-.2-.8-.5-1.2-.7-.3-.2-1-.5-.9-.9.4.5,1.3.9,1.8,1.1-.2,0-.3-.4,0-.4-.4-.6-1.4-1-1.4-1.8.4.8,1.2,1.2,1.6,2,0,.3.2.5.3.5s0,0,0,0c-.3-.7-.8-1.6-1-2.1.1.1.2.3.4.4-.5-1.5-2.8-2.3-2.1-4.3-.1,2,1.5,2.6,2.3,3.9-.4-.9-1.3-1.8-1.2-2.8.5.4.4,1.5.9,1.9.4-2.5-1.4-2.9-2-4.4-.2.4,0,1.5-.4,1.8.6,1.3,0,3.3.9,4.2,0,0,0,0,0,0,0,0-.1,0-.2-.1,0,0-.1-.1-.1-.1s0,0,0,.1c.2.8.3,1.7.7,2.4h-.3c-.6-.9-1.3-1.6-2.1-2.2,0,1,.3,1.7.8,2.2h-1.2c.2,0,.4-.2.5-.3-.3.1-.7.2-1,.3h-.6c.4-.1.8-.3,1.1-.4-.2-.6,0-1.3.3-1.7-2.8.6-6,1.4-9.1,2.2h-.6c0-.2,0-.3,0-.5,2-.4,3.9-1,5.7-1.3,0,.1-.2,0-.2.1.6,0,1.1-.2.4-.2.6-.1,1.3-.3,2-.4.7-.1,1.6-.1,1.8-.5-.3,0-.7.3-1.1.3s-.2,0-.3,0c.4-.2,1-.2,1.5-.3,0-.3-.2-.3-.1-.5-.3,0-.7.1-.9.3,0,0,0,0,0,0,0,0,.2,0,.3,0,0,0,.2,0,.3,0s.2,0,.2,0c-3.2.6-6.4,1.6-9.6,2.1v-.2c1.6-.3,3.5-.7,5-1.2-1.8.3-3.4.7-5,1.1,0,0,0,0,0,0,0,0,0-.1,0-.2,2.7-.6,5.5-1.1,8.3-1.7.1,0,0-.2.1-.2.5,0,.8,0,1.2-.1,0-.4-.3-1.1,0-1.5.5.6.7,1.7,1.4,2.2-.5,0-1-.8-1.2-1.5,0,1.6,1.3,2.6,2.3,3.4-.3-.9-.3-1.8-.7-2.6-.4-.7-1.1-1.4-1.9-1.7-.4.3,0,.7,0,1.2-.4,0-.4-.7-.3-1.1-.3,0-.7,0-1,0-1.6,0-3.4.1-5.2.3-1,0-2,.2-3,.2,0-.2,0-.4,0-.6,2.5,0,5.2-.3,7.4-.4,0,0,0,0,0,0s0,0-.1,0c0,0,0,0-.1,0-.1,0-.3,0-.3-.2.2,0,.4,0,.6,0,.3,0,.7,0,1,0,.3,0,.6,0,.9,0s.5,0,.7,0c-.1-.2-.3-.2-.5-.2s-.3,0-.4,0c-.2,0-.3,0-.5,0s-.2,0-.3,0c-.1-.2,0,0,0-.2-.2,0-.4,0-.7,0-1,0-2,.2-2.8.4.1,0,.3,0,.4,0s.3,0,.4,0c.1,0,.2,0,.3,0s.1,0,.2,0c-.5,0-.9,0-1.4,0s-.8,0-1.3,0c-.4,0-.9,0-1.3,0s-.8,0-1.3,0c-.3.1-.6.2-.8.2,0-.2,0-.4,0-.6.1,0,.2,0,.3,0,2.9,0,6.7-.1,9-.2.8-.4,0-1.2.2-1.9-2.8-.3-6.2-.7-9.3-1,0-.1,0-.2,0-.3.9.2,1.8.4,2.7.4-.8-.3-1.8-.4-2.7-.5,0,0,0-.1,0-.2,2.9.4,5.7.6,8.9,1.1-2.7-.6-5.8-1.3-8.7-1.8,0,0,0-.2.1-.3,3,.4,5.9,1.2,9.1,1.4.3-.7,0-1.6.3-2.3.3,0,0,.2,0,.4.2,0,.1-.4.3-.4-2.2-1-4.9-1.7-7.5-2.3.2-.1.4-.2.6-.3,0,0,0,0,0,0,.1,0,.2.1.3.1s.1,0,.2,0c0,0,0,0,0,0-.1,0-.2,0-.3-.1,0,0,0,0,0,0,0,0,.1,0,.2,0,1.9.5,3.8,1.1,5.5,1.7-.2-.3-.8-.3-.9-.7-1.1,0-1.7-.6-2.6-.9,0,0-.1-.1,0-.3-.4,0-.8-.1-1.2-.2.2,0,.3-.1.5-.2,0,0,0,0,0,0,2,.6,3.9,1.2,5.6,2,.6-.6,0-1.9.8-2.4-.2-.2-.4-.3-.6-.5h1.1s0,0,0,0c0,0,0,0,0,0h.2c-.5,1.2-.6,2.8.2,3.8.2-.3-.1-.9.1-1,.1.1,0,.5,0,.7.8-.8.9-2.2.7-3.5h.2c0,.2,0,.4.1.6.3,0,.3-.3.4-.6h.2c-.1.4-.6.7-.5,1.1.2-.3.6-.7.9-1.1h.2c-.3,1,.8,2.3.5,3.3.1-.5.3-1,.5-1.5.2.2,0,.5,0,.8.2,0,.5-.3.4-.4,0,0,0,.1-.1.1s0,0,0,0c.4-.6.4-1.5.3-2.3h.3c0,.1,0,.2,0,.3,0,0,0,0,0,0,.1,0,.1,0,.1-.2,0,0,0-.1,0-.1h.2c0,.4-.4.9-.3,1.2.3-.4.5-.8.8-1.2h.3s0,0,0,.1c0,0,0,0,0-.1h.2c-.1.6-.1,1.2.1,1.8.1-.2,0-.6.3-.7.2.3-.3,1,0,1.3.7-.5.9-1.5.9-2.4h.3c0,0,0,.2,0,.3,0,0,0-.2,0-.3h.2c0,0-.1.2,0,.3,0,0,0-.1,0-.3h.4v.4c-.1.3-.2.7-.3,1.1-.2,0,0-.5-.1-.5,0,.1,0,.4-.2.4s0,0,0,0c-.1-.6.6-.7.4-1.2-.7.7-1.3,2-.6,3.1,0-.2,0-.4.2-.4h0c0,.3-.1.4,0,.7,0,0,0,.1,0,.1.1-.5.4-.8.6-1.2v.4c-.4.4-.2,1.4-.5,2-.2-.3.1-1,0-1.2-.8,1.1,0,2.4.4,3.4,0,0,0,0,.1-.1v.9c0,0,0-.2-.1-.2-.3.7-.2,1.7.1,2.3v.4c0,0-.1-.1-.2-.2,0,.2.1.4.2.5v.3c-.3-.3-.5-.8-.3-1.2-.3,0-.3.4-.3.6,0,.8.2,1.4.6,2v1.2c-.1,0-.2-.3-.3-.4,0,.3.1.5.3.7v.9c-.5-.4-1.1-.6-1.7-.7.2.3.9.5.9.8-.6-.2-.9-.6-1.2-1.1,0,.4,0,.6.2.8,0,0,0,0,0,0,.2,0,.7.5.6.7-.2,0-.4-.5-.6-.5s0,0,0,0c0,.5.4.8.9,1M50.2,48.2h-.2c0-.1,0-.2,0-.3,0,0,0,.2.1.3M52.5,48.2h-.2c-.1-.6-.3-1.2,0-1.5,0,.5.2,1,.3,1.5M61.7,48.2h-.2c0-.9-.5-2-.3-2.6.2.5.3,1.1.4,1.8,0,.3,0,.6,0,.9M62.3,48.2h-.2c-.2-.8-.6-1.5-.4-2,.2.5.4,1.4.6,2M62.8,48.2h-.2c0-.7-.1-1.4,0-1.9.2.5.2,1.2.3,1.9M63.1,48.2h-.2s0,0,0-.1c0,0,0,0,0,.1M55.4,33.4c-.3,0-.5.2-.7.4.3,0,.5-.2.7-.4M50.7,33.7c.5,1.3,1.8,1.7,2.9,2.3,0-2.2-1.8-2.6-3.5-3.1.5.6,1.8.7,2.2,1.5-.6-.2-1.1-.8-1.6-.8M59.5,36.5c0,0,.2,0,.3,0-1.1.3-2.4.5-3.4.9,1.1-.1,2.7-.4,3.8-.8-.2-.3,0-.4,0-.8h-.4c0,.1,0,.2,0,.2-1,.3-2.2.5-3,.9.9-.2,1.7-.5,2.6-.5M50.5,36.1c.6.2,1.2.6,1.4,1.2,0,.1-.2.4,0,.4s0,0,0,0c0-.9-.6-1.2-.9-1.8.4,0,.7.7.9.7h0c-.3-1.1-1.3-1.8-2.4-1.8s0,0,0,0c.3.2.7.3.8.6,0,0,0,0,0,0-.2,0-.4-.1-.5-.3-.1-.1-.3-.3-.4-.3s0,0,0,0c.4,1.2,1.3,2.2,2.5,2.4-.3-.5-.9-.7-1.2-1.2M53.9,35.6c0,1.1.3,1.6.9,2.3.2.2.6.6.8.6s0,0,.1,0c-.2-.2-.4-.4-.4-.7,0,0,0,0,0,0,.1,0,.1,0,.2.1,0,0,0,.1.2.1h0c0-1.4-.3-2.6-1.5-2.9,0,.2.2.2.1.4-.3-.2-.4-.5-.7-.7.2.6.8,1.1.7,1.8-.4-.2-.3-.7-.6-1M65.4,38c0,.3,0,.5.3.5,0-.3-.1-.4-.3-.5M51.6,35.3c.1.3.3.4.4.5,0,1.6,1.4,1.9,2,3,.2-2.2-1.1-3.2-2.5-3.5M60.2,36.9c-1.5.3-3,.6-4.4.9-.1.8.3,1.1.5,1.6,1.6-.2,3.2-.2,4.5-.4-.4-.6-.5-1.4-.7-2.2M50.3,37c0,1.4,1.2,2.2,2,2.6-.2-.3-.5-.5-.7-.9.5,0,.5.6.9.8-.3-1.1-.8-2.2-1.7-2.3.1,0,.5.3.3.4-.3-.2-.4-.5-.7-.6M59.2,39.5c-.4,0-1,0-1.1.2.4,0,.9-.2,1.4-.2s.2,0,.3,0c0,0,0-.1,0-.1s0,0,0,0c0,0,0,0-.1,0s0,0,0,0c-.1,0-.3,0-.5,0M56.8,40.2c-.2,0-.4,0-.4.2,1.6,0,3-.2,4.3-.4,0-.3.3-.5.1-.7h-.3c0,.1,0,.2,0,.2-1,.3-3.2.2-4.2.5,0,0,0,0,.1,0,.1,0,.2,0,.3,0,.1,0,.2,0,.3,0s.2,0,.3.1c0,0-.2,0-.3,0s-.1,0-.2,0c0,0-.1,0-.2,0M52.1,37.7s0,0,0,0c.7,1.3,1,3.1,2.3,3.8,0-.1,0-.4,0-.4,0,0,0,0,0,0-.2,0-.5-.9-.5-1.1.4.1.2.8.6.9,0-1.9-1-2.6-2-3.5,0,.2,0,.5,0,.6,0,0,0,0,0,0,0,0,0,0,0-.2,0,0,0-.2,0-.2M49,39.3c0,1,.5,2.4,1.5,2.9-.1-.6-.5-.9-.7-1.4.4,0,.4.5.7.7,0-.4-.3-.5-.3-.9.3.2.3.7.6.9.3-1.4-1.1-2-1.8-2.3M50.8,39.3c0,1.3.8,2.2,1.6,2.9.1-.4-.4-.8-.5-1.2.4.1.4.6.7.8,0-.5-.3-.7-.4-1.2.2,0,.2.3.4.4,0-.9-.5-1.5-1.4-1.8,0,.3.5.5.2.8-.2-.3-.3-.6-.6-.8M63.3,42.6c0,.3.2.6.4.7,0-.3-.2-.5-.4-.7M54.4,39.1c0,2,2.1,2,2.2,3.9,1.1.3,2.6.2,3.6.6,0-1,.2-2.3.4-3.3-1.4.2-2.9.1-4.2.4,0,.3,0,.8,0,1-.4-1.1.2-2.2-.6-2.9,0,0,0,.2,0,.2-.4-.6-1-1.1-1.5-1.6,0,.7.9.8.9,1.5-.2,0-.5-.6-.6-.6s0,0,0,0c.2.7.7,1.1.9,1.7-.6,0-.6-.7-.9-.9M60.6,35s0,0,0,0c0,0,0,.2,0,.2-.5.4-.3,1.9,0,2.6.3,1.3,1.4,2.8,1.8,3.5.9.2,1,1.2,1.5,1.8-.1.3-.2.2-.1.6.2-.2.3-.6.4-.9-.3-.6-.8-1.3-.9-1.8.5.4.6,1.1,1,1.6.3-1-.7-1.7-.7-2.4.4.3.5,1.4.9,1.5-.2-2.3-1.1-4.2-2.7-5.3,0,.5.3.6.4,1.1-.6-.3-.3-1.6-1.1-1.8-.2,1.6,1,2.5,1.7,3.6-.9-.8-2.2-2.1-1.8-3.9-.2,0-.1-.4-.4-.4M63.1,43.1c0,.3,0,.7.3.7s0,0,.1,0c0-.3-.2-.5-.4-.7M59.5,43.8c-.1,0-.3,0-.3,0,0,.2.4.3.7.3s.3,0,.4-.1c-.1-.1-.5-.2-.7-.2M63.4,44.1c.1,0,.3,0,.4,0,.1,0,.3,0,.3,0s.1,0,.2-.1c-.1,0-.6-.1-.8-.1s-.2,0-.2,0c0,0,0,0,.1,0M65.7,43.1c.1.3-.2.7-.2,1,.2,0,.5.1.7.1.6-.7.8-2.1.5-3.3,0,0,0,0,0,0s0,0,0,0c0,0,0,0,0,0s0,0,0,0c0-.3,0-.6,0-1,0,0-.2,0-.3,0s-.1,0-.2,0c0,0-.1,0-.2,0s0,0-.1,0c.3,1,.3,2.4-.1,3.2,0-.9.7-2.6-.4-3.1-.2.1.2.7,0,.9-.2-.2,0-.8-.4-.8,0,.2,0,.3-.1.3s0,0,0,0c0,0,0,0,0,0s0,0,0,0c.3.8.2,2.6-.4,3.3h0c.3,0,0,.3.1.4h0c.8,0,.6-1,1-1.4.1.5-.3,1-.4,1.5,0,0,0,0,.1,0,.3,0,.3-.7.6-.9M52.8,41c-.1,1.6.8,2.4,1.5,3.4.4-1.9-.5-3.4-1.5-3.9.3.6.5,1.7.7,2.2-.6-.3-.4-1.3-.8-1.7M51.2,41.9c-.1,0-.2,0-.3,0-.4,1.3.4,2,.9,2.7,0-.9-.5-1.5-.3-2.1.3.5.3,1.2.6,1.8.6-1.2-.1-2.5-.9-2.9,0,.3.1.3,0,.5,0,0,0,0,0,0M65.1,44.5c0,0-.1,0-.2,0-.2,0,.6.2,1,.3-.3-.3-.6-.3-.9-.3M57.9,44.4c0,0-.2,0-.2,0,.8.1,1.6.2,2.5.4v-.5c-1.1-.2-2.1-.7-3.3-.7s-.2,0-.3,0c.3.2,1,0,1.1.3,0,0,0,0-.1,0-.2,0-.3,0-.5,0-.1,0-.3,0-.5,0s-.1,0-.2,0c.2.5,1.2.2,1.5.5,0,0,0,0,0,0h0s0,0,0,0M68.1,44.9c-.1,0-.2,0-.3,0,.3.1.8.2,1.2.2-.2-.2-.6-.2-.9-.2h0M55.6,44.2c.3.3-.2,1,0,1.1.5-.5.4-1.8.4-2.6.4.3,0,1.3.1,1.7.7-1.8-.7-3.1-1.6-4,0,.3,0,.4,0,.7,0,0,0,0,0,0s0,0,0,0c0,0,0,0,0,0s0,0,0,0c0,.9.5,1.3.6,2.1-.4-.3-.4-1-.7-1.4,0,1.4.4,2.2.9,3.1.2-.2-.2-.6.1-.7M52.5,42.5c.2.7-.2,1.4-.1,2,0,1,.8,1.6,1.1,2.6.4-.8-.5-1.6-.4-2.3.3.4.4,1,.7,1.4,0-.2,0-.6,0-.6s0,0,0,0c.1-1.4-.8-2.2-1.5-3.1M50.9,45.6c.4.4.2,1.2.2,1.8,0,0,0,0,0,0,.1,0,0-.2.2-.2-.3-.4,0-.9,0-1.5.3.1,0,.8.2,1,.5-1.3,0-2.4-.8-3.1,0,.6-.3,1.1-.5,1.5.2.6.3,1.3.7,1.7.1-.5-.2-1,0-1.2M64.8,46.2c-.3.6-1,.8-1.3,1.3.8-.3,1.8-.9,2-1.7,0,0-.1,0-.2,0-.2,0-.5,0-.7-.1-.2,0-.5-.1-.7-.1s-.4.1-.5.5c.2,0,.3-.3.5-.3s0,0,0,0c-.3.3-.8.6-.5,1.3.5-.1.9-.9,1.3-.9M56.4,44.5c-.2.4-.4.8-.7,1.2.2.3.3.8.3,1.2.9.3,1.9.5,2.8.8.4-.5.8-.9,1.5-1.1-.1-.5,0-1-.1-1.5-1.1-.3-2.6-.4-3.8-.7M66.7,48.2h-.3c0-.7,0-1.4-.3-2.2,0,0,0,0,0,0,0,0,0,0,0,0,0,0,0,0,0,0s0,0,0,0c0-.3-.3-.2-.5-.3-.5.4-.8.9-1.3,1.2,0,.4,0,.7-.1,1.1h-.2c0-.2,0-.5.1-.8,0,0,0,0-.1,0-.1,0-.2,0-.4.2-.1,0-.2.2-.4.2s0,0,0,0c0,.1,0,.3,0,.5h-.2c0-1.9-.4-3.6-.5-5.1,0-.3.1-.7-.2-.9,0,.4.3.8-.1.9,0-.5.2-1.3-.2-1.5,0,.9,0,1.9,0,2.5-.5-.6-.2-2.1-.3-2.8-.3.9,0,2-.2,2.8-.5-1,.2-2.6-.1-3.2-.1.7,0,1.2-.4,1.7,0-.8.3-1.5.1-2.1,0,0,0,0,0,0-.3,0,0,.4-.2.5,0-.6.4-1,0-1.3-.6,1.6-.4,4-.4,5.9,0,.5-.3,1.1.2,1.4,0-.2,0-.5,0-.6.2.5.2,1.2.3,1.8h-.5c0,0,0-.1.1-.2h0c-.2,0-.4,0-.6.2h-.3c.2-.2.5-.4.7-.6-.1-.3-.1-.7-.4-.9h0c-.6.4-1.1.9-1.6,1.4h-.3c0,0,0-.1,0-.2-.9,0-1.4-.6-2.4-.6.2.5,1.3.2,1.5.7,0,0,0,0,0,0-.2,0-.4,0-.6-.2-.2,0-.4-.2-.6-.2s-.3,0-.4.2c.4.1.7.1,1,.2h-1.4c.2-.4.4-.7.4-1.2,0-1.3-1-2.6-1.2-3.6,0,.8-.6,1.4-.2,2.1,0-.1,0-.4,0-.4s0,0,0,0c0,.6.1,1.3.3,1.9-.4-.1-.3-.8-.5-1-.2.9,0,1.6.2,2.2h-.2c-.1-.3-.3-.6-.4-.9-.2.2-.2.5-.3.9h-.6c0-1.3-.5-2.7-.9-3.6-.1,1-.6,2.5-.4,3.6h-.1c0-.2-.2-.4-.3-.6-.1.1,0,.4,0,.6h-.2c0,0,0-.1,0-.2,0,0-.1.1-.2.2h-.2c.1-.7,0-1.6-.6-1.7-.1-.1,0-.5-.2-.5-.2.6-.5,1.5-.4,2.2h-.5s0,0,0,0c0,0-.1,0-.1,0h0v-.5c0-.3,0-.6,0-.9v-.7c.1.2.3.3.4.5,0-.6-.5-1-.4-1.5.3.3.5.7.5,1.4.6-.1-.3-.6,0-.9.2,0,0,.3.2.3s0,0,0,0c.3-1.1-.4-1.8-.9-2.3v-.9c.2.8.7,1.5,1.3,2.1.1-.5-.5-1.2-.5-1.7.4.2.4.8.7,1.2.2-.5-.4-1.1-.3-1.5.3.1.2.6.5.7,0-1.2-1.1-1.8-1.6-2.7,0,0,0,0,0,0v-2.3c.3.4.7.7,1.1,1,.2.1.4.3.5.3s0,0,0,0c-.3-.6-.9-.8-1.1-1.5.5.2.7.7,1.1.9,0-1.3-.7-1.8-1.7-2.1v-.2c.3.2.7.2,1,.3-.2-.3-.8-.5-1-.8h0c.5,0,.8.4,1.2.6-.1-.8-.6-1.3-1.2-1.7v-.8s0,0,0,0c0-.1,0-.2,0-.3v-.5c.5.4,1.1.8,1.9.8s.2,0,.2,0c-.3-.2-.9-.2-1.1-.6.3,0,.6.2.8.2s0,0,.1,0c-.2-.3-.7-.4-.9-.7,0,0,0,0,0,0s0,0,.1,0c0,0,0,0,.1,0s0,0,0,0c-.2-.4-1.1-.4-1-.9-.1,0-.3,0-.4,0h0v-.2c.1,0,.3,0,.4,0,0,0,0,0,0,0h.8c.6.4,1.2.7,2,.7-.2-.2-.3-.5-.5-.7h.5c.4.4,1.1.5,1.2,1-.5-.2-.9-.5-1.3-.9.6,1.3,1.8,1.9,3.1,2.6,0-1.1-.8-1.4-.9-2,.2,0,.2.2.3.2s0,0,0,0c.5-.3,1-.6,1.5-.8h1c-.3.1-.7,0-.9.3,0,0,.1,0,.1,0-.2.1-.4.3-.7.4,0,.1,0,.2,0,.3-.3,0-.8.3-.7.5,1.1-.6,2.4-1,3.6-1.6h.5c-1.3.7-2.7,1.1-3.9,1.9,0,.9.4,1.4.5,2.2,1.6-.2,2.9-.7,4.4-.9,0-.4.3-.6.4-.9-.6-.6-.7-1.6-1.4-2.2h.5c.8,1.9,1.9,3.4,3.4,4.3,0-.3,0-.7.2-.9-.5-1.2-.9-2.4-1.6-3.4h.3s0,0,0,.1c0,0,.1,0,.2-.1h.1c0,.3-.2.5.2.7,0-.1,0-.3.1-.4,0,0,0,.1.1.2-.1.3-.2.5,0,.8,0-.2.1-.3.2-.4,0,0,0,.2.1.2-.1.6-.1,1.2.5,1.2s0,0,0,0c0-.1,0-.2,0-.2s0,0,0,0c0,0,0,0,0,0,0,0,0,0,0,0,0-.1,0-.3,0-.4,0,0,.1.2.2.2,0,0,0,0,0,0,.1.2.3.5.4.7-.2,0-.4.2-.6.3.2,0,.5,0,.7-.1,0,0,0,.1.1.2-.3.1-.5.2-.8.4.3,0,.6,0,.9,0,0,0,0,.1.1.2-.3,0-.6.1-.9.2-.2.3-.3.7-.4,1,0,0,0,0,0,0,.1,0,.2,0,.2-.2,0,0,0-.2.2-.2s0,0,0,0c.1.4-.5.4-.2.7.3-.1.4-.6.6-.9.3.5-.6.8-.3,1.4.4-.5.5-1.3.9-1.9h0c0,.9-.5,1.4-.8,2,.2.6.4.5.4.9.4-.5.9-1,1.2-1.7.3.4.5.8.8,1.1-.4,0-.9.2-1.3.3.5,0,.9-.1,1.4-.2,0,0,0,.1.1.2-.3,0-.5,0-.8,0,0,0,0,0-.1,0,0,0-.1,0-.2,0,0,0,0,0,.1,0s0,0,0,0c0,0,.2,0,.2,0,.2,0,.4,0,.5,0,0,0,.1,0,.2,0,0,0,0,.1.1.2-.8,0-1.6,0-2.1.3,0,0,.1,0,.2,0s.3,0,.4,0c.2,0,.3,0,.4,0s.2,0,.2,0c-.1.3-1,0-1.3.3.1,0,.3,0,.4,0,.6,0,1.3,0,2-.1,0,0,0,.1.1.2,0,0-.1,0-.2,0,.5,1.4.5,3.3-.1,4.6.9.2,1.8.3,2.7.5,0,.2,0,.4.1.6-1.2-.3-2.4-.4-3.7-.6-.7-.1-1.4-.5-2.1-.5s-.3,0-.5,0c1,.2,2.2.3,3.1.7-.8,0-1.7-.4-2.5-.4s-.4,0-.5,0c0,.5.7.3,1,.4,0,.1,0,.2.1.2s0,0,0,0c1.9.2,3.5.6,5.1.8,0,0,0,.2,0,.3-.9-.2-1.8-.4-2.9-.5,0,.6,0,1.4,0,2.2M35.1,48.4c0,0-.2,0-.3,0,0,0,.2,0,.3,0h.6c-.2,0-.4.2-.6.2M42.3,49.2c0-.3.1-.7.2-1h.2c0,.4-.2.7-.4,1"/>
    <path class="st4" d="M62.3,62.4s0,0,0,0c0,0,0,0,.1,0,0,0,0,0,0,0,0,0,0,0-.1,0M62.1,62.6s0,0,0,0c0,0,0,0,.1,0,0,0,0,0,0,0,0,0,0,0-.1,0M61.6,62.8c.1,0,.2-.1.3-.2,0,0,0,0,0,0-.1,0-.2.1-.3.2"/>
    <path class="st3" d="M64.8,56.5s0,0,0,0c.3.1.7.5,1,.5s0,0,.1,0c-.4-.1-.9-.4-1.1-.4M59.7,63.6c1.4-1.3,2.6-3.4,3-5.9,0,0,0-.3-.2-.3s0,0,0,0c.5-.9,1.1-1.7,1.7-2.6.4.1-.2.4-.2.7.2.4.9.3,1.1.7-.4,0-.8-.4-1.1-.4s0,0,0,0c.7.6,2,.7,2.7,1.3,0,0,0,0,0,0,0,0-.1,0-.1,0,0,0,0,0-.1,0s0,0,0,0c0,.1.3,0,.2.3-1-.2-1.7-.8-2.6-1.1-.4.2-.5.7-.7,1,.2.9-.3,2.4-.7,3.3-.2.5-.8,1-.4,1.5.2,0-.1-.2,0-.4.3.2.5.5.8.7,0,0,0,0-.1,0,0,0-.2-.2-.3-.2,0,0,.1.2.2.3,0,0,0,0-.1,0-.3-.2-.5-.5-.8-.6.2.2.5.4.7.7-.1,0-.2.1-.3.2,0,0,0,0,0,0-.2-.2-.3-.4-.5-.6-.3.3-.5.8-.8,1.2-.2,0-.4.1-.6.2"/>
    <path class="st4" d="M62.6,62.1s0,0,0,0c0,0,.2-.1.2-.2,0,0,0,0,0,0,0,0-.2.1-.2.2M62.5,62.2h0s0,0,0,0c0,0,0,0,0,0,0,0,0,0,0,0,0,0,0,0,0,0"/>
    <path class="st3" d="M53.1,23.8h0s0,0,0,0c0,0,0,0,0,0,0,0,0,0,0,0M53.4,24.4c-.2,0-.4-.1-.5-.2,0,0,0-.1,0-.2.2,0,.4.2.5.4M52.8,24.6s0,0,0,0c0,0,0,0,0,0,0,0,0,0,0,0h0M61.3,31.4h0M13.2,34.1c-.3-.1-.7-.3-1.1-.4,0,0,.1,0,.2,0,.3.1.6.3.9.5M52.3,34.5h0M19.4,36.7h0M11.3,38.5c-1-.1-2-.3-3-.5,0,0,0,0,0-.1.9.2,2,.3,2.9.6M26.5,42.1h0M22.9,42.5h0M53.6,42.7h0M24.4,43.6h0M32.3,44.7h0M23,45h0M66.3,45.2h0M37.8,45.5h0M23.5,47.4h0M24.2,49.3h0M20.4,50.3h0M38.6,52.6c0,0-.1,0-.2,0,0,0,0,0,0,0,.2-.2.4-.4.6-.4h0c-.1.2-.3.3-.5.5M40.9,53.7c0,0-.1,0-.2-.1,0-.1.2-.2.3-.2s0,0,0,0c0,.1,0,.2,0,.3M41.3,53.9c0,0-.1,0-.2-.1,0,0,.2-.2.3-.2,0,.2,0,.3-.1.3M43.1,55.1c0,0-.1-.1-.2-.2.3-.6.5-1.3,1.1-1.4-.6.3-.6,1-.9,1.5,0,0,0,0,0,0M52,56.9s0,0,0,0c0,0,0,0,0,0,0,0,0,0,0,0M52.5,57.4s0,0,0,0c0,0,0,0,0,0M47,58.4s0,0-.1,0c.3-.5.5-1.2,1-1.6-.1.7-.5,1.2-.8,1.7M47.6,58.9c0,0-.2-.1-.3-.2.2,0,.3-.1.4-.1s0,0,0,0c0,.1-.2.2-.2.3M62.5,62.2c-.3,0-.8-.5-.7-.8.4.1.7.3,1,.6,0,0-.1.1-.2.2,0,0-.1-.1-.2-.2-.1,0,0,.1.1.2,0,0,0,0,0,0"/>
    <path class="st4" d="M56.4,17.8c0,0,0-.2-.1-.2,0,0,0,0,0-.1,0,0,0,.2.2.2,0,0,0,0-.1.1"/>
    <path class="st3" d="M53.8,21.2c0-.1,0-.3,0-.4.8-1.1,1.6-2.2,2.4-3.3,0,0,0,.2.1.2-.8,1.2-1.7,2.3-2.6,3.4"/>
    <path class="st4" d="M43.1,20.9c0,0,0-.2,0-.3,0,0,.2,0,.3,0,0,0,0,.2,0,.3,0,0-.2,0-.3,0"/>
    <path class="st3" d="M42.8,20.9c-.1,0-.2,0-.3,0,.2-.2.4-.2.6-.3,0,0,0,.2,0,.3,0,0-.2,0-.3,0"/>
    <path class="st4" d="M55.8,16.6c-.1-.2-.2-.4-.2-.4,0,0,0,0,0,0,0,0,0-.1.1-.2,0,0,0,.2.1.3,0,0,0,.1,0,.2,0,0,0,0-.1.1M55.9,16.9c0,0,0-.1,0-.2,0,0,0,0,0-.1,0,0,0,.1,0,.2,0,0,0,0,0,.1"/>
    <path class="st3" d="M54.2,19.3c0-.5.2-1,.2-1.5.4-.6.8-1.2,1.1-1.7,0,0,0,0,0,0,0,0,0,.2.2.4-.2.3-.4.5-.5.8.2-.2.4-.4.5-.7,0,0,0,.1,0,.2-.5.6-1.1,1.2-1.6,1.9,0,0,0,0,0,0,0,0,.2,0,.2-.1,0,0,.1-.1.2-.1s0,0,0,0c-.2.3-.5.5-.7.8"/>
  </g>
  <g class="st8">
    <path class="st3" d="M56.3,72.8h0c0,0-.2,0-.2,0-.2-.2-.3-.5-.6-.6,0-1,1-1.8.9-2.7,0-.4-.6-1-.9-1.3-.3-.4-.6-.9-1-1.1,0-.1,0-.2.1-.3,0,0,.1,0,.2,0,0,0,0,0,0,0,.7.2,1.1,1.4,1.8,1.8-.3-.6-.8-1.3-1-1.8,0,0,0,0,0,0,.4.4.5,1,1,1.4-.3-.6-.4-1-.7-1.3.1,0,.2,0,.3,0,.2.3.4.5.4.8,0-.2,0-.5.1-.7.1,0,.2,0,.3,0-.3,1.7-.8,3.4-1.4,4.8.2.2.4.5.6.8,0,0,0,0,0,0"/>
    <path class="st11" d="M55.7,66.8s0,0,0,0c0,0,0,0,0,0,0,0,0,0,0,0,0,0,0,0,.1,0M56.3,66.9c-.1,0-.2,0-.3,0,0,0,0,0,0,0,.1,0,.2,0,.3,0,0,0,0,0,0,0M54.5,67.1c0-.2.1-.3.2-.4,0,0,.2,0,.3,0,0,0,0,0,0,0,0,0-.1,0-.2,0,0,0,0,.2-.1.3,0,0,0,0,0,0,0,0,0,0,0,0M57.2,67.1c-.1,0-.2,0-.3,0,0,0,0,0,0,0,0,0,.2,0,.3,0,0,0,0,0,0,0M56.4,73.1s0,0,0,0c0-.1-.1-.2-.2-.3,0,0,.2,0,.2,0h0s0,0,0,0c0,0,.1.2.2.3,0,0-.2,0-.3,0"/>
    <path class="st3" d="M57.1,72.6c.1-1.7.6-3.1,1-4.5,0-.3-.2-.1-.1-.4,0-.1,0-.2.1-.3.1,0,.3,0,.4.1-.3,1-.6,2-.8,3.1,0,0,0,0,0,0,0,0,0,0,.1,0,0,0,.1,0,.2,0s0,0,.1,0c.2.2.3.6.4.9.7-.3,0-1.4-.4-1.4s0,0,0,0c-.1-.2,0-.3,0-.7.5.3.8.8,1.1,1.3-.2.3-.3.5-.5.7,0,.1-.2.2-.3.3-.3-.1-.5-.4-.7-.6-.1.4-.2.8-.2,1.3,0,0-.2,0-.3.1"/>
    <path class="st11" d="M58.5,67.5c-.1,0-.3,0-.4-.1,0,0,0,0,0,0,.1,0,.3,0,.4.1,0,0,0,0,0,0M58.5,71.8s0,0,0,0c.1,0,.2-.2.3-.3.2-.2.4-.5.5-.7,0,0,0,.1.1.2,0,0,0,0,0,.1-.1.2-.3.4-.4.6-.1,0-.3.1-.4.2M57.1,73c0-.1,0-.2,0-.3.1,0,.2,0,.3-.1,0,.1,0,.2,0,.3,0,0-.2,0-.3.1"/>
  </g>
  <g class="st6">
    <path class="st1" d="M55.5,12.9s-.2-.2-.2-.2c0,0,0-.2-.2,0-.1.1-.2.2-.3.3,0,0-.2.2-.2.4,0,.2.1.4.3.5.2,0,.2,0,.3-.2,0-.2.2.1.3-.1,0-.2.3,0,.2-.2,0-.3-.2-.4-.2-.4"/>
    <path d="M55.5,12.9h.1c0-.1,0-.1,0-.1h0c0,0,0-.1,0-.1h0s0,0,0,0h0s0,0,0,0h0s0,0,0,0h0s0,0,0,0c0,0,0,0,0-.1,0,0,0,0,0,0,0,0,0,0-.1,0,0,0-.2,0-.2,0,0,0-.2.2-.3.3,0,0,0,0-.1.2,0,0,0,.2,0,.3h0c0,0,0,0,0,0,0,.2.2.5.4.6h0c0,0,.1,0,.2,0,0,0,0,0,.1,0,0,0,0,0,.1-.1,0,0,0,0,0-.2h0s0,0,0,0h0c0,0,0,0,0,0h0s0,0,0,0h0c0,0,0,0,0,0h0s0-.1,0-.1h0c0,.1,0,0,0,0h0c0,0,0,0,0,0h0c0,0,0,0,0,0h0s0,0,.1,0c0,0,.1,0,.2,0,0,0,0,0,0-.1h0s0,0,0,0h0s0,0,0,0h0s0,0,0,0h0s0,0,0,0h0c0,0,0,0,0,0h0s0,0,0,0h0c0,0,0,0,0,0h0s0,0,0,0h0c0,0,0,0,0,0h0s0,0,0,0h0s0,0,0,0h0s0,0,0,0h0s0,0,.1-.1c0,0,0,0,0,0,0,0,0,0,0-.1h0c0-.3-.3-.5-.3-.5h0c0,.1.1,0,.1,0h-.1c0,.1,0,.3,0,.3h0c0,0,0,0,0,0h0s0,0,0,0h0c0,0,0,0,0,0,0,0,.1.1.1.2h0,0s0,0,0,0h0s0,0,0,0h0s0,0,0,0h0,.1-.1s0,0,0,0h.1-.1c0,0,.1,0,.1,0h0c0-.1,0,0,0,0h.1c0,0,0,0,0,0h0c0,.1,0,0,0,0h0s0,.1,0,.1h0c0-.1,0,0,0,0h0c0,0,0,0,0,0h0c0,0,0,0,0,0,0,0,0,0-.1,0,0,0-.1,0-.2,0,0,0,0,0-.1.1h0s0,0,0,0h0c0,0,0,0,0,0h0s0,0,0,0h0c0,0,0,0,0,0h0s0,.1,0,.1h0c0-.1,0,0,0,0h0c0,0,0,0,0,0h0c0,0,0,0,0,0h0s0,0-.1,0c0,0-.1,0-.2,0,0,0,0,0,0,.1h0s0,0,0,0c0,0,0,.1,0,.1h0s0,0,0,0h0s0,0,0,0h0c0,0,0,0,0,0h0c0-.1,0,0,0,0h0c0,0,0,0,0,0h0c0,0,0,0,0,0h0s0,0,0,0h0c0,0,0,0,0,0h0s0,0,0,0h0s0,0,0,0h0c0,0-.2-.2-.2-.3h0s0,0,0,0h0c0,0,0-.1,0-.1,0,0,0,0,0,0,0,0,.2-.1.3-.3h0s0,0,0,0h0s0,0,0,0h0c0,0,0,0,0,0h0c0,0,0,0,0,0h0c0,0,0,0,0,0h0s0,0,0,0h0c0,0,0,0,0,0h0s0,0,0,0h0s0,0,0,0h0s0,0,0,0h0c0,0,0,0,0,.1,0,0,.2.2.2.2h0s0,0,0,0h0Z"/>
  </g>
  <g class="st7">
    <path d="M55.8,16.4h-.2c0,.3.3.8.6,1.3.9,1.6,2.3,4.1,2.3,4.1h.2c0,0-.2,0-.2,0,0,0,.6,2.2,1.5,5,.9,2.7,2.2,5.9,3.4,7.9h0s0,0,0,0c1.5,2.4,3,4.4,4.2,6.4,1.2,2,2,4,2,6.3s-.3,2.8-.9,4.5h0c-1,2.7-2.3,5.7-4,8-1.8,2.3-4,4-7,4-.7,0-1.5,0-2.4-.3v.2s0-.2,0-.2c-3.4-1-5.8-3-8.3-5.2-2.5-2.1-4.9-4.4-8-5.6v.2c0,0,0-.2,0-.2-1.4-.6-2.8-.9-4.2-.9-2.7,0-5.2,1-7.7,2.2-2.5,1.2-4.8,2.7-7.1,3.7h0c-1.4.6-2.6.9-3.7.9-1.3,0-2.4-.4-3.3-1-1.4-1-2.4-2.6-3.1-4.5-.8-1.9-1.3-4-1.7-6h-.2s.2,0,.2,0c-.1-1.5-.3-3.2-.3-4.9s.2-3.3.8-4.6h0s0,0,0,0c.7-1.9,1.6-2.7,2.7-3.3,1.1-.6,2.5-.9,4.3-1.7h0s0,0,0,0c2-1,3.2-2.3,4.2-3.8,1-1.5,1.8-3.1,3.2-4.8h-.1c0-.1.1,0,.1,0,.6-.6,1.3-1.4,2.1-2,.7-.6,1.5-1.1,2.4-1.2v-.2s0,.2,0,.2c.1,0,.2,0,.3,0,.8,0,1.6.3,2.4.7.8.4,1.6.7,2.4.7.3,0,.6,0,.9-.2h0c.8-.3,1.4-.8,1.7-1.4.6-.8.8-1.8,1.3-2.5.2-.3.5-.6,1-.9.4-.2,1-.3,1.8-.3s.3,0,.4,0h0c1.6,0,2.5.3,2.9.7.2.2.4.4.4.7,0,.3.1.6.1,1,0,.5,0,1,0,1.7,0,.6,0,1.2.2,1.9h0s0,0,0,0c.3,1.2,1,2.3,2,3.1,1,.8,2.2,1.3,3.4,1.3,1,0,2-.3,2.9-1.1h-.1c0-.1.1,0,.1,0,.6-.5,1.1-1.2,1.4-2.1.6-1.3.9-2.9,1.2-4.5.3-1.6.5-3.1.7-4.1h0s0,0,0,0c0,0,0-.1,0-.2,0,0,0,0,0,0h0s0,0,0,0h0s0,0,0,0h0s0,0,0,0h0s0,0,0,0h0s0,0,0,0h0s0,0,0,0h0s0,0,0,0h0s0,0,0,0h0s0,0,.2.2c.1.2.2.4.4.9h0s0,0,0,0h.2c0,0,.2-.1.2-.1-.2-.5-.3-.8-.5-1,0-.1-.1-.2-.2-.2,0,0-.2,0-.2,0-.1,0-.2,0-.3.1,0,0-.1.2-.1.3,0,0,0,.2,0,.2h.2s-.2,0-.2,0c-.3,1.4-.5,3.6-1,5.6-.2,1-.5,2-.9,2.9-.4.8-.8,1.5-1.3,1.9h0s0,0,0,0c-.8.7-1.7,1-2.7,1-1.1,0-2.3-.5-3.2-1.2-.9-.8-1.6-1.8-1.9-2.9h-.2s.2,0,.2,0c-.1-.6-.2-1.2-.2-1.8s0-1.2,0-1.7,0-.7-.1-1.1c-.1-.5-.5-.9-1-1.2-.6-.3-1.4-.4-2.6-.5h0c-.1,0-.3,0-.4,0-1.1,0-1.8.2-2.4.7-.8.6-1.1,1.5-1.5,2.4-.4.8-.9,1.6-2,2h0c-.3.1-.5.1-.8.1-.7,0-1.5-.3-2.3-.7-.8-.4-1.6-.7-2.6-.7-.1,0-.2,0-.4,0h0c-.9.1-1.8.7-2.5,1.3-.8.6-1.5,1.4-2.1,2h0s0,0,0,0c-1.4,1.8-2.2,3.4-3.2,4.9-1,1.4-2.1,2.7-4.1,3.7v.2c0,0,0-.2,0-.2-1.7.7-3.1,1.1-4.3,1.7-1.2.6-2.1,1.5-2.8,3.5h.2c0,0-.2,0-.2,0-.6,1.4-.8,3.1-.8,4.8s.2,3.4.3,4.9h0s0,0,0,0c.5,2.7,1.3,5.7,2.5,7.9.6,1.1,1.4,2.1,2.4,2.8,1,.7,2.1,1.1,3.5,1.1s2.4-.3,3.9-.9h0c2.3-1,4.7-2.5,7.1-3.7,2.4-1.2,5-2.2,7.5-2.2,1.3,0,2.7.3,4,.9h0s0,0,0,0c3.1,1.2,5.5,3.4,7.9,5.6,2.5,2.1,5,4.2,8.4,5.3h0s0,0,0,0c.9.2,1.7.3,2.5.3,3.1,0,5.5-1.7,7.3-4.1,1.8-2.4,3.1-5.4,4.1-8.1h0s0,0,0,0c.6-1.7.9-3.2.9-4.6,0-2.4-.8-4.5-2-6.5-1.2-2-2.7-4-4.2-6.4h0c-1.2-1.9-2.5-5.1-3.4-7.9-.5-1.4-.8-2.6-1.1-3.5-.1-.4-.2-.8-.3-1.1,0-.3-.1-.4-.1-.4h0s0,0,0,0c0,0-.2-.3-.4-.7-.4-.6-.9-1.6-1.4-2.5-.2-.4-.5-.9-.7-1.2-.2-.4-.3-.7-.4-.8h-.2Z"/>
    <polygon points="75.6 34 75.6 24.9 81.7 24.9 81.7 26 76.8 26 76.8 28.8 81 28.8 81 29.9 76.8 29.9 76.8 34 75.6 34"/>
    <polygon points="75.6 34 75.8 34 75.8 25.2 81.4 25.2 81.4 25.8 76.5 25.8 76.5 29.1 80.8 29.1 80.8 29.6 76.5 29.6 76.5 33.7 75.6 33.7 75.6 34 75.8 34 75.6 34 75.6 34.3 77 34.3 77 30.1 81.3 30.1 81.3 28.6 77 28.6 77 26.3 81.9 26.3 81.9 24.7 75.3 24.7 75.3 34.3 75.6 34.3 75.6 34"/>
    <rect x="83.4" y="24.9" width="1.2" height="9"/>
    <polygon points="83.4 34 83.7 34 83.7 25.2 84.4 25.2 84.4 33.7 83.4 33.7 83.4 34 83.7 34 83.4 34 83.4 34.3 84.9 34.3 84.9 24.7 83.2 24.7 83.2 34.3 83.4 34.3 83.4 34"/>
    <path d="M86.8,34v-9h4c.6,0,1.2,0,1.6.2.4.1.8.4,1.1.8.3.4.5.9.5,1.5,0,1.4-.8,2.2-2.5,2.5.6.3,1.2.8,1.7,1.7l1.6,2.5h-1.5l-1.2-1.9c-.4-.7-.8-1.2-1-1.5-.2-.3-.5-.5-.7-.5-.2,0-.5-.1-.9-.1h-1.4v4h-1.2ZM88,28.9h2.6c1.5,0,2.2-.5,2.2-1.5s-.6-1.5-1.9-1.5h-2.9v3Z"/>
    <path d="M86.8,34h.3v-8.8h3.7c.6,0,1.1,0,1.5.2h0c.4,0,.7.3,1,.7h0c.3.4.4.8.4,1.4,0,.7-.2,1.1-.6,1.5-.4.4-.9.6-1.8.7h-.9c0,.1.9.5.9.5.5.2,1.1.7,1.6,1.6h0s1.3,2.1,1.3,2.1h-.9l-1.1-1.8h0c-.4-.7-.8-1.2-1.1-1.5l-.2.2.2-.2c-.3-.3-.5-.5-.8-.6h0c-.3-.1-.6-.2-1-.2h-1.7v4h-.9v.3h.3-.3v.3h1.5v-4h1.1c.4,0,.7,0,.8.1.2,0,.4.2.6.5h0c.2.2.6.7,1,1.4l1.3,2h2.1l-1.8-2.9h0c-.6-.9-1.2-1.5-1.8-1.8v.2c-.1,0,0,.3,0,.3.9-.1,1.6-.4,2.1-.9.5-.5.7-1.1.7-1.9,0-.6-.2-1.2-.5-1.7h0c-.3-.5-.8-.8-1.3-.9h0s0,0,0,0c-.5-.1-1-.2-1.7-.2h-4.3v9.6h.3v-.3ZM88,28.9v.3h2.6c.8,0,1.4-.1,1.8-.4.2-.1.4-.3.5-.6.1-.2.2-.5.2-.8s0-.5-.1-.7c-.1-.3-.4-.6-.8-.8-.4-.2-.8-.2-1.3-.2h-3.1v3.5h.3v-.3h.3v-2.7h2.6c.6,0,1,.1,1.3.3.1,0,.2.2.3.4,0,.1,0,.3,0,.5s0,.4-.1.6c-.1.2-.3.4-.6.5-.3.1-.7.2-1.3.2h-2.6v.3h.3-.3Z"/>
    <path d="M95.5,31.1h1.1c0,.6.4,1.1.9,1.5.5.3,1.1.5,1.8.5s1.3-.2,1.7-.5c.4-.3.6-.7.6-1.1s-.2-.8-.5-1c-.3-.2-1.1-.5-2.2-.7-1.2-.3-1.9-.6-2.3-1-.4-.4-.6-.9-.6-1.5,0-.8.3-1.4.9-1.9.6-.4,1.4-.6,2.3-.6s2,.3,2.5.8c.6.5.9,1.2.9,1.9h-1.1c-.1-1.1-.9-1.6-2.2-1.6s-2.1.5-2.1,1.4.1.6.4.9c.3.2.9.4,1.7.6.8.2,1.5.4,2,.5.5.2.8.5,1.1.8.3.4.5.9.5,1.4,0,.9-.3,1.5-1,2-.7.5-1.4.7-2.4.7s-2.2-.3-2.9-.9c-.6-.6-1-1.3-1-2.2"/>
    <path d="M95.5,31.1v.3s1.1,0,1.1,0v-.3s-.3,0-.3,0c0,.8.4,1.4,1,1.8.5.4,1.2.6,2,.6.8,0,1.4-.2,1.9-.5h0c.2-.2.4-.4.5-.6.1-.2.2-.5.2-.7s0-.5-.2-.7c-.1-.2-.3-.4-.5-.5h0s0,0,0,0c-.2-.1-.5-.3-.9-.4-.4-.1-.9-.3-1.4-.4h0,0c-1.1-.3-1.9-.6-2.2-1h0s0,0,0,0c-.4-.4-.5-.8-.5-1.3,0-.4,0-.7.2-1s.3-.5.6-.7h0c.6-.4,1.3-.6,2.1-.6,1.1,0,1.8.2,2.3.7h0s0,0,0,0c.5.5.8,1,.8,1.7h.3s0-.3,0-.3h-1.1c0,0,0,.4,0,.4h.3c0-.7-.3-1.2-.7-1.5-.4-.3-1-.5-1.7-.5-.7,0-1.3.1-1.7.4-.2.1-.4.3-.5.5-.1.2-.2.5-.2.7s0,.4.1.6c0,.2.2.3.4.5h0s0,0,0,0c.2.1.4.2.7.3.3.1.7.2,1.1.3.8.2,1.5.4,1.9.5.4.2.7.4,1,.8h0s0,0,0,0c.3.3.4.7.4,1.2,0,.4,0,.7-.2,1-.1.3-.4.5-.7.8h0s0,0,0,0c-.6.4-1.3.7-2.2.7-1.2,0-2.1-.3-2.7-.8h0s0,0,0,0c-.6-.5-.9-1.2-.9-2h-.3s0,.3,0,.3v-.3s-.3,0-.3,0c0,.9.4,1.8,1.1,2.4h0c.7.6,1.7.9,3.1.9,1,0,1.8-.3,2.5-.8h0s0,0,0,0c.4-.3.6-.6.8-1,.2-.4.3-.8.3-1.3s-.2-1.1-.5-1.6h0c-.3-.4-.8-.7-1.2-.9h0s0,0,0,0c-.5-.2-1.1-.4-2-.6-.4,0-.8-.2-1-.3-.3,0-.5-.2-.6-.3v.2c-.1,0,0-.2,0-.2-.1,0-.2-.2-.2-.3,0-.1,0-.2,0-.4s0-.3.1-.5c0-.2.3-.3.5-.4.3-.1.7-.2,1.2-.2s1.1.1,1.4.4c.3.2.5.6.5,1.1v.3s1.7-.1,1.7-.1v-.3c0-.8-.4-1.6-1-2.1h0s0,0,0,0c-.6-.6-1.5-.8-2.7-.8-.9,0-1.7.2-2.4.7h0c-.3.2-.6.5-.8.9-.2.4-.3.8-.3,1.2,0,.6.2,1.2.7,1.7h0c.5.5,1.3.8,2.5,1.1h0,0c.6.1,1,.3,1.4.4.4.1.6.2.8.3h0s0,0,0,0c.1,0,.2.2.3.3,0,.1,0,.3,0,.4,0,.2,0,.3-.1.5,0,.1-.2.3-.3.4h0c-.3.2-.8.4-1.5.4-.7,0-1.2-.2-1.7-.5h0s0,0,0,0c-.4-.3-.7-.7-.8-1.4v-.2s-1.7.1-1.7.1v.2s.3,0,.3,0Z"/>
    <polygon points="106.6 34 106.6 26 103.6 26 103.6 24.9 110.8 24.9 110.8 26 107.8 26 107.8 34 106.6 34"/>
    <polygon points="106.6 34 106.9 34 106.9 25.8 103.9 25.8 103.9 25.2 110.5 25.2 110.5 25.8 107.5 25.8 107.5 33.7 106.6 33.7 106.6 34 106.9 34 106.6 34 106.6 34.3 108.1 34.3 108.1 26.3 111 26.3 111 24.7 103.3 24.7 103.3 26.3 106.3 26.3 106.3 34.3 106.6 34.3 106.6 34"/>
    <polygon points="75.6 46.6 75.6 37.6 76.8 37.6 76.8 45.6 81.3 45.6 81.3 46.6 75.6 46.6"/>
    <polygon points="75.6 46.6 75.9 46.6 75.9 37.8 76.6 37.8 76.6 45.8 81 45.8 81 46.4 75.6 46.4 75.6 46.6 75.9 46.6 75.6 46.6 75.6 46.9 81.5 46.9 81.5 45.3 77.1 45.3 77.1 37.3 75.4 37.3 75.4 46.9 75.6 46.9 75.6 46.6"/>
    <path d="M81.7,46.6l3.5-9h1.3l3.7,9h-1.4l-1.1-2.7h-3.8l-1,2.7h-1.3ZM84.3,42.9h3.1l-.9-2.5c-.3-.8-.5-1.4-.6-1.9-.1.6-.3,1.2-.5,1.7l-1,2.6Z"/>
    <path d="M81.7,46.6h.2c0,0,3.4-8.8,3.4-8.8h.9l3.5,8.5h-.8l-1.1-2.7h-4.1l-1,2.7h-1.1v.3h.2c0,0-.2,0-.2,0v.3h1.5l1-2.7h3.4l1.1,2.7h1.9l-3.9-9.6h-1.6l-3.7,9.6h.4v-.3ZM84.3,42.9v.3h3.5l-1.1-2.9h0c-.3-.8-.5-1.4-.6-1.9h-.5c-.1.6-.3,1.2-.5,1.7l-1.1,3h.4v-.3h.2c0,0,1-2.6,1-2.6.2-.6.4-1.2.5-1.8h-.3c0,0-.3,0-.3,0,.1.5.4,1.1.6,1.9l.8,2.1h-2.7v.3h.2c0,0-.2,0-.2,0Z"/>
    <polygon points="91.1 46.6 91.1 37.6 92.3 37.6 97.1 44.7 97.1 37.6 98.3 37.6 98.3 46.6 97 46.6 92.3 39.5 92.3 46.6 91.1 46.6"/>
    <polygon points="91.1 46.6 91.4 46.6 91.4 37.8 92.2 37.8 97.4 45.6 97.4 37.8 98 37.8 98 46.4 97.2 46.4 92 38.7 92 46.4 91.1 46.4 91.1 46.6 91.4 46.6 91.1 46.6 91.1 46.9 92.5 46.9 92.5 40.4 96.9 46.9 98.5 46.9 98.5 37.3 96.8 37.3 96.8 43.8 92.5 37.3 90.9 37.3 90.9 46.9 91.1 46.9 91.1 46.6"/>
    <path d="M104.5,43.1v-1.1h3.8v3.4c-1.2.9-2.4,1.4-3.7,1.4s-2.5-.4-3.4-1.3c-.8-.8-1.3-2-1.3-3.4s.4-2.4,1.1-3.4c.8-.9,1.9-1.4,3.4-1.4s3.3.9,3.7,2.7l-1.1.3c-.4-1.3-1.3-2-2.6-2s-1.9.3-2.4,1c-.6.6-.9,1.5-.9,2.7s.3,2.2,1,2.8c.6.6,1.4.9,2.4.9s1.9-.3,2.6-.9v-1.7h-2.7Z"/>
    <path d="M104.5,43.1h.3v-.8h3.3v3.1h.3l-.2-.2c-1.1.9-2.3,1.4-3.6,1.4-1.3,0-2.4-.4-3.2-1.2h0c-.8-.8-1.2-1.8-1.2-3.2,0-1.3.4-2.3,1.1-3.2h0s0,0,0,0c.4-.4.8-.7,1.3-.9.5-.2,1.2-.3,1.9-.3,1,0,1.7.2,2.3.6.6.4.9,1,1.2,1.9h.3c0,0,0-.3,0-.3l-1.1.3v.3c0,0,.3,0,.3,0-.2-.7-.5-1.2-1-1.6-.5-.4-1.1-.5-1.8-.5-1.1,0-2,.3-2.6,1h0c-.6.7-.9,1.7-.9,2.8,0,.7,0,1.2.3,1.7.2.5.4.9.8,1.2.7.6,1.5.9,2.5.9,1.1,0,2.1-.3,2.8-1h0v-2.1h-2.9v.3h.3-.3v.3h2.4v1.4h.3l-.2-.2c-.7.6-1.5.9-2.5.9-.9,0-1.6-.3-2.2-.8-.3-.3-.5-.6-.6-1-.1-.4-.2-.9-.2-1.6,0-1.1.3-1.9.8-2.5h0s0,0,0,0c.5-.6,1.2-.9,2.2-.9.6,0,1.1.2,1.5.4.4.3.7.7.8,1.3v.2c0,0,1.6-.4,1.6-.4v-.2c-.3-.9-.7-1.7-1.4-2.2-.7-.5-1.5-.7-2.6-.7s-1.5.1-2.1.4c-.6.2-1.1.6-1.5,1.1h0c-.8,1-1.2,2.1-1.2,3.5,0,1.5.4,2.7,1.3,3.6h0c.9.9,2.1,1.3,3.5,1.3,1.4,0,2.7-.5,3.9-1.5h0v-3.8h-4.4v1.6h.3v-.3Z"/>
    <path d="M116,37.6h1.2v5.2c0,.7,0,1.4-.2,2-.2.6-.5,1.1-1.1,1.4-.6.4-1.3.6-2.2.6s-2.2-.3-2.7-.9c-.6-.6-.8-1.6-.8-3v-5.2h1.2v5.2c0,.6,0,1.1.1,1.5,0,.4.3.7.7,1,.4.3.8.4,1.5.4s1.5-.2,1.9-.6c.4-.4.6-1.2.6-2.3v-5.2Z"/>
    <path d="M116,37.6v.3h.9v5c0,.7,0,1.4-.2,1.9h0s0,0,0,0c-.1.5-.4.9-1,1.3-.5.3-1.2.5-2.1.5s-1.1,0-1.6-.2c-.4-.1-.7-.4-1-.6-.5-.5-.8-1.5-.8-2.9v-5h.7v5c0,.6,0,1.1.1,1.6h0s0,0,0,0c.1.5.4.9.8,1.2.4.3,1,.4,1.6.4s.8,0,1.2-.2c.3-.1.6-.3.9-.5.2-.2.4-.6.5-1,.1-.4.2-.9.2-1.5v-5.2h-.3v.3-.3h-.3v5.2c0,.6,0,1-.1,1.4,0,.4-.2.6-.4.8-.2.2-.4.3-.6.4-.3,0-.6.1-1,.1s-1-.1-1.3-.3c-.3-.2-.5-.5-.6-.8h-.3c0,0,.3,0,.3,0,0-.4-.1-.9-.1-1.4v-5.5h-1.7v5.5c0,1.4.3,2.5.9,3.2.3.3.7.6,1.2.8.5.2,1.1.2,1.7.2,1,0,1.8-.2,2.4-.6.6-.4,1-.9,1.2-1.6h0c.2-.6.3-1.3.3-2.1v-5.5h-1.7v.3h.3Z"/>
    <path d="M118.2,46.6l3.5-9h1.3l3.7,9h-1.4l-1.1-2.7h-3.8l-1,2.7h-1.3ZM120.8,42.9h3.1l-.9-2.5c-.3-.8-.5-1.4-.6-1.9-.1.6-.3,1.2-.5,1.7l-1,2.6Z"/>
    <path d="M118.2,46.6h.2c0,0,3.4-8.8,3.4-8.8h.9l3.5,8.5h-.8l-1.1-2.7h-4.1l-1,2.7h-1.1v.3h.2c0,0-.2,0-.2,0v.3h1.5l1-2.7h3.4l1.1,2.7h1.9l-3.9-9.6h-1.6l-3.7,9.6h.4v-.3ZM120.8,42.9v.3h3.5l-1.1-2.9h0c-.3-.8-.5-1.4-.6-1.9h-.5c-.1.6-.3,1.2-.5,1.7h0s-1.1,3-1.1,3h.4v-.3h.2c0,0,1-2.6,1-2.6.2-.6.4-1.2.5-1.8h-.3c0,0-.3,0-.3,0,.1.5.4,1.1.6,1.9h0s.8,2.1.8,2.1h-2.7v.3h.2c0,0-.2,0-.2,0Z"/>
    <path d="M131.9,43.1v-1.1h3.8v3.4c-1.2.9-2.4,1.4-3.7,1.4s-2.5-.4-3.4-1.3c-.8-.8-1.3-2-1.3-3.4s.4-2.4,1.1-3.4c.8-.9,1.9-1.4,3.4-1.4s3.3.9,3.7,2.7l-1.1.3c-.4-1.3-1.3-2-2.6-2s-1.9.3-2.4,1c-.6.6-.9,1.5-.9,2.7s.3,2.2,1,2.8c.6.6,1.4.9,2.4.9s1.9-.3,2.6-.9v-1.7h-2.7Z"/>
    <path d="M131.9,43.1h.3v-.8h3.3v3.1h.3l-.2-.2c-1.1.9-2.3,1.4-3.6,1.4-1.3,0-2.4-.4-3.2-1.2h0s0,0,0,0c-.8-.8-1.2-1.8-1.2-3.2,0-1.3.4-2.3,1.1-3.2.4-.4.8-.7,1.3-.9.5-.2,1.2-.3,1.9-.3,1,0,1.7.2,2.3.6.6.4.9,1,1.2,1.9h.3c0,0,0-.3,0-.3l-1.1.3v.3c0,0,.3,0,.3,0-.2-.7-.5-1.2-1-1.6-.5-.4-1.1-.5-1.8-.5-1.1,0-2,.3-2.6,1h0c-.6.7-.9,1.7-.9,2.8,0,.7,0,1.2.3,1.7.2.5.4.9.8,1.2.7.6,1.5.9,2.5.9,1.1,0,2.1-.3,2.8-1h0v-2.1h-2.9v.3h.3-.3v.3h2.4v1.4h.3l-.2-.2c-.7.6-1.5.9-2.5.9-.9,0-1.6-.3-2.2-.8-.3-.3-.5-.6-.6-1-.1-.4-.2-.9-.2-1.6,0-1.1.3-1.9.8-2.5.5-.6,1.2-.9,2.2-.9.6,0,1.1.2,1.5.4.4.3.7.7.8,1.3v.2c0,0,1.6-.4,1.6-.4v-.2c-.3-.9-.7-1.7-1.4-2.2-.7-.5-1.5-.7-2.6-.7s-1.5.1-2.1.4c-.6.2-1.1.6-1.5,1.1h0s0,0,0,0c-.8,1-1.2,2.1-1.2,3.5,0,1.5.4,2.7,1.3,3.6.9.9,2.1,1.3,3.5,1.3,1.4,0,2.7-.5,3.9-1.5h0v-3.8h-4.4v1.6h.3v-.3Z"/>
    <polygon points="137.5 46.6 137.5 37.6 144 37.6 144 38.7 138.7 38.7 138.7 41.4 143.7 41.4 143.7 42.5 138.7 42.5 138.7 45.6 144.2 45.6 144.2 46.6 137.5 46.6"/>
    <polygon points="137.5 46.6 137.7 46.6 137.7 37.8 143.8 37.8 143.8 38.4 138.4 38.4 138.4 41.7 143.4 41.7 143.4 42.2 138.4 42.2 138.4 45.8 144 45.8 144 46.4 137.5 46.4 137.5 46.6 137.7 46.6 137.5 46.6 137.5 46.9 144.5 46.9 144.5 45.3 138.9 45.3 138.9 42.7 143.9 42.7 143.9 41.2 138.9 41.2 138.9 38.9 144.3 38.9 144.3 37.3 137.2 37.3 137.2 46.9 137.5 46.9 137.5 46.6"/>
  </g>
  <g class="st10">
    <path d="M145.5,43.7h1.1c0,.6.4,1.1.9,1.5.5.3,1.1.5,1.8.5s1.3-.2,1.7-.5c.4-.3.6-.7.6-1.1s-.2-.8-.5-1c-.3-.2-1.1-.5-2.2-.7-1.2-.3-1.9-.6-2.3-1-.4-.4-.6-.9-.6-1.5,0-.8.3-1.4.9-1.9.6-.4,1.4-.6,2.3-.6s2,.3,2.5.8c.6.5.9,1.2.9,1.9h-1.1c-.1-1.1-.9-1.6-2.2-1.6s-2.1.5-2.1,1.4.1.7.4.9c.3.2.9.4,1.7.6.8.2,1.5.4,2,.5.5.2.8.5,1.1.8.3.4.5.9.5,1.4,0,.8-.3,1.5-1,2-.7.5-1.4.7-2.4.7s-2.2-.3-2.9-.9c-.6-.6-1-1.3-1-2.2"/>
    <path d="M145.5,43.7v.3s1.2,0,1.2,0v-.3s-.3,0-.3,0c0,.8.4,1.4,1,1.8h0s0,0,0,0c.5.4,1.2.6,2,.6.8,0,1.4-.2,1.9-.5h0s0,0,0,0c.2-.2.4-.4.5-.6.1-.2.2-.5.2-.7,0-.2,0-.5-.2-.7-.1-.2-.3-.4-.5-.5h0c-.2-.1-.5-.3-.9-.4-.4-.1-.9-.3-1.4-.4h0,0c-1.1-.3-1.9-.6-2.2-1h0s0,0,0,0c-.4-.4-.5-.8-.5-1.3,0-.4,0-.7.2-1,.1-.3.3-.5.6-.7h0s0,0,0,0c.6-.4,1.3-.6,2.1-.6,1.1,0,1.8.2,2.3.7h0c.5.5.8,1,.8,1.7h.3s0-.3,0-.3h-1.1c0,0,0,.4,0,.4h.3c0-.7-.3-1.2-.7-1.5-.4-.3-1-.5-1.7-.5-.7,0-1.3.1-1.7.4-.2.1-.4.3-.5.5-.1.2-.2.5-.2.7s0,.4.1.6c0,.2.2.3.4.5h0s0,0,0,0c.2.1.4.2.7.3.3.1.7.2,1.1.3h0c.8.2,1.5.4,1.9.5.4.2.7.4,1,.8h0s0,0,0,0c.3.3.4.7.4,1.2,0,.4,0,.7-.2,1-.1.3-.4.5-.7.8h0c-.6.4-1.3.7-2.2.7-1.2,0-2.1-.3-2.7-.8h0s0,0,0,0c-.6-.5-.9-1.2-.9-2h-.3s0,.3,0,.3v-.3s-.3,0-.3,0c0,.9.4,1.8,1.1,2.4h0s0,0,0,0c.7.6,1.7.9,3.1.9,1,0,1.8-.3,2.5-.8h0c.4-.3.6-.6.8-1,.2-.4.3-.8.3-1.3,0-.6-.2-1.1-.5-1.6h0s0,0,0,0c-.3-.4-.7-.7-1.2-.9-.5-.2-1.1-.4-2-.6h0c-.4,0-.8-.2-1-.3-.3,0-.5-.2-.6-.3h0c-.1,0-.2-.2-.2-.3,0-.1,0-.2,0-.4s0-.3.1-.5c0-.2.3-.3.5-.4.3-.1.7-.2,1.2-.2s1.1.1,1.4.4c.3.2.5.6.5,1.1v.3s1.7-.1,1.7-.1v-.3c0-.8-.4-1.6-1-2.1h0s0,0,0,0c-.6-.6-1.5-.8-2.7-.8-.9,0-1.7.2-2.4.7h0c-.3.2-.6.5-.8.9-.2.4-.3.8-.3,1.2,0,.6.2,1.2.7,1.7h0s0,0,0,0c.5.5,1.3.8,2.5,1.1h0c.6.1,1,.3,1.4.4.4.1.6.2.8.3h0c.1,0,.2.2.3.3,0,.1,0,.3,0,.4s0,.3-.1.5c0,.1-.2.3-.4.4h0c-.3.2-.8.4-1.5.4-.7,0-1.2-.2-1.7-.5h0,0c-.4-.3-.7-.7-.8-1.4v-.3s-1.7.1-1.7.1v.2s.3,0,.3,0Z"/>
  </g>
  <g class="st9">
    <path d="M74.9,59.5l3.4-8.8h1.2l3.6,8.8h-1.3l-1-2.7h-3.7l-1,2.7h-1.2ZM77.4,55.9h3l-.9-2.4c-.3-.7-.5-1.3-.6-1.8-.1.6-.3,1.1-.5,1.7l-1,2.6Z"/>
    <path d="M89.8,50.7h1.2v5.1c0,.7,0,1.4-.2,1.9-.2.6-.5,1-1,1.4-.5.4-1.3.5-2.2.5s-2.1-.3-2.7-.9c-.5-.6-.8-1.6-.8-2.9v-5.1h1.2v5.1c0,.6,0,1.1.1,1.5,0,.4.3.7.7,1,.3.2.8.4,1.4.4.8,0,1.4-.2,1.8-.6.4-.4.6-1.1.6-2.2v-5.1Z"/>
    <path d="M92.5,56.7h1.1c0,.6.4,1.1.8,1.4.5.3,1.1.5,1.8.5s1.3-.1,1.6-.4c.4-.3.5-.6.5-1.1s-.2-.7-.5-1c-.3-.2-1.1-.5-2.2-.7-1.1-.3-1.9-.6-2.3-1-.4-.4-.6-.9-.6-1.4,0-.8.3-1.4.9-1.8.6-.4,1.3-.6,2.2-.6s1.9.2,2.4.7c.5.5.8,1.1.9,1.9h-1.1c-.1-1-.8-1.6-2.1-1.6s-2,.4-2,1.3.1.6.4.8c.3.2.8.4,1.7.6.8.2,1.5.4,1.9.5.4.2.8.4,1.1.8.3.4.4.8.4,1.4,0,.8-.3,1.5-1,1.9-.6.5-1.4.7-2.3.7s-2.2-.3-2.8-.8c-.6-.6-.9-1.3-1-2.1"/>
    <polygon points="103.3 59.5 103.3 51.8 100.4 51.8 100.4 50.7 107.3 50.7 107.3 51.8 104.4 51.8 104.4 59.5 103.3 59.5"/>
    <path d="M108.5,59.5v-8.8h3.9c.6,0,1.1,0,1.6.2.4.1.8.4,1.1.8.3.4.5.9.5,1.5,0,1.4-.8,2.2-2.5,2.4.6.3,1.1.8,1.7,1.6l1.5,2.4h-1.5l-1.2-1.8c-.4-.7-.8-1.1-1-1.4-.2-.3-.5-.4-.7-.5-.2,0-.5-.1-.9-.1h-1.3v3.9h-1.2ZM109.7,54.6h2.5c1.4,0,2.2-.5,2.2-1.5s-.6-1.4-1.9-1.4h-2.8v2.9Z"/>
    <path d="M116.4,59.5l3.4-8.8h1.3l3.6,8.8h-1.3l-1-2.7h-3.7l-1,2.7h-1.2ZM118.9,55.9h3l-.9-2.4c-.3-.7-.5-1.3-.6-1.8-.1.6-.3,1.1-.5,1.7l-1,2.6Z"/>
    <polygon points="125.5 59.5 125.5 50.7 126.7 50.7 126.7 58.5 131 58.5 131 59.5 125.5 59.5"/>
    <rect x="132.6" y="50.7" width="1.2" height="8.8"/>
    <path d="M134.8,59.5l3.4-8.8h1.3l3.6,8.8h-1.3l-1-2.7h-3.7l-1,2.7h-1.2ZM137.3,55.9h3l-.9-2.4c-.3-.7-.5-1.3-.6-1.8-.1.6-.3,1.1-.5,1.7l-1,2.6Z"/>
  </g>
</svg>