<?xml version="1.0" encoding="UTF-8"?>
<svg id="Layer_1" xmlns="http://www.w3.org/2000/svg" version="1.1" viewBox="0 0 162.9 166.3">
  <!-- Generator: Adobe Illustrator 29.1.0, SVG Export Plug-In . SVG Version: 2.1.0 Build 142)  -->
  <defs>
    <style>
      .st0 {
        fill: #fff;
      }

      .st1 {
        fill: #14487e;
      }
    </style>
  </defs>
  <rect class="st1" x="18.2" y="19.9" width="126.4" height="126.4"/>
  <path class="st0" d="M41.8,57l20.2,21.7c.2.3.5.3.8.3,3.9,0,13.2,0,13.2,0l-9.3-9.4c-.3-.3-.3-.5-.1-.9,3.2-5.4,4.3-11.2,2.8-17.3-2.6-10.8-12.4-18.5-23.8-17.8-3.3.2-6.4,1-9.3,2.4-8.9,4.5-14.2,14.3-12.3,24.6,1.2,6.6,4.7,11.9,10.3,15.6,6.3,4.1,13.1,4.6,20.2,2.4,1-.3,1.9-.8,2.8-1.3h0c-2.8-3-8.6-9.2-8.6-9.2-.1-.1-.4-.2-.5-.1-1.2.3-2.3.2-3.5,0-7-1-11.5-7.6-9.9-14.5,1.3-5.8,6.9-9.8,12.8-9.1,6,.7,11.3,5.8,10.7,12.9,0,1-.3,2-.7,2.9-1-.9-2-1.8-2.9-2.7-.3-.3-.6-.4-1.1-.4h-12Z"/>
  <path class="st0" d="M72.3,33.8v32.5c0,.7,0,1.4.3,2.1,1.4,4.8,4.4,8.1,9.1,9.8,4.7,1.8,9.5,1.9,14.4.7,3.5-.9,6.5-2.7,8.5-5.7,1.5-2.2,2.4-4.7,2.4-7.4,0-5.7,0-11.5,0-17.2,0-.4,0-.6-.3-.9-3.5-3.6-6.9-7.2-10.4-10.8-.2-.2-.4-.4-.7-.7v.8c0,9.5,0,18.9,0,28.4,0,.4,0,.7,0,1.1-.3,1.3-1.3,2-2.5,2.3-2.2.6-4.4.6-6.6,0-1.8-.6-2.6-1.6-2.6-3.5v-31.3h-11.5Z"/>
  <path class="st0" d="M115.1,45v33.9h11.8v-33.9h12.3v-11.1h-42.6l10.3,10.8c.2.2.5.3.8.3h7.4Z"/>
</svg>