<?xml version="1.0" encoding="UTF-8"?>
<svg id="Layer_1" xmlns="http://www.w3.org/2000/svg" version="1.1" viewBox="0 0 162.9 166.3">
  <!-- Generator: Adobe Illustrator 29.1.0, SVG Export Plug-In . SVG Version: 2.1.0 Build 142)  -->
  <defs>
    <style>
      .st0 {
        fill: #fff;
      }

      .st1 {
        fill: #20285c;
      }
    </style>
  </defs>
  <rect class="st1" x="18.2" y="19.9" width="126.5" height="126.5"/>
  <path class="st0" d="M107.1,45.5l-8.3-10.8c-1.1.8-3.1,1.5-4.9,1.5s-3.4-.2-4.9-.5c-2-.5-4.3-.9-7.9-.9s-6,.5-8,.9c-1.5.3-2.9.5-4.9.5s-3.7-.8-4.9-1.5l-8.3,10.8c1.1.9,2.9,3.2,2.9,6.3s-.3,4.2-.8,6.3c-.5,3.1-.9,6.5-.9,11.7,0,8.6,5.5,16.2,14.5,19.6,6.6,2.5,9.3,4.3,10.5,5.4,1.1-1.1,3.9-2.9,10.3-5.4,8.9-3.4,14.7-11,14.7-19.6s-.6-8.6-1.1-11.7c-.5-2.2-.8-4.2-.8-6.3,0-3.1,1.8-5.4,2.9-6.3Z"/>
  <path class="st1" d="M98.8,34.7l8.3,10.8c-1.1.9-2.9,3.2-2.9,6.3s.3,4.2.8,6.3c.5,3.1,1.1,6.5,1.1,11.7,0,8.6-5.7,16.2-14.7,19.6-6.5,2.5-9.3,4.3-10.3,5.4-1.2-1.1-3.9-2.9-10.5-5.4-8.9-3.4-14.5-11-14.5-19.6s.5-8.6.9-11.7c.5-2.2.8-4.2.8-6.3,0-3.1-1.8-5.4-2.9-6.3l8.3-10.8c1.2.8,3.1,1.5,4.9,1.5s3.4-.2,4.9-.5c2-.5,4.3-.9,8-.9s5.9.5,7.9.9c1.5.3,2.9.5,4.9.5s3.9-.8,4.9-1.5ZM98.9,34l-.5.3c-1.1.6-2.9,1.4-4.6,1.4s-3.4-.3-4.8-.6c-2.2-.3-4.5-.8-8-.8s-6,.5-8,.8c-1.5.3-2.9.6-4.9.6s-3.5-.8-4.6-1.4l-.5-.3-.5.5-8.2,10.6-.5.5.5.5c1.1.9,2.8,2.9,2.8,5.9s-.3,4-.8,6.3c-.5,2.9-1.1,6.5-1.1,11.7,0,8.9,5.9,16.8,15.1,20.2,6.6,2.6,9.3,4.3,10.2,5.2l.5.3.3-.3c1.1-.9,3.6-2.6,10.2-5.2,9.3-3.4,15.1-11.3,15.1-20.2s-.6-8.8-1.1-11.7c-.3-2.3-.6-4.2-.6-6.3s1.7-4.9,2.6-5.9l.5-.5-.5-.5-8.2-10.6-.5-.5Z"/>
  <path class="st1" d="M102.5,51.7c0-2.8,1.2-4.9,2.5-6.3l-6.6-8.6c-1.2.8-2.8,1.1-4.5,1.1s-3.7-.2-5.2-.5c-2-.5-4.2-.9-7.6-.9s-5.7.5-7.7.9c-1.6.3-3.1.5-5.2.5s-3.2-.3-4.5-1.1l-6.6,8.6c1.2,1.4,2.5,3.5,2.5,6.3s-.5,4.3-.8,6.6c-.5,3.1-1.1,6.5-1.1,11.4,0,8,5.2,15,13.6,18.2,5.2,1.8,8.2,3.5,9.9,4.6,1.5-1.1,4.5-2.8,9.7-4.6,8.3-3.2,13.6-10.2,13.6-18.2s-.6-8.3-1.1-11.4c-.3-2.3-.8-4.3-.8-6.6Z"/>
  <path class="st1" d="M62.1,39.4c-3.2-.8-4.8-1.2-4.8-1.2,0,2,.9,2.9.9,2.9,0,0,.3.8.9,1.9l2.9-3.6Z"/>
  <path class="st1" d="M102.6,49.5c1.4-.8,1.8-1.2,2.3-2.6,0,0,1.2-1.1,1.7-1.8,1.2-1.4,1.7-3.1,1.7-3.1,1.1-1.2,1.4-2.9,1.4-2.9,1.1-1.7,1.2-3.1,1.2-3.1,0,0-2.5.8-7.6,2.5-.8.2-3.6,1.1-3.6,1.1l2.8,10Z"/>
  <path class="st0" d="M63.8,56.3l.6,1.2,1.2-.3-.6,1.2,1.1.8-1.4.2.2,1.4-1.1-.9-1.1.9.2-1.2-1.4-.3,1.2-.9-.6-1.2,1.2.5.5-1.2ZM71.2,59.7l-1.2-.5.6,1.2-1.1.8,1.4.3-.2,1.4,1.1-.9.9.9v-1.5h1.4l-1.2-.9.8-1.2-1.4.5-.5-1.4-.6,1.4ZM61.8,67.7l-1.2-.5.6,1.2-1.1.8,1.2.3v1.4l1.1-.9.9.9v-1.4l1.4-.2-1.2-.9.8-1.1-1.4.3-.5-1.2-.6,1.2ZM71.3,68.2h-1.2l.9.8-.3,1.2.9-.8,1.1.8-.3-1.2.9-.8h-1.2l-.5-1.1-.3,1.1ZM71.2,76.5l-1.2-.5.6,1.2-1.2.8,1.4.3-.2,1.4,1.1-.9,1.1.9-.2-1.4,1.4-.2-1.1-.9.6-1.1-1.2.3-.6-1.2-.5,1.2ZM83.2,79.8c.8-.5.9-.8,1.2-1.2,0-.2.2-.3.2-.3,0-.3.2-.5.3-.8-4-4.6-6.9-9.9-7.9-11.9-.2,1.7,0,5.1,1.1,7.3.6,1.4.8,1.4,2.5,3.5l.3.3.2.3c-.3-.2-.6-.3-.6-.3-.5-.3-1.7-1.2-2.8-2.8,0,2.3,1.1,4.3,1.8,5.2.8.8,1.8.9,2.5.9s.9-.2,1.2-.3ZM90.6,81.2c.9,0,2.3-.5,2.6-1.1.2-.2.5-.5.9-.8.3-.2.6-.2.9-.3.8-.3,1.4-.5,1.2-1.8-5.6-3.4-7.9-6.8-7.7-6.8,0,0,1.1.9,2.5,2.2,1.2.9,3.9,3.1,6.2,4.2.2.2,0,2.2-1.4,2.8,0,0-.2.2-.5.2-.6.3-1.7.6-1.5,1.4,0,0,.3.2.8.2.9,0,2.3-.5,2.8-1.4.2-.3.3-.6.5-.9.5-.9.6-1.4,1.8-1.7-.5-.5-3.1-3.2-4.3-4.5-1.2-1.4-2.2-2.9-2.2-3.1,0,0-.3-.3-.6-.5-1.2-.9-2.6-1.2-3.9-1.6-1.2-.2-2-.5-2.5-.9-.8-.6-.6-1.8-.5-2.3-.2,0-.3.3-.3.3-.2.3-.5.8-1.1.8h-.2c-.5,0-.8-.3-1.1-1.1,0-.3-.2-.3-.2-.3h-.2c-.2.3-.2,1.1,0,1.4,0,.2-.2.2-.2.3h-.2c-.2,0-.3,0-.3-.2-.2-.2-.3-.3-.5-.6,0,.3-.2.8-.6.8s-.6-.3-.9-.5c-.3-.3-.5-.6-.8-.6,0,0-.2,0-.2.2-.2,0-.3.2-.5.2s-.2-.2-.3-.3c-.5-.5.2-1.1.3-1.2-.2-.2-.5-.3-.8-.3s-.9.2-1.1.6c-.2.3,0,.6.2.8.5,1.1,4.3,8.2,8.3,12.5.3.3.3.6.2.9-.6.6-.8,1.2-.6,1.7.3.6.9.6.9.6.3.2.5.2.6.2.8,0,1.1-.5,1.4-.9.3-.8.8-.9.9-.9s.3.2.3.2c.2,0,.2.2.3.3,0,.2,0,.3-.2.6-.2.2-.5.3-.8.5-.3.2-.5.3-.5.3,0,.2.9.8,2.3.8h.2ZM83.7,68.4c.8,1.1,2.6,3.9,5.9,7.6,0,0,.2.3-.2.9l-.2.2v-.2s-.2-.3-.3-.5c-4-4.6-5.7-8.5-5.7-8.5,0,0,.2,0,.5.5ZM93.4,68.8c.2-.2.3-.5.3-.9s0-.6.2-.8c.2-.3.3-.3.6-.5-.3-.2-.6-.3-1.1-.5-.9-.6-2.3-1.4-4-2.6.3.6.9,1.1,1.5,1.7l.2.2-.2-.2c-.2,0-.6-.2-.8-.3h-.2c-.8-.5-1.5-1.2-2.2-2.2,0,0-.9-1.4-1.8-3.7-.3-.6-2-3.4-2.6-4-.9-.2-2.2-.2-2.5-.2h-.5c-.8,0-1.4.2-1.5.3-1.4,3.5-1.7,6-1.8,7.4v.2c.3-.2.6-.3,1.1-.3s1.2.3,1.4.6c.2.3,0,.6-.2.8-.2,0-.2.2-.3.3.2-.2.3-.2.5-.2.5,0,.9.5,1.2.6v.2q.3.2.5.3c0-.2.2-.5.2-1.4-.5-3.1,1.1-5.2,1.1-5.2,0,0-1.1,3.5-.3,5.7.2-.6.5-.8.8-.8h.2c.3,0,.6.2.8.8q.3.6.6.6c.2,0,.3-.2.6-.5.2-.3.3-.6.8-.6h.2c.2,0,.5.2.5.6-.3,2.2.6,2.3,2.5,2.6,1.1.2,2.3.5,3.5,1.2-.2-.3-.5-.6-.6-.8,0,0,0-.2-.2-.2v-.2h.2s1.2.2,1.6,1.7ZM94.8,67.3h-.3c-.2.2-.2.3-.2.6-.2.3-.2.6-.3.9.8-.2,1.2-.6,1.2-1.1s0-.3-.2-.3c-.2-.2-.3-.2-.3-.2ZM86,57.9h.2c.5-.8.2-2,0-2.6.8.5,1.7.8,2.3.9,0-.6-.2-1.4-.3-2.2.8.6,2,1.1,2.5,1.1,0-.8-.5-2-.5-2.2.3.2,1.1.5,1.7.6.2-.5.3-1.1.2-1.7,0,0-1.1.2-1.7.2h-.5c-.3,0-.9-.2-1.4-.3-.5,0-.8,0-1.1-.2h-.3c-.3-.2-.6-.2-1.1-.2h-.6c-.2,1.2-.9,2.3-1.2,2.9q-.2.2-.2.3c.8,1.1,1.8,2.9,2,3.2ZM72.1,49.9c-.3-.3-.3-.6-.3-.8-.5-.2-1.4-.3-2.2-.8-.3.2-1.4.3-2.6.3h-.9c.3.3.6.5.9.5,0,0,.3,0,.9-.2h.3c.8,0,1.5.3,2.3.8.2,0,.9.3,1.2.6,0-.2.2-.3.3-.5ZM102.5,48.9c.6-.2,1.2-.8,1.7-1.5-.8.5-1.4.6-2.2.6h.2-.6c0,.2-.2.5-.8.8.6.3,1.4.2,1.7.2ZM93.1,49.1c.3-.2.5-.2.8-.2,1.5-.2,1.7-.2,2-.3l.2-.2c.2-.2.5-.5.8-.6h.3c.2,0,.3,0,.3-.2.3-.2.6-.3.8-.3.3,0,.3.2.3.3.2,0,.2.3,0,.5q.2,0,.3-.2h.2s.2,0,.3-.2h.2c.2,0,.3.2.3.2.2.2.3.3.3.5.5,0,.8-.3.9-.6-.6-.2-1.4-.5-2-1.1-.2-.3-.2-.6-.3-.8-2.2.9-6,1.7-7.3,2v.5c0,.2-.2.2-.2.3.2.2.5.5.5.5,0,0,1.1-.2,1.4-.2ZM73,48.3c-.2,0-.2-.2-.2-.3-1.4-.9-3.1-1.2-4.2-1.2.3.3.6.6,1.1.9.9.6,2.5.8,2.8.8,0,0,.2-.2.5-.2ZM68.9,47.9c-.3-.3-.6-.6-.9-1.1h-1.2c-1.5,0-2.9-.2-4.3-.8.8.8,2,1.7,2.9,1.8.6.2,1.1.2,1.7.2s1.4,0,1.8-.2ZM98.9,45.2h0s0-.2.3-.3c0,0,.2-.2.3-.2.5-.2.9-.5,1.1-.6h.2c.2-.2.3-.3.5-.5-.8-.2-1.2-.3-1.7-.5-4.2.9-8,2.5-9.3,3.1.3.2.3.5.2.9.2,0,.3.2.5.2.8-.2,5.7-1.1,8-2.2ZM104.2,46.6c.5-.3,1.1-.8,1.7-1.5-1.4.6-2.6.8-4,.8h-.2c-1.1,0-1.8-.2-2.3-.3v.2s-.2.3.2.6c.5.6,1.4,1.1,2,1.1h.5c.5,0,1.2,0,2.2-.8ZM67.8,46.2c-.2-.3-.3-.8-.5-1.1-.3-.9-1.1-1.1-1.1-1.1-3.6-.8-6-2-7.3-2.8.5.9.8,1.9,1.5,2.6.9.9,2,1.7,3.6,2h.2c.5.2.9.3,1.4.3h2.2ZM89.4,45.8h0c.6-.2,4.6-1.8,9.3-2.9-.9-.5-1.8-.6-2.8-.6s-1.5,0-2.3.3c-2.6.6-4.3,1.7-5.2,2.3.2.2.3.2.5.2.3.3.5.6.5.8h.2ZM101.9,45.2c.9,0,2.3-.2,3.6-.6,1.2-.5,1.8-1.8,2.2-2.3-1.8.9-3.4,1.2-5.7,1.4-.2.5-.5.8-.8.9v.2c-.3.2-.5.2-.8.3.3,0,.9.2,1.5.2ZM73.8,51.1c.8-.8,1.2-.9,2.2-1.4.6-.8,1.5-1.2,2.5-1.4-1.1-.8-1.8-1.7-1.8-2.9s-.6-2.6-1.4-3.1c-1.1-.9-2.6-.9-4.6-1.1-1.4,0-2.9-.2-4.8-.5,0,0-3.2-.6-4.2-.8,0,0-2.3-.6-3.5-.9.2.6.6,1.1,1.4,1.7.2,0,2.5,1.7,6.8,2.5v.2h.5c3.5.8,4.3.9,4.5.9,1.1.3,2,.8,2.3,1.1.2.2.3.3.3.3l.2.3-.6-.3c-.9-.3-1.6-.5-2.3-.8-.2,0-.8-.2-3.4-.8.2.3.2.5.3.6v.2c.2.3.3.8.5,1.2.6,0,2.8.2,4.6,1.2.3-.3.8-.3.9-.3h.2c0-.3,0-.6.2-.8.3-.3.6-.3.9-.3h.2c.2-.2.3-.3.3-.3.3-.2.6-.2.6-.2l.2-.2-.3.3c-.3.5-.2.9-.2.9h-.6c-.3,0-.5,0-.6.2-.2.2,0,.5,0,.5l.3.5h-.9c-.3,0-.5,0-.5.2h-.2c0,.2-.2.3.5.8l.2.2h-.2s-.9.2-1.2.3q-.2,0-.2.2c-.2,0,0,.2.2.3l.3.2s-.6.3-.6.8l1.4.6ZM67.3,41.8h0c.3,0,2,.3,2.9.3.5.2,2.8.5,3.6.9.6.3,1.1,1.1,1.2,1.7l.2.3s-.2,0-.5-.5c-.3-.3-.8-.8-1.2-1.1-1.7-.8-4.5-.8-6.2-1.7ZM101.6,43.1l.2-.2c1.2,0,3.9-.3,5.2-1.1,1.2-.8,1.7-1.7,1.8-2.5-.3.2-.6.3-1.2.5l-.3.2c-.8.3-1.8.6-2.9.9-2,.5-3.7,1.2-4.6,1.7.5.2,1.1.5,1.8.5ZM83,45.2c.5-.3.5-.6.5-.8-.3-.6-.8-1.1-1.4-1.2l-3.1-.3h.2c.3.2,1.1.6,1.2,1.4.2.2.3.2,1.1.2l.2.2h.5c.3,0,.6.3.6.3.2.2.3.3.3.5v-.2ZM90.8,49.4h.2c-.3-.5-.8-.6-.8-.6l.3-.2c.2-.2.3-.3.3-.3v-.2c-.2-.3-.3-.3-.6-.3h-.2l-.6.2.3-.5c.3-.8.2-.9,0-.9-.2-.2-.3-.2-.5-.2s-.3,0-.3.2h-.2l-.6.2.3-.5c.2-.3.2-.5-.2-.6,0-.2-.2-.2-.3-.2,0,0-.2,0-.3.2l-.5.3v-.2c0-.5-.5-1.2-.5-1.2,0,0,.3,0,.8.2.8-.6,2.5-1.8,5.9-2.8.8-.3,1.7-.3,2.5-.3s2,.2,3.1.6c.6-.3,2.8-1.4,5.1-2,1.4-.3,2.6-.8,3.1-.9l.8-.3c.8-.3,1.7-.8,2-2.2l-9.6,3.2c-1.4.5-4,.8-6.3.9-1.1.2-2,.2-2.8.3-4.3.8-4.8,2.8-4.9,3.9q0,.2-.2.2c-.2,1.1-.5,1.8-1.1,2.5h.5c.3,0,.6.2.9.3.2,0,.3,0,.5.2,0,0,.2,0,.3.2.5.2,1.1.3,2,.6h.2c.2.2.5.2.6.2.2.2.5.2.5.3q.2-.2.3-.2ZM83.4,43.1c.2-.2.3-.5.2-.6,0-.3-.3-.6-.8-.8h-.8c-1.1,0-2.3.3-2.6.8l2.9.3c.2,0,.5.2.9.3h.2ZM65.9,49.7c-.3-.2-.5-.3-.8-.3s-.8.2-1.2.6c.9,0,1.1.5,1.5,0l.5-.3ZM66.1,50l-.3.3c-.3.5,0,.6,0,1.4.5-.3.6-.8.6-1.1s-.2-.5-.3-.6ZM65,51.1l-.3.3c-.3.5.2.6.3,1.4.3-.3.3-.8.3-1.2s-.2-.5-.3-.5ZM64.1,52.3l-.2.5c-.2.5.2.6.5,1.4.2-.5.3-.9.2-1.4-.2-.2-.3-.3-.5-.5ZM64.5,50.8c-.2-.2-.5-.2-.6-.2-.5.2-.8.5-1.1.9.9-.2,1.1.2,1.6-.3l.2-.5ZM63.6,52.2h-.6c-.5.2-.8.6-.9,1.1.8-.3,1.1,0,1.4-.6l.2-.5ZM63.5,53.4c-.2.2-.3.3-.3.5-.2.3,0,.8.2,1.1.2-.6.6-.8.3-1.2l-.2-.3ZM69.8,51.7l-.2.6c-.2.6.3.5.8,1.2.2-.5.2-.9-.2-1.4,0-.2-.3-.3-.5-.5ZM69.5,51.7c-.3-.2-.5,0-.8,0-.3.2-.6.6-.8,1.1.8-.5,1.1-.2,1.4-.6l.2-.5ZM69,53.2c-.2-.2-.5-.2-.6-.2-.5.2-.8.5-.9.9.8-.3,1.1,0,1.4-.5l.2-.3ZM68.2,54.5c-.2,0-.5-.2-.6,0-.5,0-.8.3-1.1.6.8-.2,1.1.3,1.4-.2l.3-.5ZM69.3,53.4l-.2.3c-.3.6.2.6.3,1.6.3-.5.5-.9.3-1.4,0-.2-.2-.5-.5-.5ZM68.6,54.8l-.3.3c-.5.5,0,.6,0,1.5.5-.3.6-.8.6-1.2s-.2-.5-.3-.6ZM67.6,55.7h-.5c-.5-.2-.3.3-.9.8.5,0,.8-.2,1.1-.3.2-.2.3-.3.3-.5ZM83.7,51.9c0,.8.2,1.5-.2,2.2-.2.2-.3.3-.3.5-.9-.2-2-.2-2.3-.2h-.5c-.5,0-.9.2-1.4.2.2-.2.2-.3.3-.6h.2-.5c-.5,0-.8-.2-1.1-.5-.2-.3-.2-.6-.2-.8.2-.3.3-.5.5-.8.2-.2.5-.6.6-.8,0-.2.2-.3.2-.5.2.2.3.3.6.3.2.2.3.2.5.2.3,0,.6-.2.9-.3-.5.5-1.8.8-1.8.8l.2.2h.5c.6,0,1.1-.2,1.7-.5.9-.5,2-2,2-2.2.2,0,.2-.2.3-.2-.5.8-.3,1.5-.3,2.3.2.2.2.3.2.6ZM82.9,52.6c-.3.5-.5.9-1.4.9s-1.2-.8-1.2-.8c0,.3.3,1.4,1.2,1.2,1.2,0,1.4-1.4,1.4-1.4ZM84.1,52.9l.2-.2.2-.2c.3-.6.5-1.2.5-1.4v-.2s0-.3.2-.3c1.1,0,2.3.2,3.4.3.2.2.5.2.8.2.3.2.8.2,1.1.2.6,0,1.2,0,1.8-.2l2.6-.8c0-.2.2-.2.3-.2.3,0,.8-.2,1.1-.2h.5c.9,0,2-.5,2.3-.6.3-.3.3-.5.5-.8v-.3h-.2s-.2.2-.3.2c-.3.2-1.4.5-1.7.5.2-.2.3-.3.5-.5.2-.2.3-.3.5-.5,0-.2-.2-.2-.2-.2q-.2.2-.3.2c-.2.2-.3.3-.6.3s-.5.2-.6.3c-.3.3-.5.5-.8.5l-3.7.5c-.3.2-.6.2-.9.2-.2.2-.5.2-.8.2-.5-.2-1.1-.3-1.7-.5-.8-.2-1.4-.5-2-.8,0,0-.8-.3-1.4-.3h-.5c-.2,0-.8.6-.8,2,.2.6.2.9.2,1.2v1.2ZM78.7,48.9h0c-.9,0-1.7.3-2.3,1.2h.2c-1.1.5-1.7.8-2.5,1.4-.2,0-1.1-.3-2.2-.6-.5-.3-1.1-.5-1.5-.6h.2c-.8-.5-1.5-.8-2-.8h-.3c-.5,0-1.1,0-1.4.2v.2h.9c.6,0,.9.2,1.1.6-.2.2-.3.2-.3.2q-.2.2-.5.3h-.2s0,.2.2.2h.5c.2-.2.3-.2.5-.2s.3,0,.6-.2c.6.3,1.2.8,1.8,1.2.5.5.9.9,1.9,1.4h.3c.2,0,.3,0,.5-.2.6-.3,3.5-2,3.9-2.2.5-.5.6-1.1.6-1.2v-.2c.2-.3.2-.6.3-.8h-.2ZM85.1,44.3c-.3.2-.5.3-.6.3s-.3,0-.5-.2v.3c.2.2.3.2.5.2.3,0,.6-.3.6-.6ZM84,43.8c.2.3.5.3.6.2.3-.2.5-.5.5-.5q0-.3-.2-.3c-.2,0-.3-.2-.3-.3s-.2-.2-.2-.2c0-.2-.2,0-.3,0,0,.5-.3.8-.5.8l.3.3ZM81,41.4s-.5-.2-.8-.3c-.5,0-.8.2-.9.2-.3.2-.5.6-.3.8.5-.3,1.2-.6,2-.6ZM83.8,48.2c-.2,0-.2-.2-.3-.2-1.1-.5-.8-1.4-.8-2.3-.2-.2-.2-.3-.3-.2-.2,0-.5.5-1.1.2.2,0,.5-.2.6-.2.2-.2.2-.5.2-.6h-.3c-.2,0-.3.2-.3.3,0,0-.2,0-.5-.2,0-.2-.3-.2-.5-.2-.3,0-.5,0-.6-.3,0-.6-.6-1.1-1.1-1.2-.2.3-.3.5-.3.8.2.3.5.3.8.3s-.3.5-.3.6c-.2,0-.2-.2,0-.3,0-.2-.2-.2-.3-.2,0,.5-.3,1.1-.3,1.1,0,.2.5.2.5.2v.5h.3s0,.2-.2.2c0,0,0,.2.2.2,0,.2,0,.5.2.6.6,0,1.2-.6,1.8-1.1,0,.5-.6.8-.6,1.2,0,0,0,.5-.2.9s-.6.3-1.1.5v.5c0,.2-.2.8.3,1.1.2,0,.3.2.5.2h.2c.3,0,.8-.3,1.2-.6.6-.3.9-.6,1.2-.9.3-.2.6-.5,1.1-.8ZM92.5,51.7c.8,1.1,1.7,1.1,2.5.8-.9-.2-1.1-.3-1.7-.9,0,0-.5.2-.8.2ZM78.4,54.5q-.3-.2-.6-.3c-.6-.3-.9-1.2-.5-2l.2-.2c-.3.2-3.2,1.8-3.2,1.8,0,0,0,.2.3.3.6.2,1.2,0,1.7,0-.3.3-.6.9-.5,1.6.6-.2.9-.3,1.2-.9,0,.6,0,1.7.5,2.2.2-.3.5-1.2.9-2.5ZM93.9,51.4c.3.3.8.6,1.7.8.6.2,1.5,0,1.8-.2-1.1-.2-1.5-.6-2.2-1.1-.2,0-.8.2-1.4.5ZM96,50.8c.5.3.9.8,1.8.9,1.1.3,2.5-.3,2.5-.5-.9,0-1.5-.3-2.3-.8-.8.5-1.7.2-2,.3ZM98.8,50.2c.5.2.8.3,1.2.5,1.1.3,1.8-.5,2.2-.9v-.2q-1.5,0-2.2-.3c-.2.2-.5.6-1.2.9Z"/>
  <path class="st1" d="M81,87.2c11.4,0,13.4,9.3,25.1,9.3s7.3-3.1,7.3-3.1l-1.2-6.2c1.6-1.8,8-1.7,8-1.7l-5.5-7.1c-5.1.3-9.4,1.7-9.4,3.9v6.6c-6.9,0-11.6-9.1-24.2-9.1s-17.4,9.1-24.4,9.1v-6.6c0-2.2-4.2-3.6-9.4-3.9l-5.6,7.1s6.5-.2,8,1.7l-1.2,6.2s.2,3.1,7.3,3.1c11.7,0,13.7-9.3,25.3-9.3Z"/>
  <path class="st0" d="M108.5,85c2.6.8,2.9,1.2,2.9,1.5.2.3,0,.6-.2.8-.6.9-2.8,1.5-5.4,1.5v-5.1c.5.5,1.4.9,2.6,1.2ZM105.9,82.2c0,1.2,1.4,1.8,2.8,2.2,2.6.8,3.2,1.2,3.4,2,1.2-.9,3.4-1.2,6.8-1.4l-4.5-6c-1.8.2-3.7.5-4.9.8-2.2.6-3.5,1.5-3.5,2.5ZM111.7,87.8c-1.1,1.2-3.7,1.7-5.9,1.7h.2-.8c-3.1,0-5.7-1.7-8.6-3.7-3.9-2.5-8.2-5.2-15-5.4h-1.2c-6.8.2-11.3,2.9-15,5.4-3.1,2-5.7,3.7-8.8,3.7h-.6.2c-2.3,0-4.9-.5-6-1.7l-1.1,5.5c.2.5.9,2.5,6.6,2.5s8.9-2.3,12.5-4.6c3.2-2.2,6.6-4.5,12.2-4.6h1.2c5.4.2,8.8,2.5,12,4.6,3.5,2.3,6.8,4.6,12.5,4.6s6.5-2,6.6-2.5l-1.1-5.5ZM53.6,85c-2.8.8-3.1,1.2-3.1,1.5-.2.3,0,.6.2.8.8.9,2.8,1.5,5.4,1.5v-5.1c-.5.5-1.4.9-2.5,1.2ZM52.7,79.8c-1.4-.3-3.2-.6-4.9-.8l-4.6,6c3.4.2,5.6.5,6.8,1.4.2-.8.9-1.2,3.5-2,1.2-.3,2.6-.9,2.6-2.2s-1.4-1.9-3.4-2.5Z"/>
  <path class="st1" d="M111,93s.2.6.2.8h-.2q0-.2-.2-.2s-2.2.6-2.2.5l.2-.2-.6-2.8s0-.2-.3-.2l2.2-.5.2-.2.2-.2.2.8s-.2.2-.2,0h-.2l-1.4.3s.2.6.2.8l.8-.2.2-.2s.2-.2.2,0c0,0,.2.6.2.8h-.2q0-.2-.2-.2s-.6.2-.8.2c0,.2.2.8.2.9l1.4-.3.2-.2s.2-.2.2,0ZM97.7,91.2h0l-.5.8-.2-.2q.2,0,0-.2s-1.8-1.1-1.8-1.2h.2s.2,0,.2-.2l1.5-2.2q0-.2-.2-.3l.2-.2.8.6v.2c-.2-.2-.2,0-.3,0l-1.2,2,1.1.8h.3ZM75.8,85.5s0,.2-.2.2c-.2.2-.3.5-.9.8-.9.2-1.7-.3-2-1.2-.3-1.1.3-1.8,1.1-2.2.6-.2.8.2.9,0h.2l-.2.9h-.2v-.2c-.2-.2-.5-.2-.6-.2-.3.2-.9.3-.6,1.4.2.5.6.9,1.2.8.2-.2.3-.2.5-.3v-.5l.8.5ZM56.7,91.3c-.3-.2-.6-.3-1.1-.3s-.8,0-1.1.3c-.3.3-.5.8-.5,1.2,0,1.1.6,1.7,1.5,1.8.3,0,.8-.2.9-.5.3-.3.6-.8.6-1.2s-.2-1.1-.5-1.4ZM56.4,92.7c0,.3,0,.6-.3.9-.2,0-.3.2-.5.2-.6,0-.9-.5-.9-1.1.2-.5.2-.8.3-.9.2-.2.5-.3.6-.3.3,0,.5.2.6.3.2.2.2.5.2.9ZM106.2,91.2h-1.4l.2.2v2.9l-.2.2h1.4c.5,0,.9-.2,1.2-.5.2-.2.3-.6.3-1.2,0-.9-.5-1.5-1.5-1.5ZM107.1,92.7c0,.9-.3,1.1-1.1,1.1h-.3v-2.2h.3c.8.2,1.1.3,1.1,1.1ZM84.6,82.1l.3.2c.2.2.2,0,.2,0l.2.2-.6.6h-.2v-.2c0-.2-.3-.3-.6-.5q-.3,0-.5.2c-.2,0-.2.2-.2.2,0,.3.3.5.8.5.5.3,1.2.5,1.1,1.2,0,.3-.2.5-.3.8-.3.2-.6.3-1.2.2,0,0-.6-.2-1.1-.5,0,0-.2,0-.2.2l-.2-.2s.5-.6.6-.8v.2c0,.3.6.5.8.5.3.2.6,0,.6,0q.2-.2.2-.3c.2-.3-.3-.5-.6-.6-.6-.2-1.2-.3-1.1-1.1,0-.5.5-.9,1.2-.8.3,0,.6.2.8.2ZM90,83.8h0c.2.2,0,.2,0,.2l-.2.3-1.8,1.8s0,.2-.2.2h-.2l.9.5v-.3s.3-.5.5-.5l.9.5c0,.2-.2.6-.2.6v.2h-.2l.9.5v-.3l.2-2.8v-.2s0-.2.2,0c0-.2.2-.2.2-.2-.2,0-1.1-.5-1.1-.5ZM90,85.9l-.6-.3.8-.9-.2,1.2ZM100,89.5v.3l-.2.2-2,1.8v.2h-.3l.9.5v-.3l.5-.3.9.5v.5s0,.2-.2.2l-.2.2.9.5v-.5l.3-2.6v-.3h.2c0-.2-.9-.6-.9-.6ZM100,91.8s-.6-.3-.8-.5c0,0,.8-.8.9-.9,0,0-.2,1.2-.2,1.4ZM82,84.4v.8h-.2s0-.2-.2-.2l-2.3.2v-.2q.2,0,.2-.2v-2.8s0-.2-.3-.2v-.2h2.2q.2,0,.3-.2s.2.8,0,.8h-1.5v.8h.8q.2,0,.2-.2h.2v.8h-.2s0-.2-.2-.2c0,0-.6.2-.8.2,0,0,.2.6,0,.8h1.5s.2,0,.2-.2h.2ZM59.1,90.7h.6s-.3.8-.5.9v-.2c-.2-.2-.5-.3-.9-.3q-.2.2-.3.3v.2c0,.3.3.3.8.3s1.2,0,1.4.8c0,.3,0,.5-.2.8-.2.2-.5.5-1.1.6,0,0-.6,0-1.1-.2l-.2.2v-.2l.2-.8h.2v.2c0,.2.6.2.9.2.3-.2.5-.2.5-.3q.2-.2.2-.3c-.2-.3-.5-.3-.9-.3s-1.2,0-1.2-.6c-.2-.5,0-1.1.9-1.2h.8ZM66.2,90.1l.5.6h-.3l-2,1.2v-.2q.2,0,0-.2l-1.4-2.3h-.3v-.2l1.7-1.1q.2-.2.2-.3h.2l.3.6v.2q-.2-.2-.3,0l-1.1.6.5.6v.2l.6-.5.2-.2s0-.2.2-.2l.3.6s0,.2-.2.2c0,0,0-.2-.2,0,0,0-.6.3-.6.5l.5.6,1.1-.8q.2,0,.2-.2h.2ZM69,85.3c-.2,0,0,.2,0,.2h.2v.2l.5,2.8-.2.2v.2l.9-.5-.2-.2v.2-.2l-.2-.6.9-.5.5.3v.3l.9-.5h-.3v-.2l-2-1.8-.2-.2q-.2,0,0,0v-.2c-.2,0-.9.5-.9.5ZM70.7,86.7s-.6.3-.8.3c0-.2-.2-1.1-.2-1.2,0,0,.9.8.9.9ZM87.8,85.9h-.2c-.2,0-.5.3-1.2,0-.8-.2-1.2-1.1-.9-2,.3-1.1,1.2-1.4,2-1.2.6.3.8.6.8.6h.3-.2s-.5.6-.6.6v-.2c0-.2-.2-.5-.5-.5-.3-.2-.9-.2-1.2.8-.2.6,0,1.1.6,1.4.2,0,.5,0,.6-.2,0,0,.2,0,.2-.3l.3.9ZM53,90.6l-1.5-.3v.2c.2,0,.2.2.2.2l-.5,2.8h-.2l-.2.2,1.1.2-.2-.2.2-1.1.6.2c.9.2,1.2-.3,1.4-.8.2-.5-.2-1.1-.9-1.2ZM52.7,92l-.6-.2c0-.2.2-.6.2-.8l.5.2c.5,0,.6.2.6.5-.2.3-.3.3-.6.3ZM69.3,88.7c-.2,0-.3,0-.5-.2l-.9-.5c.5-.5.3-.9.2-1.2-.3-.5-.8-.6-1.5-.2l-1.2.8v.2q.2-.2.3,0l1.4,2.3c.2,0,.2.2,0,.2l.2.2.8-.6h-.3v-.2l-.6-.8s.3-.2.5-.3c.2.2,1.1.6,1.1.6,0,.2-.2.2-.2.2l.2.2.8-.5v-.2ZM66.4,87.5l.5-.3c.3-.2.5-.2.6,0,.2.3.2.5-.3.8l-.5.2s-.3-.5-.3-.6ZM78.9,85.2l-.3-.3-.6-.9c.5-.2.6-.6.5-.9,0-.5-.5-.9-1.2-.8l-1.5.2v.2c.2,0,.3.2.3.2l.5,2.8-.2.2v.2l1.1-.3h-.2c0-.2-.2-.2-.2-.2l-.2-1.1h.5c0,.2.6.9.6.9.2,0,0,.2,0,.2v.2l.9-.3ZM76.6,82.9h.6c.5-.2.6,0,.6.2,0,.3,0,.5-.5.6h-.6s0-.6-.2-.8ZM62.7,92.6q0,.2.2.2h.2s-.8.5-.9.5v-.3s-.9-2.2-1.1-2.2l-.6.3q-.2,0-.2.2s-.5-.6-.5-.8h.2s.2.2.2,0l2-.8q.2-.2.2-.3l.5.8h-.3l-.6.3.9,2.2ZM102.2,94c-.8-.2-1.1-.8-.9-1.5l.5-1.7c.2-.2,0-.2,0-.2v-.2s.6.2.9.3c-.2,0-.2.2-.2.2l-.5,1.8c-.2.2-.2.3,0,.5,0,.2.2.2.3.3.2,0,.3,0,.5-.2.2,0,.3-.2.3-.3l.6-1.8-.2-.2v-.2c.3.2.9.3.9.3v.2q-.2,0-.2.2l-.5,1.7c-.3.8-.8,1.1-1.7.8ZM92.1,88.6h0s.5-2.2.5-2.5c-.2.2-1.1,1.8-1.1,1.8v.3s-.8-.5-.8-.6q.2,0,.2-.2l1.5-2.3v-.3s1.1.6.9.6v.2h-.2l-.3,1.8h.2c-.2,0,1.4-1.1,1.4-1.1v-.3l.9.6v.2h-.2l-1.5,2.5v.3c-.2-.2-.8-.6-.8-.6h.3s.9-1.7,1.1-1.8c-.3.2-2,1.5-2,1.5q-.2,0-.2-.2Z"/>
  <path class="st0" d="M33.8,114.9h95.8v.6H33.8v-.6ZM45.9,102.8h-1.2s-.2,0-.2.2c0,0,0,.2.2.2h.2c.3,0,.5.2.5.5v2.2l-3.9-.2v-2c0-.3.2-.5.3-.5h.2c.2,0,.2-.2.2-.2q0-.2-.2-.2h-1.8c-.2,0-.3,0-.3.2l.2.2h.3c.3,0,.3.2.3.5v5.4c0,.3-.2.5-.2.5h-.3c-.2,0-.2.2-.2.2,0,.2.2.2.2.2h2c.3,0,.3-.2.3-.2l-.2-.2h-.5c-.2,0-.2-.2-.3-.5v-2.9l3.9.2v.9c0,.8,0,1.5-.2,1.8,0,.3,0,.5-.2.5h-.3v.2c0,.2.2.2.2.2h2c.2,0,.2-.2.2-.2,0,0,0-.2-.2-.2h-.3c-.3,0-.3-.2-.3-.5v-5.4c0-.3,0-.5.3-.5h.2l.2-.2c0-.2-.2-.2-.3-.2h-.6ZM51.6,102.8h-3.4c-.2,0-.3,0-.3.2,0,0,.2,0,.2.2h.3c.3,0,.3.2.3.5v5.4c0,.3,0,.5-.2.5h-.3c-.2,0-.2.2-.2.2,0,.2.2.2.3.2h3.1c.3,0,.5,0,.5-.3.2-.2.2-.8.2-.8,0-.2,0-.3-.2-.3v.3c-.2.3-.3.5-.5.5-.2.2-.6.2-.8.2-.9,0-1.1-.2-1.1-.6v-2.5l1.4.2c.3,0,.3.2.3.3l.2.2v.2c.2,0,.2-.2.2-.2v-.6l.2-.5c0-.2-.2-.2-.2-.2,0,0-.2,0-.2.2h-1.8v-2.5h1.2c.5.2.6.2.6.3v.3c0,.2.2.2.2.2q.2,0,.2-.2v-.6l.2-.3v-.2c0-.2-.2-.2-.2-.2,0,0,0,.2-.2.2ZM63.9,103.1v5.2c0,.8-.2,1.1-.3,1.1h-.3c-.2,0-.2.2-.2.2,0,.2.2.2.2.2h1.9c.2,0,.3,0,.3-.2,0,0,0-.2-.2-.2h-.5c-.2,0-.3-.2-.3-.9,0,0-.2-3.9-.2-4.2.3.2,2.3,2.5,2.3,2.5.9,1.1,2.3,2.3,2.3,2.5q.6.5.8.5t.2-.6v-5.4c0-.5,0-.6.3-.6h.2l.2-.2c0-.2-.2-.2-.2-.2h-1.7c-.2,0-.3,0-.3.2l.2.2h.5c.2,0,.3.2.3.8v4.5c-.2-.3-.6-.8-.6-.8l-1.4-1.5-2.9-3.2c-.2,0-.3-.2-.3-.2-.2,0-.2.2-.2.5ZM72.7,102.8h-.9c-.2,0-.3,0-.3.2l.2.2h.3c.2,0,.2.2.2.5l.2,1.8v1.7c0,.8,0,1.5-.2,1.8,0,.3,0,.5-.2.5h-.3l-.2.2c0,.2.2.2.3.2h2c.2,0,.2-.2.2-.2,0,0,0-.2-.2-.2h-.3c-.3,0-.3-.2-.3-.5-.2-.3-.2-1.1-.2-1.8v-1.7l.2-1.8c0-.3,0-.5.2-.5h.3c0-.2.2-.2.2-.2,0-.2-.2-.2-.3-.2h-.8ZM81.2,102.8h-1.1c-.2,0-.3,0-.3.2l.2.2h.3q.2,0,.2.2l-.2.3c-.2.6-1.2,3.5-1.8,4.8-.2-.3-1.7-4.5-1.7-4.5-.2-.3-.2-.6-.2-.6v-.2h.3l.2-.2c0-.2-.2-.2-.3-.2h-1.8c-.2,0-.3,0-.3.2l.2.2h.3c.3,0,.5.2.6.6l2.3,5.5c.2.5.2.6.3.6s.2-.2.3-.5l.2-.3,1.1-2.6.5-1.2.6-1.4c.2-.5.3-.6.5-.8h.5c.2,0,.2-.2.2-.2,0-.2-.2-.2-.3-.2h-.5ZM94.9,104.3c0,.6.2,1.2,1.2,2l.5.3c.8.8.9,1.1.9,1.5s-.5,1.2-1.2,1.2-1.1-.2-1.2-.9v-.3s0-.2-.2-.2-.2.2-.2.2v1.1c0,.2,0,.3.2.3.3.2.8.3,1.2.3s1.1-.2,1.4-.5c.6-.3.8-1.1.8-1.6s-.2-1.2-1.4-2.2l-.2-.2c-.9-.8-1.1-1.1-1.1-1.5s.5-.9,1.1-.9.9.3.9.5c.2,0,.2.3.2.5,0,0,0,.2.2.2s.2-.2.2-.3v-.9c0-.2-.2-.2-.2-.2h-.3c-.2-.2-.5-.2-.8-.2-1.2,0-2,.6-2,1.7ZM114.4,102.8h-.8q-.3,0-.3.2s.2,0,.2.2q.2,0,.2.2c0,.2,0,.3-.2.5-.2.2-1.1,2-1.4,2.5-.3-.5-1.5-2.5-1.7-2.8v-.5h.2q0-.2-.2-.2h-1.7c-.2,0-.2.2-.2.2l.2.2h.3c.3.2.5.5.6.8.3.5,1.5,2.5,1.7,2.5,0,.3.2.5.2.9v1.7c0,.2-.2.5-.3.5h-.2c-.2,0-.2.2-.2.2,0,.2.2.2.2.2h2c.2,0,.2-.2.2-.2,0,0,0-.2-.2-.2h-.3c-.2,0-.3-.2-.3-.5v-1.7c0-.2,0-.5.2-.8.2-.5,1.4-2.5,1.7-2.9.2-.2.3-.3.5-.5h.3c.2,0,.2-.2.2-.2q0-.2-.2-.2h-.6ZM117.8,106.1c0-1.4.9-3.5,3.5-3.5s3.7,1.4,3.7,3.4-1.5,3.9-3.7,3.9-3.5-1.9-3.5-3.7ZM118.7,106c0,2,1.2,3.4,2.8,3.4s2.5-.2,2.5-3.1-1.4-3.2-2.6-3.2-2.6,1.1-2.6,2.9ZM129.3,102.8h-3.2c-.2,0-.3,0-.3.2l.2.2h.3c.3,0,.3.2.3.5v5.4c0,.3-.2.5-.2.5h-.3c-.2,0-.2.2-.2.2,0,.2.2.2.2.2h2c.3,0,.3-.2.3-.2,0,0,0-.2-.2-.2h-.5c-.2,0-.2-.2-.3-.5v-2.6h1.4c.2,0,.3.2.5.3v.3h.2c.2,0,.2-.2.2-.2v-1.2h-.2q-.2.2-.5.2h-.3l-1.2.2v-2.6h1.4c.3,0,.6.2.6.3v.3c0,.2.2.2.2.2,0,0,.2,0,.2-.2v-.6l.2-.3v-.2l-.2-.2c-.2,0-.3.2-.5.2ZM62.1,102.8h-1.1c-.2,0-.3,0-.3.2l.2.2h.3c.3,0,.3.2.3.5v3.1c0,1.1-.2,1.7-.5,2.2-.3.3-.8.6-1.4.6s-.9-.2-1.2-.5c-.3-.3-.8-.9-.8-2.3v-3.1c.2-.3.2-.5.3-.5h.3c0-.2.2-.2.2-.2,0-.2-.2-.2-.3-.2h-1.8c-.2,0-.3,0-.3.2l.2.2h.3c.3,0,.3.2.3.5v3.2c0,1.4.5,2,.9,2.5.6.5,1.4.6,1.8.6s1.2-.2,1.8-.8c.8-.6.9-1.7.9-2.6v-2.9c0-.3.2-.5.3-.5h.2l.2-.2c0-.2-.2-.2-.2-.2h-.6ZM33.2,102.8c0,.2-.2.9-.2,1.1,0,0,0,.2.2.2,0,0,0-.2.2-.2l.2-.3c0-.2.3-.3.8-.3h1.2v5.7c0,.3,0,.5-.2.5h-.3c-.2,0-.2.2-.2.2,0,.2.2.2.3.2h2c.2,0,.2-.2.2-.2,0,0,0-.2-.2-.2h-.5c-.2,0-.2-.2-.2-.5-.2-.3-.2-1.1-.2-1.8v-3.9h1.1c.9,0,1.1.3,1.1.5v.2s0,.2.2.2c0,0,.2,0,.2-.2v-.9c0-.2,0-.3-.2-.3l-.2.2h-4.8c-.2,0-.3-.2-.3-.2h-.2l-.2.2ZM86.3,102.8h-3.6s-.2,0-.2.2l.2.2h.3c.2,0,.3.2.3.5v5.4c-.2.3-.2.5-.3.5h-.2c-.2,0-.2.2-.2.2,0,.2.2.2.2.2h3.1q.5,0,.6-.3c0-.2.2-.8.2-.8,0-.2,0-.3-.2-.3s-.2.2-.2.3c-.2.3-.2.5-.5.5-.2.2-.5.2-.8.2-.9,0-.9-.2-.9-.6v-2.5l1.2.2c.3,0,.5.2.5.3v.2q0,.2.2.2c.2,0,.2-.2.2-.2v-1.2q-.2,0-.3.2h-1.7v-2.5h1.2q.5.2.5.3l.2.3q0,.2.2.2v-.2l.2-.5v-.8c-.2,0-.2.2-.2.2ZM100.3,102.8h-.9c-.2,0-.3,0-.3.2l.2.2h.3c.2,0,.2.2.2.5l.2,1.8v1.7c0,.8,0,1.5-.2,1.8,0,.3,0,.5-.2.5h-.3c-.2,0-.2.2-.2.2,0,.2.2.2.3.2h2c.2,0,.2-.2.2-.2,0,0,0-.2-.2-.2h-.3c-.3,0-.3-.2-.3-.5-.2-.3-.2-1.1-.2-1.8v-3.5c.2-.3.2-.5.3-.5h.3c0-.2.2-.2.2-.2,0-.2-.2-.2-.3-.2h-.8ZM102.2,102.8c0,.2-.2.9-.2,1.1v.2c.2,0,.2-.2.2-.2l.2-.3c.2-.2.3-.3.9-.3h1.2v5.7c0,.3-.2.5-.3.5h-.2c-.2,0-.2.2-.2.2,0,.2.2.2.2.2h2c.3,0,.3-.2.3-.2l-.2-.2h-.5c-.2,0-.3-.2-.3-.5v-5.7h1.1c.9,0,1.1.3,1.1.5v.2s0,.2.2.2c0,0,.2,0,.2-.2v-.9c0-.2,0-.3-.2-.3l-.2.2h-4.8c-.2,0-.3-.2-.3-.2h-.2c-.2,0-.2.2-.2.2ZM94.2,109.5c0,.2-.2.2-.3.2h-.3c-.5,0-.8,0-1.1-.2-.3-.2-.6-.6-1.1-1.2l-1.1-1.5h-1.2v.3c0,.8,0,1.5.2,1.8,0,.3,0,.5.3.5h.3c.2,0,.2.2.2.2,0,0,0,.2-.2.2h-2s-.2,0-.2-.2v-.2h.3c.2,0,.2-.2.3-.5v-5.4c0-.3-.2-.5-.5-.5h-.2l-.2-.2c0-.2.2-.2.2-.2h2.2c.5,0,1.1,0,1.7.3.2.3.6.8.6,1.4s-.3,1.4-1.1,2c0,.2.2.3.2.3.6.8,1.2,1.5,1.7,2,.5.5.8.6,1.1.6s.2.2.2.2ZM91.2,104.9c0-1.1-.6-1.7-1.5-1.7h-.6v2.9s0,.2.2.2c0,0,.5.2.9.2s.3-.2.6-.2c.3-.3.5-.8.5-1.4ZM43.7,120.9s-3.4,7.1-3.7,7.9c0-.2-3.7-7.9-3.7-7.9-.2-.3-.3-.5-.5-.5,0,0-.2.2-.2.5l-1.4,8.9c-.2.6-.3,1.1-.6,1.1l-.5.2h-.2c0,.3.2.3.3.3h.8l.6-.2.3.2h1.1c.2,0,.3,0,.3-.3h-.2l-.6-.2c-.3,0-.3-.2-.3-.3v-.8s.6-4.8.6-5.4c.2.2.8,1.4.8,1.4l.8,1.7c.2.3,1.2,2.5,1.5,3.1.3.5.5.8.5.8.2,0,.3-.2.6-.9l3.1-6.2.8,6v.6c-.2,0-.3,0-.3.2s.2.2.5.2c.6,0,2.5.2,2.8.2s.5-.2.5-.3h-.3c-.2,0-.5,0-.8-.2-.5-.2-.6-.6-.6-1.4l-1.4-8.6c0-.3,0-.5-.2-.5s-.3.2-.5.5ZM59.9,120.9h-1.4l-1.2-.2c-.2,0-.3,0-.3.2s.2.2.3.2l.3.2c.5,0,.6.3.6.8v8.3c-.2.3-.2.6-.5.6l-.5.2q-.2,0-.2.2c0,.2.2.2.3.2h.9l.8-.2,2.2.2h1.8q.8,0,.9-.5c.2-.3.2-1.4.2-1.5s0-.3-.2-.3-.2.2-.2.3-.2.6-.3.8c-.3.3-.8.5-1.6.5-1.2,0-1.5-.2-1.7-.3-.3-.3-.3-1.2-.3-3.1v-5.2c0-.6.2-.8.5-.8l.6-.2c.2,0,.3,0,.3-.2,0,0-.2-.2-.3-.2l-1.2.2ZM68.7,130.5c.5.2.8.2,1.1.2s1.5,0,1.5-1.7,0-1.8-1.2-2.6c-.3-.3-.6-.3-1.2-.5h-.5q-.2,0-.2.2v3.2c0,.9.2,1.1.5,1.2ZM68.9,121.6h-.5q-.2,0-.2.2v3.4q0,.2.2.2h.6c.5,0,.8,0,.9-.2.5-.3.6-.9.6-1.5s-.5-2-1.7-2ZM69,120.8c2.8,0,3.1,1.7,3.1,2.2,0,1.1-.6,1.7-1.4,2.5,1.2.5,2.5,1.4,2.5,2.9s-1.2,3.1-3.7,3.1h-1.1l-.9-.2-.8.2h-1.1s-.3,0-.3-.2.2-.2.3-.2l.5-.2c.3,0,.3-.3.5-.6v-8.3c0-.5-.2-.8-.6-.8l-.5-.2c-.2,0-.3,0-.3-.2s.2-.2.3-.2l1.4.2h1.5l.6-.2ZM76.6,125.7c0,2.9,1.7,5.1,4.2,5.1s3.2-.5,3.2-4.5-1.7-4.9-4-4.9-3.4.6-3.4,4.3ZM74.6,126.2c0-2.8,1.8-5.6,5.7-5.6s5.7,2,5.7,5.2-2.5,5.7-5.9,5.7-5.5-2.8-5.5-5.4ZM96.2,120.9l-1.8-.2c-.2,0-.5,0-.5.2s.5.3.8.3c.5,0,.6.3.6.8v4.6c0,1.4,0,2.6-.8,3.4-.6.6-1.5.8-1.9.8-.5,0-1.1-.2-1.7-.6-.6-.5-1.1-1.1-1.1-3.4v-4.8c0-.6.2-.8.5-.8l.5-.2q.2,0,.2-.2c0-.2-.2-.2-.3-.2l-.9.2h-1.5l-1.2-.2c-.2,0-.3,0-.3.2s.2.2.3.2l.5.2c.5,0,.6.3.6.8v4.9c0,1.7.5,2.9,1.2,3.7,1.1.9,2.5.9,3.1.9s1.9-.2,2.9-1.1c1.1-.9,1.4-2.5,1.4-4.2v-4.3c0-.6.2-.8.5-.8l.3-.2c.2,0,.3,0,.3-.2s-.2-.2-.3-.2l-1.2.2ZM102,126.2c.3.2.6.2,1.1.2s.6,0,.9-.2c.3-.3.8-.8.8-2.2,0-2-1.2-2.5-2-2.5h-.8l-.2.2v4.3c0,.2.2.2.2.2ZM103,120.8c.9,0,1.8.2,2.6.6.3.3.9.9.9,2s-.5,2-1.8,3.1c.2,0,.5.6.5.6,1.1,1.2,1.8,2.3,2.6,2.9.8.8,1.2.9,1.5.9q.2.2.2.3c0,.2-.2.2-.3.2h-.9c-.8,0-1.1-.2-1.5-.3-.5-.3-1.1-.9-1.8-2l-.8-1.1-.6-.9h-1.6v.2c0,1.4,0,2.5.2,3.1,0,.3.2.6.5.6l.6.2q.3,0,.3.2c0,.2-.3.2-.3.2h-1.7l-.3-.2-.6.2h-1.1c-.2,0-.3,0-.3-.2s0-.2.2-.2l.5-.2c.3,0,.5-.3.5-.6v-8.3c0-.5-.2-.8-.6-.8l-.5-.2c-.2,0-.3,0-.3-.2s.2-.2.3-.2l1.4.2h1.5l.9-.2ZM111.7,121.1l-.2,8.2c0,1.2-.2,1.7-.5,1.7-.2.2-.3.2-.5.2s-.3,0-.3.2.2.2.3.2l1.2-.2.6.2h1.2c.2,0,.3,0,.3-.2s-.2-.2-.3-.2-.3,0-.6-.2c-.3-.2-.3-.6-.5-1.5,0,0-.2-5.5-.2-5.7.2,0,.3.3.3.3.6.6,1.8,2,3.1,3.1l1.8,1.8,2.2,2.3c.2.2.3.3.5.3.3,0,.3-.3.3-.5l.2-8.8c0-.8,0-1.1.3-1.1l.5-.2c.2,0,.3,0,.3-.2s-.3-.2-.3-.2l-1.1.2h-.8l-1.1-.2c-.2,0-.5,0-.5.2s.2.2.3.2.5,0,.6.2c.3.2.5.3.5,1.2,0,0,.2,5.9.2,6.2l-.9-1.1-2.2-2c-2-2.2-4.2-4.5-4.3-4.5v-.2c-.3-.2-.3-.3-.5-.3s-.2.3-.2.5ZM128.7,120.9h-4.2l-.2-.2h-1.2c-.2,0-.3,0-.3.2s.2.2.3.2l.5.2c.5,0,.6.3.6.8v8.3c-.2.3-.2.6-.5.6l-.5.2c-.2,0-.3,0-.3.2s.3.2.3.2h1.1l.8-.2,1.4.2h2.5c.5,0,.6,0,.8-.5,0-.2.2-1.1.2-1.5,0,0,0-.2-.2-.2s-.2,0-.2.2c-.2.6-.3.9-.6,1.1-.5.2-.9.2-1.4.2-1.4,0-1.5-.3-1.5-1.2v-3.2h2c.5,0,.6.2.8.5v.5q0,.2.2.2c.2,0,.2-.2.2-.2v-.9l.2-.9v-.2q0-.2-.2-.2l-.2.2c-.2.2-.3.2-.6.3h-2.3v-3.7h2c.6,0,.8.3.9.5v.5c0,.2,0,.3.2.3s.2-.2.2-.2l.2-.8v-.2l.2-.8v-.2c0-.2-.2-.2-.2-.2-.2,0-.6.2-.8.2ZM54.2,120.9h-4.2l-.2-.2h-1.1c-.3,0-.5,0-.5.2s.2.2.3.2l.6.2c.5,0,.5.3.5.8v8.3c0,.3-.2.6-.3.6l-.6.2q-.2,0-.2.2c0,.2.2.2.3.2h.9l.8-.2,1.4.2h2.5c.5,0,.6,0,.8-.5,0-.2.2-1.1.2-1.5,0,0,0-.2-.2-.2s-.2,0-.2.2c-.2.6-.3.9-.6,1.1-.3.2-.9.2-1.2.2-1.5,0-1.7-.3-1.7-1.2v-3.2h2c.5,0,.8.2.8.5v.5c0,.2.2.2.2.2.2,0,.2-.2.2-.2l.2-.5v-1.4l.2-.2c0-.2-.2-.2-.2-.2-.2,0-.2.2-.3.2-.2.2-.3.2-.6.3h-2.2q-.2,0-.2-.2v-3.6h2c.8,0,.9.3.9.5.2.2.2.5.2.5,0,.2,0,.3.2.3s.2-.2.2-.2v-.9l.2-.8v-.2q0-.2-.2-.2c-.2,0-.5.2-.8.2Z"/>
</svg>