<?xml version="1.0" encoding="UTF-8"?>
<svg id="Layer_1" xmlns="http://www.w3.org/2000/svg" version="1.1" viewBox="0 0 217.7 64.7">
  <!-- Generator: Adobe Illustrator 29.1.0, SVG Export Plug-In . SVG Version: 2.1.0 Build 142)  -->
  <defs>
    <style>
      .st0 {
        fill: #4f2984;
      }
    </style>
  </defs>
  <path class="st0" d="M188,29h-3.1v.6h.2c.5,0,.7,0,.9.3l.2.2c.2.2.4.4.6.7v8.5c0,.5-.4.7-.9.7h-.2v.6h3.4v-.6h-.2c-.4,0-.9-.2-.9-.7v-7l7.1,8.3h0c0,0,.5,0,.5,0v-10.3c0-.5.4-.7.8-.7h.3v-.6h-3.4v.6h.2c.4,0,.9.3.9.7v6l-6.3-7.3h0ZM148.6,54.3l.8-1.8.8,1.8h-1.6ZM146.5,56.6h-.2v.4h1.9v-.4h-.2c0,0-.2,0-.2-.1,0,0,0-.1,0-.2l.6-1.4h2.1l.6,1.4c0,0,0,.2,0,.2,0,0-.1.1-.2.1h-.3v.4h2.4v-.4h-.2c-.2,0-.4-.2-.5-.5l-2.5-5.7s0-.1-.2-.1c0,0-.1,0-.2,0l-2.4,5.8c-.1.2-.3.5-.6.5M141.3,50.4h-2.5v.4h.2c.2,0,.5,0,.5.6v4.7c0,.4-.1.6-.5.6h-.2v.4h2.5v-.4h-.1c-.3,0-.5-.2-.5-.6v-4.7c0-.5.3-.6.5-.6h.1v-.4ZM129.7,40.6h8.6l1.1-3.3h-.7c-.5,1.6-1.2,2.2-2.5,2.2h-2.8c-.2,0-.4-.1-.4-.4v-4h3.1c.5,0,.7.5.7.9v.2h.6v-3.4h-.6v.2c0,.4-.2.9-.7.9h-3.1v-3.8h3.3c.8,0,1.4.6,1.4,1.7h0c0,.1.6.1.6.1l-.2-2.9h-8.4v.6h.2c.6,0,.9.3.9,1v8.3c0,.7-.3,1-.9,1h-.2v.6ZM130.8,50.4h-2.5v.4h.2c.1,0,.5,0,.5.6v4.7c0,.5-.3.6-.5.6h-.2v.4h4.9l.6-2h-.4c-.3.9-.7,1.3-1.4,1.3h-1.5c-.1,0-.2-.2-.2-.3v-4.7c0-.4.2-.6.5-.6h.1v-.4ZM118.9,40.6h8.7l1-3.3h-.7c-.5,1.6-1.2,2.2-2.5,2.2h-2.8c-.2,0-.5-.1-.5-.4v-4h3.1c.4,0,.7.5.7.9v.2h.6v-3.4h-.6v.2c0,.4-.2.9-.7.9h-3.1v-3.8h3.3c.9,0,1.4.6,1.5,1.7v.2h.6l-.2-2.9h-8.4v.6h.2c.6,0,.9.3.9,1v8.3c0,.7-.3,1-.9,1h-.2v.6ZM118.8,54.3l.8-1.8.8,1.8h-1.6ZM116.7,56.6h-.2v.4h1.9v-.4h-.2c0,0-.2,0-.2-.1,0,0,0-.1,0-.2l.6-1.4h2.1l.6,1.4c0,0,0,.2,0,.2,0,0-.1.1-.2.1h-.3v.4h2.4v-.4h-.2c-.2,0-.4-.2-.5-.5l-2.5-5.7s0-.1-.2-.1c0,0-.1,0-.2,0l-2.4,5.8c-.1.2-.3.5-.6.5M107.3,51.1c.2,0,.4,0,.4,0,.7,0,1.3.5,1.3,1.2s-.6,1.2-1.3,1.2h-.4v-2.4ZM107.2,50.4h-1.8v.4h.2c.3,0,.5.2.5.6v4.7c0,.5-.3.6-.5.6h-.2v.4h2.5v-.4h-.1c-.3,0-.5-.2-.5-.6v-2h.3l2.2,3h1.6v-.4h-.1c-.2,0-.3-.2-.5-.3l-1.9-2.4c.8-.3,1.4-1,1.4-1.7h0c0-.5-.2-.9-.5-1.2-.5-.5-1.4-.6-2.7-.6M94.8,50.5v1.6c0,0,.3,0,.3,0h0c0-.7.3-1,.7-1h1.2v5c0,.4-.2.5-.5.5h-.1v.4h2.5v-.4h-.1c-.4,0-.5-.1-.5-.5v-5h1.2c.3,0,.6.1.7.9h0c0,0,.4,0,.4,0v-1.6c0,0-.1-.1-.2-.1h-5.3c0,0-.1,0-.1.1M79.2,35.1h3.1c.6,0,.6.8.6.9v.2h.6v-3.4h-.6v.2c0,.2,0,.9-.6.9h-3.1v-3.8h3.9c.8,0,1.4.7,1.4,1.7h0c0,.1.6.1.6.1l-.2-2.9h-8.9v.6h.2c.6,0,.9.3.9,1.1v8.3c0,.7-.3,1-.9,1h-.2v.6h4.4v-.6h-.3c-.6,0-.9-.3-.9-1v-4ZM76.5,50.4h-2.5v.3h0c0,.1.1.1.1.1.3,0,.5.3.5.5v3.5c0,1.4,1.1,2.3,2.6,2.3s2.6-.9,2.6-2.2v-3.8c0-.2,0-.3.3-.3h.3v-.4h-2v.4h.3c.2,0,.3.1.3.3v3.8c0,1-.9,1.5-1.8,1.5s-1.4-.7-1.4-1.6v-3.5c0-.3.2-.5.4-.5h.1v-.4ZM64.6,54.3l.8-1.8.8,1.8h-1.6ZM62.6,56.6h-.2v.4h1.9v-.4h-.2c0,0-.2,0-.2-.1,0,0,0-.1,0-.2l.6-1.4h2.1l.6,1.4c0,0,0,.2,0,.2,0,0-.1.1-.2.1h-.3v.4h2.4v-.4h-.2c-.2,0-.4-.2-.5-.5l-2.5-5.7s0-.1-.2-.1c0,0-.1,0-.2,0l-2.4,5.8c-.1.2-.3.5-.6.5M16.4,29.3h1.1c0-.3-.3-.6-.5-.6s-.4.2-.5.6M17.5,29.9h-1.1c0,.3.3.6.5.6s.4-.2.5-.6M16.4,24.5h1.1c0-.3-.3-.6-.5-.6s-.4.2-.5.6M17.5,25.1h-1.1c0,.3.3.6.5.6s.4-.2.5-.6M31.3,32.6q-1,0-1.7.3c-.4.2-.9.4-1.4.4s-1-.2-1.4-.4q-.7-.3-1.7-.3h-5.1v-2.2h-2.1c-.2.3-.5.6-.9.6-.5,0-1-.5-1.1-1.1h-.3c-.2,0-.3-.1-.3-.3s.1-.3.3-.3h.3c.1-.6.6-1.1,1.1-1.1s.7.2.9.6h2.1v-3.1h-2.1c-.2.3-.5.6-.9.6-.5,0-1-.5-1.1-1.1h-.3c-.2,0-.3-.1-.3-.3s.1-.3.3-.3h.3c.1-.6.6-1.1,1.1-1.1s.7.2.9.6h2.1v-1.6l1.1-.6v9.7h4c1.3,0,1.3,0,2.1.4.2,0,.6.3,1,.3s.8-.2,1-.3c.8-.3.9-.4,2.1-.4h4v-9.6l1.1.5v1.6h2.7c.5,0,.8.4.8.8s-.4.8-.8.8h-2.7v3.1h2.7c.5,0,.8.4.8.8s-.4.8-.8.8h-2.7v2.2h-5.2ZM34.2,30.5h-2.9c-1.4,0-1.6,0-2.6.4v-8.4c0-.8.9-1.3,2-1.3,1.7,0,2.6.5,3.5.4v8.9ZM27.6,30.9c-1-.4-1.2-.4-2.6-.4h-2.9v-8.9c.9.2,1.8-.4,3.5-.4s2,.5,2,1.3v8.4ZM35.4,34.3c5.6.9,8,3,9.6,6.3h0V13.7h0c-1.6,3.3-4,5.4-9.6,6.3.9-5.6,3-8,6.3-9.6h0s-26.9,0-26.9,0h0c3.3,1.6,5.4,4,6.3,9.6-5.6-.9-8-3-9.6-6.3h0v26.9h0c1.6-3.3,4-5.4,9.6-6.3-.9,5.6-3,8-6.3,9.6h0s26.9,0,26.9,0h0c-3.3-1.6-5.4-4-6.3-9.6M49.7,32.4c0,10.3-9,20.8-21.4,24.7-12.5-3.9-21.5-14.4-21.5-24.7V5.7h42.9v26.6ZM50.8,32.4V4.6H5.6v27.8c0,10.9,9.4,21.7,22.3,25.7h.3c0,.1.3,0,.3,0,12.9-4,22.2-14.8,22.2-25.7M72.2,8.4h.7v-3.6c-.1-.1-.3-.3-.4-.3h-11.5c-.1,0-.3.2-.3.3v3.6c-.1,0,.5,0,.5,0v-.2c0-1,.4-2.2,1.7-2.2h2.5v11.2c0,.6-.5,1.2-1.1,1.2h-.8v.7h6.5v-.7h-.8c-.6,0-1.1-.6-1.1-1.2V6.1h2.5c1.3,0,1.6,1.2,1.7,2.2v.2ZM71.5,33.2c0,3.8-1.6,6.3-4.1,6.3h0c-.8,0-1.6-.3-2.3-1-1.1-1.1-1.8-3-1.8-5.3,0-1.4.3-6,4.1-6.2,1.5,0,4,1,4.1,6.1M74.4,33.3c0-4.3-2.8-7.4-6.9-7.4-.1,0-2.6,0-4.6,1.7-1.4,1.3-2.2,3.2-2.3,5.7,0,4.3,2.9,7.4,6.9,7.4s6.9-3.1,6.9-7.4M81.1,19.2h4.4v-.6h-.3c-.6,0-.9-.3-.9-1v-8.3c0-.7.3-1,.9-1h.3v-.6h-4.4v.6h.2c.6,0,.9.3.9,1v3.5h-4.5v-3.5c0-.7.3-1,.9-1h.2v-.6h-4.4v.6h.2c.6,0,.9.3.9,1v8.3c0,.7-.2,1-.9,1h-.2v.6h4.4v-.6h-.2c-.6,0-.9-.3-.9-1v-3.7h4.5v3.7c0,.7-.3,1-.9,1h-.2v.6ZM88.5,50.6c-1-.5-1.7-.4-2.4.2-.4.4-.6,1-.6,1.5,0,.5.4,1,.9,1.3.2.1.3.2.5.3.6.3,1.2.7,1.4,1,.3.4.2.9-.2,1.3-.3.3-.7.3-1.2.1-.5-.2-1-.8-1-1.6h0c0-.1-.4-.1-.4-.1v2.4h.4c0-.2,0-.3.2-.3,0,0,.1,0,.2,0,.4.2.9.3,1.4.3s.8-.1,1.2-.4c.7-.5,1-1.5.6-2.3-.4-.7-1.3-1.2-2.1-1.7h-.1c-.4-.3-.7-.6-.7-1,0-.3.2-.5.4-.7.3-.2.7-.2,1.1,0,.5.3.8.9.8,1.5h0c0,.1.4.1.4.1v-2.3h-.4c0,.2,0,.3-.1.3,0,0-.2,0-.3,0M95.9,19.2l1-3.3h-.7c-.4,1.6-1.2,2.2-2.5,2.2h-2.8c-.2,0-.4-.2-.4-.4v-4h3.1c.4,0,.6.5.6.9v.2h.6v-3.4h-.6v.2c0,.4-.2.9-.6.9h-3.1v-3.8h3.3c.8,0,1.4.6,1.4,1.7h0c0,.1.6.1.6.1l-.2-2.9h-8.4v.6h.2c.6,0,.9.3.9,1v8.3c0,.7-.3,1-.9,1h-.2v.6h8.7ZM102.1,33.3c0,3.1-1.3,6.2-4,6.2s-4.1-2.4-4.1-6.2c0-2.4.6-4.2,1.7-5.2,1-.9,2.1-1,2.3-1s0,0,0,0h0c2,0,4.1,1.9,4.1,6.2M105,33.4c0-5.9-4.6-7.5-7-7.5h0c-4,0-6.9,3.1-6.9,7.4s2.2,6.7,5.5,7.3c2.1,2.2,4.9,3.3,8.3,3.3h.2v-.7h-.1c-2.1-.1-3.7-1.6-4.4-2.9,2.8-1,4.5-3.6,4.5-6.9M116.7,5.4h.6v-.7h-4.4v.7h.7c.5,0,.8.3.8.8v8.3c0,2.4-2,3.4-3.9,3.4s-3.3-1.5-3.3-3.6v-7.8c0-.6.5-1.2,1.1-1.2h.3v-.7h-5.6v.7h.3c.7,0,1.1.6,1.1,1.2v7.7c0,3,2.4,5.1,5.8,5.1s5.6-2,5.6-4.9V6.2c0-.6.3-.8.8-.8M117,29.6h.5v-.6h-3.4v.6h.5c.4,0,.6.2.6.6v6.6c0,1.8-1.6,2.7-3.1,2.7s-2.6-1.2-2.6-2.8v-6.1c0-.5.4-.9.8-.9h.2v-.6h-4.3v.6h.2c.5,0,.8.5.8.9v6.1c0,2.4,1.9,4.1,4.6,4.1s4.5-1.6,4.5-3.9v-6.6c0-.4.2-.6.6-.6M129.7,8.2h.2v-.6h-3.4v.6h.3c.4,0,.8.2.8.7v6l-6.3-7.3h-3.1v.6h.2c.4,0,.7,0,.9.3.1.2.3.3.4.5,0,.1.2.2.3.4v8.5c0,.5-.4.7-.8.7h-.3v.6h3.5v-.6h-.2c-.4,0-.9-.2-.9-.7v-7l7.2,8.3h0c0,0,.5,0,.5,0v-10.3c0-.5.4-.7.9-.7M131.3,19.2h4.3v-.6h-.2c-.6,0-.9-.3-.9-1v-8.3c0-.7.3-1,.9-1h.2v-.6h-4.3v.6h.2c.6,0,.9.3.9,1v8.3c0,.7-.3,1-.9,1h-.2v.6ZM147.8,8.2h.2v-.6h-2.9v.6h.3c.1,0,.3,0,.3.2,0,0,.1.2,0,.4l-2.6,6.6-2.9-6.6c0-.2,0-.3,0-.4,0-.1.2-.2.3-.2h.5v-.6h-4.1v.6h.2c.4,0,.6.3.9.8l4.3,10h0c0,.1.2.2.3.2s0,0,0,0c.1,0,.2,0,.3-.2l3.9-9.9c.3-.7.6-.9.9-.9M149.4,30.3v6l-6.3-7.3h0c0,0-3.1,0-3.1,0v.6h.2c.5,0,.7,0,.9.3l.2.2c.2.2.4.4.6.7v8.5c0,.5-.4.7-.9.7h-.2v.6h3.4v-.6h-.2c-.4,0-.9-.2-.9-.7v-7l7.1,8.3h0c0,0,.5,0,.5,0v-10.3c0-.5.4-.7.8-.7h.3v-.6h-3.4v.6h.2c.4,0,.9.3.9.7M158,19.2l1.1-3.3h-.7c-.5,1.6-1.2,2.2-2.5,2.2h-2.8c-.2,0-.4-.2-.4-.4v-4h3.1c.5,0,.7.6.7.9v.2h.6v-3.4h-.6v.2c0,.4-.2.9-.7.9h-3.1v-3.8h3.3c.8,0,1.4.7,1.4,1.7h0c0,.1.6.1.6.1l-.2-2.9h-8.4v.6h.2c.6,0,.9.3.9,1v8.3c0,.7-.3,1-.9,1h-.2v.6h8.6ZM155.1,31.5c0-.5.3-.9.8-1.2.5-.3,1.2-.3,1.9,0,.9.5,1.5,1.5,1.5,2.6v.2h.6v-4h-.6c0,.3-.1.4-.2.5-.1,0-.3,0-.6,0-1.7-.8-3-.7-4.1.3-.7.7-1.1,1.7-1,2.6,0,.9.6,1.8,1.5,2.3.3.2.6.3.9.5,1,.6,2.1,1.2,2.5,1.8.6.8.4,1.6-.4,2.3-.6.5-1.3.6-2.1.2-.9-.4-1.8-1.5-1.8-2.9v-.2h-.6v4.1h.6c0-.3.2-.5.3-.5.1,0,.3,0,.4,0,.7.4,1.5.6,2.4.6s1.5-.2,2.1-.7c1.3-1,1.7-2.6,1-3.9-.6-1.2-2.3-2.2-3.6-2.9h-.2c-.8-.6-1.2-1.2-1.2-1.8M164.4,12.9h-.8v-4.2c.4-.2.8-.1.8-.1,1.3,0,2.3.9,2.3,2.1s-1,2.2-2.3,2.2M168.1,19.2h2.8v-.6h-.2c-.3,0-.6-.3-.8-.6l-3.3-4.3c1.5-.5,2.5-1.7,2.4-2.9,0-.9-.3-1.6-.8-2.2-.9-.8-2.4-1.1-4.7-1h-3.1v.6h.3c.6,0,.9.3.9,1v8.3c0,.7-.3,1-.9,1h-.3v.6h4.4v-.6h-.2c-.6,0-.9-.3-.9-1v-3.6h.5l3.9,5.2ZM170.8,40.6l1-3.4h-.7c-.5,1.6-1.2,2.3-2.5,2.3h-2.6c-.2,0-.4-.3-.4-.6v-8.2c0-.7.3-1.1.9-1.1h.2v-.6h-4.4v.6h.3c.6,0,.9.4.9,1.1v8.2c0,.9-.5,1-.9,1h-.3v.6h8.5ZM176.2,35.9l1.4-3.3,1.4,3.3h-2.8ZM172.6,40h-.4v.6h3.3v-.6h-.3c-.2,0-.4,0-.5-.2,0-.1,0-.2,0-.3l1-2.4h3.8l1,2.4c0,.2,0,.3,0,.4,0,.1-.2.2-.4.2h-.5v.6h4.2v-.6h-.3c-.4,0-.6-.3-.9-.9l-4.4-10.1s0-.2-.3-.2c0,0-.2,0-.4.2l-4.2,10.1c-.2.4-.5.9-1,.9M179.2,14.6c-.7-1.3-2.4-2.2-3.9-3-.7-.4-1.2-1-1.2-1.6,0-.5.3-1,.8-1.3.6-.3,1.3-.3,1.9,0,.7.4,1.5,1.3,1.5,2.6v.2h.6v-4h-.6c0,.3,0,.4-.2.5-.1,0-.4,0-.7,0-1.7-.8-3-.7-4.1.3-.7.7-1.1,1.7-1,2.6,0,.9.6,1.8,1.5,2.3.3.2.5.3.8.5,1,.6,2.1,1.3,2.6,1.9.6.8.5,1.6-.4,2.3-.6.5-1.3.6-2.1.2-.9-.4-1.8-1.5-1.8-2.9v-.2h-.6v4.1h.6c0-.3.2-.5.3-.6.1,0,.3,0,.4,0,.8.4,1.5.6,2.3.6s1.5-.2,2.1-.7c1.3-.9,1.7-2.6,1-3.9M181.6,19.2h4.4v-.6h-.2c-.6,0-.9-.3-.9-1v-8.3c0-.7.3-1,.9-1h.2v-.6h-4.4v.6h.3c.6,0,.9.3.9,1v8.3c0,.7-.3,1-.9,1h-.3v.6ZM197.1,10.6h.6v-2.8c-.1-.1-.2-.2-.4-.2h-9.3c-.1,0-.2.1-.2.2v2.8c-.1,0,.5,0,.5,0h0c0-1.3.5-1.8,1.3-1.8h2.1v8.8c0,.7-.3,1-.9,1h-.2v.6h4.3v-.6h-.2c-.6,0-.9-.3-.9-1v-8.8h2.1c.5,0,1.1.2,1.2,1.7h0ZM202.8,30c1.6,0,2.9.4,3.7,1.3,1.3,1.4,1.2,3.4,1.2,3.5,0,3-1.8,4.8-4.9,4.8s-.6,0-1-.1v-9.4c.4-.2.9-.1.9-.1M202.8,29h-4.4v.6h.3c.4,0,.9.1.9,1.1v8.2c0,.7-.3,1-.9,1h-.3v.6h5.4c3.3,0,6-2.5,6-5.8,0-.2.1-2.4-1.4-4-1.2-1.3-3-1.9-5.5-1.8M209.7,8.2v-.6h-3.1v.6h.4c0,0,.2,0,.2.2,0,0,0,.2,0,.4l-2.4,4.2-2.7-4.1c-.1-.2,0-.4,0-.4,0-.1.2-.2.3-.2h.4v-.6h-4.3v.6h.2c.3,0,.7,0,1.1.8l3.4,5.2v3.2c0,.7-.3,1-.9,1h-.2v.6h4.4v-.6h-.2c-.7,0-.9-.3-.9-1v-3.4l3-5.2c.3-.5.7-.8,1.1-.8h.2Z"/>
</svg>