<?xml version="1.0" encoding="UTF-8"?>
<svg id="Layer_1" xmlns="http://www.w3.org/2000/svg" version="1.1" viewBox="0 0 152.1 59">
  <!-- Generator: Adobe Illustrator 29.1.0, SVG Export Plug-In . SVG Version: 2.1.0 Build 142)  -->
  <polygon points="65.1 22.2 62.6 22.2 62.6 21.8 63.5 21.8 63.5 16.9 61.8 16.9 61.8 17.6 61.4 17.6 61.4 16.2 61.8 16.2 61.8 16.4 66 16.4 66 16.2 66.4 16.2 66.4 17.6 66 17.6 66 16.9 64.3 16.9 64.3 21.8 65.1 21.8 65.1 22.2"/>
  <polygon points="73 22.2 71 22.2 71 21.8 71.6 21.8 71.6 19.5 68.4 19.5 68.4 21.8 69 21.8 69 22.2 67 22.2 67 21.8 67.6 21.8 67.6 16.8 67 16.8 67 16.4 69 16.4 69 16.8 68.4 16.8 68.4 19.1 71.6 19.1 71.6 16.8 71 16.8 71 16.4 73 16.4 73 16.8 72.4 16.8 72.4 21.8 73 21.8 73 22.2"/>
  <polygon points="77.7 22.2 73.8 22.2 73.8 21.8 74.4 21.8 74.4 16.8 73.8 16.8 73.8 16.4 77.2 16.4 77.2 16.2 77.6 16.2 77.6 17.6 77.3 17.6 77.3 16.8 75.2 16.8 75.2 19.1 76.8 19.1 76.8 18.4 77.2 18.4 77.2 20.1 76.8 20.1 76.8 19.4 75.2 19.4 75.2 21.8 77.3 21.8 77.3 21 77.7 21 77.7 22.2"/>
  <path d="M86.3,16.8h-.7v3.3c0,.9-.3,1.5-1.1,1.9-.4.2-.8.3-1.2.3-1.3,0-2.2-.8-2.2-2v-3.6h-.7v-.3h2.1v.3h-.7v3.3c0,1.1.6,1.7,1.6,1.7s1.7-.7,1.7-1.7v-3.3h-.7v-.3h1.7v.3Z"/>
  <polygon points="91.7 22.3 91.4 22.3 88.1 17.7 88.1 21.8 88.7 21.8 88.7 22.2 87 22.2 87 21.8 87.6 21.8 87.6 17.1 87.4 16.8 86.8 16.8 86.8 16.4 88.1 16.4 91.2 20.8 91.2 16.8 90.6 16.8 90.6 16.4 92.3 16.4 92.3 16.8 91.7 16.8 91.7 22.3"/>
  <polygon points="95 22.2 93 22.2 93 21.8 93.6 21.8 93.6 16.8 93 16.8 93 16.4 95 16.4 95 16.8 94.4 16.8 94.4 21.8 95 21.8 95 22.2"/>
  <polygon points="98.5 22.3 98.2 22.3 96.1 16.8 95.5 16.8 95.5 16.4 97.7 16.4 97.7 16.8 96.9 16.8 98.6 21 100.2 16.8 99.7 16.8 99.7 16.4 101.2 16.4 101.2 16.8 100.7 16.8 98.5 22.3"/>
  <polygon points="105.6 22.2 101.7 22.2 101.7 21.8 102.3 21.8 102.3 16.8 101.7 16.8 101.7 16.4 105.1 16.4 105.1 16.2 105.5 16.2 105.5 17.6 105.2 17.6 105.2 16.8 103.1 16.8 103.1 19.1 104.7 19.1 104.7 18.4 105.1 18.4 105.1 20.1 104.7 20.1 104.7 19.4 103.1 19.4 103.1 21.8 105.2 21.8 105.2 21 105.6 21 105.6 22.2"/>
  <path d="M111.5,22.2h-.7c-.5,0-.6,0-.9-.5l-1.3-2.1h-.7v2.3h.7v.3h-2.1v-.3h.7v-5.1h-.7v-.3h2.4c.8,0,1.3.2,1.6.8.1.2.2.5.2.8,0,.8-.5,1.4-1.3,1.5l1.3,1.9c.2.3.3.4.6.4h.3v.3ZM107.9,19.2h.8c.7,0,1.1-.5,1.1-1.2s-.4-1.2-1.1-1.2h-.8v2.4Z"/>
  <path d="M112.6,22.2h-.4v-1.6h.4v.7c.5.4.8.4,1.1.4.7,0,1.2-.4,1.2-.9s-.3-.9-1.3-1.3c-1.1-.6-1.5-1-1.5-1.7s.7-1.5,1.7-1.5.8,0,1,.2v-.3h.4v1.5h-.4v-.6c-.4-.3-.7-.4-1-.4-.6,0-1,.4-1,.9s.3.7,1.3,1.3c1.1.6,1.4,1,1.4,1.7s-.7,1.6-1.7,1.6-.9-.1-1.3-.4v.4Z"/>
  <polygon points="118.5 22.2 116.5 22.2 116.5 21.8 117.1 21.8 117.1 16.8 116.5 16.8 116.5 16.4 118.5 16.4 118.5 16.8 117.9 16.8 117.9 21.8 118.5 21.8 118.5 22.2"/>
  <polygon points="122.9 22.2 120.4 22.2 120.4 21.8 121.3 21.8 121.3 16.9 119.5 16.9 119.5 17.6 119.1 17.6 119.1 16.2 119.5 16.2 119.5 16.4 123.8 16.4 123.8 16.2 124.2 16.2 124.2 17.6 123.8 17.6 123.8 16.9 122 16.9 122 21.8 122.9 21.8 122.9 22.2"/>
  <polygon points="128.4 22.2 126.3 22.2 126.3 21.8 127 21.8 127 19.5 125.2 16.8 124.7 16.8 124.7 16.4 126.8 16.4 126.8 16.8 126 16.8 127.5 19 128.9 16.8 128.1 16.8 128.1 16.4 129.8 16.4 129.8 16.8 129.4 16.8 127.7 19.5 127.7 21.8 128.4 21.8 128.4 22.2"/>
  <path d="M132.1,19.3c0-1.6,1.3-3,2.8-3s2.8,1.4,2.8,3-1.3,3-2.8,3-2.8-1.4-2.8-3M132.9,19.3c0,1.5.8,2.5,1.9,2.5s1.9-1.1,1.9-2.5-.8-2.5-1.9-2.5-2,1-2,2.5"/>
  <polygon points="141.7 16.2 141.7 16.4 138.2 16.4 138.2 16.8 138.9 16.8 138.9 21.8 138.2 21.8 138.2 22.2 140.3 22.2 140.3 21.8 139.6 21.8 139.6 19.5 141.3 19.5 141.3 20.1 141.7 20.1 141.7 18.4 141.3 18.4 141.3 19.1 139.6 19.1 139.6 16.8 141.7 16.8 141.7 17.6 142.1 17.6 142.1 16.2 141.7 16.2"/>
  <path d="M62.4,40.7h-1.1v-4.1h1.1v1.8c1.4.9,2,1.2,3,1.2,1.8,0,3.1-1,3.1-2.4s-.9-2.3-3.4-3.5c-2.9-1.5-3.9-2.7-3.9-4.5s1.9-4,4.5-4,2,.2,2.7.6v-.8h1.1v3.9h-1.1v-1.6c-1.2-.8-1.7-1-2.7-1-1.6,0-2.6.9-2.6,2.4s.7,1.8,3.5,3.5c2.9,1.7,3.7,2.7,3.7,4.5s-2,4.2-4.6,4.2-2.4-.3-3.5-1v.9Z"/>
  <polygon points="80.7 40.5 75.3 40.5 75.3 39.7 77 39.7 77 33.6 72.3 26.3 70.9 26.3 70.9 25.4 76.6 25.4 76.6 26.3 74.5 26.3 78.5 32.3 82.1 26.3 80 26.3 80 25.4 84.6 25.4 84.6 26.3 83.4 26.3 79 33.4 79 39.7 80.7 39.7 80.7 40.5"/>
  <path d="M85.7,40.5v-.8h1.7v-13.4h-1.7v-.8h6.8c4.1,0,7.5,3.4,7.5,7.5s-3.3,7.6-7.5,7.6h-6.7ZM89.5,39.4h2.7c3.1,0,5.5-2.8,5.5-6.4,0-3.5-2.4-6.4-5.5-6.4h-2.8v12.8Z"/>
  <polygon points="113.2 40.8 112.5 40.8 103.7 28.7 103.7 39.7 105.4 39.7 105.4 40.5 100.8 40.5 100.8 39.7 102.5 39.7 102.5 27.1 101.9 26.3 100.3 26.3 100.3 25.4 103.7 25.4 112.1 36.9 112.1 26.3 110.3 26.3 110.3 25.4 114.9 25.4 114.9 26.3 113.2 26.3 113.2 40.8"/>
  <polygon points="126.9 40.5 116.5 40.5 116.5 39.7 118.2 39.7 118.2 26.3 116.5 26.3 116.5 25.4 125.6 25.4 125.6 24.8 126.7 24.8 126.7 28.4 125.6 28.4 125.6 26.5 120.2 26.5 120.2 32.3 124.5 32.3 124.5 30.6 125.6 30.6 125.6 35.1 124.5 35.1 124.5 33.4 120.2 33.4 120.2 39.5 125.8 39.5 125.8 37.5 126.9 37.5 126.9 40.5"/>
  <polygon points="137.5 25.4 137.5 26.3 139.6 26.3 135.9 32.3 132 26.3 134.1 26.3 134.1 25.4 128.4 25.4 128.4 26.3 129.8 26.3 134.5 33.6 134.5 39.7 132.8 39.7 132.8 40.5 138.2 40.5 138.2 39.7 136.5 39.7 136.5 33.4 140.9 26.3 142.1 26.3 142.1 25.4 137.5 25.4"/>
  <path d="M32.6,36.3h3.4v-.5h-3.4v.5ZM32.6,37.7h3.4v-.5h-3.4v.5ZM32.6,34.9h3.4v-.5h-3.4v.5ZM30.2,35.8h-3.4v.5h3.4v-.5ZM30.2,37.2h-3.4v.5h3.4v-.5ZM30.2,34.4h-3.4v.5h3.4v-.5ZM35.6,25.4c-1.4,0-2.8-.1-4.1-.1s-2.8,0-4.1.1v6.8h-13.1c.5,3.3,1.9,6.3,3.8,8.9.3-.4.7-.6,1.2-.6h8.1v7.1c1.3.4,2.7.6,4.1.6h0c0,0,0,0,0,0h0c1.4,0,2.8-.3,4.1-.6v-7.1h8.1c.5,0,.9.2,1.2.6,1.9-2.6,3.2-5.6,3.8-8.9h-13v-6.8ZM29,27.6l1.8.8.6-1.8.7,1.8,1.7-.8-.8,1.8,1.8.6-1.8.7.8,1.7-1.8-.8-.6,1.8-.7-1.8-1.7.8.8-1.8-1.8-.6,1.8-.7-.8-1.7ZM22.9,38.9l-1.7-.8-.7,1.8-.6-1.8-1.8.8.9-1.7-1.8-.7,1.8-.6-.8-1.8,1.7.8.7-1.8.6,1.8,1.8-.8-.8,1.7,1.8.7-1.8.6.8,1.8ZM25.7,38.7h-.8v-.6h.8v.6ZM25.7,37.2h-.8v-.6h.8v.6ZM25.7,35.7h-.8v-.6h.8v.6ZM25.7,34.2h-.8v-.6h.8v.6ZM26.1,38.7v-5.4h3.4c0,0,.1,0,.2,0,.8,0,1.4.6,1.4,1.4v4.5c-.3-.3-.6-.5-1.1-.5s-2.9,0-3.9,0M33.8,45.8l-1.8-.8-.6,1.8-.7-1.9-1.7.9.8-1.8-1.8-.6,1.8-.7-.8-1.7,1.8.8.6-1.8.7,1.8,1.7-.8-.8,1.8,1.8.6-1.8.7.8,1.7ZM40,34.1l1.8.8.6-1.8.7,1.8,1.7-.8-.8,1.8,1.8.6-1.8.7.9,1.7-1.8-.8-.6,1.8-.7-1.8-1.7.8.8-1.8-1.8-.6,1.8-.7-.8-1.7ZM37.2,33.6h.8v.6h-.8v-.6ZM37.2,35.1h.8v.6h-.8v-.6ZM37.2,36.7h.8v.6h-.8v-.6ZM37.2,38.2h.8v.6h-.8v-.6ZM36.8,33.3v5.4c-1.1,0-3.9,0-3.9,0-.4,0-.8.2-1.1.5v-4.5c0-.8.6-1.4,1.4-1.4s.1,0,.2,0h3.4ZM43.5,10.2c-3.4-.7-7.8-1.4-12.1-1.4-6.4,0-13.2,1.6-16.2,2.4-.6.2-1,.3-1.3.4v14.6c1.9-.3,9.9-1.5,17.5-1.5,7.6,0,15.5,1.2,17.5,1.5v-14.6c-.3,0-.7-.2-1.3-.4-1-.3-2.4-.6-4.1-1M25.3,11.7c.3,0-.3-.5,0-.5.2,0,1,0,1.6.3.1,0,.2-.2.4-.3,0,0,0,0,.1,0,.2.1.3.4.4.3.6-.3,1.4-.3,1.6-.3.4,0-.2.4,0,.5,1.4.3,2.4,1.5,2.4,2.8s0,.8-.2,1.1c0,.2-.3-.3-.3,0-.1.6-.3,1-.6,1.5-.3.5-.8-.6-.9-.3-.3.6-.9.7-1.3.8,0,0,0,0,0,0,0,0,.1-.1.2-.3,0,0,0,0,0,0,.3-.2.6-.5.6-.8.1-.3.2-.8.4-1.1.4-.7,0-1.5,0-1.6.3-.2.4-.5.4-.8,0-.5-.4-.9-.9-.9s-.5.1-.7.3h0c0,.1-.2.2-.2.3,0,.1,0,.3,0,.3.6.2,1,1.6.8,2.1-.1.2-.5,1-.5,1.2s-.2.5-.5.5-.4-.1-.5-.3c0,0,0,0,0,0,.2-.1.6-.3.6-.6v-.8c.2,0,.4-.2.4-.5,0,0,0,0,0,0,.1,0,.2-.4,0-.3-.3,0-.7,0-1,.1,0,0,0,0,0,0,0,0,.2,1,.2,1.2,0,0,0,0,0,0-.1,0-.4,0-.5,0,0,0-.3,0-.5,0,0,0,0,0,0,0,0-.2.3-1.2.3-1.2,0,0,0,0,0-.1,0,0-1-.2-1.1-.2,0,0-.1,0-.1,0,0,.1,0,.3.2.3,0,.3.2.5.5.5,0,0,0,0,0,0,0,0,0,.8,0,.8,0,.3.4.5.6.6,0,0,0,0,0,0,0,.2-.3.3-.5.3s-.5-.2-.5-.5-.3-1-.5-1.2c-.3-.5.1-1.9.8-2.1.1,0,.2-.2.1-.4-.3-.3-.6-.6-1-.6s-.9.4-.9.9.5.7.4.8c-.2.5-.2,1.1,0,1.6.2.3.3.8.4,1.1,0,.3.3.6.6.8.1,0,0,.2.1.3,0,0,0,0,.1.1,0,0,0,0,0,0-.4,0-1.1-.2-1.4-.8-.1-.3-.6.8-.9.3-.3-.6-.4-1-.6-1.5,0-.3-.3.2-.3,0-.1-.3-.2-.7-.2-1.1,0-1.4,1-2.5,2.4-2.8M29.1,12.6s0,0,0,0c0,0,.2,0,.2,0,.2,0,.4.2.4.4s0,.2-.2.3c0,0,0,0,0,0-.1-.2-.3-.4-.4-.6M28.2,17.3c0,.3-.5.2-.7.3,0,0,0,0,0,0-.2-.2-.6,0-.7-.4,0,0,0,0,0,0,.3,0,.5-.2.7-.3,0,0,0,0,0,0,.2.2.4.3.6.3,0,0,0,0,0,.1M25.4,13.2s0,0,0,0c0,0-.2-.2-.2-.3,0-.2.2-.4.4-.4s.2,0,.3.1c0,0,0,0,0,0-.2.1-.3.3-.5.5M21.7,18.6c-.3,0-.4,0-.6.2-.1,0-.2-.2,0-.7.1-.4-.7-.6-.9-.4-.3.2-1,.6-1.6,0-.1-.1.3,0,.3-.2,0-.2.2-.3.3-.4,0,0,0-.1,0-.2-.2-.1-.5-.4-.4-.8,0,0-.4,0-.2-.2.6-.6,1.3-.2,1.6,0,0,0,.1,0,.2,0,0-.2,0-.3.3-.6,0,0-.2-.3,0-.3,1.3.3.7,1.7,1,1.9.5.4,1.7.8,2.9,1,0,0,.5.1.5.2.9.5,1.5.4,2,.2.2,0,.2.1.1.2-1.8,1.7-3.2,1.3-3.7,1-.3-.2-1-.2-1.4.2,0,0-.2,0-.2,0,0-.3,0-.6.1-.8,0-.1,0-.2-.1-.2M39.1,20.2c-.2.2-.7.4-1.4.4-.3,0-.4,0-.5.2,0,0,0,.1,0,.1,0,.1,0,.3,0,.4,0,.1,0,.2,0,.2-.1,0-.3,0-.6-.1-.1,0-.2,0-.2,0,0,.1,0,.3.2.5.1,0,0,.2,0,.2-.3,0-.5,0-.9-.2-.2-.1-.4-.1-.6,0,0,0,0,.2,0,.2.1.1.2.4-.1.9-.1.2-.3-.3-.4-.2-.5.2-.9,0-1.1-.3,0,0-.1,0-.2,0-.3.2-.8.5-1,0,0,0-.3.1-.3,0,0-.8.7-1,1-1,0,0,.1,0,0-.1-.1-.2-.3-.4-.2-.6,0-.2-.4-.2-.2-.3.9-.5,1.5.4,1.6.5.3.2,1.5-.2,1.6-.9,0-.1-.3-.2-.6-.3,0,0,0,0,0-.2.7-.5,1.3-1.3,2.7-1.4.2,0,.2.1.2.2,0,.2,0,.4.2.6.2.4.4.7.7.8.1,0,0,.2,0,.3M44.7,19.8c.1,0,.1.1,0,.2,0,0-.2.2-.6.2-.1,0-.1,0-.1.2,0,.2.2.3.4.3.1,0,.1.1,0,.2-.2.2-.5.2-.9.2-.4,0-.7.5-.5.7.2.1.5.5.2,1.3,0,.3-.2-.2-.4-.2-.3.2-.6,0-.8-.2,0,0-.1,0-.2,0-.1.2-.5.7-1.2.3-.2,0-.5.2-.5.1-.1-.6.2-.9.4-1.1,0,0,.1-.1,0-.1-.2,0-.5,0-.6-.4,0,0-.3,0-.3-.1,0-.4,1-.7,1.6-.3.5.4,1.2-.9.7-1.4-.4-.4-2.4.7-3.1-.7-.3-.6,0-1.1-.2-1.1-.3,0-1.6-.3-3,.8-2.4,1.9-5,.9-5.6.5,0,0-.2,0-.1.1,0,.2,0,.5,0,.7-.3.4-1.1.8-1.3.8-1,.3-.9,1.1-.8,1.4,0,.1,0,.2-.1.1-.3,0-.9-.2-1.2-.9,0,0,0,0-.2,0-.4.3-.2.7-.2.8,0,0,0,.1,0,.1-.3,0-.6-.4-.9-.3-.2,0-.4.2-.5.3,0,0,0,.1,0,.2.4,1.1-.2,1.2-.3,1.1,0,0,0-.2-.2-.2-.6,0-.8-.4-.8-.7,0,0,0-.1-.1,0-.2.2-.8.5-1.2,0,0,0-.2,0-.3,0,0,0,0,0,0-.1,0-.6.5-.9.7-1,0,0,0,0,0-.1-.2-.1-.5-.5-.4-.8,0,0-.3-.2-.2-.2.7-.5,1.6.3,1.7.4.1,0,.8.1,2.4-.8,1-.6,1.6-1.1,1.9-1.4,0,0,.1-.1.2-.1.7,0,1.3-.1,1.8-.6,0,0,.2,0,.2,0,.9.6,1.4-.8,1.6-1.4,0-.1,0-.2.2-.2,3.4.2,9.9.1,9.9.1,0,0,.9,0,.8-.5,0-.9-3.6-.8-6.3-.5-1,.1-2.4.2-3.2-.1-.3-.1-.6-.3-.8-.6-.2-.3-.1-.6,0-.8,0-.2.1-.3.2-.5.7-1,2.2-1.1,2.7-1.1s.2,0,.2-.1c0-.2.2-.8.9-.8.2,0,.4,0,.5-.1,0,0,.1,0,.1,0,0,0,0,.2-.2.3-.5.4-.4.6-.3.6,0,0,0,0,.1,0,1.4-1.2,2.2-.4,2.5-.1,0,0,0,.1,0,.1-1,.2-1.3,1.1-3.3.9-.2,0-1.8,0-2.3.6-.3.4,0,.8.8,1,.7.1,2.2,0,2.9-.1.7,0,3.8-.4,5.4,0,.7.2,1.7.7,1.5,1.8-.1.6-.7.9-.7.9,0,0-1.8,1.2,1.4,1.2,1,0,0,.8,0,1,0,.2.1.3.3.4M38.9,12.9c0,0-.2,0-.4.2-.3.2-1.4.7-1.8,0,0,0,.8,0,1.3-.5,0,0,.6-.2.9.1,0,0,0,.1,0,.1M31.4,6.6c-10.7,0-21.4,2.9-21.4,2.9v14.3c0,12.9,9.2,26.3,21.4,28.6,12.6-2.5,21.4-15.7,21.4-28.6v-14.3s-8.9-2.9-21.4-2.9M49.6,29c0,10.5-8,20-18.2,20h0c-10.3,0-18.2-9.5-18.2-20V10.9h.3c0,0,9.2-2.9,18-3,8.7,0,18,2.9,18,2.9h.3v18.1Z"/>
</svg>