<?xml version="1.0" encoding="UTF-8"?><svg id="Layer_1" xmlns="http://www.w3.org/2000/svg" viewBox="0 0 200 200"><defs><style>.cls-1{fill:#737373;stroke-width:0px;}</style></defs><path class="cls-1" d="m201.77,301.59c-.72,0-1.44-.21-2.06-.64-1.14-.78-1.75-2.12-1.57-3.49l4.67-36.18c.55-4.24,2.06-8.38,4.36-11.98l59.76-93.22c.82-1.57,6.56-11.89,16.58-14.8,5.57-1.62,11.31-.7,17.06,2.75,5.52,3.31,8.95,7.84,10.22,13.47,2.59,11.54-5.18,23.37-5.51,23.87l-56.35,89.51c-3.45,5.49-8.29,10.03-13.98,13.13l-31.41,17.13c-.55.3-1.16.45-1.76.45Zm87.11-154.09c-1.14,0-2.27.16-3.38.48-7.67,2.21-12.36,11.32-12.4,11.42l-.18.32-59.85,93.36c-1.75,2.73-2.9,5.88-3.31,9.1l-3.83,29.69,25.67-14c4.64-2.53,8.59-6.24,11.41-10.71l56.4-89.58c.11-.17,6.5-9.96,4.55-18.55-.85-3.73-3.13-6.67-6.99-8.98-2.82-1.69-5.49-2.53-8.08-2.53Z"/><path class="cls-1" d="m182.59,12.55l-12.85-5.47c-4.16-1.77-8.77-1.81-12.98-.11-4.21,1.7-7.51,4.92-9.28,9.08l-2.26,5.3h0s-53.1,124.75-53.1,124.75c-.02.05-.04.09-.06.14l-.38.9.1.04c-.12.6-.14,1.24-.02,1.88l6.39,34.15c.3,1.62,1.39,2.98,2.89,3.65.02.01.05.02.08.03,1.54.65,3.31.48,4.7-.44l28.31-18.85c.68-.45,1.19-1.05,1.56-1.71l.05.02,51.59-121.2s0,0,0,0l1.11-2.62.84-1.98,2.26-5.3c3.66-8.61-.37-18.56-8.96-22.25Zm-69.17,156.85l-8.38-3.7-2.62-13.99,22.92,9.76-11.92,7.94Zm43.42-121.49l-39.3,91.41c-1.14,2.66-3.65,4.15-5.6,3.33-.02,0-.03-.01-.05-.02-1.91-.84-2.55-3.64-1.42-6.27l39.3-91.41c1.14-2.66,3.65-4.15,5.6-3.33.02,0,.03.01.05.02,1.91.84,2.55,3.64,1.42,6.27Zm22.28-14.54l-1.59,3.73-22.14-9.77,1.46-3.43c1.78-4.18,6.66-6.15,10.83-4.37l7.08,3.01c4.18,1.78,6.14,6.66,4.36,10.84Z"/><path class="cls-1" d="m15.04,75.2c17.47-.06,62.14-.56,72.95,14.16,3.83,5.11,2.55,11.73-.91,16.55-4.66,6.46-11.01,10.83-17.23,14.98-4.77,2.97-9.7,6.17-13.77,9.98-6.6,6.11-11.35,14.56-6.84,22.99,5.64,10.78,17.37,18.3,28.2,23.71,8.32,3.94,17.03,7.17,26.44,7.53.81-.05,1.15,1.21.36,1.56-15.95,7.16-37.89,1.59-52.32-7.15-16.34-9.66-27.34-28.37-16.1-46.46,7.28-11.64,19.39-17.86,30.87-24.14,3.86-2.3,16.03-9.75,13.57-14.35-5.56-7.93-27.13-11.8-36.74-13.71-4.71-.86-9.45-1.6-14.22-2.25-4.76-.68-9.54-1.27-14.34-1.8-.44-.05-.76-.45-.71-.89.05-.41.39-.71.79-.71h0Z"/></svg>