<?xml version="1.0" encoding="UTF-8"?><svg id="Layer_1" xmlns="http://www.w3.org/2000/svg" viewBox="0 0 200 200"><defs><style>.cls-1{fill:#737373;stroke-width:0px;}</style></defs><path class="cls-1" d="m33.72,112.06c2.33-2.73,5.84-4.46,9.65-4.75,3.59-.28,6.96.75,9.46,2.91,1.97,1.69,3.73,3.54,5.44,5.32.48.5.96,1.01,1.45,1.51,1.84,1.89,3.67,3.8,5.5,5.7,1.03,1.08,2.06,2.15,3.11,3.23-.41-3.86-.83-7.72-1.25-11.58-.24-2.23-.49-4.45-.74-6.68-.32-2.93-.65-5.85-.96-8.78-.31-2.92-.62-5.84-.93-8.76-.37-3.49-.74-6.97-1.11-10.46-.35-3.2-.71-6.39-1.07-9.59-.36-3.21-.72-6.41-1.07-9.62l-.35-3.19c-.59-5.4-1.2-10.99-1.72-16.51-.44-4.6,1.23-8.62,4.69-11.34,2.34-1.83,5.7-2.65,9-2.17,2.93.42,5.38,1.83,6.91,3.96,1.32,1.84,2.17,4.06,2.59,6.76.27,1.69.51,3.39.76,5.09.35,2.37.7,4.83,1.11,7.21,1.19,6.99,2.47,14.18,3.91,21.96.71,3.87,1.46,7.78,2.21,11.67.06-2.15.12-4.31.19-6.46.15-5.37.31-10.74.46-16.12.12-4.51.24-9.01.35-13.52.15-5.82.3-11.65.46-17.47l.02-.74c.04-1.73.08-3.69.59-5.65,1.11-4.34,4.28-7.32,8.7-8.17,4.38-.84,8.32.55,11.09,3.93,1.79,2.19,2.67,4.88,2.67,8.23,0,6.95,0,13.91,0,20.86v26.51c.29-1.71.59-3.41.88-5.12.39-2.29.77-4.58,1.15-6.88.41-2.47.82-4.94,1.24-7.41.85-5.01,1.71-10.02,2.6-15.03.49-2.77,1.45-6.3,4.46-8.98,4.2-3.74,10.81-3.76,14.43-.05,2.08,2.13,3.14,5,2.98,8.09-.11,2.31-.33,4.6-.54,6.82-.07.71-.14,1.42-.2,2.13-.32,3.52-.65,7.04-.97,10.57l-.9,9.65c-.39,4.18-.78,8.35-1.16,12.53-.44,4.81-.85,9.61-1.27,14.42,0,.07-.01.14-.02.21.55-1.4,1.09-2.78,1.62-4.16l4.05-10.38c2.4-6.14,4.79-12.27,7.2-18.41,1.1-2.79,2.61-4.91,4.62-6.46,2.88-2.22,6.14-2.92,8.94-1.91,1.59.57,4.42,2.23,5.46,6.9.44,1.97.37,4.25-.22,6.76-.95,4.02-2.07,7.9-3.23,11.84-1.1,3.72-2.22,7.44-3.34,11.16-1.22,4.05-2.44,8.09-3.63,12.15-1.73,5.91-3.03,12.09-3.86,18.38l-.13.99c-.96,7.32-1.95,14.88-3.74,22.3-1.37,5.66-2.76,9.96-4.52,13.93-3.19,7.19-7.26,12.72-12.44,16.91-5.53,4.47-12.27,7.12-20.04,7.87-1.78.17-3.57.26-5.37.26-3.44,0-6.9-.31-10.36-.93-6.19-1.1-12.15-3.47-17.71-7.04-5.94-3.81-10.99-8.55-15.57-13.11-6.26-6.24-12.77-12.86-19.35-19.67-2.9-3.01-5.75-6.12-8.51-9.13-1.13-1.24-2.27-2.48-3.41-3.71-4.74-5.12-4.84-13.36-.24-18.75Z"/></svg>