<?xml version="1.0" encoding="UTF-8"?><svg id="Layer_1" xmlns="http://www.w3.org/2000/svg" viewBox="0 0 200 200"><defs><style>.cls-1{fill:#737373;stroke-width:0px;}</style></defs><path class="cls-1" d="m154.49,109.09h0c-4.37,0-8.38,2.71-9.71,6.84-6.06,18.8-23.8,32.46-44.75,32.46s-39.59-14.37-45.19-33.92c-.9-3.16-3.75-5.38-7.06-5.38h0c-6.41,0-7.14,6.24-5.16,12.29,6.24,19.08,19.26,32.19,37.32,37.61-6.12,4.16-10.94,10.08-13.73,17.03-1.52,3.79,1.41,7.91,5.49,7.91h58.26c4.08,0,7.01-4.12,5.49-7.91-2.87-7.16-7.9-13.22-14.27-17.39,18.4-5.92,31.49-19.93,37.06-39.87,1.36-4.86,1.33-9.67-3.75-9.67Z"/><path class="cls-1" d="m81.82,44h0s.07,0,.11,0c4.25,0,7.7,2.91,7.7,6.5s-3.45,6.5-7.7,6.5c-.04,0-.07,0-.11,0h0s-17.5,0-17.5,0c-.17,0-.34-.01-.5-.02v9.54c.17,0,.33-.02.5-.02h17.5s.07,0,.11,0c4.25,0,7.7,2.91,7.7,6.5s-3.45,6.5-7.7,6.5c-.04,0-.07,0-.11,0h0s-17.5,0-17.5,0c-.17,0-.34-.01-.5-.02v9.54c.17,0,.33-.02.5-.02h17.5s.07,0,.11,0c4.25,0,7.7,2.91,7.7,6.5s-3.45,6.5-7.7,6.5c-.04,0-.07,0-.11,0h0s-17.5,0-17.5,0c-.17,0-.34-.01-.5-.02v1.02h.01c0,.15-.01.3-.01.45,0,18.33,16.34,33.18,36.5,33.18s36.5-14.86,36.5-33.18c0-.15-.01-.3-.01-.45h.01v-58.18c0-18.33-16.34-33.18-36.5-33.18s-36.01,14.43-36.48,32.38l17.98-.02Z"/></svg>