<?xml version="1.0" encoding="UTF-8"?>
<svg id="Layer_1" xmlns="http://www.w3.org/2000/svg" xmlns:xlink="http://www.w3.org/1999/xlink" version="1.1" viewBox="0 0 203.7 105.3">
  <!-- Generator: Adobe Illustrator 29.1.0, SVG Export Plug-In . SVG Version: 2.1.0 Build 142)  -->
  <defs>
    <style>
      .st0 {
        fill: none;
      }

      .st1 {
        fill: #2d2926;
      }

      .st2 {
        fill: #a2412b;
      }

      .st3 {
        clip-path: url(#clippath);
      }
    </style>
    <clipPath id="clippath">
      <rect class="st0" x="24.8" y="19.1" width="154" height="67.1"/>
    </clipPath>
  </defs>
  <g class="st3">
    <path class="st2" d="M32.1,47.7c-.4,0-.9.2-.8.7,0,.4.5.7.9.4.2-.1.2-.2.2-.4,0-.3-.1-.6-.4-.7M51.5,47.6c-1,.4-.4,1.5.2,1.2.6-.2.7-1.2-.2-1.2M44.6,61c-.4.3-1,.6-1.5.7-.4.1-.8.2-1.3.2s-.4-.1-.6-.2c-.4-.1-.8-.2-1.2-.4-.9-.6-1.6-1.1-2-2-.2-.5-.3-1.2-.2-2v-.3c.3-.8.5-1.7,1-2.2.1,0,1.2-.8,1.4-.9.4-.1,1-.2,1.6-.3,2,0,3.7,1.5,4.1,3.7.3,1.5-.7,3.2-1.5,3.7M45.3,57.3c-.2-.7-.4-1.4-.9-1.9-.7-.7-2.1-1.1-3-1.1-.2,0-.7,0-1,.2-.9.5-1.5,1.5-1.8,2.6-.2.5,0,1.1,0,1.6.3,1.2.9,2,2.1,2.4.2,0,.4,0,.6.1.3.1,1,.2,1.5,0,1.7-.4,2.9-1.9,2.4-4M42,55.6c-.2,0-.7.1-.8.2-.5.1-.9.6-1,1.1-.5,1.2.7,3.2,2,3,2.9-.5,2.3-4.3-.1-4.2M42.3,58.8c-.8.2-1.6-.7-1.3-1.6.1-.4.5-.6.7-.6.5,0,.9.1,1.2.5.5.7-.2,1.5-.7,1.6M32.7,68.3c.2.1.7-.3.6-.7,0-.4-.6-.4-.9-.2-.1,0-.2.4-.1.5.1.1.2.3.3.4M52.5,69.4c.8-.2.7-1.5-.3-1.5-.9.4-.5,1.7.3,1.5M57.2,37.5c1.2,3.2,2.1,6.7,2.5,10.4,1.4,13.4,0,17.6-.9,21.9-1,4.3-3.5,8.9-7.8,12.2-4.3,3.3-8,5.2-12.4,3.8s-10.6-4.6-12-14c-1.4-9.4-2.1-14.6-1.5-21.4.2-2.9.4-7.1.8-11.4,10.4-.8,20.9-.6,31.3-1.4M32.6,46.4c-.4-.1-.9,0-1.3,0-.5.2-.9.5-1.2,1-.8,1.3.6,2.8,1.7,2.8,2.2,0,2.7-3.3.8-3.9M53.7,47.7c-.3-.9-.9-1.5-2-1.6-.2,0-.3,0-.5,0-.6.2-1,.4-1.4.8-1.2,1.5.1,3.1,1.6,3.4,1.3.3,2.6-1.4,2.2-2.7M46.8,56.7c-.4-.9-1.5-3-3.5-3.5-.4,0-.8-.1-1.3,0-.4,0-1.4.2-1.4.2-1.1.3-1.9.9-2.4,1.6-.3.5-.6,1.5-.7,2.4-.1.5-.3,1.2-.1,1.6.4,1.2,1.3,2.2,2.4,2.7h.1c.5.4,1.2.7,2,.7s.2,0,.3,0c2.4-.3,3.9-1.4,4.5-3.1.2-.7.3-1.8,0-2.5M33.1,65.7c-.1,0-.3,0-.4,0-.5.2-1,.4-1.3.9-.9,1.3,0,2.9,1.2,3.2.3,0,.5,0,.8,0,.5-.2.9-.5,1.2-.9.7-1.2,0-3.1-1.4-3.2M54.5,67.2c-.4-.7-1.2-.8-2-.9-.3,0-.5,0-.7.1-.5.1-1,.5-1.2.9-.8,1.2,0,3.2,1.2,3.5,1.9.4,3.6-2,2.8-3.6M56.6,35.9c-.3-.7-.6-1.4-.9-2.1-5,.5-10.6.4-14.6.5-6.1,0-9.8.4-14.8,1.1,0,.6-.2,1.2-.2,1.8,9.7-.5,20.6-.4,30.5-1.2M47.8,30.9c-6.6.2-14.4,1.7-20.9.9-.2.8-.3,1.7-.4,2.6,6.5-1.1,12.8-1.9,19.5-1.8,2.6,0,5.7-.4,8.8-.7-.1-.3-.3-.5-.4-.8-2.5,0-5.1-.2-6.5-.1M53.2,29.1c-2.1-3.7-4.1-6.1-4.7-6.8-1.4-1.5-5.1-3.2-8.7-3.2s-7.1,1.7-10.5,6c-1,1.2-1.7,3.2-2.2,5.6,8.9.3,17.4-.6,26.2-1.6M36,50.5c.1.1.2.2.3.3.3.3.5.6.7.8h0c.4.5.9,1,1.4,1.5,0,0,.1,0,.1,0h0s.1-.2.1-.3c0,0,0,0,0,0,0,0,0,0,0,0-.2-.3-.4-.5-.6-.7-.1-.1-.3-.3-.4-.4l-1.3-1.5-.8-.8c0,0-.2,0-.3,0,0,0-.2.1-.2.2h0s0,0,0,0c.2.3.5.6.8.9M36.3,49.2h0c0,0,.1,0,.1,0,.1,0,.2-.1.2-.2,0-.1,0-.3,0-.4h0c-.1-.1-.2-.2-.5-.2,0,0-.2,0-.2.1,0,0,0,.1,0,.2,0,0,0,.1,0,.2,0,.2.2.3.5.4M34.8,50.9c0,0,.1.1.2.2l1.8,1.9c0,0,0,.1.1.2.2.2.4.6.7.7h0s0,0,0,0c0,0,.2,0,.2-.2,0-.3-.3-.6-.5-.8,0,0-.2-.2-.2-.2-.4-.5-.8-.9-1.2-1.4-.1-.1-.2-.2-.3-.3-.2-.2-.5-.5-.7-.7,0,0,0,0-.1,0h0s0,0,0,0c0,0-.1,0-.2.1,0,0,0,.1,0,.2,0,.2.2.3.3.4M46.9,49.4c.1,0,.2-.3.3-.4,0-.1,0-.3-.1-.4,0,0-.3,0-.4,0,0,0-.2,0-.2.1,0,0,0,.3,0,.3,0,0,0,.2.1.3,0,0,.4.1.5,0M44.6,52.3s0,0,0,0c0,0,0,0,0,0,0,.1,0,.1.1.2h0c0,0,0,0,0,0,.3,0,.6-.3.8-.5,0,0,.1-.2.2-.2.2-.2.4-.3.7-.5.6-.4,1.4-1,1.7-1.6,0,0,0-.2,0-.2,0,0,0,0-.2,0s-.1,0-.2,0h0c-.6.5-1.2,1-1.7,1.5-.5.4-1,.9-1.5,1.3M37.1,50.2c.1,0,.2.1.4.1,0,0,0,0,0,0,0,0,.2-.2.2-.3,0,0,0-.2,0-.2,0,0,0-.2-.1-.3,0,0-.3-.1-.4-.1,0,0-.2,0-.2.1,0,0,0,0,0,0,0,0,0,0,0,.1,0,0,0,.3,0,.4,0,0,0,0,0,0M33.7,50.9s0,0,0,0c0,0,0,0,0,0,0,0,0,0,0,.1,0,.3.3.6.5.8,0,0,.2.1.2.2.3.3.6.7.9,1.1.5.6,1.1,1.3,1.7,1.8h0s.2,0,.2,0c0,0,.1-.1.2-.2,0,0,0,0,0,0-.9-1.2-3.3-3.7-3.4-3.8,0,0,0,0-.1,0h0ZM45.7,49.3s0,0-.1,0c-.1,0-.2.1-.3.4,0,0,0,0,0,.1,0,.1.3.3.4.3,0,0,0,0,0,0,0,0,.1,0,.1,0,.2,0,.2-.2.3-.4,0,0,0,0,0-.1,0,0,0,0,0-.1,0-.1-.2-.2-.4-.2,0,0,0,0,0,0M47.4,51.8s-1.4.9-2,1.6c0,0,0,.1,0,.2,0,0,0,0,.1,0,0,0,0,0,0,0,.3,0,.5-.2.7-.4,0,0,.2-.1.2-.2.2-.1,2.2-1.7,2.6-2.3,0,0,0,0,0,0,0,0,0,0,0-.2s-.1-.2-.2-.2c0,0-.1,0-.2.1,0,0,0,0,0,0-.3.2-.6.5-.9.8-.2.2-.4.4-.6.5M38.2,50.3s0,0,0,0c0,0,0,0-.1,0-.1,0-.2.2-.2.4,0,0,0,0,0,0,0,0,0,0,0,0,0,.1.1.2.3.3,0,0,0,0,0,0,0,0,.2,0,.3,0,0,0,0,0,0,0,.1,0,.2-.1.2-.2,0,0,0-.1,0-.2,0-.4-.4-.5-.5-.5M44.7,50.9c0,0,.2.1.3.1s.1,0,.2,0c.1,0,.2-.1.2-.3,0,0,0,0,0,0,0,0,0,0,0,0,0-.2-.1-.3-.4-.3,0,0,0,0,0,0,0,0-.2,0-.3.1,0,0,0,.3,0,.3,0,0,0,0,0,.1,0,0,0,0,0,0M47.4,54.1h0c0,0,0-.1.1-.2.2-.2.5-.4.8-.7,1-.8,1.8-1.5,1.9-1.9,0,0,0,0,0,0,0,0-.1-.1-.2-.1s0,0,0,0c0,0,0,0,0,0-.2.1-.3.3-.4.4,0,.1-.2.2-.3.3-.3.2-.5.4-.8.6-.2.2-.5.4-.7.6h-.2c0,.2-.1.2-.2.3-.4.3-.8.6-.9,1,0,0,0,.2,0,.2,0,0,0,0,0,0,0,0,.1,0,.2,0,.3,0,.6-.3.7-.6M33.5,52.1c0-.1-.2-.2-.3-.3,0,0-.3,0-.4,0,0,0-.2.2-.2.2h0c0,.2,0,.4.2.6.1.1.2.2.4.2s.2,0,.2-.1c0,0,.1-.2.1-.4,0,0,0,0,0,0M39.1,52.3c0,0,.3,0,.4,0,0,0,.1-.2.1-.3,0-.1,0-.3-.1-.4,0,0-.3-.2-.4-.2,0,0-.2.2-.2.3,0,0,0,0,0,0,0,.2,0,.4,0,.5,0,0,0,0,0,0,0,0,.2.1.2.1M43.9,52c0,0,.1,0,.2,0,0,0,.2-.2.3-.2,0,0,0-.2,0-.3,0,0-.1-.1-.2-.2,0,0-.2,0-.3,0,0,0-.2,0-.2,0,0,0-.1.1-.2.3,0,0,0,0,0,0s0,0,0,0c0,0,.1.3.4.3M34.5,53.2l-.2-.2s0,0,0,0c0,0-.3,0-.4,0,0,0-.1.2-.1.2h0c0,.3,0,.6.3.7,0,0,.1,0,.2,0,.1,0,.2,0,.3-.1,0-.1.1-.3,0-.4h0ZM51.3,52.7s0,0,0,0c0-.2,0-.3-.1-.4,0,0,0,0,0-.1-.1,0-.4-.1-.5,0,0,0-.2,0-.2.1,0,.1-.1.4,0,.5,0,0,.1.1.2.2,0,0,.2.1.4.1s.2,0,.2,0c0,0,.2-.1.2-.2M35,53.8c0,0-.2,0-.3,0,0,0-.2,0-.2.1,0,0,0,.3,0,.4,0,.1.2.3.4.4,0,0,0,0,0,0,.3,0,.4-.2.4-.3,0-.2-.1-.5-.4-.5M49.6,53.1s0,0,0,0c-.1,0-.3.3-.3.4,0,0,0,.2,0,.2,0,0,0,0,0,0,.1.2.4.3.5.3s0,0,0,0c0,0,.1,0,.2,0,0,0,.1-.2.2-.3,0,0,0,0,0,0,0-.2-.1-.5-.6-.5M49.3,54.5c0,0,0-.3,0-.3,0,0-.2-.2-.2-.2,0,0-.3,0-.4,0,0,0,0,0,0,0-.2.1-.2.3-.2.4,0,0,0,0,0,.2,0,0,0,0,0,0,0,0,.2.2.3.3,0,0,0,0,0,0,.3,0,.5-.2.6-.4M36,55.8s.1,0,.1,0c0,0,0,0,0,0,0,0,0,0,0,0,0,0,0-.1,0-.3,0,0,0,0,0,0,0,0-.2-.2-.3-.2,0,0-.3,0-.3,0,0,0-.4.1-.2.5,0,0,0,0,0,0,0,.2.2.2.4.2M48,55.7c0,0,0-.3,0-.4,0,0-.2-.2-.2-.2,0,0-.3,0-.4,0-.1,0-.3.3-.3.4,0,0,0,.3,0,.4,0,0,0,0,.1,0,0,0,.2.1.3.1,0,0,0,0,0,0,0,0,.2-.2.2-.3M35.3,59.4c0,0-.1.1-.1.2,0,.1,0,.4,0,.6,0,.1.2.2.3.3,0,0,.3,0,.3,0,0,0,.1,0,.1,0,0,0,0,0,0,0,.2-.2.2-.5,0-.7,0,0,0,0,0,0,0,0,0,0,0,0-.2,0-.3-.2-.6-.2,0,0-.1,0-.1,0M47.7,60c0,0,.2.2.3.3,0,0,0,0,0,0,0,0,.1,0,.2,0,.2,0,.4,0,.5-.3,0-.2,0-.3,0-.5,0-.2-.3-.3-.5-.3,0,0,0,0,0,0,0,0-.2,0-.2,0-.2.1-.2.2-.2.6,0,0,0,0,0,0M36.6,60.6h0s0,0,0,0M33.5,64.1s0,0,.2,0h0s0,0,0,0h0c.2,0,.4-.2.7-.6,0,0,.1-.2.2-.2.2-.2.4-.4.6-.6.2-.2.3-.4.5-.5,0,0,.2-.2.3-.2.4-.3.8-.7,1-1.2,0,0,0-.2-.1-.2,0,0-.1,0-.2,0s0,0,0,0c0,0,0,0,0,0,0,0,0,0,0,0-.3.2-.5.4-.7.7-.1.1-.2.2-.3.3h-.1c-.1.2-.3.4-.4.5-.6.5-1.2,1-1.6,1.7,0,0,0,0,0,0,0,0,0,.1.1.2M34.2,60.5c0,0-.2.1-.2.3,0,.2,0,.4,0,.5,0,0,0,0,0,0,0,0,.1.1.2.2,0,0,.3,0,.4,0,0,0,0,0,0,0,.2-.2.4-.5.3-.7,0-.1-.3-.6-.7-.2M48,61.8h0c0,0,.1.2.3.3,0,0,.2.2.2.2.7.7,1.1,1.2,1.6,1.8.3.3.5.7.9,1.1,0,0,0,0,0,0,0,0,0,0,0,0h0c0,0,.2,0,.2,0,0,0,0,0,0-.1,0-.3-.3-.5-.6-.9-.1-.1-.2-.2-.2-.3-.4-.5-.9-1.1-1.3-1.6-.3-.4-.6-.7-.9-1.1,0,0,0,0,0-.1h0c-.2-.3-.5-.7-.8-.7,0,0,0,0,0,0,0,0,0,0,0,0,0,0,0,0,0,0-.2,0-.2.2-.2.3.3.5.5.6,1,1.1M37.1,62.4s0,0,.1-.1h0c.2-.2.3-.3.5-.6,0,0,.1-.1.2-.2,0,0,0,0,0-.1,0,0-.2-.3-.4-.1h0c-.6.4-1.1,1-1.7,1.5-.2.2-.4.4-.6.6,0,0-.2.1-.3.2-.3.3-.6.5-.7.8,0,0,0,0,0,0,0,0,.1.1.3.1.2,0,.5-.2.8-.5.5-.6,1.2-1.3,1.7-1.8M49.6,61.7c.1,0,.3-.2.4-.3,0,0,0-.3,0-.4,0,0-.2-.3-.3-.3,0,0-.3,0-.4,0,0,0-.2.1-.2.2,0,.1,0,.5,0,.6,0,.1.3.3.5.2M33.1,61.9c0,.2-.2.5,0,.7,0,0,.2.2.3.2,0,0,0,0,0,0,.2-.1.3-.3.4-.5,0,0,0,0,0,0,0,0,0-.3,0-.3,0,0-.1-.1-.2-.1,0,0-.2,0-.3,0,0,0-.2.1-.3.2M50.5,65.7s0,0,0,0c0,0,0,0,0,0-.2-.4-.5-.7-.8-1h0c0,0-.1-.2-.2-.2l-1.8-2.1c-.3-.4-.7-1-1-1.1,0,0,0,0,0,0,0,0,0,0,0,0,0,0-.1,0-.1.1,0,0,0,.1,0,.2.5.7,2.6,3.1,2.7,3.1,0,0,.7,1,1,1.2.1.1.2.2.2.2,0,0,.1-.2.1-.3M36.6,64.6c.2-.1.3-.3.5-.4h0c.7-.6,1.3-1.2,1.9-1.9,0,0,0,0,0,0,0,0,0,0,0,0,0,0,0-.2,0-.2,0,0,0,0-.2,0s0,0-.1,0c0,0,0,0,0,0-.3.2-.6.5-.9.8-.1.1-.2.3-.4.4-.3.3-.6.5-.8.8h0c-.4.4-.9.8-1.3,1.2h0s0,0,0,0c0,0,0,.1,0,.2,0,0,.1.1.2.2,0,0,0,0,0,0h0c.3,0,.6-.4.8-.6,0-.1.2-.2.3-.3M49.6,66.1s0,0,0,0c-.2-.3-.4-.6-.6-.8-.2-.2-.3-.3-.5-.5-.3-.4-.6-.8-.9-1.1-.2-.3-.5-.5-.7-.8,0,0,0-.1-.1-.2-.3-.3-.5-.7-.8-.9,0,0,0,0,0,0,0,0,0,0,0,0,0,0-.1,0-.2,0h0s0,0,0,0c0,0,0,0,0,0,0,.3.3.7.6.9,0,0,.2.1.2.2.5.5.9,1.1,1.3,1.6.2.3.4.6.7.8,0,0,.1.2.2.3h0c.1.3.3.6.5.6,0,0,0,0,.1,0s0,0,0,0c0,0,.1-.2.1-.3,0,0,0,0,0,0M39.7,62.5s-.1,0-.2,0c0,0,0,0,0,0-.1.2-.2.4-.1.7,0,0,0,0,0,.1,0,0,.3.1.4.1,0,0,.3-.2.3-.2,0-.1,0-.4,0-.5,0,0,0-.2,0-.2,0,0-.3-.1-.3,0M50,62.6c0,.2,0,.3.3.4,0,0,.3,0,.4,0,0,0,0,0,0,0,.2-.1.3-.4.2-.6,0,0,0-.2,0-.3-.1,0,0,0-.2,0,0,0-.2,0-.3,0-.2.1-.2.2-.3.4,0,0,0,.2,0,.2M45.5,62.5c0-.1-.1-.2-.4-.2,0,0-.2,0-.2,0,0,0-.1.1-.1.2,0,.1,0,.4,0,.5,0,0,.2.2.3.2,0,0,.1,0,.1,0,.2,0,.2,0,.3-.2,0-.1.1-.2.1-.4,0,0,0,0,0,0,0,0,0,0,0,0M32.5,62.7s0,0,0,0c-.1.1-.2.2-.2.6,0,0,0,0,0,.1,0,.2.3.2.5.2,0,0,.3-.2.3-.3,0,0,0-.3,0-.4,0,0,0-.2,0-.2,0,0-.3,0-.4,0M38.9,63.5s0,0,0,0c0,0-.2,0-.3,0,0,0,0,0,0,0-.1,0-.3.3-.3.5,0,.1,0,.3.1.4,0,0,0,0,.1.1,0,0,.3,0,.3,0,0,0,0,0,.1-.1.1-.1.3-.3.3-.5,0,0,0-.1,0-.2,0,0,0,0,0,0,0-.1-.1-.2-.3-.2M46,64.3c0,0,.2,0,.3,0,0,0,.2-.1.2-.2,0,0,0-.3,0-.4,0,0-.1-.2-.2-.3-.1,0-.4-.1-.5,0-.1,0-.2.3-.2.5,0,0,0,.2,0,.2,0,0,.1.2.3.2M51.6,64.2c0,0,.2,0,.2-.1,0,0,0,0,0-.1,0-.1,0-.3,0-.5,0,0,0,0,0,0,0-.2-.3-.3-.4-.4,0,0,0,0,0,0,0,0,0,0-.1,0-.1,0-.2.1-.2.4,0,0,0,0,0,0,0,0,0,0,0,0,0,.2,0,.4.4.5,0,0,.2,0,.3,0M38.3,64.8c0,0-.2-.2-.3-.2,0,0-.3-.1-.4,0,0,0-.2,0-.2.1-.1.1-.2.3-.2.6,0,0,0,.2,0,.2,0,0,0,0,.1,0,0,0,0,0,.1,0,0,0,0,0,.1,0,.3,0,.4,0,.6-.2,0,0,0,0,0,0,0-.1.1-.3,0-.4M47.2,64.6c0,0-.3,0-.4,0,0,0-.1.1-.1.2,0,0-.1.2,0,.3,0,.1.3.3.4.3,0,0,.2,0,.3,0,0,0,.2-.3.2-.4,0-.1-.2-.3-.3-.4M36.9,65.6c-.1,0-.2,0-.3,0s0,0-.1,0c0,0-.2.2-.2.3,0,0,0,.3,0,.4,0,.1.3.3.4.3,0,0,.2,0,.2,0,0,0,0,0,0,0,.2,0,.3-.3.3-.5,0-.2,0-.3-.3-.4M47.9,65.8c-.1,0-.2.1-.2.2-.1.2,0,.4,0,.5,0,0,0,0,0,0,0,0,0,0,0,0,0,0,0,0,0,0,.1,0,.2.1.4.1,0,0,.1,0,.2,0,.1-.2.2-.3.1-.6,0,0,0-.1,0-.2-.2,0-.3-.2-.6-.1M38.2,47.6c.1.4.4,1.2.9.9.5-.3.3-2,.1-2.4-.5-1.6.5-3.2,1.8-3.5,2-.5,3.8,1.3,3.3,3.5,0,.3-.1.7-.3.9-.2.3-.3.5-.4.8-.1.5.3,1.2.8.9,1.3-.6,1.8-3.3,1.2-4.8-.3-.7-.6-1.2-1-1.8-.7-1.1-2.2-1.6-3.4-1.5-.3,0-.7.1-1,.2-.2,0-.4.2-.6.4-1.3.7-1.9,1.7-2.1,3.2,0,.6,0,1.8.1,2.4.1.2.2.4.3.6M59,57.1c-.6-1.5-1.4-2.4-2.9-3-.7-.3-1.6-.2-2.4-.3-.3,0-.6,0-.8.1-.8.2-1.7.6-1.6,1.4,0,.8,1.2.5,2,.5.3,0,.5,0,.8,0,1.9,0,3,.6,3.5,2.6,0,.4-.2.8-.3,1.1-.8,1.5-2.4,1-3.9.6-.7-.2-1.4.2-1.2.9.2.5,1.2.8,1.8.9,0,0,.6,0,.8.1.5.2,1.4.4,2.1,0,1.1-.5,1.9-1.7,2.3-2.9.3-.7,0-1.7-.2-2.3M33.4,59.2c-.3-.9-2.1-.1-2.8,0-1.5.3-2.8-.2-3.3-1.4.1-.3,0-.7.2-.9.5-.7,1.4-1.1,2.3-1.4.7-.2,1.9,0,2.4-.5.9-.8-.5-1.8-1.4-1.8-.5,0-1,.2-1.5.3-1.3.4-2.4,1-3.1,2-.2.3-.2.7-.3,1.2-.4,1.8,1.1,3.4,2.4,3.7,1.2.4,2.8.5,4.1.1.5-.1,1.3-.5,1.1-1.2M46.3,66.2c-.2-.6-.3-1-.8-1.2-.2,0-.4,0-.5.1-.3.9.4,1.5.2,2.4-.3,1.4-1,2.2-2.4,2.5-.4,0-.9,0-1.2-.1-.9-.5-1.6-1.5-1.3-2.9.2-.8.7-2,.4-2.4-.1,0-.2-.2-.4-.2-.3,0-.5.2-.7.4-.3.2-.4.6-.6.9-.3.6-.6,1.3-.7,2-.2.9.6,2.8,1.1,3.3.5.5,1.4,1,2.1,1.2.3,0,.7,0,.9,0h.6c.7-.1,1.5-.2,2.1-.6,1.3-1,2.1-2.7,1.5-4.7,0-.3-.2-.7-.2-.8"/>
  </g>
  <path class="st1" d="M73.7,40v4.8h4.3c1.3,0,2.3-1,2.3-2.4s-.9-2.4-2.3-2.4M77.8,32.4h-4.1v4.6h4c1.3,0,2.2-1,2.2-2.3s-.8-2.3-2.1-2.3M78,48.2h-8.1v-19.1h8c4,0,6.1,1.9,6.1,5.2s-.8,3.2-2.1,3.9v.2c1.7.6,2.7,2.1,2.7,4.2,0,3.6-2.4,5.6-6.4,5.6"/>
  <path class="st1" d="M94,43.5v-1.1c-.3-.2-.9-.4-1.9-.4-1.6,0-2.4.8-2.4,2s.8,1.9,1.9,1.9,2.4-1,2.4-2.4M97.6,48.2h-2.6l-.5-1.7h-.1c-.6,1.2-1.9,2-3.9,2s-4.4-1.8-4.4-4.2,1.9-4.4,5.5-4.4,1.8.2,2.3.3v-.4c0-1.7-1-2.3-2.8-2.3s-3.1,1-3.1,1l-1.2-2.8s1.8-1.2,5.1-1.2,5.7,2.2,5.7,5.4v8.2Z"/>
  <path class="st1" d="M101.4,34.8v-3.5l3.8-.9v4.4h2.9v3h-2.9v6c0,.9.4,1.5,1.2,1.5s1.2-.4,1.2-.4l1.1,2.6c-.6.4-1.9,1.1-3.3,1.1-2.9,0-4-1.9-4-4.6v-6.1h-2.1v-3"/>
  <path class="st1" d="M109.7,41.5c0-4,2.6-7,6.5-7s3.8,1.2,3.8,1.2l-1,2.7s-1.1-.8-2.5-.8-3,1.5-3,3.8,1.3,3.9,3,3.9,2.5-.8,2.5-.8l1,2.7s-1.3,1.2-3.8,1.2c-4,0-6.5-3-6.5-7"/>
  <path class="st1" d="M126,48.2h-3.8v-18.2l3.8-.9v7h.1c.6-1,1.7-1.6,3.3-1.6,2.9,0,4.8,2.3,4.8,6v7.7h-3.8v-7.7c0-1.6-.8-2.6-2.2-2.6s-2.2,1-2.2,2.3"/>
  <path class="st1" d="M140.2,39.9h4.4c-.1-1.6-.9-2.6-2.1-2.6s-2,.8-2.3,2.6M147.7,46.9s-1.5,1.6-4.6,1.6-6.6-3-6.6-7.1,2.5-7,6.1-7,5.7,2.6,5.7,6.7,0,1,0,1h-8.2c.2,2.3,1.3,3.3,3.2,3.3s3-1.1,3-1.1l1.3,2.5Z"/>
  <polyline class="st1" points="150.5 30 154.3 29.1 154.3 48.2 150.5 48.2"/>
  <path class="st1" d="M165.7,41.5c0-2.4-1.1-4-2.7-4s-2.7,1.6-2.7,4,1.1,4,2.7,4,2.7-1.5,2.7-4M163,48.5c-3.5,0-6.4-2.7-6.4-6.9s2.9-7.1,6.4-7.1,6.4,2.8,6.4,7.1-2.9,6.9-6.4,6.9"/>
  <path class="st1" d="M178.9,38h-.6c-1.5,0-2.7,1.2-2.7,3.1v7h-3.8v-13.4h2.3l.6,2h.2c.7-1.3,1.8-2,3.4-2h.7"/>
  <polyline class="st1" points="72.1 72.1 69.9 72.1 69.9 53.6 72.1 53"/>
  <path class="st1" d="M76.2,58.7h1.5l.2,2h.2c.9-1.4,2.2-2.3,4.2-2.3,3.2,0,5,2.3,5,5.9v7.8h-2.2v-7.5c0-2.6-1.1-4.3-3.3-4.3s-3.3,2.1-3.4,3.7v8.1h-2.2"/>
  <path class="st1" d="M91.1,69.2s1.7,1.3,4.1,1.3,2.6-.8,2.6-2c0-3-7.7-1.6-7.7-6.4s1.4-3.8,4.5-3.8,4.9,1.1,4.9,1.1l-.9,1.9s-1.5-1.1-3.8-1.1-2.7.6-2.7,1.8c0,2.9,7.7,1.2,7.7,6.3s-1.3,3.9-4.7,3.9-5.1-1.7-5.1-1.7"/>
  <path class="st1" d="M103.6,58.7v-3.5l2.2-.6v4.1h3.6v1.8h-3.6v7.9c0,1.4.5,2.2,1.7,2.2s1.8-.6,1.8-.6l.7,1.6s-1.1.9-2.7.9c-2.6,0-3.7-1.6-3.7-4.1v-7.8h-2.2v-1.8"/>
  <path class="st1" d="M112.2,58.7h2.2v13.4h-2.2v-13.4ZM111.8,54.3c0-.8.7-1.5,1.5-1.5s1.5.7,1.5,1.5-.6,1.5-1.5,1.5-1.5-.6-1.5-1.5"/>
  <path class="st1" d="M119,58.7v-3.5l2.2-.6v4.1h3.6v1.8h-3.6v7.9c0,1.4.5,2.2,1.7,2.2s1.8-.6,1.8-.6l.7,1.6s-1.1.9-2.7.9c-2.6,0-3.7-1.6-3.7-4.1v-7.8h-2.2v-1.8"/>
  <path class="st1" d="M138.5,72.1h-1.4l-.4-1.9h0c-.6,1.1-1.9,2.2-4.2,2.2s-4.9-1.9-4.9-5.5v-8.2h2.2v7.9c0,2.5,1,3.9,3.2,3.9s3.4-2.1,3.4-3.7v-8.2h2.2"/>
  <path class="st1" d="M143,58.7v-3.5l2.2-.6v4.1h3.6v1.8h-3.6v7.9c0,1.4.5,2.2,1.7,2.2s1.8-.6,1.8-.6l.7,1.6s-1.1.9-2.7.9c-2.6,0-3.7-1.6-3.7-4.1v-7.8h-2.2v-1.8"/>
  <path class="st1" d="M153.1,63.8h6.5c-.3-2.3-1.4-3.5-3.2-3.5s-3,1.1-3.4,3.5M161.3,70.9s-1.2,1.6-4.3,1.6-6.2-2.8-6.2-7,2.2-7,5.7-7,5.4,2.9,5.4,6.7v.5h-8.9c0,3.3,1.8,5,4.1,5s3.4-1.3,3.4-1.3l.8,1.6Z"/>
</svg>